<svg width="45" height="44" viewBox="0 0 45 44" fill="none" xmlns="http://www.w3.org/2000/svg">
<path d="M0.261719 17.617C0.261719 27.3306 8.16509 35.234 17.8788 35.234C21.7201 35.234 25.2302 33.9979 28.1222 31.9226L38.9839 42.8062C39.4916 43.3142 40.154 43.557 40.8604 43.557C42.3615 43.557 43.3991 42.4309 43.3991 40.9518C43.3991 40.2454 43.1342 39.6051 42.6707 39.1417L31.8753 28.2801C34.1491 25.3218 35.4957 21.635 35.4957 17.617C35.4957 7.90337 27.5923 0 17.8788 0C8.16509 0 0.261719 7.90337 0.261719 17.617ZM4.03679 17.617C4.03679 9.97857 10.2403 3.77507 17.8788 3.77507C25.5173 3.77507 31.7207 9.97857 31.7207 17.617C31.7207 25.2556 25.5173 31.459 17.8788 31.459C10.2403 31.459 4.03679 25.2556 4.03679 17.617Z" fill="white" fill-opacity="0.85"/>
</svg>
