<svg width="45" height="46" viewBox="0 0 45 46" fill="none" xmlns="http://www.w3.org/2000/svg">
<g clip-path="url(#clip0_2638_1955)">
<path d="M33.2143 5.12201H10.6094C10.6829 3.66645 11.6015 2.82959 13.1272 2.82959H30.6965C32.2221 2.82959 33.1408 3.66645 33.2143 5.12201Z" fill="white" fill-opacity="0.85"/>
<path d="M36.8729 10.2382C36.2968 10.1467 35.6859 10.1013 35.0435 10.1013H8.77025C8.12806 10.1013 7.51724 10.1467 6.94141 10.2382C7.13641 8.51757 8.30069 7.55811 10.203 7.55811H33.6288C35.5311 7.55811 36.6807 8.5176 36.8729 10.2382Z" fill="white" fill-opacity="0.85"/>
<path d="M8.77594 42.4815H35.0492C38.7925 42.4815 40.6728 40.6188 40.6728 36.9294V18.5363C40.6728 14.847 38.7925 12.9844 35.0492 12.9844H8.77594C5.03285 12.9844 3.15234 14.847 3.15234 18.5363V36.9294C3.15234 40.6188 5.03285 42.4815 8.77594 42.4815Z" fill="white" fill-opacity="0.85"/>
</g>
<defs>
<clipPath id="clip0_2638_1955">
<rect width="43.95" height="45.3649" fill="white" transform="translate(0.261719)"/>
</clipPath>
</defs>
</svg>
