<svg width="26" height="58" viewBox="0 0 26 58" fill="none" xmlns="http://www.w3.org/2000/svg">
<path d="M0 29.0143C0 29.8347 0.179158 30.5567 0.557382 31.1801L16.3432 56.6121C16.6816 57.2025 17.1196 57.4978 17.6371 57.4978C18.6723 57.4978 19.4685 56.2182 19.4685 54.5119C19.4685 53.6584 19.2496 52.9366 18.9311 52.3788L4.43914 29.0143L18.9311 5.64994C19.2496 5.09207 19.4685 4.33731 19.4685 3.51694C19.4685 1.81055 18.6723 0.530762 17.6371 0.530762C17.1196 0.530762 16.6816 0.826098 16.3432 1.38396L0.557382 26.8485C0.179158 27.4392 0 28.194 0 29.0143Z" fill="white" fill-opacity="0.85"/>
</svg>
