<svg width="44" height="41" viewBox="0 0 44 41" fill="none" xmlns="http://www.w3.org/2000/svg">
<path d="M0.261719 35.7V18.9C0.261719 18.02 0.261719 17.58 0.377055 17.1762C0.479208 16.8185 0.646991 16.4829 0.871846 16.1866C1.12572 15.852 1.47772 15.588 2.18172 15.06L19.3137 2.21098L19.3138 2.21097C20.3691 1.41945 20.8968 1.02369 21.4751 0.875619C21.9854 0.744949 22.5212 0.750968 23.0285 0.89307C23.6033 1.0541 24.122 1.46162 25.1593 2.27666L41.4273 15.0586C42.1006 15.5877 42.4373 15.8523 42.6798 16.1825C42.8946 16.475 43.0546 16.8041 43.1519 17.1537C43.2617 17.5484 43.2617 17.9766 43.2617 18.833V35.7C43.2617 37.3802 43.2617 38.2202 42.9347 38.862C42.6471 39.4265 42.1882 39.8854 41.6237 40.173C40.982 40.5 40.1419 40.5 38.4617 40.5H33.5617C31.8816 40.5 31.0415 40.5 30.3997 40.173C29.8353 39.8854 29.3763 39.4265 29.0887 38.862C28.7617 38.2202 28.7617 37.3802 28.7617 35.7V32.8C28.7617 31.1198 28.7617 30.2798 28.4347 29.638C28.1471 29.0735 27.6882 28.6146 27.1237 28.327C26.482 28 25.6419 28 23.9617 28H19.5617C17.8816 28 17.0415 28 16.3997 28.327C15.8353 28.6146 15.3763 29.0735 15.0887 29.638C14.7617 30.2798 14.7617 31.1198 14.7617 32.8V35.7C14.7617 37.3802 14.7617 38.2202 14.4347 38.862C14.1471 39.4265 13.6882 39.8854 13.1237 40.173C12.482 40.5 11.6419 40.5 9.96172 40.5H5.06172C3.38156 40.5 2.54148 40.5 1.89975 40.173C1.33526 39.8854 0.876319 39.4265 0.588699 38.862C0.261719 38.2202 0.261719 37.3802 0.261719 35.7Z" fill="white"/>
</svg>
