<svg width="44" height="44" viewBox="0 0 44 44" fill="none" xmlns="http://www.w3.org/2000/svg">
<g clip-path="url(#clip0_2624_2337)">
<path d="M0 17.617C0 27.3306 7.90338 35.234 17.617 35.234C21.4584 35.234 24.9685 33.9979 27.8605 31.9226L38.7221 42.8062C39.2299 43.3142 39.8923 43.557 40.5987 43.557C42.0998 43.557 43.1374 42.4309 43.1374 40.9518C43.1374 40.2454 42.8724 39.6051 42.409 39.1417L31.6136 28.2801C33.8873 25.3218 35.234 21.635 35.234 17.617C35.234 7.90337 27.3306 0 17.617 0C7.90338 0 0 7.90337 0 17.617ZM3.77508 17.617C3.77508 9.97857 9.97857 3.77507 17.617 3.77507C25.2556 3.77507 31.459 9.97857 31.459 17.617C31.459 25.2556 25.2556 31.459 17.617 31.459C9.97857 31.459 3.77508 25.2556 3.77508 17.617Z" fill="#1E1E1E" fill-opacity="0.85"/>
</g>
<defs>
<clipPath id="clip0_2624_2337">
<rect width="43.9544" height="43.557" fill="white"/>
</clipPath>
</defs>
</svg>
