<svg width="44" height="46" viewBox="0 0 44 46" fill="none" xmlns="http://www.w3.org/2000/svg">
<g clip-path="url(#clip0_2624_2345)">
<path d="M32.9526 5.12201H10.3477C10.4212 3.66645 11.3397 2.82959 12.8655 2.82959H30.4348C31.9604 2.82959 32.879 3.66645 32.9526 5.12201Z" fill="#1E1E1E" fill-opacity="0.85"/>
<path d="M36.6111 10.2382C36.0351 10.1467 35.4242 10.1013 34.7818 10.1013H8.50853C7.86634 10.1013 7.25553 10.1467 6.67969 10.2382C6.87469 8.51757 8.03897 7.55811 9.94129 7.55811H33.3671C35.2694 7.55811 36.4189 8.5176 36.6111 10.2382Z" fill="#1E1E1E" fill-opacity="0.85"/>
<path d="M8.51422 42.4815H34.7875C38.5307 42.4815 40.4111 40.6188 40.4111 36.9294V18.5363C40.4111 14.847 38.5307 12.9844 34.7875 12.9844H8.51422C4.77113 12.9844 2.89062 14.847 2.89062 18.5363V36.9294C2.89062 40.6188 4.77113 42.4815 8.51422 42.4815Z" fill="#1E1E1E" fill-opacity="0.85"/>
</g>
<defs>
<clipPath id="clip0_2624_2345">
<rect width="43.95" height="45.3649" fill="white"/>
</clipPath>
</defs>
</svg>
