<svg width="24" height="24" viewBox="0 0 24 24" fill="none" xmlns="http://www.w3.org/2000/svg">
<rect width="24" height="24" rx="5" fill="url(#paint0_linear_270_704)"/>
<path fill-rule="evenodd" clip-rule="evenodd" d="M10.3109 6.54502C10.0011 6.60882 9.7787 6.88162 9.7787 7.19799V9.48678C9.7787 9.48721 9.77834 9.48756 9.77791 9.48756C9.77748 9.48756 9.77713 9.48791 9.77713 9.48835V14.5431L9.77737 14.5909C9.77989 14.9316 9.78402 15.4901 8.77713 15.5431C7.72242 15.5986 6.66772 16.3197 6.66602 17.2076C6.66602 17.2089 6.66691 17.2099 6.66812 17.2101C6.66942 17.2104 6.67033 17.2115 6.67023 17.2128C6.66744 17.2485 6.66602 17.2845 6.66602 17.3208C6.66602 18.1799 7.46195 18.8763 8.44379 18.8763C8.74462 18.8763 9.028 18.8109 9.27637 18.6955C9.92521 18.486 10.5549 17.9453 10.5549 16.5987V9.98871C10.5549 9.83052 10.6661 9.69412 10.821 9.66222L16.1553 8.56399C16.3621 8.52142 16.5558 8.67936 16.5558 8.89048V13.1544L16.5561 13.2022C16.5586 13.5429 16.5627 14.1015 15.5558 14.1544C14.5011 14.21 13.4464 14.9311 13.4447 15.819C13.4447 15.8202 13.4456 15.8213 13.4468 15.8215C13.4481 15.8217 13.449 15.8229 13.4489 15.8242C13.4461 15.8598 13.4447 15.8958 13.4447 15.9321C13.4447 16.7912 14.2406 17.4876 15.2225 17.4876C15.5233 17.4876 15.8067 17.4223 16.0551 17.3069C16.7039 17.0973 17.3336 16.5567 17.3336 15.21V8.32173C17.3336 8.32154 17.3337 8.32137 17.3339 8.32133C17.3341 8.32129 17.3343 8.32112 17.3343 8.32093V5.64431C17.3343 5.36282 17.0759 5.15223 16.8002 5.209L10.3109 6.54502Z" fill="white"/>
<defs>
<linearGradient id="paint0_linear_270_704" x1="12" y1="0" x2="12" y2="24" gradientUnits="userSpaceOnUse">
<stop stop-color="#FB5976"/>
<stop offset="1" stop-color="#FA243B"/>
</linearGradient>
</defs>
</svg>
