<svg width="45" height="24" viewBox="0 0 45 24" fill="none" xmlns="http://www.w3.org/2000/svg">
<g clip-path="url(#clip0_270_719)">
<path d="M18.4084 23.7233C19.5711 23.7233 20.5548 22.829 20.5548 21.1745V2.85549C20.5548 1.20098 19.5711 0.306641 18.4084 0.306641C17.7974 0.306641 17.3054 0.500413 16.6943 0.858148L1.50547 9.80151C0.447169 10.4275 0 11.1579 0 12.0075C0 12.8721 0.447169 13.6024 1.50547 14.2285L16.6943 23.1718C17.2905 23.5296 17.7974 23.7233 18.4084 23.7233ZM38.8887 23.7233C40.0513 23.7233 41.0352 22.829 41.0352 21.1745V2.85549C41.0352 1.20098 40.0513 0.306641 38.8887 0.306641C38.2776 0.306641 37.7858 0.500413 37.1746 0.858148L21.9858 9.80151C20.9274 10.4275 20.4804 11.1579 20.4804 12.0075C20.4804 12.8721 20.9274 13.6024 21.9858 14.2285L37.1746 23.1718C37.7708 23.5296 38.2776 23.7233 38.8887 23.7233Z" fill="white" fill-opacity="0.5"/>
</g>
<defs>
<clipPath id="clip0_270_719">
<rect width="45" height="23.4465" fill="white" transform="translate(0 0.276855)"/>
</clipPath>
</defs>
</svg>
