<svg width="43" height="42" viewBox="0 0 43 42" fill="none" xmlns="http://www.w3.org/2000/svg">
<rect width="43" height="42" rx="21" fill="#34C759"/>
<path d="M19.896 31.1712C19.1529 31.1712 18.5375 30.8809 18.0499 30.3004L12.0588 23.1018C11.8421 22.8541 11.6872 22.6141 11.5944 22.3819C11.5092 22.1497 11.4666 21.9059 11.4666 21.6504C11.4666 21.0854 11.6563 20.6132 12.0356 20.2339C12.4226 19.8547 12.9064 19.665 13.4869 19.665C14.1294 19.665 14.6635 19.9243 15.0892 20.4429L19.8496 26.2715L29.2542 11.4679C29.4942 11.0886 29.7496 10.8216 30.0205 10.6667C30.2914 10.5042 30.6281 10.4229 31.0306 10.4229C31.6034 10.4229 32.0795 10.6087 32.4587 10.9802C32.8458 11.3518 33.0393 11.8201 33.0393 12.3851C33.0393 12.5941 33.0044 12.8109 32.9348 13.0353C32.8651 13.2598 32.7529 13.4881 32.5981 13.7204L21.7885 30.1959C21.3551 30.8461 20.7242 31.1712 19.896 31.1712Z" fill="white"/>
</svg>
