<svg width="51" height="50" viewBox="0 0 51 50" fill="none" xmlns="http://www.w3.org/2000/svg">
<g clip-path="url(#clip0_270_621)">
<path d="M25.0457 49.9757C38.8701 49.9757 50.0915 38.7801 50.0915 24.9878C50.0915 11.1955 38.8701 0 25.0457 0C11.2215 0 0 11.1955 0 24.9878C0 38.7801 11.2215 49.9757 25.0457 49.9757ZM25.0457 45.8109C13.505 45.8109 4.1743 36.5018 4.1743 24.9878C4.1743 13.4738 13.505 4.16464 25.0457 4.16464C36.5865 4.16464 45.9171 13.4738 45.9171 24.9878C45.9171 36.5018 36.5865 45.8109 25.0457 45.8109Z" fill="white" fill-opacity="0.5"/>
<path d="M25.2426 39.2699C31.1603 39.2699 35.8991 35.5953 37.839 31.2101C37.962 30.8917 37.9863 30.5977 37.9863 30.4751C37.9863 29.9608 37.5689 29.6176 37.1762 29.6176C36.9796 29.6176 36.7586 29.6911 36.4148 29.7892C35.3344 30.0832 33.8122 30.4261 32.1914 30.4261C24.997 30.4261 20.4298 25.9185 20.4298 18.9612C20.4298 17.2463 20.8227 15.4825 21.4611 13.8411C21.5593 13.6451 21.6084 13.4492 21.6084 13.2777C21.6084 12.7877 21.2401 12.4692 20.749 12.4692C20.5035 12.4692 20.2334 12.5182 20.0369 12.6162C14.9296 14.723 11.3691 19.6961 11.3691 25.4531C11.3691 33.0719 17.5815 39.2699 25.2426 39.2699Z" fill="white" fill-opacity="0.5"/>
</g>
<defs>
<clipPath id="clip0_270_621">
<rect width="51" height="50" fill="white"/>
</clipPath>
</defs>
</svg>
