<svg width="45" height="24" viewBox="0 0 45 24" fill="none" xmlns="http://www.w3.org/2000/svg">
<g clip-path="url(#clip0_270_727)">
<path d="M5.14416 24.0098C5.77022 24.0098 6.28939 23.8113 6.90017 23.4448L22.46 14.2829C23.5442 13.6416 24.0175 12.8934 24.0175 12.0078C24.0175 11.1374 23.5442 10.3892 22.46 9.74783L6.90017 0.585977C6.27411 0.219503 5.77022 0.0209961 5.14416 0.0209961C3.95311 0.0209961 2.94531 0.937182 2.94531 2.63212V21.3987C2.94531 23.0936 3.95311 24.0098 5.14416 24.0098ZM26.1248 24.0098C26.7509 24.0098 27.27 23.8113 27.8808 23.4448L43.456 14.2829C44.5249 13.6416 44.9982 12.8934 44.9982 12.0078C44.9982 11.1374 44.5249 10.3892 43.456 9.74783L27.8808 0.585977C27.27 0.219503 26.7509 0.0209961 26.1248 0.0209961C24.9338 0.0209961 23.9259 0.937182 23.9259 2.63212V21.3987C23.9259 23.0936 24.9338 24.0098 26.1248 24.0098Z" fill="white" fill-opacity="0.5"/>
</g>
<defs>
<clipPath id="clip0_270_727">
<rect width="45" height="24.0193" fill="white" transform="translate(0 -0.00976562)"/>
</clipPath>
</defs>
</svg>
