<svg width="53" height="50" viewBox="0 0 53 50" fill="none" xmlns="http://www.w3.org/2000/svg">
<g clip-path="url(#clip0_270_659)">
<path d="M36.8856 15.3546V20.5705C39.3321 20.9311 40.6277 22.6051 40.6277 25.5916V40.4094C40.6277 43.8074 38.9502 45.5278 35.8103 45.5278H23.3171C23.3301 45.059 23.274 44.5555 23.1432 44.0224L20.7774 34.323C20.6699 33.7855 20.6914 33.1188 20.6914 32.2584L21.5947 32.6242C24.3473 33.678 26.9282 32.3016 27.6164 29.8928C28.2832 27.7207 27.2292 25.355 24.799 24.3658L19.7451 22.2796C20.0173 21.7209 20.2131 21.124 20.3114 20.4946H33.4662V14.8814C33.4662 9.46183 29.982 6.57997 25.9605 6.57997C21.9388 6.57997 18.4547 9.46183 18.4547 14.8814V14.8913C17.5843 14.028 16.467 13.4134 15.2109 13.1612C16.0674 6.55172 20.8644 3.33252 25.9605 3.33252C31.5952 3.33252 36.8856 7.26817 36.8856 15.3546Z" fill="white" fill-opacity="0.5"/>
<path d="M13.917 23.0537C15.9171 23.0537 17.4656 21.4836 17.4656 19.5266C17.4656 17.5695 15.9171 15.978 13.917 15.978C11.9815 15.978 10.3685 17.5695 10.3685 19.5266C10.3685 21.4836 11.9815 23.0537 13.917 23.0537ZM13.8955 35.6992C14.3687 35.6992 14.7558 35.9789 14.8848 36.5165L17.315 45.8287C17.8527 47.8933 20.6915 47.1621 20.4119 45.205C20.2614 44.4309 18.1968 36.5596 17.8957 34.7961C17.6806 33.5056 17.7882 30.2152 17.7882 28.7313C17.7882 28.3226 18.1538 28.0431 18.5839 28.2367L22.6916 29.8926C23.8099 30.3442 24.5842 29.8067 24.7992 29.0753C25.0357 28.3442 24.7133 27.484 23.6809 27.0752L19.2721 25.2471C18.2183 24.817 17.315 24.6021 16.2827 24.4515C15.5515 24.7957 14.7558 25.0106 13.8955 25.0106C13.0353 25.0106 12.2611 24.7957 11.5298 24.4515C10.4975 24.6021 9.57277 24.817 8.54047 25.2471L4.11017 27.0752C3.09936 27.484 2.77677 28.3442 3.01334 29.0753C3.20689 29.8067 4.00263 30.3442 5.12095 29.8926L9.22867 28.2367C9.65879 28.0431 10.0244 28.3226 10.0244 28.7313C10.0244 30.2152 10.1319 33.5056 9.91687 34.7961C9.61578 36.5596 7.55117 44.4309 7.40063 45.205C7.09954 47.1621 9.95988 47.8933 10.4975 45.8287L12.9062 36.5165C13.0568 35.9789 13.4224 35.6992 13.8955 35.6992Z" fill="white" fill-opacity="0.5"/>
</g>
<defs>
<clipPath id="clip0_270_659">
<rect width="52.7176" height="50" fill="white"/>
</clipPath>
</defs>
</svg>
