<svg width="49" height="50" viewBox="0 0 49 50" fill="none" xmlns="http://www.w3.org/2000/svg">
<g clip-path="url(#clip0_270_768)">
<path d="M40.3815 25.9714C40.8067 25.9714 41.0978 25.6812 41.1425 25.2346C41.8812 19.272 42.1721 19.1157 48.2384 18.1331C48.7085 18.0661 48.9996 17.8205 48.9996 17.3962C48.9996 16.9719 48.7085 16.7039 48.328 16.6369C42.217 15.4757 41.8812 15.498 41.1425 9.53552C41.0978 9.08889 40.8067 8.79859 40.3815 8.79859C39.9785 8.79859 39.6876 9.0889 39.6204 9.5132C38.8592 15.565 38.6355 15.766 32.4349 16.6369C32.0544 16.6816 31.7633 16.9719 31.7633 17.3962C31.7633 17.7981 32.0544 18.0661 32.4349 18.1331C38.6355 19.3167 38.837 19.3167 39.6204 25.2792C39.6876 25.6812 39.9785 25.9714 40.3815 25.9714ZM29.6815 10.8531C29.9502 10.8531 30.0845 10.6967 30.1292 10.4511C30.8233 6.72176 30.8008 6.63243 34.6957 5.89549C34.9419 5.85083 35.1211 5.69451 35.1211 5.42655C35.1211 5.15856 34.9419 5.00224 34.6957 4.95758C30.8008 4.17597 30.9351 4.08665 30.1292 0.401965C30.0845 0.15632 29.9502 0 29.6815 0C29.4129 0 29.2563 0.15632 29.2114 0.401965C28.4279 4.08665 28.5623 4.17597 24.6674 4.95758C24.3987 5.00224 24.2422 5.15856 24.2422 5.42655C24.2422 5.69451 24.3987 5.85083 24.6674 5.89549C28.5623 6.67709 28.5176 6.72176 29.2114 10.4511C29.2563 10.6967 29.4129 10.8531 29.6815 10.8531Z" fill="white" fill-opacity="0.5"/>
<path d="M23.5492 46.3825C31.6301 46.3825 38.2111 42.3628 41.1885 35.3954C41.524 34.6138 41.4793 33.9216 41.0764 33.5196C40.763 33.1846 40.1363 33.14 39.4647 33.3856C37.6067 34.1226 35.5027 34.4798 33.0627 34.4798C22.9225 34.4798 16.3862 28.1377 16.3862 18.2225C16.3862 15.6991 16.8563 12.863 17.6174 11.3221C17.9979 10.5405 17.9979 9.84826 17.6397 9.44629C17.2592 8.99967 16.5653 8.93267 15.6923 9.26763C8.82021 11.9921 4.20898 19.1828 4.20898 27.3561C4.20898 38.2092 12.2451 46.3825 23.5492 46.3825Z" fill="white" fill-opacity="0.5"/>
</g>
<defs>
<clipPath id="clip0_270_768">
<rect width="49" height="50" fill="white"/>
</clipPath>
</defs>
</svg>
