<svg width="51" height="50" viewBox="0 0 51 50" fill="none" xmlns="http://www.w3.org/2000/svg">
<g clip-path="url(#clip0_270_640)">
<path d="M25.0457 49.9757C38.8701 49.9757 50.0915 38.7801 50.0915 24.9878C50.0915 11.1955 38.8701 0 25.0457 0C11.2215 0 0 11.1955 0 24.9878C0 38.7801 11.2215 49.9757 25.0457 49.9757ZM25.0457 45.8109C13.505 45.8109 4.1743 36.5018 4.1743 24.9878C4.1743 13.4738 13.505 4.16464 25.0457 4.16464C36.5865 4.16464 45.9171 13.4738 45.9171 24.9878C45.9171 36.5018 36.5865 45.8109 25.0457 45.8109Z" fill="white" fill-opacity="0.5"/>
<path d="M25.0465 28.9318C27.2563 28.9318 29.0244 27.1681 29.0244 24.9877C29.0244 23.6403 28.3614 22.4889 27.33 21.754L15.0282 13.0817C13.825 12.2243 12.5727 13.4737 13.4076 14.7231L21.5843 26.923C22.37 28.1233 23.5978 28.9318 25.0465 28.9318Z" fill="white" fill-opacity="0.5"/>
</g>
<defs>
<clipPath id="clip0_270_640">
<rect width="51" height="50" fill="white"/>
</clipPath>
</defs>
</svg>
