<svg width="70" height="50" viewBox="0 0 70 50" fill="none" xmlns="http://www.w3.org/2000/svg">
<g clip-path="url(#clip0_2225_2692)">
<path d="M4.523 21.0766C5.12146 21.6479 5.95932 21.6479 6.52784 21.0466C13.889 13.1993 23.5842 9.05013 34.4463 9.05013C45.3685 9.05013 55.1235 13.2294 62.4248 21.0766C62.9635 21.6178 63.7712 21.5877 64.3696 21.0165L68.4992 16.8674C69.0379 16.3261 69.0078 15.6647 68.589 15.1536C61.557 6.43436 48.3309 0.0302734 34.4463 0.0302734C20.5919 0.0302734 7.30586 6.43436 0.30379 15.1536C-0.115137 15.6647 -0.115137 16.3261 0.39356 16.8674L4.523 21.0766Z" fill="#0A84FF"/>
<path d="M16.9419 33.6439C17.6002 34.2754 18.4082 34.1852 19.0066 33.5239C22.5974 29.5249 28.4624 26.6085 34.447 26.6386C40.4917 26.6085 46.3565 29.6152 50.0071 33.6141C50.5458 34.2452 51.2941 34.2153 51.9523 33.6141L56.5905 28.9838C57.0691 28.5027 57.1291 27.8413 56.6802 27.3001C52.1618 21.7378 43.7832 17.5586 34.447 17.5586C25.111 17.5586 16.7325 21.7378 12.214 27.3001C11.7652 27.8413 11.7951 28.4426 12.3038 28.9838L16.9419 33.6439Z" fill="#0A84FF"/>
<path d="M34.4459 50.0001C35.1044 50.0001 35.6728 49.6996 36.84 48.5571L44.1412 41.5215C44.5901 41.0704 44.7096 40.4091 44.2908 39.8678C42.3456 37.3423 38.6653 35.1475 34.4459 35.1475C30.1071 35.1475 26.4265 37.4325 24.4815 40.0483C24.1823 40.5295 24.302 41.0704 24.7807 41.5215L32.0522 48.5571C33.219 49.6694 33.7877 50.0001 34.4459 50.0001Z" fill="#0A84FF"/>
</g>
<defs>
<clipPath id="clip0_2225_2692">
<rect width="70" height="50" fill="white"/>
</clipPath>
</defs>
</svg>
