<svg width="621" height="621" viewBox="0 0 621 621" fill="none" xmlns="http://www.w3.org/2000/svg">
<path d="M574.534 314.359C576.896 168.303 460.409 47.9874 314.354 45.6254C168.299 43.2634 47.9825 159.75 45.6205 305.805C43.2585 451.86 159.745 572.177 305.8 574.539C451.856 576.901 572.172 460.414 574.534 314.359Z" fill="#5B5C61"/>
<path d="M169.601 290.001C169.706 289.331 169.811 288.661 169.916 287.991C170.127 286.651 170.442 284.641 170.653 283.301L152.63 275.665C146.811 273.378 147.692 272.143 153.157 272.315L172.231 273.252C172.547 271.242 173.638 268.667 173.954 266.657L156.917 257.116C151.873 254.264 152.083 252.924 158.113 253.872L176.767 257.488C177.753 255.583 178.843 253.009 179.159 250.999L163.778 239.658C158.839 236.137 159.72 234.902 165.644 236.519L183.982 242.145C184.968 240.241 186.059 237.666 187.714 235.867L173.214 223.292C169.05 219.205 169.93 217.97 175.08 220.152L193.102 227.788C194.758 225.989 195.744 224.084 197.399 222.285L184.554 207.91C180.496 203.154 181.376 201.919 187.09 204.876L203.457 214.312C205.113 212.512 206.768 210.713 208.319 209.583L197.799 193.515C194.411 188.864 195.291 187.629 200.23 191.151L216.846 203.371C218.501 201.572 220.052 200.442 222.377 198.748L214.078 181.655C211.465 176.439 212.345 175.205 217.179 179.396L230.905 192.536C232.455 191.407 234.781 189.712 237.001 188.688L230.252 170.466C228.414 164.685 229.859 164.226 233.248 168.877L245.318 183.816C247.538 182.792 249.758 181.768 251.979 180.743L247.345 162.167C246.177 156.491 247.622 156.032 250.341 160.578L260.86 176.646C263.081 175.622 265.196 175.268 267.416 174.244L264.898 155.313C264.4 149.742 265.95 148.613 268.458 154.499L276.757 171.592C278.872 171.238 281.093 170.213 283.878 169.964L284.039 151.454C284.316 145.319 285.656 145.53 287.599 150.64L293.784 168.088C295.899 167.733 298.684 167.484 300.799 167.13L303.075 148.266C304.022 142.236 305.362 142.447 306.53 148.122L310.494 166.593C312.609 166.239 315.289 166.66 317.299 166.976L322.15 149.202C323.767 143.278 325.107 143.488 325.5 149.728L327.349 168.554C329.358 168.87 332.038 169.291 334.048 169.607C334.048 169.607 334.048 169.607 334.718 169.712L340.909 152.149C343.196 146.33 344.536 146.54 344.259 152.675L344.098 171.185C346.778 171.606 348.682 172.592 351.362 173.013L360.128 156.54C362.98 151.496 364.32 151.707 363.373 157.737L360.531 175.826C362.436 176.811 365.116 177.232 367.021 178.218L377.691 162.732C381.213 157.793 382.447 158.673 380.936 163.928L376.084 181.701C377.989 182.687 380.564 183.778 382.468 184.763L394.938 170.933C399.025 166.769 400.365 166.979 398.078 172.799L391.322 189.586C393.121 191.242 395.696 192.333 397.495 193.989L411.095 181.708C415.181 177.545 417.086 178.53 414.129 184.244L402.578 200.965C404.377 202.621 406.177 204.277 407.976 205.932L422.705 195.202C427.356 191.814 428.591 192.694 425.069 197.633L414.504 212.45C416.303 214.105 418.103 215.761 419.127 217.981L434.985 208.802C440.201 206.188 441.436 207.069 437.244 211.902L424.775 225.733C426.469 228.059 427.598 229.609 428.622 231.83L445.505 224.87C451.391 222.362 451.85 223.808 447.094 227.866L433.495 240.146C434.519 242.367 435.543 244.587 436.567 246.808L454.474 242.069C460.255 240.231 460.714 241.676 456.063 245.064L440.77 255.019C441.794 257.239 442.818 259.46 443.737 262.35L461.998 259.726C467.673 258.558 468.133 260.003 462.812 263.287L446.389 271.691C446.743 273.806 447.662 276.697 448.016 278.812L465.962 278.198C472.202 277.805 471.886 279.815 466.775 281.758L451.338 288.258C451.692 290.373 451.941 293.158 452.296 295.273L470.595 296.775C476.73 297.052 476.415 299.062 470.739 300.23L452.832 304.969C453.187 307.084 452.766 309.764 453.015 312.549L470.893 316.73C476.923 317.677 476.607 319.687 471.037 320.185L452.317 321.363C451.896 324.043 451.58 326.053 451.829 328.838L469.392 335.029C475.211 337.316 475.001 338.656 468.866 338.379L450.356 338.218C449.935 340.898 449.619 342.908 448.528 345.482L465.106 353.578C470.255 355.76 469.939 357.77 463.91 356.823L445.715 354.651C444.624 357.226 444.309 359.236 443.323 361.141L458.809 371.811C463.853 374.663 463.538 376.673 457.613 375.056L439.735 370.874C438.749 372.779 437.658 375.354 436.672 377.258L451.278 389.164C456.217 392.685 455.231 394.59 449.412 392.303L431.849 386.112C430.864 388.017 429.208 389.816 428.117 392.391L441.067 406.095C445.231 410.182 444.351 411.416 439.201 409.235L422.729 400.469C421.074 402.268 419.418 404.068 418.432 405.972L429.832 420.806C433.221 425.458 432.34 426.692 427.401 423.171L411.915 412.5C410.259 414.3 408.604 416.099 406.383 417.123L414.223 432.771C417.506 438.092 415.956 439.222 411.792 435.135L397.186 423.23C395.531 425.03 393.31 426.054 391.76 427.183L399.389 444.171C402.002 449.387 400.452 450.516 396.288 446.43L383.338 432.725C381.117 433.75 379.567 434.879 377.347 435.903L382.756 453.915C384.594 459.696 383.148 460.156 379.76 455.504L368.465 440C366.245 441.025 364.024 442.049 361.909 442.403L365.203 460.769C366.371 466.445 364.926 466.904 361.643 461.583L352.568 445.055C350.348 446.079 348.233 446.433 346.118 446.788L347.086 466.848C347.479 473.088 346.034 473.548 343.526 467.662L336.672 450.109C334.556 450.464 331.771 450.713 329.656 451.067L328.72 470.142C328.442 476.277 327.103 476.066 325.264 470.286L319.856 452.274C317.741 452.628 315.061 452.207 312.946 452.561L309.329 471.215C308.382 477.245 306.372 476.929 305.874 471.359L302.686 452.323C300.676 452.007 297.891 452.256 295.881 451.94L290.254 470.279C288.637 476.203 286.627 475.887 286.904 469.752L286.501 450.467C284.491 450.151 281.811 449.731 279.801 449.415L272.27 466.767C270.089 471.917 268.079 471.601 269.026 465.571L270.632 446.602C268.622 446.286 266.048 445.195 264.143 444.209L254.707 460.576C251.856 465.62 250.516 465.41 251.463 459.38L255.079 440.726C253.175 439.741 250.6 438.65 248.695 437.664L237.355 453.045C233.833 457.984 232.598 457.104 234.215 451.179L240.512 432.946C238.607 431.961 236.808 430.305 234.903 429.319L221.763 443.045C217.677 447.208 216.442 446.328 218.624 441.179L226.825 423.931C225.025 422.276 223.121 421.29 221.321 419.634L206.382 431.704C201.626 435.763 200.496 434.212 204.018 429.274L214.123 413.012C212.324 411.356 211.195 409.806 209.395 408.15L192.656 418.565C187.335 421.848 186.876 420.403 190.292 416.134L202.303 400.858C200.503 399.202 199.479 396.982 197.679 395.326L178.577 403.31C173.361 405.923 172.231 404.372 176.318 400.209L190.127 386.588C188.998 385.038 187.974 382.818 186.949 380.597L168.832 386.676C163.052 388.514 162.592 387.069 167.243 383.681L182.853 371.716C181.828 369.495 180.804 367.275 179.675 365.725L160.533 369.583C154.858 370.751 154.398 369.306 159.049 365.918L175.683 356.173C174.659 353.953 174.304 351.838 173.95 349.723L154.454 351.466C148.214 351.859 147.755 350.414 153.641 347.906L171.298 340.382C170.944 338.267 170.59 336.151 170.235 334.036L151.161 333.1C145.026 332.823 145.236 331.483 151.017 329.645L169.699 324.341C169.344 322.226 169.095 319.441 169.411 317.431L149.982 314.379C143.952 313.432 144.163 312.092 149.838 310.924L168.98 307.066C169.295 305.056 169.046 302.271 169.362 300.261L150.919 295.304C144.994 293.687 145.205 292.347 151.445 291.954L169.601 290.001ZM425.844 328.189C435.841 264.542 392.356 204.852 328.71 194.855C265.063 184.858 205.372 228.343 195.375 291.99C185.378 355.637 228.088 415.892 291.735 425.889C355.382 435.886 415.847 391.836 425.844 328.189Z" fill="#D5CCCC"/>
<path d="M169.601 290.001C169.706 289.331 169.811 288.661 169.916 287.991C170.127 286.651 170.442 284.641 170.653 283.301L152.63 275.665C146.811 273.378 147.692 272.143 153.157 272.315L172.231 273.252C172.547 271.242 173.638 268.667 173.954 266.657L156.917 257.116C151.873 254.264 152.083 252.924 158.113 253.872L176.767 257.488C177.753 255.583 178.843 253.009 179.159 250.999L163.778 239.658C158.839 236.137 159.72 234.902 165.644 236.519L183.982 242.145C184.968 240.241 186.059 237.666 187.714 235.867L173.214 223.292C169.05 219.205 169.93 217.97 175.08 220.152L193.102 227.788C194.758 225.989 195.744 224.084 197.399 222.285L184.554 207.91C180.496 203.154 181.376 201.919 187.09 204.876L203.457 214.312C205.113 212.512 206.768 210.713 208.319 209.583L197.799 193.515C194.411 188.864 195.291 187.629 200.23 191.151L216.846 203.371C218.501 201.572 220.052 200.442 222.377 198.748L214.078 181.655C211.465 176.439 212.345 175.205 217.179 179.396L230.905 192.536C232.455 191.407 234.781 189.712 237.001 188.688L230.252 170.466C228.414 164.685 229.859 164.226 233.248 168.877L245.318 183.816C247.538 182.792 249.758 181.768 251.979 180.743L247.345 162.167C246.177 156.491 247.622 156.032 250.341 160.578L260.86 176.646C263.081 175.622 265.196 175.268 267.416 174.244L264.898 155.313C264.4 149.742 265.95 148.613 268.458 154.499L276.757 171.592C278.872 171.238 281.093 170.213 283.878 169.964L284.039 151.454C284.316 145.319 285.656 145.53 287.599 150.64L293.784 168.088C295.899 167.733 298.684 167.484 300.799 167.13L303.075 148.266C304.022 142.236 305.362 142.447 306.53 148.122L310.494 166.593C312.609 166.239 315.289 166.66 317.299 166.976L322.15 149.202C323.767 143.278 325.107 143.488 325.5 149.728L327.349 168.554C329.358 168.87 332.038 169.291 334.048 169.607C334.048 169.607 334.048 169.607 334.718 169.712L340.909 152.149C343.196 146.33 344.536 146.54 344.259 152.675L344.098 171.185C346.778 171.606 348.682 172.592 351.362 173.013L360.128 156.54C362.98 151.496 364.32 151.707 363.373 157.737L360.531 175.826C362.436 176.811 365.116 177.232 367.021 178.218L377.691 162.732C381.213 157.793 382.447 158.673 380.936 163.928L376.084 181.701C377.989 182.687 380.564 183.778 382.468 184.763L394.938 170.933C399.025 166.769 400.365 166.979 398.078 172.799L391.322 189.586C393.121 191.242 395.696 192.333 397.495 193.989L411.095 181.708C415.181 177.545 417.086 178.53 414.129 184.244L402.578 200.965C404.377 202.621 406.177 204.277 407.976 205.932L422.705 195.202C427.356 191.814 428.591 192.694 425.069 197.633L414.504 212.45C416.303 214.105 418.103 215.761 419.127 217.981L434.985 208.802C440.201 206.188 441.436 207.069 437.244 211.902L424.775 225.733C426.469 228.059 427.598 229.609 428.622 231.83L445.505 224.87C451.391 222.362 451.85 223.808 447.094 227.866L433.495 240.146C434.519 242.367 435.543 244.587 436.567 246.808L454.474 242.069C460.255 240.231 460.714 241.676 456.063 245.064L440.77 255.019C441.794 257.239 442.818 259.46 443.737 262.35L461.998 259.726C467.673 258.558 468.133 260.003 462.812 263.287L446.389 271.691C446.743 273.806 447.662 276.697 448.016 278.812L465.962 278.198C472.202 277.805 471.886 279.815 466.775 281.758L451.338 288.258C451.692 290.373 451.941 293.158 452.296 295.273L470.595 296.775C476.73 297.052 476.415 299.062 470.739 300.23L452.832 304.969C453.187 307.084 452.766 309.764 453.015 312.549L470.893 316.73C476.923 317.677 476.607 319.687 471.037 320.185L452.317 321.363C451.896 324.043 451.58 326.053 451.829 328.838L469.392 335.029C475.211 337.316 475.001 338.656 468.866 338.379L450.356 338.218C449.935 340.898 449.619 342.908 448.528 345.482L465.106 353.578C470.255 355.76 469.939 357.77 463.91 356.823L445.715 354.651C444.624 357.226 444.309 359.236 443.323 361.141L458.809 371.811C463.853 374.663 463.538 376.673 457.613 375.056L439.735 370.874C438.749 372.779 437.658 375.354 436.672 377.258L451.278 389.164C456.217 392.685 455.231 394.59 449.412 392.303L431.849 386.112C430.864 388.017 429.208 389.816 428.117 392.391L441.067 406.095C445.231 410.182 444.351 411.416 439.201 409.235L422.729 400.469C421.074 402.268 419.418 404.068 418.432 405.972L429.832 420.806C433.221 425.458 432.34 426.692 427.401 423.171L411.915 412.5C410.259 414.3 408.604 416.099 406.383 417.123L414.223 432.771C417.506 438.092 415.956 439.222 411.792 435.135L397.186 423.23C395.531 425.03 393.31 426.054 391.76 427.183L399.389 444.171C402.002 449.387 400.452 450.516 396.288 446.43L383.338 432.725C381.117 433.75 379.567 434.879 377.347 435.903L382.756 453.915C384.594 459.696 383.148 460.156 379.76 455.504L368.465 440C366.245 441.025 364.024 442.049 361.909 442.403L365.203 460.769C366.371 466.445 364.926 466.904 361.643 461.583L352.568 445.055C350.348 446.079 348.233 446.433 346.118 446.788L347.086 466.848C347.479 473.088 346.034 473.548 343.526 467.662L336.672 450.109C334.556 450.464 331.771 450.713 329.656 451.067L328.72 470.142C328.442 476.277 327.103 476.066 325.264 470.286L319.856 452.274C317.741 452.628 315.061 452.207 312.946 452.561L309.329 471.215C308.382 477.245 306.372 476.929 305.874 471.359L302.686 452.323C300.676 452.007 297.891 452.256 295.881 451.94L290.254 470.279C288.637 476.203 286.627 475.887 286.904 469.752L286.501 450.467C284.491 450.151 281.811 449.731 279.801 449.415L272.27 466.767C270.089 471.917 268.079 471.601 269.026 465.571L270.632 446.602C268.622 446.286 266.048 445.195 264.143 444.209L254.707 460.576C251.856 465.62 250.516 465.41 251.463 459.38L255.079 440.726C253.175 439.741 250.6 438.65 248.695 437.664L237.355 453.045C233.833 457.984 232.598 457.104 234.215 451.179L240.512 432.946C238.607 431.961 236.808 430.305 234.903 429.319L221.763 443.045C217.677 447.208 216.442 446.328 218.624 441.179L226.825 423.931C225.025 422.276 223.121 421.29 221.321 419.634L206.382 431.704C201.626 435.763 200.496 434.212 204.018 429.274L214.123 413.012C212.324 411.356 211.195 409.806 209.395 408.15L192.656 418.565C187.335 421.848 186.876 420.403 190.292 416.134L202.303 400.858C200.503 399.202 199.479 396.982 197.679 395.326L178.577 403.31C173.361 405.923 172.231 404.372 176.318 400.209L190.127 386.588C188.998 385.038 187.974 382.818 186.949 380.597L168.832 386.676C163.052 388.514 162.592 387.069 167.243 383.681L182.853 371.716C181.828 369.495 180.804 367.275 179.675 365.725L160.533 369.583C154.858 370.751 154.398 369.306 159.049 365.918L175.683 356.173C174.659 353.953 174.304 351.838 173.95 349.723L154.454 351.466C148.214 351.859 147.755 350.414 153.641 347.906L171.298 340.382C170.944 338.267 170.59 336.151 170.235 334.036L151.161 333.1C145.026 332.823 145.236 331.483 151.017 329.645L169.699 324.341C169.344 322.226 169.095 319.441 169.411 317.431L149.982 314.379C143.952 313.432 144.163 312.092 149.838 310.924L168.98 307.066C169.295 305.056 169.046 302.271 169.362 300.261L150.919 295.304C144.994 293.687 145.205 292.347 151.445 291.954L169.601 290.001ZM425.844 328.189C435.841 264.542 392.356 204.852 328.71 194.855C265.063 184.858 205.372 228.343 195.375 291.99C185.378 355.637 228.088 415.892 291.735 425.889C355.382 435.886 415.847 391.836 425.844 328.189Z" fill="#7F7F7F"/>
<path d="M169.601 290.001C169.706 289.331 169.811 288.661 169.916 287.991C170.127 286.651 170.442 284.641 170.653 283.301L152.63 275.665C146.811 273.378 147.692 272.143 153.157 272.315L172.231 273.252C172.547 271.242 173.638 268.667 173.954 266.657L156.917 257.116C151.873 254.264 152.083 252.924 158.113 253.872L176.767 257.488C177.753 255.583 178.843 253.009 179.159 250.999L163.778 239.658C158.839 236.137 159.72 234.902 165.644 236.519L183.982 242.145C184.968 240.241 186.059 237.666 187.714 235.867L173.214 223.292C169.05 219.205 169.93 217.97 175.08 220.152L193.102 227.788C194.758 225.989 195.744 224.084 197.399 222.285L184.554 207.91C180.496 203.154 181.376 201.919 187.09 204.876L203.457 214.312C205.113 212.512 206.768 210.713 208.319 209.583L197.799 193.515C194.411 188.864 195.291 187.629 200.23 191.151L216.846 203.371C218.501 201.572 220.052 200.442 222.377 198.748L214.078 181.655C211.465 176.439 212.345 175.205 217.179 179.396L230.905 192.536C232.455 191.407 234.781 189.712 237.001 188.688L230.252 170.466C228.414 164.685 229.859 164.226 233.248 168.877L245.318 183.816C247.538 182.792 249.758 181.768 251.979 180.743L247.345 162.167C246.177 156.491 247.622 156.032 250.341 160.578L260.86 176.646C263.081 175.622 265.196 175.268 267.416 174.244L264.898 155.313C264.4 149.742 265.95 148.613 268.458 154.499L276.757 171.592C278.872 171.238 281.093 170.213 283.878 169.964L284.039 151.454C284.316 145.319 285.656 145.53 287.599 150.64L293.784 168.088C295.899 167.733 298.684 167.484 300.799 167.13L303.075 148.266C304.022 142.236 305.362 142.447 306.53 148.122L310.494 166.593C312.609 166.239 315.289 166.66 317.299 166.976L322.15 149.202C323.767 143.278 325.107 143.488 325.5 149.728L327.349 168.554C329.358 168.87 332.038 169.291 334.048 169.607C334.048 169.607 334.048 169.607 334.718 169.712L340.909 152.149C343.196 146.33 344.536 146.54 344.259 152.675L344.098 171.185C346.778 171.606 348.682 172.592 351.362 173.013L360.128 156.54C362.98 151.496 364.32 151.707 363.373 157.737L360.531 175.826C362.436 176.811 365.116 177.232 367.021 178.218L377.691 162.732C381.213 157.793 382.447 158.673 380.936 163.928L376.084 181.701C377.989 182.687 380.564 183.778 382.468 184.763L394.938 170.933C399.025 166.769 400.365 166.979 398.078 172.799L391.322 189.586C393.121 191.242 395.696 192.333 397.495 193.989L411.095 181.708C415.181 177.545 417.086 178.53 414.129 184.244L402.578 200.965C404.377 202.621 406.177 204.277 407.976 205.932L422.705 195.202C427.356 191.814 428.591 192.694 425.069 197.633L414.504 212.45C416.303 214.105 418.103 215.761 419.127 217.981L434.985 208.802C440.201 206.188 441.436 207.069 437.244 211.902L424.775 225.733C426.469 228.059 427.598 229.609 428.622 231.83L445.505 224.87C451.391 222.362 451.85 223.808 447.094 227.866L433.495 240.146C434.519 242.367 435.543 244.587 436.567 246.808L454.474 242.069C460.255 240.231 460.714 241.676 456.063 245.064L440.77 255.019C441.794 257.239 442.818 259.46 443.737 262.35L461.998 259.726C467.673 258.558 468.133 260.003 462.812 263.287L446.389 271.691C446.743 273.806 447.662 276.697 448.016 278.812L465.962 278.198C472.202 277.805 471.886 279.815 466.775 281.758L451.338 288.258C451.692 290.373 451.941 293.158 452.296 295.273L470.595 296.775C476.73 297.052 476.415 299.062 470.739 300.23L452.832 304.969C453.187 307.084 452.766 309.764 453.015 312.549L470.893 316.73C476.923 317.677 476.607 319.687 471.037 320.185L452.317 321.363C451.896 324.043 451.58 326.053 451.829 328.838L469.392 335.029C475.211 337.316 475.001 338.656 468.866 338.379L450.356 338.218C449.935 340.898 449.619 342.908 448.528 345.482L465.106 353.578C470.255 355.76 469.939 357.77 463.91 356.823L445.715 354.651C444.624 357.226 444.309 359.236 443.323 361.141L458.809 371.811C463.853 374.663 463.538 376.673 457.613 375.056L439.735 370.874C438.749 372.779 437.658 375.354 436.672 377.258L451.278 389.164C456.217 392.685 455.231 394.59 449.412 392.303L431.849 386.112C430.864 388.017 429.208 389.816 428.117 392.391L441.067 406.095C445.231 410.182 444.351 411.416 439.201 409.235L422.729 400.469C421.074 402.268 419.418 404.068 418.432 405.972L429.832 420.806C433.221 425.458 432.34 426.692 427.401 423.171L411.915 412.5C410.259 414.3 408.604 416.099 406.383 417.123L414.223 432.771C417.506 438.092 415.956 439.222 411.792 435.135L397.186 423.23C395.531 425.03 393.31 426.054 391.76 427.183L399.389 444.171C402.002 449.387 400.452 450.516 396.288 446.43L383.338 432.725C381.117 433.75 379.567 434.879 377.347 435.903L382.756 453.915C384.594 459.696 383.148 460.156 379.76 455.504L368.465 440C366.245 441.025 364.024 442.049 361.909 442.403L365.203 460.769C366.371 466.445 364.926 466.904 361.643 461.583L352.568 445.055C350.348 446.079 348.233 446.433 346.118 446.788L347.086 466.848C347.479 473.088 346.034 473.548 343.526 467.662L336.672 450.109C334.556 450.464 331.771 450.713 329.656 451.067L328.72 470.142C328.442 476.277 327.103 476.066 325.264 470.286L319.856 452.274C317.741 452.628 315.061 452.207 312.946 452.561L309.329 471.215C308.382 477.245 306.372 476.929 305.874 471.359L302.686 452.323C300.676 452.007 297.891 452.256 295.881 451.94L290.254 470.279C288.637 476.203 286.627 475.887 286.904 469.752L286.501 450.467C284.491 450.151 281.811 449.731 279.801 449.415L272.27 466.767C270.089 471.917 268.079 471.601 269.026 465.571L270.632 446.602C268.622 446.286 266.048 445.195 264.143 444.209L254.707 460.576C251.856 465.62 250.516 465.41 251.463 459.38L255.079 440.726C253.175 439.741 250.6 438.65 248.695 437.664L237.355 453.045C233.833 457.984 232.598 457.104 234.215 451.179L240.512 432.946C238.607 431.961 236.808 430.305 234.903 429.319L221.763 443.045C217.677 447.208 216.442 446.328 218.624 441.179L226.825 423.931C225.025 422.276 223.121 421.29 221.321 419.634L206.382 431.704C201.626 435.763 200.496 434.212 204.018 429.274L214.123 413.012C212.324 411.356 211.195 409.806 209.395 408.15L192.656 418.565C187.335 421.848 186.876 420.403 190.292 416.134L202.303 400.858C200.503 399.202 199.479 396.982 197.679 395.326L178.577 403.31C173.361 405.923 172.231 404.372 176.318 400.209L190.127 386.588C188.998 385.038 187.974 382.818 186.949 380.597L168.832 386.676C163.052 388.514 162.592 387.069 167.243 383.681L182.853 371.716C181.828 369.495 180.804 367.275 179.675 365.725L160.533 369.583C154.858 370.751 154.398 369.306 159.049 365.918L175.683 356.173C174.659 353.953 174.304 351.838 173.95 349.723L154.454 351.466C148.214 351.859 147.755 350.414 153.641 347.906L171.298 340.382C170.944 338.267 170.59 336.151 170.235 334.036L151.161 333.1C145.026 332.823 145.236 331.483 151.017 329.645L169.699 324.341C169.344 322.226 169.095 319.441 169.411 317.431L149.982 314.379C143.952 313.432 144.163 312.092 149.838 310.924L168.98 307.066C169.295 305.056 169.046 302.271 169.362 300.261L150.919 295.304C144.994 293.687 145.205 292.347 151.445 291.954L169.601 290.001ZM425.844 328.189C435.841 264.542 392.356 204.852 328.71 194.855C265.063 184.858 205.372 228.343 195.375 291.99C185.378 355.637 228.088 415.892 291.735 425.889C355.382 435.886 415.847 391.836 425.844 328.189Z" fill="#A9ADB2"/>
<path d="M326.132 72.2688C324.918 63.4316 322.884 63.3987 320.707 72.181L315.555 97.1937C314.877 97.1828 314.199 97.1718 313.521 97.1608C310.13 97.106 306.74 97.0512 303.349 96.9963L297.641 72.4863C295.749 63.6382 293.026 64.2724 292.205 73.0766L289.765 98.1332C285.686 98.7455 282.295 98.6907 278.216 99.303L269.784 75.4271C266.525 67.2352 264.491 67.2023 264.349 76.0175L264.621 101.118C260.541 101.73 257.129 103.032 253.05 103.644L241.884 81.0804C237.947 72.8775 235.891 74.2007 237.115 82.3598L240.778 107.515C237.366 108.816 233.275 110.107 229.863 111.408L215.963 90.157C210.659 82.6102 208.602 83.9335 211.183 92.1145L217.569 116.636C214.146 118.615 210.734 119.916 207.31 121.896L190.665 102.635C184.672 95.7553 182.616 97.0786 185.874 105.271L194.995 128.479C191.572 130.459 188.137 133.116 185.392 135.107L166.679 117.847C159.997 111.635 158.619 112.969 162.556 121.172L174.378 145.103C171.622 147.771 168.198 149.751 165.442 152.419L144.662 137.161C137.291 131.616 135.902 133.628 140.528 141.164L155.117 161.748C152.361 164.416 149.605 167.085 147.516 170.443L125.336 157.875C117.265 153.675 115.875 155.687 121.88 161.889L138.536 180.471C136.447 183.829 133.691 186.497 131.601 189.855L108.022 179.978C99.9393 176.456 98.5503 178.468 105.233 184.681L123.956 201.262C121.867 204.62 120.456 207.988 118.367 211.346L94.054 204.848C85.2717 202.671 84.5607 204.695 91.943 209.562L112.745 223.464C111.334 226.832 109.912 230.879 108.501 234.247L83.4659 230.451C74.6726 228.952 73.9616 230.976 82.033 235.176L104.224 247.065C102.813 250.434 102.069 254.491 101.325 258.549L76.2463 257.465C67.4311 257.323 66.7201 259.346 75.4805 262.879L99.0712 272.078C98.3273 276.136 97.5944 279.515 97.5286 283.584L73.0514 287.258C64.2253 287.793 64.1814 290.505 72.2856 292.671L96.5983 299.169C96.5544 301.881 96.5106 304.594 96.4667 307.306C96.4448 308.662 96.4228 310.018 96.4119 310.696L71.2347 315.716C62.3866 317.607 62.3537 319.641 71.1469 321.14L96.1925 324.258C96.1267 328.327 96.75 331.728 97.3623 335.808L73.4865 344.239C65.3055 346.82 65.2616 349.532 74.0768 349.675L99.1773 349.403C99.7896 353.482 100.413 356.884 101.703 360.974L78.4726 371.451C70.2697 375.388 70.9149 377.433 79.741 376.897L104.874 374.591C106.176 378.003 107.466 382.094 108.767 385.506L87.5272 398.728C79.9914 403.354 80.6366 405.399 89.4848 403.508L113.995 397.8C115.296 401.212 117.276 404.635 119.255 408.059L99.3272 424.015C92.4585 429.33 93.7818 431.386 101.963 428.805L125.839 420.374C127.818 423.797 129.798 427.221 131.788 429.966L113.861 447.989C107.649 454.672 108.983 456.05 117.186 452.113L139.75 440.947C142.418 443.703 144.398 447.127 147.066 449.883L131.819 469.985C126.274 477.356 128.286 478.745 135.144 474.108L156.395 460.208C159.063 462.964 161.732 465.72 165.079 468.488L151.844 489.978C146.977 497.36 148.978 499.428 155.858 493.434L175.107 477.467C177.787 479.545 181.133 482.313 184.491 484.402L173.947 507.292C170.425 515.375 172.437 516.764 178.65 510.082L195.909 491.369C199.267 493.458 202.624 495.547 205.993 496.958L198.817 521.26C195.962 530.031 198.663 530.753 203.531 523.371L218.1 503.259C221.468 504.67 224.826 506.759 228.872 508.181L224.398 533.204C222.899 541.998 224.923 542.709 229.112 535.315L241.679 513.136C245.048 514.547 249.105 515.291 252.474 516.702L251.39 541.78C251.248 550.595 253.271 551.306 256.793 543.224L265.992 519.633C270.05 520.377 273.429 521.11 277.487 521.854L280.471 546.998C281.007 555.825 283.041 555.857 285.885 547.764L293.061 523.462C297.13 523.528 300.509 524.261 304.578 524.327L308.918 549.493C310.132 558.33 312.844 558.374 314.343 549.581L318.139 524.546C322.208 524.612 325.609 523.989 329.678 524.055L336.742 548.587C339.312 557.446 341.357 556.801 342.178 547.996L343.262 522.918C347.341 522.305 350.743 521.682 354.822 521.07L365.299 544.301C369.236 552.503 371.281 551.858 370.746 543.032L368.439 517.899C372.529 516.608 375.931 515.985 380.021 514.695L392.554 536.602C397.18 544.138 399.226 543.493 397.334 534.645L392.315 509.467C395.727 508.166 399.151 506.187 403.241 504.896L418.519 524.813C423.834 531.682 425.88 531.037 423.31 522.177L415.556 498.313C418.98 496.333 422.403 494.354 425.827 492.374L441.838 508.912C447.842 515.113 449.898 513.79 445.95 506.265L435.473 483.034C438.897 481.055 441.653 478.387 444.409 475.718L463.822 491.632C470.515 497.167 472.571 495.843 467.945 488.307L454.723 467.067C457.479 464.399 460.236 461.73 462.992 459.062L484.483 472.296C491.865 477.164 493.254 475.151 487.939 468.283L471.983 448.355C474.739 445.686 476.828 442.329 479.595 438.982L502.475 450.204C510.546 454.405 511.935 452.392 505.253 446.18L487.23 428.253C489.319 424.896 491.408 421.538 493.497 418.181L517.099 426.701C525.192 429.545 526.581 427.533 519.888 421.999L499.797 406.074C501.208 402.705 503.297 399.347 504.719 395.301L529.732 400.453C538.514 402.63 539.236 399.929 531.843 395.739L510.352 382.505C511.763 379.136 513.185 375.09 513.918 371.71L539.642 374.839C548.446 375.66 549.157 373.637 541.086 369.436L518.195 358.892C518.939 354.835 519.672 351.455 520.416 347.397L545.527 346.447C554.354 345.911 554.386 343.877 546.293 341.033L521.992 333.857C522.735 329.8 522.801 325.731 522.856 322.341L548.011 318.678C556.848 317.464 556.881 315.43 548.099 313.253L523.086 308.101C523.152 304.032 523.207 300.642 522.595 296.562L547.116 290.176C555.975 287.606 555.33 285.561 546.525 284.74L521.458 282.978C520.845 278.899 520.222 275.498 519.61 271.418L542.819 262.298C551.011 259.039 550.365 256.993 541.55 256.851L517.773 259.179C517.161 255.1 515.859 251.688 514.558 248.275L536.465 235.742C544.001 231.116 543.356 229.071 534.508 230.963L509.342 235.304C508.04 231.891 506.75 227.801 504.77 224.377L525.354 209.788C532.901 204.484 531.578 202.428 522.719 204.998L499.554 211.406C497.575 207.982 495.595 204.559 493.616 201.136L512.198 184.479C519.078 178.486 517.755 176.43 509.563 179.689L486.343 189.488C484.364 186.064 481.695 183.308 479.716 179.885L496.308 160.483C501.842 153.79 500.519 151.734 492.983 156.36L471.076 168.892C468.407 166.136 465.739 163.38 463.07 160.624L476.972 139.822C481.839 132.44 480.505 131.062 472.958 136.366L453.041 151.644C450.373 148.888 447.015 146.799 444.347 144.042L456.247 121.174C460.447 113.102 458.435 111.713 452.234 117.717L433.629 135.73C430.271 133.641 427.592 131.563 424.234 129.473L432.755 105.872C435.599 97.7786 433.587 96.3895 428.053 103.083L412.138 122.495C408.781 120.406 405.412 118.995 401.377 116.895L407.196 92.5713C409.373 83.789 407.35 83.078 402.482 90.4603L388.57 111.94C385.201 110.529 381.154 109.107 377.786 107.696L380.904 82.6503C381.725 73.8461 379.701 73.1351 375.501 81.2064L364.279 104.086C360.221 103.342 356.853 101.931 352.795 101.187L352.523 76.0869C352.665 67.2717 349.964 66.5497 347.109 75.3211L340.622 98.9557C336.565 98.2118 333.174 98.1569 329.117 97.4131L326.132 72.2688ZM440.191 401.04C452.287 408.018 453.358 425.671 447.08 436.421C442.89 443.815 425.653 461.171 398.944 477.018C371.579 491.497 340.933 499.141 307.707 498.603C252.103 497.704 202.986 473.17 169.028 433.96C162.445 421.644 164.075 404.714 175.712 398.119L292.074 332.852C301.655 327.581 319.963 327.877 329.358 334.134L440.191 401.04ZM431.768 166.9C457.185 189.016 477.078 217.147 488.079 249.882C499.605 292.121 499.395 347.057 487.528 367.892C480.516 382.022 465.511 387.206 453.415 380.227L339.213 311.91C329.808 306.332 321.901 291.96 322.076 281.111L324.171 151.595C324.401 137.355 336.76 128.059 348.966 128.256C359.815 128.432 396.968 137.85 431.768 166.9ZM309.913 320.254C304.488 320.166 299.818 315.343 299.906 309.918C299.993 304.493 304.817 299.823 310.242 299.911C315.666 299.999 320.336 304.822 320.249 310.247C320.161 315.671 315.337 320.341 309.913 320.254ZM300.481 148.499L298.288 284.117C297.424 295.634 287.711 309.042 277.452 314.303L164.525 376.912C152.209 383.496 138.768 375.817 132.841 364.869C128.893 357.344 121.818 333.49 122.322 302.298C125.793 213.501 191.396 141.308 275.754 125.716C290.027 123.912 300.679 136.293 300.481 148.499Z" fill="#A9ADB2"/>
</svg>
