<svg width="300" height="180" viewBox="0 0 300 180" fill="none" xmlns="http://www.w3.org/2000/svg">
<rect width="300" height="180" fill="url(#paint0_linear_158_156)"/>
<path d="M149.56 24.8337C113.59 24.8337 84.6953 53.813 84.6953 89.7663C84.6953 125.72 113.591 154.699 149.56 154.699C185.526 154.699 214.398 125.72 214.398 89.7663C214.398 53.813 185.526 24.8337 149.56 24.8337Z" fill="#FF001C"/>
<path d="M107.029 69.4093C95.7465 69.4093 86.6938 78.4988 86.6938 89.7674C86.6938 101.036 95.7465 110.126 107.029 110.126C113.957 110.126 116.665 105.235 116.665 105.235V109.684H127.364V89.7671C127.364 78.4982 118.312 69.4089 107.029 69.4089V69.4093ZM107.029 80.0533C112.408 80.0533 116.72 84.3906 116.72 89.7678C116.72 95.1449 112.408 99.4822 107.029 99.4822C101.65 99.4822 97.3379 95.1449 97.3379 89.7678C97.3379 84.3906 101.65 80.0533 107.029 80.0533Z" fill="#010236"/>
<path d="M129.952 55.3893V89.7671C129.952 101.036 139.011 110.132 150.294 110.132C161.576 110.132 170.612 101.036 170.612 89.7671C170.612 78.4982 161.576 69.4018 150.294 69.4018C143.366 69.4018 140.648 74.3062 140.648 74.3062V55.3887L129.952 55.3893ZM150.294 80.052C155.673 80.052 159.986 84.3906 159.986 89.7677C159.986 95.1449 155.673 99.4835 150.294 99.4835C144.915 99.4835 140.601 95.1449 140.601 89.7677C140.601 84.3906 144.915 80.052 150.294 80.052Z" fill="#010236"/>
<path d="M192.692 69.4093C181.41 69.4093 172.357 78.4988 172.357 89.7674C172.357 101.036 181.41 110.126 192.692 110.126C202.431 110.126 210.511 103.353 212.54 94.2526H201.291C199.678 97.3559 196.447 99.4815 192.692 99.4815C187.313 99.4815 183.001 95.1443 183.001 89.7671C183.001 84.39 187.313 80.0527 192.692 80.0527C196.458 80.0527 199.706 82.1864 201.314 85.305H212.539C210.519 76.1934 202.439 69.4089 192.692 69.4089L192.692 69.4093Z" fill="#010236"/>
<defs>
<linearGradient id="paint0_linear_158_156" x1="150" y1="0" x2="150" y2="180" gradientUnits="userSpaceOnUse">
<stop stop-color="#01013C"/>
<stop offset="1" stop-color="#00071A"/>
</linearGradient>
</defs>
</svg>
