<svg width="300" height="180" viewBox="0 0 300 180" fill="none" xmlns="http://www.w3.org/2000/svg">
<rect width="300" height="180" fill="url(#paint0_linear_153_232)"/>
<path d="M108.833 120.5C109 120.167 109.333 120 109.666 119.833C111 119.5 112.333 119.167 113.666 119.167C117.333 119.167 120.666 120.5 123.333 122.833C123.666 123.167 123.666 123.667 123.5 124L116.666 135.667C115.333 138 112.833 139.333 110.333 139.333C108.833 139.333 107.333 138.833 106 137.833C103 135.667 102.333 131.333 104.166 128.167L108.833 120.5ZM197.666 102.667C201.5 102.667 204.833 105.5 205.166 109.167C205.5 113.5 202.166 117.167 198 117.167H189.166L195.666 128.333C197.5 131.5 196.833 135.833 193.833 138C192.5 139 191 139.5 189.5 139.5C187 139.5 184.5 138.167 183.166 135.833L167.5 108.667L155.166 87.3333C155 87.1667 155 87 155 86.6667C155 85.8333 154.833 85 154.833 84.1667C154.833 78.3333 156.166 72.5 158.833 67.8333C159.166 67.3333 160 67.3333 160.333 67.8333L180.666 102.5H197.666V102.667ZM159.333 103C163 105.167 165.333 109.333 165.333 114C165.333 115 165.166 115.833 165 116.833C165 117 164.666 117.167 164.5 117.167H141.166H102.333C98.1664 117.167 94.6664 113.5 95.1664 109.167C95.4997 105.333 98.833 102.667 102.666 102.667H119.166L141.666 64L135.5 53.5C133.333 49.8333 134.833 45 138.833 43.3333C142.333 41.8333 146.333 43.3333 148.333 46.5L150.166 49.6667L152.166 46.3333C154.333 42.6667 159.166 41.5 162.666 44C165.833 46.1667 166.5 50.5 164.5 53.8333L135.833 102.667H147.5H158.166C158.666 102.667 159 102.833 159.333 103Z" fill="white"/>
<defs>
<linearGradient id="paint0_linear_153_232" x1="150" y1="0" x2="150" y2="180" gradientUnits="userSpaceOnUse">
<stop stop-color="#19E6FF"/>
<stop offset="1" stop-color="#1C70F2"/>
</linearGradient>
</defs>
</svg>
