<svg width="300" height="180" viewBox="0 0 300 180" fill="none" xmlns="http://www.w3.org/2000/svg">
<rect width="300" height="180" fill="url(#paint0_linear_154_4561)"/>
<path d="M139.469 139.05L135.659 105.296C135.257 101.729 136.947 98.2508 140 96.3638C146.101 92.481 153.899 92.481 160 96.3638C163.053 98.2508 164.743 101.729 164.341 105.296L160.531 139.05C160.205 141.934 158.289 144.392 155.571 145.411L154.047 145.982C151.438 146.961 148.562 146.961 145.953 145.982L144.429 145.411C141.711 144.392 139.795 141.934 139.469 139.05Z" fill="white"/>
<circle cx="150" cy="75" r="12.5" fill="white"/>
<path fill-rule="evenodd" clip-rule="evenodd" d="M130.868 140.413C109.22 132.584 93.75 111.849 93.75 87.5C93.75 56.434 118.934 31.25 150 31.25C181.066 31.25 206.25 56.434 206.25 87.5C206.25 111.849 190.78 132.584 169.132 140.413L169.711 133.465C187.524 125.816 200 108.115 200 87.5C200 59.8858 177.614 37.5 150 37.5C122.386 37.5 100 59.8858 100 87.5C100 108.115 112.476 125.816 130.289 133.465L130.868 140.413ZM170.561 123.268C182.926 116.145 191.25 102.795 191.25 87.5C191.25 64.7183 172.782 46.25 150 46.25C127.218 46.25 108.75 64.7183 108.75 87.5C108.75 102.795 117.074 116.145 129.439 123.268L128.778 115.334C120.403 108.939 115 98.8507 115 87.5C115 68.17 130.67 52.5 150 52.5C169.33 52.5 185 68.17 185 87.5C185 98.8507 179.597 108.939 171.222 115.334L170.561 123.268Z" fill="white"/>
<defs>
<linearGradient id="paint0_linear_154_4561" x1="150" y1="0" x2="150" y2="180" gradientUnits="userSpaceOnUse">
<stop stop-color="#EF50FC"/>
<stop offset="1" stop-color="#862CC3"/>
</linearGradient>
</defs>
</svg>
