<svg width="300" height="180" viewBox="0 0 300 180" fill="none" xmlns="http://www.w3.org/2000/svg">
<rect width="300" height="180" fill="url(#paint0_linear_154_4439)"/>
<path fill-rule="evenodd" clip-rule="evenodd" d="M137.325 49.0898C135.001 49.5683 133.333 51.6143 133.333 53.9871V74.0782C133.333 74.0783 133.333 74.0783 133.333 74.0783C133.333 74.0783 133.333 74.0783 133.333 74.0784V109.079C133.333 109.194 133.334 109.313 133.335 109.437C133.354 111.992 133.385 116.181 125.833 116.579C117.923 116.995 110.013 122.403 110 129.062C110 129.072 110.007 129.08 110.016 129.081C110.026 129.083 110.032 129.092 110.032 129.101C110.011 129.369 110 129.639 110 129.912C110 136.355 115.97 141.578 123.333 141.578C125.592 141.578 127.719 141.087 129.583 140.22C134.448 138.647 139.167 134.591 139.167 124.495V74.915C139.167 73.7286 140.001 72.7056 141.163 72.4664L181.162 64.2311C182.713 63.9118 184.166 65.0964 184.166 66.6798V98.6617C184.166 98.7769 184.167 98.8966 184.168 99.0201C184.187 101.575 184.218 105.764 176.666 106.162C168.756 106.578 160.846 111.986 160.833 118.646C160.833 118.655 160.84 118.663 160.849 118.664C160.859 118.666 160.866 118.675 160.865 118.685C160.844 118.952 160.833 119.222 160.833 119.495C160.833 125.938 166.803 131.161 174.166 131.161C176.425 131.161 178.552 130.67 180.416 129.803C185.28 128.231 190 124.175 190 114.078L190 62.4117L190 60.745L190 42.3345C190 40.2233 188.062 38.6439 185.994 39.0697L137.325 49.0898Z" fill="white"/>
<defs>
<linearGradient id="paint0_linear_154_4439" x1="150" y1="0" x2="150" y2="180" gradientUnits="userSpaceOnUse">
<stop stop-color="#FB5976"/>
<stop offset="1" stop-color="#FA243B"/>
</linearGradient>
</defs>
</svg>
