<svg width="300" height="180" viewBox="0 0 300 180" fill="none" xmlns="http://www.w3.org/2000/svg">
<g clip-path="url(#clip0_154_4502)">
<rect width="300" height="180" fill="url(#paint0_linear_154_4502)"/>
<path d="M171.43 126.75C161.084 126.75 155.992 122.092 155.992 111.313V77.1334H147.759V69.3334H155.992V54.1126H165.742V69.3334H176.467V77.1334H165.742V111.258C165.742 117.271 168.397 118.95 173.434 118.95C174.572 118.95 175.655 118.788 176.467 118.733V126.371C175.276 126.533 173.272 126.75 171.43 126.75ZM202.433 125.667L181.687 69.3334H191.599L207.145 115.646H207.362L222.962 69.3334H232.766L212.074 125.667H202.433Z" fill="white"/>
<path d="M122.717 59.15C119.9 62.5625 115.133 65.1083 111.342 65.1083C110.908 65.1083 110.475 65.0541 110.204 65C110.15 64.7833 110.042 64.1333 110.042 63.4833C110.042 59.15 112.263 54.8166 114.646 52.1083C117.679 48.5333 122.771 45.8791 126.996 45.7166C127.104 46.2041 127.158 46.8 127.158 47.3958C127.158 51.7291 125.317 56.0083 122.717 59.15ZM125.696 66.0291C128.079 66.0291 136.692 66.2458 142.325 74.3708C141.838 74.75 133.279 79.5708 133.279 90.35C133.279 102.808 144.167 107.25 144.492 107.358C144.438 107.629 142.758 113.371 138.75 119.275C135.175 124.421 131.383 129.621 125.696 129.621C119.954 129.621 118.492 126.262 111.938 126.262C105.492 126.262 103.217 129.729 98.0167 129.729C92.7625 129.729 89.1334 124.908 84.9625 119.058C80.0875 112.125 76.1875 101.4 76.1875 91.2166C76.1875 74.9125 86.8042 66.2458 97.2584 66.2458C102.783 66.2458 107.388 69.875 110.908 69.875C114.213 69.875 119.358 66.0291 125.696 66.0291Z" fill="white"/>
</g>
<defs>
<linearGradient id="paint0_linear_154_4502" x1="150" y1="0" x2="150" y2="180" gradientUnits="userSpaceOnUse">
<stop stop-color="#3D3D3D"/>
<stop offset="1" stop-color="#030303"/>
</linearGradient>
<clipPath id="clip0_154_4502">
<rect width="300" height="180" fill="white"/>
</clipPath>
</defs>
</svg>
