<svg width="300" height="180" viewBox="0 0 300 180" fill="none" xmlns="http://www.w3.org/2000/svg">
<rect width="300" height="180" fill="url(#paint0_linear_154_4439)"/>
<g clip-path="url(#clip0_154_4439)">
<rect width="150" height="150" transform="translate(75 15)" fill="white"/>
<rect x="75" y="15" width="150" height="150" fill="url(#paint1_linear_154_4439)"/>
<path fill-rule="evenodd" clip-rule="evenodd" d="M132.325 47.5117C130.001 47.9902 128.333 50.0362 128.333 52.409V72.5001C128.333 72.5002 128.333 72.5002 128.333 72.5002C128.333 72.5002 128.333 72.5002 128.333 72.5003V107.5C128.333 107.616 128.334 107.735 128.335 107.859C128.354 110.414 128.385 114.603 120.833 115C112.923 115.417 105.013 120.825 105 127.484C105 127.494 105.007 127.502 105.016 127.503C105.026 127.505 105.032 127.513 105.032 127.523C105.011 127.791 105 128.061 105 128.334C105 134.777 110.97 140 118.333 140C120.592 140 122.719 139.509 124.583 138.642C129.448 137.069 134.167 133.013 134.167 122.917V73.3369C134.167 72.1505 135.001 71.1275 136.163 70.8883L176.162 62.653C177.713 62.3337 179.166 63.5183 179.166 65.1017V97.0835C179.166 97.1988 179.167 97.3185 179.168 97.442C179.187 99.9973 179.218 104.186 171.666 104.584C163.756 105 155.846 110.408 155.833 117.067C155.833 117.077 155.84 117.085 155.849 117.086C155.859 117.088 155.866 117.097 155.865 117.106C155.844 117.374 155.833 117.644 155.833 117.917C155.833 124.36 161.803 129.583 169.166 129.583C171.425 129.583 173.552 129.092 175.416 128.225C180.28 126.653 185 122.597 185 112.5L185 60.8335L185 59.1669L185 40.7564C185 38.6452 183.062 37.0658 180.994 37.4915L132.325 47.5117Z" fill="white"/>
</g>
<defs>
<linearGradient id="paint0_linear_154_4439" x1="150" y1="0" x2="150" y2="180" gradientUnits="userSpaceOnUse">
<stop stop-color="#FB5976"/>
<stop offset="1" stop-color="#FA243B"/>
</linearGradient>
<linearGradient id="paint1_linear_154_4439" x1="150" y1="15" x2="150" y2="165" gradientUnits="userSpaceOnUse">
<stop stop-color="#FB5976"/>
<stop offset="1" stop-color="#FA243B"/>
</linearGradient>
<clipPath id="clip0_154_4439">
<rect width="150" height="150" fill="white" transform="translate(75 15)"/>
</clipPath>
</defs>
</svg>
