<svg width="300" height="180" viewBox="0 0 300 180" fill="none" xmlns="http://www.w3.org/2000/svg">
<rect width="300" height="180" fill="url(#paint0_linear_154_4483)"/>
<path fill-rule="evenodd" clip-rule="evenodd" d="M142.368 96.6761V66.8407C137.886 67.5309 133.479 68.8644 129.29 70.8406L86.704 90.9282C81.8454 93.22 81.8454 100.132 86.704 102.424L129.29 122.511C142.058 128.534 156.838 128.587 169.649 122.656L213.309 102.443C218.223 100.168 218.223 93.1837 213.309 90.9089L169.649 70.6959C165.433 68.7441 161.004 67.4404 156.503 66.7842V96.6761C156.503 100.579 153.339 103.744 149.436 103.744C145.532 103.744 142.368 100.579 142.368 96.6761ZM108.755 102.33C114.22 102.33 118.65 99.7984 118.65 96.6757C118.65 93.553 114.22 91.0216 108.755 91.0216C103.291 91.0216 98.8605 93.553 98.8605 96.6757C98.8605 99.7984 103.291 102.33 108.755 102.33Z" fill="white"/>
<path d="M134.313 132.325L85.2369 110.398C84.186 109.928 83 110.697 83 111.848V117.067C83 120.15 84.7839 122.955 87.5762 124.262L129.229 143.759C142.034 149.753 156.838 149.753 169.642 143.759L211.295 124.262C214.088 122.955 215.872 120.15 215.872 117.067V111.848C215.872 110.697 214.686 109.928 213.635 110.398L164.559 132.325C154.935 136.625 143.936 136.625 134.313 132.325Z" fill="white"/>
<path d="M167.812 44.3758C167.812 54.5245 159.584 62.7517 149.436 62.7517C139.287 62.7517 131.06 54.5245 131.06 44.3758C131.06 34.2271 139.287 26 149.436 26C159.584 26 167.812 34.2271 167.812 44.3758Z" fill="white"/>
<defs>
<linearGradient id="paint0_linear_154_4483" x1="150" y1="0" x2="150" y2="180" gradientUnits="userSpaceOnUse">
<stop stop-color="#FF6F58"/>
<stop offset="1" stop-color="#FF3667"/>
</linearGradient>
</defs>
</svg>
