<svg width="300" height="180" viewBox="0 0 300 180" fill="none" xmlns="http://www.w3.org/2000/svg">
<rect width="300" height="180" fill="url(#paint0_linear_158_141)"/>
<g clip-path="url(#clip0_158_141)">
<path d="M102.987 89.905C103.011 107.575 88.7074 121.918 71.0375 121.943C71.0228 121.943 71.008 121.943 70.9933 121.943C53.3379 121.908 39.0342 107.605 39 89.9491C39.0586 72.311 53.3554 58.0342 70.9933 58C88.663 58 102.987 72.3239 102.987 89.9935V89.905ZM101.058 89.905C98.5526 84.3816 94.5115 79.6952 89.4164 76.4051C83.9936 72.6946 77.5641 70.7344 70.9935 70.7885C64.3959 70.7399 57.9402 72.6986 52.4816 76.4051C47.4258 79.7156 43.4182 84.398 40.9283 89.905C43.4273 95.4265 47.4313 100.133 52.4816 103.484C57.9584 107.142 64.4079 109.071 70.9935 109.021C77.5527 109.078 83.9756 107.148 89.4164 103.484C94.5058 100.153 98.5435 95.4436 101.058 89.905ZM88.0125 89.905C88.0165 99.2793 80.4201 106.883 71.0455 106.887C66.5387 106.889 62.2168 105.099 59.0311 101.911C52.405 95.2849 52.405 84.5419 59.0311 77.9161C65.6575 71.2898 76.4006 71.2898 83.0264 77.9161C86.2827 81.0454 88.0893 85.389 88.0125 89.905Z" fill="white"/>
<path d="M108.684 89.9048C108.684 73.3833 122.307 59.7594 140.073 59.7594C149.528 59.7137 158.492 63.9636 164.442 71.3127L156.221 79.5778C156.221 79.5778 150.444 71.3216 140.118 71.3216C129.855 71.3216 121.535 79.6417 121.535 89.9048C121.535 100.168 129.855 108.488 140.118 108.488C150.853 108.488 156.639 100.232 156.639 100.232L164.895 108.488C158.828 115.913 149.706 120.167 140.118 120.041C122.308 120.059 108.684 106.426 108.684 89.9048Z" fill="white"/>
<path d="M169.48 60.9946H193.849C205.402 60.9946 212.432 68.0154 212.432 76.2804C212.501 81.4972 209.396 86.2336 204.584 88.2516C204.584 88.2516 215.32 91.1484 215.32 102.293C215.32 111.384 207.89 118.814 195.502 118.814H169.48V60.9946ZM193.022 83.3014C197.155 83.3014 199.625 80.8219 199.625 77.5159C199.625 74.2096 197.155 71.7301 193.022 71.7301H181.869V83.2832L193.022 83.3014ZM194.675 108.079C199.625 108.079 202.523 105.19 202.523 101.058C202.523 96.9251 199.625 94.0373 194.675 94.0373H181.869V108.079H194.675Z" fill="white"/>
<path d="M216.813 110.967L225.069 102.711C228.531 106.616 233.483 108.876 238.702 108.932C245.305 108.932 248.202 106.044 248.202 102.32C248.202 92.4104 219.284 96.9876 219.284 76.7161C219.284 67.6332 227.131 59.8303 240.355 59.8303C253.152 59.8303 259.764 67.6778 259.764 67.6778L251.499 75.934C248.743 72.8906 244.868 71.1004 240.764 70.9747C234.543 70.9747 232.09 73.4542 232.09 76.7603C232.09 86.6692 261 82.0925 261 102.364C261 111.864 252.744 120.138 239.111 120.138C224.242 120.059 216.813 110.967 216.813 110.967Z" fill="white"/>
</g>
<defs>
<linearGradient id="paint0_linear_158_141" x1="25" y1="78.5" x2="198" y2="90" gradientUnits="userSpaceOnUse">
<stop stop-color="#00003C"/>
<stop offset="1" stop-color="#00071A"/>
</linearGradient>
<clipPath id="clip0_158_141">
<rect width="222" height="63.9429" fill="white" transform="translate(39 58)"/>
</clipPath>
</defs>
</svg>
