<svg width="300" height="180" viewBox="0 0 300 180" fill="none" xmlns="http://www.w3.org/2000/svg">
<rect width="300" height="180" fill="url(#paint0_linear_154_4610)"/>
<g clip-path="url(#clip0_154_4610)">
<path d="M114 65.1289C106.374 65.1189 101.324 69.1386 100.614 75.1491C100.448 76.5382 100.277 77.9267 100.102 79.3146H199.322C199.322 79.3146 199.508 77.8504 199.653 76.6752C200.399 70.6203 197.827 65.1297 188.469 65.1297V65.1304C188.469 65.1304 118.02 65.1334 114 65.1289ZM53.4474 65.1308L51.7061 79.3146H96.7024L98.4372 65.1311H53.4467H53.4474V65.1308ZM204.49 65.1308L202.753 79.3146H251.532C251.532 79.3146 251.591 78.8018 251.808 77.1322C252.995 67.822 246.988 65.1308 241.189 65.1308H204.49ZM202.081 84.7153L198.28 115.671L215.109 115.665L218.913 84.7212L202.081 84.7146V84.7153ZM234.052 84.7153L230.245 115.671L247.074 115.665L250.878 84.7212L234.052 84.7146V84.7153ZM51.0496 84.7197L47.2419 115.673H92.2354L93.8931 102.245L65.7193 102.242L66.432 96.4514H94.5947L96.0364 84.7205H51.0518L51.0496 84.7197ZM99.4415 84.7197C98.207 92.7984 102.251 96.4503 107.982 96.4503C111.099 96.4503 130.747 96.4414 130.747 96.4414L130.036 102.241L97.2923 102.244L95.6434 115.671C95.6434 115.671 131.291 115.683 132.736 115.671C133.929 115.586 142.268 115.358 145.107 108.537C146.028 106.323 146.842 98.3833 147.07 96.7167C148.381 87.0365 141.679 84.7286 136.401 84.7286C133.491 84.7286 105.187 84.7197 99.4415 84.7197ZM151.821 84.7197L148.02 115.673H164.84L167.208 96.4514H188.336C194.328 96.4514 197.548 93.2298 198.146 88.9037C198.337 87.5117 198.51 86.1171 198.664 84.7205H151.821V84.7197Z" fill="#E52534"/>
</g>
<defs>
<linearGradient id="paint0_linear_154_4610" x1="150" y1="0" x2="150" y2="180" gradientUnits="userSpaceOnUse">
<stop stop-color="white"/>
<stop offset="1" stop-color="#E0E0E0"/>
</linearGradient>
<clipPath id="clip0_154_4610">
<rect width="205" height="50.695" fill="white" transform="translate(47 65)"/>
</clipPath>
</defs>
</svg>
