<svg width="300" height="180" viewBox="0 0 300 180" fill="none" xmlns="http://www.w3.org/2000/svg">
<rect width="300" height="180" fill="black"/>
<path fill-rule="evenodd" clip-rule="evenodd" d="M85.2572 103.994V50H118.032L119.042 64.7676H100.688V71.8057H115.642V86.5429H100.581V103.994H85.2572ZM211.495 103.834L195.095 75.821L209.994 50H193.581L186.775 61.6229L180.084 50H163.105L178.286 76L162.206 103.867L178.701 103.859L186.573 90.2133L194.53 103.834H211.495Z" fill="white"/>
<path fill-rule="evenodd" clip-rule="evenodd" d="M149.219 87.8476V66.2742C149.219 63.819 147.063 61.6114 144.629 61.6114C142.206 61.6114 140.24 63.8209 140.24 66.2742L140.23 87.779C140.23 90.2419 142.206 92.2361 144.63 92.2361C147.063 92.2361 149.221 90.3104 149.221 87.8438L149.219 87.8476ZM118.625 77.0628C118.625 62.5752 130.232 50.8152 144.552 50.8152C158.886 50.8152 170.497 62.5752 170.497 77.0628C170.497 91.5714 158.886 103.322 144.552 103.322C130.232 103.322 118.625 91.5714 118.625 77.0628ZM84 127.43V124.64L85.4381 123.259H97.0667L97.5048 122.825V119.867L97.1886 119.547H86.3943L84 117.175V110.375L86.7619 107.638H102.41V110.648L101.286 111.79H89.9314L89.4933 112.225V115.112L89.8095 115.423H100.581L102.973 117.804V124.695L100.217 127.429L84 127.43ZM119.389 117.221L120.194 116.425V112.634L119.389 111.836H111.897V117.221H119.389ZM106.398 107.64H122.638L125.714 110.688V118.023L122.638 121.076H111.897V127.43H106.398V107.64ZM141.577 122.796L142.712 121.691V113.051L141.577 111.933H135.185L134.065 113.051V121.689L135.185 122.796H141.577ZM128.596 124.387V110.689L131.644 107.638H145.124L148.2 110.689V124.387L145.124 127.43H131.646L128.596 124.387ZM164.68 116.129L165.461 115.354V112.469L164.68 111.693H157.28V116.129H164.68ZM151.79 107.638H168.198L170.96 110.373V116.691L168.324 119.307L171.792 127.43H165.682L163.099 120.251H157.282V127.432H151.79V107.638ZM179.162 112.225H172.811V107.638H191.008V112.225H184.659V127.43H179.164L179.162 112.225ZM193.973 127.975V125.181L195.415 123.8H207.042L207.48 123.368V120.408L207.164 120.089H196.373L193.973 117.716V110.916L196.735 108.179H212.387V111.189L211.263 112.331H199.914L199.474 112.766V115.653L199.789 115.966H210.564L212.954 118.347V125.238L210.192 127.975H193.973Z" fill="white"/>
</svg>
