<svg width="300" height="180" viewBox="0 0 300 180" fill="none" xmlns="http://www.w3.org/2000/svg">
<rect width="300" height="180" fill="url(#paint0_linear_154_4653)"/>
<g clip-path="url(#clip0_154_4653)">
<path d="M143.652 76.8411C143.652 76.8411 143.652 104.143 143.652 105.087C143.652 107.586 141.631 109.613 139.116 109.613H129.285C126.78 109.613 124.749 107.586 124.749 105.087C124.749 104.143 124.749 76.8411 124.749 76.8411H107.827V106.494C107.827 118.615 115.597 125 127.086 125H141.315C152.803 125 160.574 118.615 160.574 106.494V76.8411H143.652Z" fill="#1CE783"/>
<path d="M239.088 76.8411C239.088 76.8411 239.088 104.143 239.088 105.087C239.088 107.586 237.067 109.613 234.552 109.613H224.711C222.206 109.613 220.175 107.586 220.175 105.087C220.175 104.143 220.175 76.8411 220.175 76.8411H203.253V106.494C203.253 118.615 211.023 125 222.512 125H236.731C248.22 125 255.99 118.615 255.99 106.494V76.8411H239.088Z" fill="#1CE783"/>
<path d="M76.4785 76.8412C76.4785 76.8412 67.6626 76.8412 65.6313 76.8412C61.8249 76.8412 59.9118 77.8644 59.9118 77.8644V55H43V125H59.9118V96.754C59.9118 94.2551 61.9432 92.2284 64.4479 92.2284H74.2893C76.794 92.2284 78.8156 94.2551 78.8156 96.754V125H95.7372V94.5601C95.7372 81.7702 87.1876 76.8412 76.4785 76.8412Z" fill="#1CE783"/>
<path d="M190.384 55H173.463V125H190.384V55Z" fill="#1CE783"/>
</g>
<defs>
<linearGradient id="paint0_linear_154_4653" x1="239" y1="7.38336e-06" x2="150" y2="180" gradientUnits="userSpaceOnUse">
<stop stop-color="#094A66"/>
<stop offset="1" stop-color="#010005"/>
</linearGradient>
<clipPath id="clip0_154_4653">
<rect width="213" height="70" fill="white" transform="translate(43 55)"/>
</clipPath>
</defs>
</svg>
