<svg width="300" height="180" viewBox="0 0 300 180" fill="none" xmlns="http://www.w3.org/2000/svg">
<rect width="300" height="180" fill="url(#paint0_linear_154_4594)"/>
<path d="M60.2896 97V66.1797H66.6177V70.9551H66.7642C68.0826 67.7324 71.2174 65.5938 75.2603 65.5938C79.5084 65.5938 82.6138 67.791 83.8443 71.6582H83.9908C85.5728 67.9082 89.2056 65.5938 93.6002 65.5938C99.6939 65.5938 103.678 69.6367 103.678 75.8184V97H97.3209V77.3418C97.3209 73.3281 95.1822 71.0137 91.4322 71.0137C87.6822 71.0137 85.0748 73.8262 85.0748 77.7227V97H78.8638V76.873C78.8638 73.2988 76.608 71.0137 73.0338 71.0137C69.2838 71.0137 66.6177 73.9727 66.6177 77.957V97H60.2896ZM123.009 97.6152C114.161 97.6152 108.39 91.4922 108.39 81.5898V81.5312C108.39 71.6875 114.22 65.5938 122.98 65.5938C131.769 65.5938 137.628 71.6582 137.628 81.5312V81.5898C137.628 91.5215 131.827 97.6152 123.009 97.6152ZM123.038 92.3125C127.989 92.3125 131.153 88.3867 131.153 81.5898V81.5312C131.153 74.793 127.931 70.8965 122.98 70.8965C118.116 70.8965 114.864 74.793 114.864 81.5312V81.5898C114.864 88.416 118.087 92.3125 123.038 92.3125ZM149.781 97L138.677 66.1797H145.416L153.15 90.8184H153.297L161.031 66.1797H167.623L156.578 97H149.781ZM174.649 61.4336C172.598 61.4336 170.957 59.793 170.957 57.8008C170.957 55.7793 172.598 54.1387 174.649 54.1387C176.729 54.1387 178.34 55.7793 178.34 57.8008C178.34 59.793 176.729 61.4336 174.649 61.4336ZM171.485 97V66.1797H177.813V97H171.485ZM197.466 97.6152C188.413 97.6152 182.934 91.4336 182.934 81.707V81.6777C182.934 72.0391 188.501 65.5938 197.143 65.5938C205.786 65.5938 211.089 71.8047 211.089 81.0625V83.2012H189.263C189.38 89.0312 192.573 92.4297 197.612 92.4297C201.362 92.4297 203.852 90.4961 204.643 88.1816L204.731 87.9473H210.737L210.679 88.2695C209.682 93.1621 204.936 97.6152 197.466 97.6152ZM197.173 70.7793C193.071 70.7793 189.907 73.5625 189.35 78.7188H204.819C204.292 73.3867 201.304 70.7793 197.173 70.7793ZM227.519 97.6152C219.814 97.6152 215.302 93.8066 214.658 88.1816L214.628 87.918H220.898L220.956 88.2109C221.542 91.0527 223.652 92.7227 227.548 92.7227C231.357 92.7227 233.642 91.1406 233.642 88.6504V88.6211C233.642 86.6289 232.529 85.4863 229.218 84.6953L224.179 83.5527C218.32 82.2051 215.419 79.3926 215.419 74.9102V74.8809C215.419 69.373 220.224 65.5938 227.314 65.5938C234.609 65.5938 239.003 69.666 239.326 74.9102L239.355 75.2617H233.408L233.378 75.0566C232.997 72.3613 230.888 70.4863 227.314 70.4863C223.915 70.4863 221.777 72.0977 221.777 74.5586V74.5879C221.777 76.4922 223.037 77.7812 226.347 78.5723L231.357 79.7148C237.656 81.1797 240.058 83.6699 240.058 88.0938V88.123C240.058 93.748 234.785 97.6152 227.519 97.6152Z" fill="white"/>
<path d="M105.695 109.219C104.67 109.219 103.833 108.381 103.833 107.356C103.833 106.313 104.67 105.493 105.695 105.493C106.738 105.493 107.558 106.313 107.558 107.356C107.558 108.381 106.738 109.219 105.695 109.219ZM104.209 130V112.227H107.182V130H104.209ZM117.043 130V108.108H109.267V105.339H127.895V108.108H120.119V130H117.043ZM132.85 130.342C128.954 130.342 126.698 127.812 126.698 123.762V112.227H129.672V123.232C129.672 126.121 131.022 127.71 133.756 127.71C136.559 127.71 138.387 125.71 138.387 122.686V112.227H141.361V130H138.387V127.471H138.319C137.362 129.128 135.551 130.342 132.85 130.342ZM145.206 130V112.227H148.179V114.756H148.248C149.205 113.098 151.016 111.885 153.717 111.885C157.613 111.885 159.869 114.414 159.869 118.464V130H156.895V118.994C156.895 116.106 155.545 114.517 152.811 114.517C150.008 114.517 148.179 116.516 148.179 119.541V130H145.206ZM170.943 130.342C165.833 130.342 162.757 126.77 162.757 121.182V121.165C162.757 115.662 165.901 111.885 170.755 111.885C175.608 111.885 178.565 115.491 178.565 120.823V121.917H165.765C165.833 125.574 167.849 127.71 171.011 127.71C173.267 127.71 174.856 126.582 175.369 125.061L175.42 124.907H178.343L178.308 125.078C177.727 128.018 174.822 130.342 170.943 130.342ZM170.738 114.517C168.157 114.517 166.14 116.277 165.816 119.592H175.54C175.249 116.14 173.335 114.517 170.738 114.517ZM187.844 130.342C183.657 130.342 181.128 128.206 180.769 125.027L180.752 124.873H183.726L183.76 125.044C184.119 126.821 185.435 127.864 187.861 127.864C190.271 127.864 191.706 126.855 191.706 125.249V125.232C191.706 123.95 191.04 123.232 189.023 122.737L186.204 122.053C182.854 121.25 181.23 119.695 181.23 117.131V117.114C181.23 114.055 183.914 111.885 187.759 111.885C191.655 111.885 194.133 114.158 194.355 117.131L194.372 117.354H191.536L191.518 117.234C191.279 115.508 189.963 114.363 187.759 114.363C185.605 114.363 184.272 115.405 184.272 116.978V116.995C184.272 118.208 185.076 119.045 187.041 119.524L189.861 120.208C193.45 121.079 194.748 122.498 194.748 125.027V125.044C194.748 128.154 191.809 130.342 187.844 130.342Z" fill="white"/>
<defs>
<linearGradient id="paint0_linear_154_4594" x1="51" y1="18" x2="150" y2="180" gradientUnits="userSpaceOnUse">
<stop stop-color="#52D5B8"/>
<stop offset="1" stop-color="#1B94BA"/>
</linearGradient>
</defs>
</svg>
