<svg width="300" height="180" viewBox="0 0 300 180" fill="none" xmlns="http://www.w3.org/2000/svg">
<rect width="300" height="180" fill="url(#paint0_linear_158_126)"/>
<g clip-path="url(#clip0_158_126)">
<path d="M60.0186 119.552C56.2969 120.206 52.5097 120.402 48.5921 120.924L36.6429 85.9258V122.426C32.9212 122.817 29.526 123.34 26 123.862V57H35.9251L49.5061 94.9369V57H60.0186V119.552ZM80.5865 81.4856C84.6351 81.4856 90.838 81.2896 94.5597 81.2896V91.7366C89.9236 91.7366 84.5044 91.7366 80.5865 91.9325V107.473C86.7245 107.081 92.8622 106.559 99.0649 106.363V116.417L70.1391 118.703V57H99.0649V67.4472H80.5865V81.4856ZM137.915 67.4474H127.076V115.504C123.55 115.504 120.024 115.504 116.63 115.635V67.4474H105.791V57H137.916L137.915 67.4474ZM154.892 80.7675H169.192V91.2145H154.892V114.917H144.64V57H173.828V67.4472H154.892V80.7675ZM190.804 105.775C196.746 105.905 202.753 106.363 208.564 106.689V117.006C199.227 116.418 189.89 115.831 180.357 115.635V57H190.804V105.775ZM217.379 117.724C220.709 117.92 224.235 118.116 227.63 118.508V57H217.379V117.724ZM273.402 57L260.147 88.7987L273.402 123.862C269.484 123.34 265.567 122.621 261.649 121.968L254.14 102.641L246.501 120.402C242.714 119.748 239.057 119.552 235.271 119.03L248.721 88.4066L236.576 57H247.806L254.662 74.5644L261.976 57L273.402 57Z" fill="#D81F26"/>
</g>
<defs>
<linearGradient id="paint0_linear_158_126" x1="150" y1="0" x2="150" y2="180" gradientUnits="userSpaceOnUse">
<stop stop-color="white"/>
<stop offset="1" stop-color="#E0E0E0"/>
</linearGradient>
<clipPath id="clip0_158_126">
<rect width="247.402" height="66.8619" fill="white" transform="translate(26 57)"/>
</clipPath>
</defs>
</svg>
