<svg width="300" height="180" viewBox="0 0 300 180" fill="none" xmlns="http://www.w3.org/2000/svg">
<rect width="300" height="180" fill="url(#paint0_linear_153_193)"/>
<path d="M126.333 70C127.833 70 129.167 70.1667 130.5 70.5C130.167 69.1667 130 67.6667 130 66.3333V45C130 44 130.167 43.1667 130.167 42.3333C122.333 36.5 111.167 37.1667 104.167 44.1667C97.1667 51.1667 96.5 62.3333 102.333 70.1667C103.167 70 104.167 70 105 70H126.333Z" fill="#FF7E7B"/>
<path d="M148.667 86.1668C147.667 86.1668 146.833 86.0002 145.833 85.8335C146 86.6668 146.167 87.6668 146.167 88.6668C146.667 88.3335 147 88.0002 147.5 87.5002C147.833 87.0002 148.167 86.6668 148.667 86.1668Z" fill="#FF6F3F"/>
<path d="M147.5 59.1667C148.5 60.1667 149.5 61.3333 150.167 62.5C151 61.3333 151.834 60.1667 152.834 59.1667L167.834 44.1667C168.5 43.5 169 43 169.667 42.5C168.667 32.6667 160.167 25 150 25C139.834 25 131.5 32.5 130.167 42.3333C131 42.8333 131.667 43.5 132.334 44.1667L147.5 59.1667Z" fill="#FFAC00"/>
<path d="M151.667 86.1664C151.167 85.4998 150.5 84.8331 150.167 83.9998C149.667 84.6664 149.167 85.4998 148.667 86.1664C149.167 86.1664 149.667 86.1664 150 86.1664C150.5 86.3331 151.167 86.1664 151.667 86.1664Z" fill="#FFC300"/>
<path d="M130 66.3335C130 67.8335 130.167 69.1668 130.5 70.5002C138.167 72.1668 144.167 78.1668 145.833 85.8335C146.667 86.0002 147.667 86.1668 148.667 86.1668C149.167 85.5002 149.833 84.8335 150.167 84.0002C146 77.5002 146 69.0002 150.167 62.5002C149.333 61.3335 148.5 60.1668 147.5 59.1668L132.5 44.1668C131.833 43.5002 131 42.8335 130.333 42.3335C130.167 43.1668 130 44.0002 130 45.0002V66.3335Z" fill="#FF3400"/>
<path d="M170 66.3332C170 67.8332 169.833 69.1666 169.5 70.4999C170.833 70.1666 172.333 69.9999 173.666 69.9999H195C196 69.9999 197 70.1666 198 70.3332C203.833 62.4999 203.333 51.3332 196.166 44.1666C189 36.9999 177.666 36.4999 169.833 42.4999C170 43.3332 170 44.1666 170 44.9999V66.3332Z" fill="#F0EA0D"/>
<path d="M153.833 88.3335C153.833 87.5002 154 86.6668 154.167 85.8335C153.333 86.0002 152.5 86.1668 151.667 86.1668C152 86.6668 152.5 87.0002 152.833 87.5002C153.167 87.8335 153.5 88.0002 153.833 88.3335Z" fill="#DAE411"/>
<path d="M152.834 59.1667C151.834 60.1667 150.834 61.3333 150.167 62.5C154.334 69 154.334 77.5 150.167 84C150.667 84.6667 151.167 85.5 151.667 86.1667C152.5 86.1667 153.334 86 154.167 85.8333C155.834 78.1667 161.834 72.1667 169.5 70.5C169.834 69.1667 170 67.6667 170 66.3333V45C170 44.1667 170 43.3333 169.834 42.5C169.167 43 168.5 43.5 168 44.1667L152.834 59.1667Z" fill="#EAA200"/>
<path d="M150.167 62.5C146 69 146 77.5 150.167 84C154.334 77.5 154.334 69.1667 150.167 62.5Z" fill="#E63300"/>
<path d="M153.667 89.9999C153.667 90.6666 153.667 91.3333 153.833 91.9999C154.667 91.3333 155.5 90.6666 156.333 90.1666C155.5 89.6666 154.667 88.9999 153.833 88.3333C153.833 88.8333 153.667 89.4999 153.667 89.9999Z" fill="#83D567"/>
<path d="M215 89.9999C215 79.9999 207.667 71.6666 198 70.3333C197.5 71.1666 196.833 71.8333 196.167 72.4999L181.167 87.4999C180.167 88.4999 179 89.4999 177.833 90.1666C179 90.9999 180.167 91.8333 181.167 92.8333L196.167 107.833C196.833 108.5 197.333 109 197.833 109.667C207.5 108.333 215 100.167 215 89.9999Z" fill="#A2DD50"/>
<path d="M173.667 70C172.167 70 170.833 70.1667 169.5 70.5C167.833 78.1667 161.833 84.1667 154.167 85.8333C154 86.6667 153.833 87.5 153.833 88.3333C154.667 89 155.5 89.6667 156.333 90.1667C162.833 86 171.333 86 177.833 90.1667C179 89.3333 180.167 88.5 181.167 87.5L196.167 72.5C196.833 71.8333 197.5 71 198 70.3333C197 70.1667 196 70 195 70H173.667Z" fill="#8BC100"/>
<path d="M169.5 70.5002C161.833 72.1669 155.833 78.1669 154.167 85.8336C161.833 84.1669 167.833 78.1669 169.5 70.5002Z" fill="#8D8800"/>
<path d="M173.666 110C172.166 110 170.833 109.833 169.5 109.5C169.833 110.833 170 112.333 170 113.666V135C170 136 169.833 136.833 169.833 137.833C177.666 144 189 143.5 196.333 136.166C203.5 129 204.166 117.666 198 109.666C196.833 109.833 196 110 195 110H173.666Z" fill="#44C899"/>
<path d="M152 93.8331C152.666 93.8331 153.5 93.9998 154.166 94.1664C154 93.4998 153.833 92.6664 153.833 91.9998C153.5 92.3331 153.166 92.4998 152.833 92.8331C152.5 93.1664 152.333 93.4998 152 93.8331Z" fill="#4EBFBD"/>
<path d="M181.167 92.8337C180.167 91.8337 179 90.8337 177.833 90.167C171.333 94.3337 162.833 94.3337 156.333 90.167C155.5 90.667 154.667 91.3337 153.833 92.0003C153.833 92.667 154 93.5003 154.167 94.167C161.833 95.8337 167.833 101.834 169.5 109.5C170.833 109.834 172.333 110 173.667 110H195C196 110 196.833 109.834 197.833 109.834C197.333 109.167 196.833 108.5 196.167 108L181.167 92.8337Z" fill="#00A33F"/>
<path d="M156.333 90.167C162.833 94.3337 171.333 94.3337 177.833 90.167C171.167 86.0003 162.833 86.0003 156.333 90.167Z" fill="#008D08"/>
<path d="M148.333 93.8332C149 94.6665 149.667 95.4998 150.167 96.3332C150.667 95.4998 151.333 94.6665 152 93.8332C151.333 93.8332 150.667 93.6665 150 93.6665C149.5 93.6665 148.833 93.8332 148.333 93.8332Z" fill="#859ED5"/>
<path d="M152.833 121.167C151.833 120.167 150.833 119 150.167 117.833C149.333 119 148.5 120.167 147.5 121.167L132.5 136.167C131.833 136.833 131 137.5 130.333 138C131.667 147.667 140 155 150 155C160.167 155 168.333 147.5 169.833 137.833C169.167 137.333 168.5 136.833 168 136.167L152.833 121.167Z" fill="#6EACDF"/>
<path d="M170 113.667C170 112.167 169.834 110.833 169.5 109.5C161.834 107.833 155.834 101.833 154.167 94.1668C153.5 94.0002 152.667 93.8335 152 93.8335C151.334 94.6668 150.667 95.5002 150.167 96.3335C154.334 102.833 154.334 111.333 150.167 117.833C151 119 151.834 120.167 152.834 121.167L167.834 136.167C168.5 136.833 169 137.333 169.667 137.833C169.834 136.833 169.834 136 169.834 135V113.667H170Z" fill="#1D7B97"/>
<path d="M169.5 109.5C167.833 101.833 161.833 95.8332 154.167 94.1665C155.833 101.833 161.833 107.833 169.5 109.5Z" fill="#00683A"/>
<path d="M146.167 91.6667C146.167 92.5001 146 93.3334 145.833 94.1667C146.667 94.0001 147.5 93.8334 148.333 93.8334C148 93.5001 147.833 93.1667 147.5 92.8334C147 92.5001 146.667 92.1667 146.167 91.6667Z" fill="#BE85C1"/>
<path d="M130 113.666C130 112.166 130.167 110.833 130.5 109.5C129.167 109.833 127.667 110 126.333 110H105C104.167 110 103.333 110 102.5 109.833C96.3334 117.666 97.0001 129 104.167 136.166C111.333 143.333 122.5 143.833 130.333 138C130.167 137 130 136 130 135V113.666Z" fill="#AB86C4"/>
<path d="M147.5 121.167C148.5 120.167 149.5 119 150.167 117.833C146 111.333 146 102.833 150.167 96.3335C149.667 95.5002 149 94.6668 148.333 93.8335C147.5 93.8335 146.667 94.0002 145.833 94.1668C144.167 101.833 138.167 107.833 130.5 109.5C130.167 110.833 130 112.333 130 113.667V135C130 136 130.167 137 130.333 138C131.167 137.5 131.833 136.833 132.5 136.167L147.5 121.167Z" fill="#5D53A6"/>
<path d="M150.167 117.833C154.334 111.333 154.334 102.833 150.167 96.3335C146 102.833 146 111.167 150.167 117.833Z" fill="#243F76"/>
<path d="M146.166 88.6665C145.5 89.1665 144.833 89.8332 144 90.1665C144.666 90.6665 145.5 91.1665 146.166 91.6665C146.166 91.1665 146.333 90.4998 146.333 89.9998C146.333 89.4998 146.166 88.9998 146.166 88.6665Z" fill="#F1648A"/>
<path d="M119.167 92.8333C120.167 91.8333 121.333 90.8332 122.5 90.1666C121.333 89.3332 120.167 88.4999 119.167 87.4999L104.167 72.4999C103.5 71.8333 102.833 70.9999 102.333 70.3333C92.5 71.4999 85 79.8333 85 89.9999C85 100.167 92.6667 108.667 102.5 109.833C103 109.167 103.5 108.5 104.167 108L119.167 92.8333Z" fill="#E275A8"/>
<path d="M119.167 87.5C120.167 88.5 121.333 89.5 122.5 90.1667C129 86 137.5 86 144 90.1667C144.667 89.6667 145.5 89.1667 146.167 88.6667C146.167 87.6667 146 86.8333 145.833 85.8333C138.167 84.1667 132.167 78.1667 130.5 70.5C129.167 70.1667 127.667 70 126.333 70H105C104 70 103.167 70.1667 102.333 70.1667C102.833 71 103.5 71.6667 104.167 72.3333L119.167 87.5Z" fill="#E40017"/>
<path d="M130.5 70.5002C132.167 78.1669 138.167 84.1669 145.834 85.8336C144.167 78.1669 138.167 72.1669 130.5 70.5002Z" fill="#E60000"/>
<path d="M126.333 110C127.833 110 129.167 109.834 130.5 109.5C132.167 101.834 138.167 95.8337 145.833 94.167C146 93.3337 146.167 92.5003 146.167 91.667C145.5 91.167 144.833 90.5003 144 90.167C137.5 94.3337 129 94.3337 122.5 90.167C121.333 91.0003 120.167 91.8337 119.167 92.8337L104.167 107.834C103.5 108.5 103 109 102.5 109.667C103.333 110 104.167 110 105 110H126.333Z" fill="#9F3174"/>
<path d="M122.5 90.167C129 94.3337 137.5 94.3337 144 90.167C137.5 86.0003 129.167 86.0003 122.5 90.167Z" fill="#9F0017"/>
<path d="M130.5 109.5C138.167 107.833 144.167 101.833 145.834 94.1665C138.167 95.8332 132.167 101.833 130.5 109.5Z" fill="#561E5D"/>
<defs>
<linearGradient id="paint0_linear_153_193" x1="150" y1="0" x2="150" y2="180" gradientUnits="userSpaceOnUse">
<stop stop-color="white"/>
<stop offset="1" stop-color="#E0E0E0"/>
</linearGradient>
</defs>
</svg>
