<svg width="300" height="180" viewBox="0 0 300 180" fill="none" xmlns="http://www.w3.org/2000/svg">
<rect width="300" height="180" fill="url(#paint0_linear_153_274)"/>
<path d="M150 155C185.899 155 215 125.899 215 90C215 54.1015 185.899 25 150 25C114.101 25 85 54.1015 85 90C85 125.899 114.101 155 150 155Z" fill="#2E2E30"/>
<path d="M154.376 55.4027C154.541 55.4259 154.706 55.4491 154.871 55.4723C155.201 55.5187 155.697 55.5883 156.027 55.6346L157.831 51.1758C158.37 49.7367 158.677 49.9482 158.657 51.2917L158.502 55.9826C158.997 56.0522 159.634 56.31 160.13 56.3796L162.406 52.1553C163.087 50.9046 163.417 50.9509 163.208 52.4363L162.394 57.0344C162.866 57.269 163.503 57.5269 163.998 57.5964L166.723 53.7719C167.569 52.5443 167.876 52.7557 167.502 54.2179L166.193 58.7464C166.664 58.981 167.301 59.2389 167.75 59.6385L170.783 56.0254C171.77 54.9861 172.077 55.1975 171.561 56.4715L169.757 60.9304C170.205 61.33 170.677 61.5647 171.126 61.9643L174.607 58.7509C175.76 57.7347 176.067 57.9462 175.363 59.362L173.109 63.4212C173.558 63.8209 174.007 64.2205 174.29 64.597L178.197 61.9483C179.327 61.0972 179.633 61.3086 178.788 62.5362L175.851 66.6677C176.3 67.0673 176.583 67.4438 177.009 68.0085L181.176 65.9013C182.447 65.2385 182.754 65.4499 181.743 66.6543L178.569 70.0792C178.853 70.4557 179.278 71.0204 179.539 71.5619L183.99 69.8312C185.403 69.3566 185.522 69.7098 184.392 70.5609L180.769 73.5862C181.03 74.1277 181.29 74.6692 181.551 75.2107L186.097 73.9983C187.487 73.6888 187.606 74.042 186.499 74.7281L182.593 77.3768C182.853 77.9184 182.949 78.4367 183.209 78.9782L187.851 78.2841C189.218 78.1396 189.501 78.5161 188.065 79.1557L183.898 81.263C183.993 81.7813 184.254 82.3228 184.326 83.0062L188.875 82.9723C190.384 83.016 190.337 83.3461 189.089 83.8439L184.827 85.4328C184.922 85.9511 184.994 86.6345 185.09 87.1528L189.734 87.6373C191.22 87.846 191.173 88.1761 189.783 88.4857L185.26 89.533C185.356 90.0514 185.263 90.7115 185.193 91.2067L189.58 92.3281C191.042 92.7019 190.996 93.032 189.464 93.1533L184.845 93.6824C184.776 94.1775 184.683 94.8377 184.613 95.3328C184.613 95.3328 184.613 95.3328 184.59 95.4978L188.93 96.9493C190.369 97.4882 190.323 97.8183 188.814 97.7746L184.265 97.8085C184.173 98.4686 183.938 98.9406 183.845 99.6008L187.928 101.689C189.178 102.37 189.132 102.7 187.647 102.491L183.19 101.865C182.956 102.337 182.863 102.997 182.628 103.469L186.476 106.029C187.704 106.875 187.492 107.182 186.195 106.832L181.808 105.71C181.574 106.182 181.316 106.819 181.081 107.291L184.529 110.3C185.569 111.288 185.522 111.618 184.083 111.079L179.931 109.486C179.532 109.934 179.274 110.571 178.874 111.02L181.946 114.313C182.985 115.301 182.751 115.772 181.335 115.069L177.18 112.297C176.78 112.745 176.381 113.194 175.981 113.643L178.676 117.22C179.527 118.349 179.316 118.656 178.088 117.81L174.406 115.273C174.006 115.722 173.606 116.17 173.065 116.431L175.383 120.291C176.046 121.562 175.835 121.869 174.63 120.859L171.182 117.849C170.618 118.275 170.241 118.559 169.7 118.819L171.477 122.94C172.116 124.376 171.763 124.495 170.747 123.342L167.675 120.049C167.134 120.31 166.592 120.57 166.051 120.831L167.286 125.212C167.761 126.625 167.408 126.744 166.557 125.614L164.05 121.896C163.508 122.157 162.967 122.417 162.26 122.654L162.977 127.131C163.287 128.521 162.934 128.64 162.106 127.345L159.975 123.343C159.457 123.439 158.75 123.676 158.232 123.771L158.454 128.178C158.575 129.71 158.08 129.641 157.583 128.393L155.924 124.625C155.406 124.721 154.722 124.793 154.204 124.888L153.908 129.391C153.864 130.899 153.369 130.83 153.059 129.44L151.824 125.059C151.306 125.154 150.645 125.061 149.962 125.134L149.006 129.543C148.797 131.029 148.302 130.959 148.157 129.592L147.793 124.997C147.133 124.904 146.638 124.835 145.954 124.907L144.503 129.247C143.964 130.686 143.634 130.64 143.678 129.131L143.644 124.582C142.984 124.489 142.489 124.42 141.852 124.162L139.928 128.268C139.412 129.542 138.917 129.472 139.126 127.987L139.587 123.507C138.95 123.249 138.455 123.18 137.983 122.945L135.423 126.793C134.742 128.044 134.247 127.974 134.621 126.512L135.577 122.102C135.105 121.868 134.468 121.61 133.996 121.375L131.129 125.011C130.283 126.239 129.811 126.004 130.35 124.565L131.802 120.225C131.33 119.99 130.881 119.591 130.244 119.333L126.928 122.57C125.94 123.609 125.633 123.398 126.149 122.124L128.238 118.041C127.789 117.641 127.34 117.242 126.868 117.007L123.268 119.867C122.139 120.718 121.832 120.507 122.678 119.279L125.238 115.432C124.79 115.032 124.341 114.632 124.08 114.091L120.266 116.079C118.972 116.907 118.688 116.531 119.676 115.491L122.543 111.855C122.094 111.455 121.834 110.914 121.55 110.537L117.406 112.48C116.135 113.142 115.851 112.766 116.839 111.727L120.155 108.49C119.894 107.948 119.611 107.572 119.35 107.03L114.946 108.431C113.533 108.906 113.414 108.552 114.543 107.701L118.308 104.864C118.048 104.323 117.787 103.781 117.692 103.263L113.192 104.145C111.802 104.455 111.683 104.102 112.978 103.274L117.003 100.978C116.742 100.437 116.647 99.9183 116.552 99.4L111.626 99.7176C110.094 99.8389 109.976 99.4857 111.412 98.846L115.698 97.0921C115.602 96.5737 115.53 95.8904 115.435 95.372L110.744 95.2177C109.235 95.174 109.282 94.8439 110.695 94.3693L115.099 92.9686C115.004 92.4503 115.096 91.7901 115.001 91.2718L110.403 90.4573C108.918 90.2485 108.987 89.7534 110.354 89.6088L115.019 88.7497C115.088 88.2546 115.016 87.5712 115.086 87.0761L110.557 85.7664C109.095 85.3926 109.165 84.8975 110.673 84.9412L115.411 84.7655C115.48 84.2703 115.573 83.6101 115.642 83.115L111.349 81.3334C110.075 80.8178 110.144 80.3226 111.63 80.5314L116.297 80.8508C116.367 80.3556 116.625 79.7187 116.859 79.2467L112.8 76.9932C111.549 76.3125 111.596 75.9824 113.081 76.1912L117.679 77.0057C117.914 76.5337 118.172 75.8968 118.406 75.4248L114.582 72.6994C113.354 71.8536 113.566 71.5467 115.028 71.9205L119.533 73.3952C119.768 72.9233 120.167 72.4745 120.402 72.0026L116.977 68.8284C115.938 67.8408 116.149 67.5339 117.423 68.0496L121.694 69.9962C122.094 69.5474 122.328 69.0755 122.728 68.6268L119.703 65.0038C118.686 63.8512 119.063 63.5675 120.291 64.4132L124.327 66.8318C124.726 66.3831 125.103 66.0994 125.502 65.6506L122.877 61.5789C122.049 60.2844 122.402 60.1658 123.465 60.9883L127.266 63.8788C127.666 63.4301 128.207 63.1696 128.607 62.7208L126.569 58.0586C125.906 56.7873 126.283 56.5036 127.322 57.4912L130.724 60.8304C131.1 60.5467 131.642 60.2862 132.184 60.0257L130.618 55.5981C130.143 54.1849 130.497 54.0663 131.348 55.1957L134.35 58.9837C134.891 58.7232 135.433 58.4627 135.809 58.179L134.785 53.4908C134.475 52.1009 134.829 51.9822 135.68 53.1117L138.14 57.1602C138.682 56.8997 139.2 56.8042 139.718 56.7088L139.213 51.9251C139.091 50.3934 139.445 50.2747 140.084 51.711L142.003 56.02C142.522 55.9246 143.04 55.8291 143.558 55.7337L143.713 51.0428C143.756 49.5342 144.086 49.5806 144.561 50.9938L145.938 55.5633C146.457 55.4678 147.14 55.3955 147.635 55.4651L148.308 50.6788C148.517 49.1934 148.847 49.2398 149.156 50.6298L150.181 55.3179C150.676 55.3875 151.359 55.3153 151.854 55.3848L152.999 50.8332C153.373 49.371 153.703 49.4174 153.824 50.9492L154.376 55.4027ZM146.011 118.519C161.69 120.723 176.184 109.801 178.388 94.1213C180.592 78.442 169.669 63.9475 153.99 61.744C138.311 59.5404 123.674 70.2745 121.471 85.9538C119.267 101.633 130.331 116.316 146.011 118.519Z" fill="black"/>
<path d="M154.376 55.4027C154.541 55.4259 154.706 55.4491 154.871 55.4723C155.201 55.5187 155.697 55.5883 156.027 55.6346L157.831 51.1758C158.37 49.7367 158.677 49.9482 158.657 51.2917L158.502 55.9826C158.997 56.0522 159.634 56.31 160.13 56.3796L162.406 52.1553C163.087 50.9046 163.417 50.9509 163.208 52.4363L162.394 57.0344C162.866 57.269 163.503 57.5269 163.998 57.5964L166.723 53.7719C167.569 52.5443 167.876 52.7557 167.502 54.2179L166.193 58.7464C166.664 58.981 167.301 59.2389 167.75 59.6385L170.783 56.0254C171.77 54.9861 172.077 55.1975 171.561 56.4715L169.757 60.9304C170.205 61.33 170.677 61.5647 171.126 61.9643L174.607 58.7509C175.76 57.7347 176.067 57.9462 175.363 59.362L173.109 63.4212C173.558 63.8209 174.007 64.2205 174.29 64.597L178.197 61.9483C179.327 61.0972 179.633 61.3086 178.788 62.5362L175.851 66.6677C176.3 67.0673 176.583 67.4438 177.009 68.0085L181.176 65.9013C182.447 65.2385 182.754 65.4499 181.743 66.6543L178.569 70.0792C178.853 70.4557 179.278 71.0204 179.539 71.5619L183.99 69.8312C185.403 69.3566 185.522 69.7098 184.392 70.5609L180.769 73.5862C181.03 74.1277 181.29 74.6692 181.551 75.2107L186.097 73.9983C187.487 73.6888 187.606 74.042 186.499 74.7281L182.593 77.3768C182.853 77.9184 182.949 78.4367 183.209 78.9782L187.851 78.2841C189.218 78.1396 189.501 78.5161 188.065 79.1557L183.898 81.263C183.993 81.7813 184.254 82.3228 184.326 83.0062L188.875 82.9723C190.384 83.016 190.337 83.3461 189.089 83.8439L184.827 85.4328C184.922 85.9511 184.994 86.6345 185.09 87.1528L189.734 87.6373C191.22 87.846 191.173 88.1761 189.783 88.4857L185.26 89.533C185.356 90.0514 185.263 90.7115 185.193 91.2067L189.58 92.3281C191.042 92.7019 190.996 93.032 189.464 93.1533L184.845 93.6824C184.776 94.1775 184.683 94.8377 184.613 95.3328C184.613 95.3328 184.613 95.3328 184.59 95.4978L188.93 96.9493C190.369 97.4882 190.323 97.8183 188.814 97.7746L184.265 97.8085C184.173 98.4686 183.938 98.9406 183.845 99.6008L187.928 101.689C189.178 102.37 189.132 102.7 187.647 102.491L183.19 101.865C182.956 102.337 182.863 102.997 182.628 103.469L186.476 106.029C187.704 106.875 187.492 107.182 186.195 106.832L181.808 105.71C181.574 106.182 181.316 106.819 181.081 107.291L184.529 110.3C185.569 111.288 185.522 111.618 184.083 111.079L179.931 109.486C179.532 109.934 179.274 110.571 178.874 111.02L181.946 114.313C182.985 115.301 182.751 115.772 181.335 115.069L177.18 112.297C176.78 112.745 176.381 113.194 175.981 113.643L178.676 117.22C179.527 118.349 179.316 118.656 178.088 117.81L174.406 115.273C174.006 115.722 173.606 116.17 173.065 116.431L175.383 120.291C176.046 121.562 175.835 121.869 174.63 120.859L171.182 117.849C170.618 118.275 170.241 118.559 169.7 118.819L171.477 122.94C172.116 124.376 171.763 124.495 170.747 123.342L167.675 120.049C167.134 120.31 166.592 120.57 166.051 120.831L167.286 125.212C167.761 126.625 167.408 126.744 166.557 125.614L164.05 121.896C163.508 122.157 162.967 122.417 162.26 122.654L162.977 127.131C163.287 128.521 162.934 128.64 162.106 127.345L159.975 123.343C159.457 123.439 158.75 123.676 158.232 123.771L158.454 128.178C158.575 129.71 158.08 129.641 157.583 128.393L155.924 124.625C155.406 124.721 154.722 124.793 154.204 124.888L153.908 129.391C153.864 130.899 153.369 130.83 153.059 129.44L151.824 125.059C151.306 125.154 150.645 125.061 149.962 125.134L149.006 129.543C148.797 131.029 148.302 130.959 148.157 129.592L147.793 124.997C147.133 124.904 146.638 124.835 145.954 124.907L144.503 129.247C143.964 130.686 143.634 130.64 143.678 129.131L143.644 124.582C142.984 124.489 142.489 124.42 141.852 124.162L139.928 128.268C139.412 129.542 138.917 129.472 139.126 127.987L139.587 123.507C138.95 123.249 138.455 123.18 137.983 122.945L135.423 126.793C134.742 128.044 134.247 127.974 134.621 126.512L135.577 122.102C135.105 121.868 134.468 121.61 133.996 121.375L131.129 125.011C130.283 126.239 129.811 126.004 130.35 124.565L131.802 120.225C131.33 119.99 130.881 119.591 130.244 119.333L126.928 122.57C125.94 123.609 125.633 123.398 126.149 122.124L128.238 118.041C127.789 117.641 127.34 117.242 126.868 117.007L123.268 119.867C122.139 120.718 121.832 120.507 122.678 119.279L125.238 115.432C124.79 115.032 124.341 114.632 124.08 114.091L120.266 116.079C118.972 116.907 118.688 116.531 119.676 115.491L122.543 111.855C122.094 111.455 121.834 110.914 121.55 110.537L117.406 112.48C116.135 113.142 115.851 112.766 116.839 111.727L120.155 108.49C119.894 107.948 119.611 107.572 119.35 107.03L114.946 108.431C113.533 108.906 113.414 108.552 114.543 107.701L118.308 104.864C118.048 104.323 117.787 103.781 117.692 103.263L113.192 104.145C111.802 104.455 111.683 104.102 112.978 103.274L117.003 100.978C116.742 100.437 116.647 99.9183 116.552 99.4L111.626 99.7176C110.094 99.8389 109.976 99.4857 111.412 98.846L115.698 97.0921C115.602 96.5737 115.53 95.8904 115.435 95.372L110.744 95.2177C109.235 95.174 109.282 94.8439 110.695 94.3693L115.099 92.9686C115.004 92.4503 115.096 91.7901 115.001 91.2718L110.403 90.4573C108.918 90.2485 108.987 89.7534 110.354 89.6088L115.019 88.7497C115.088 88.2546 115.016 87.5712 115.086 87.0761L110.557 85.7664C109.095 85.3926 109.165 84.8975 110.673 84.9412L115.411 84.7655C115.48 84.2703 115.573 83.6101 115.642 83.115L111.349 81.3334C110.075 80.8178 110.144 80.3226 111.63 80.5314L116.297 80.8508C116.367 80.3556 116.625 79.7187 116.859 79.2467L112.8 76.9932C111.549 76.3125 111.596 75.9824 113.081 76.1912L117.679 77.0057C117.914 76.5337 118.172 75.8968 118.406 75.4248L114.582 72.6994C113.354 71.8536 113.566 71.5467 115.028 71.9205L119.533 73.3952C119.768 72.9233 120.167 72.4745 120.402 72.0026L116.977 68.8284C115.938 67.8408 116.149 67.5339 117.423 68.0496L121.694 69.9962C122.094 69.5474 122.328 69.0755 122.728 68.6268L119.703 65.0038C118.686 63.8512 119.063 63.5675 120.291 64.4132L124.327 66.8318C124.726 66.3831 125.103 66.0994 125.502 65.6506L122.877 61.5789C122.049 60.2844 122.402 60.1658 123.465 60.9883L127.266 63.8788C127.666 63.4301 128.207 63.1696 128.607 62.7208L126.569 58.0586C125.906 56.7873 126.283 56.5036 127.322 57.4912L130.724 60.8304C131.1 60.5467 131.642 60.2862 132.184 60.0257L130.618 55.5981C130.143 54.1849 130.497 54.0663 131.348 55.1957L134.35 58.9837C134.891 58.7232 135.433 58.4627 135.809 58.179L134.785 53.4908C134.475 52.1009 134.829 51.9822 135.68 53.1117L138.14 57.1602C138.682 56.8997 139.2 56.8042 139.718 56.7088L139.213 51.9251C139.091 50.3934 139.445 50.2747 140.084 51.711L142.003 56.02C142.522 55.9246 143.04 55.8291 143.558 55.7337L143.713 51.0428C143.756 49.5342 144.086 49.5806 144.561 50.9938L145.938 55.5633C146.457 55.4678 147.14 55.3955 147.635 55.4651L148.308 50.6788C148.517 49.1934 148.847 49.2398 149.156 50.6298L150.181 55.3179C150.676 55.3875 151.359 55.3153 151.854 55.3848L152.999 50.8332C153.373 49.371 153.703 49.4174 153.824 50.9492L154.376 55.4027ZM146.011 118.519C161.69 120.723 176.184 109.801 178.388 94.1213C180.592 78.442 169.669 63.9475 153.99 61.744C138.311 59.5404 123.674 70.2745 121.471 85.9538C119.267 101.633 130.331 116.316 146.011 118.519Z" fill="#7F7F7F"/>
<path d="M154.376 55.4027C154.541 55.4259 154.706 55.4491 154.871 55.4723C155.201 55.5187 155.697 55.5883 156.027 55.6346L157.831 51.1758C158.37 49.7367 158.677 49.9482 158.657 51.2917L158.502 55.9826C158.997 56.0522 159.634 56.31 160.13 56.3796L162.406 52.1553C163.087 50.9046 163.417 50.9509 163.208 52.4363L162.394 57.0344C162.866 57.269 163.503 57.5269 163.998 57.5964L166.723 53.7719C167.569 52.5443 167.876 52.7557 167.502 54.2179L166.193 58.7464C166.664 58.981 167.301 59.2389 167.75 59.6385L170.783 56.0254C171.77 54.9861 172.077 55.1975 171.561 56.4715L169.757 60.9304C170.205 61.33 170.677 61.5647 171.126 61.9643L174.607 58.7509C175.76 57.7347 176.067 57.9462 175.363 59.362L173.109 63.4212C173.558 63.8209 174.007 64.2205 174.29 64.597L178.197 61.9483C179.327 61.0972 179.633 61.3086 178.788 62.5362L175.851 66.6677C176.3 67.0673 176.583 67.4438 177.009 68.0085L181.176 65.9013C182.447 65.2385 182.754 65.4499 181.743 66.6543L178.569 70.0792C178.853 70.4557 179.278 71.0204 179.539 71.5619L183.99 69.8312C185.403 69.3566 185.522 69.7098 184.392 70.5609L180.769 73.5862C181.03 74.1277 181.29 74.6692 181.551 75.2107L186.097 73.9983C187.487 73.6888 187.606 74.042 186.499 74.7281L182.593 77.3768C182.853 77.9184 182.949 78.4367 183.209 78.9782L187.851 78.2841C189.218 78.1396 189.501 78.5161 188.065 79.1557L183.898 81.263C183.993 81.7813 184.254 82.3228 184.326 83.0062L188.875 82.9723C190.384 83.016 190.337 83.3461 189.089 83.8439L184.827 85.4328C184.922 85.9511 184.994 86.6345 185.09 87.1528L189.734 87.6373C191.22 87.846 191.173 88.1761 189.783 88.4857L185.26 89.533C185.356 90.0514 185.263 90.7115 185.193 91.2067L189.58 92.3281C191.042 92.7019 190.996 93.032 189.464 93.1533L184.845 93.6824C184.776 94.1775 184.683 94.8377 184.613 95.3328C184.613 95.3328 184.613 95.3328 184.59 95.4978L188.93 96.9493C190.369 97.4882 190.323 97.8183 188.814 97.7746L184.265 97.8085C184.173 98.4686 183.938 98.9406 183.845 99.6008L187.928 101.689C189.178 102.37 189.132 102.7 187.647 102.491L183.19 101.865C182.956 102.337 182.863 102.997 182.628 103.469L186.476 106.029C187.704 106.875 187.492 107.182 186.195 106.832L181.808 105.71C181.574 106.182 181.316 106.819 181.081 107.291L184.529 110.3C185.569 111.288 185.522 111.618 184.083 111.079L179.931 109.486C179.532 109.934 179.274 110.571 178.874 111.02L181.946 114.313C182.985 115.301 182.751 115.772 181.335 115.069L177.18 112.297C176.78 112.745 176.381 113.194 175.981 113.643L178.676 117.22C179.527 118.349 179.316 118.656 178.088 117.81L174.406 115.273C174.006 115.722 173.606 116.17 173.065 116.431L175.383 120.291C176.046 121.562 175.835 121.869 174.63 120.859L171.182 117.849C170.618 118.275 170.241 118.559 169.7 118.819L171.477 122.94C172.116 124.376 171.763 124.495 170.747 123.342L167.675 120.049C167.134 120.31 166.592 120.57 166.051 120.831L167.286 125.212C167.761 126.625 167.408 126.744 166.557 125.614L164.05 121.896C163.508 122.157 162.967 122.417 162.26 122.654L162.977 127.131C163.287 128.521 162.934 128.64 162.106 127.345L159.975 123.343C159.457 123.439 158.75 123.676 158.232 123.771L158.454 128.178C158.575 129.71 158.08 129.641 157.583 128.393L155.924 124.625C155.406 124.721 154.722 124.793 154.204 124.888L153.908 129.391C153.864 130.899 153.369 130.83 153.059 129.44L151.824 125.059C151.306 125.154 150.645 125.061 149.962 125.134L149.006 129.543C148.797 131.029 148.302 130.959 148.157 129.592L147.793 124.997C147.133 124.904 146.638 124.835 145.954 124.907L144.503 129.247C143.964 130.686 143.634 130.64 143.678 129.131L143.644 124.582C142.984 124.489 142.489 124.42 141.852 124.162L139.928 128.268C139.412 129.542 138.917 129.472 139.126 127.987L139.587 123.507C138.95 123.249 138.455 123.18 137.983 122.945L135.423 126.793C134.742 128.044 134.247 127.974 134.621 126.512L135.577 122.102C135.105 121.868 134.468 121.61 133.996 121.375L131.129 125.011C130.283 126.239 129.811 126.004 130.35 124.565L131.802 120.225C131.33 119.99 130.881 119.591 130.244 119.333L126.928 122.57C125.94 123.609 125.633 123.398 126.149 122.124L128.238 118.041C127.789 117.641 127.34 117.242 126.868 117.007L123.268 119.867C122.139 120.718 121.832 120.507 122.678 119.279L125.238 115.432C124.79 115.032 124.341 114.632 124.08 114.091L120.266 116.079C118.972 116.907 118.688 116.531 119.676 115.491L122.543 111.855C122.094 111.455 121.834 110.914 121.55 110.537L117.406 112.48C116.135 113.142 115.851 112.766 116.839 111.727L120.155 108.49C119.894 107.948 119.611 107.572 119.35 107.03L114.946 108.431C113.533 108.906 113.414 108.552 114.543 107.701L118.308 104.864C118.048 104.323 117.787 103.781 117.692 103.263L113.192 104.145C111.802 104.455 111.683 104.102 112.978 103.274L117.003 100.978C116.742 100.437 116.647 99.9183 116.552 99.4L111.626 99.7176C110.094 99.8389 109.976 99.4857 111.412 98.846L115.698 97.0921C115.602 96.5737 115.53 95.8904 115.435 95.372L110.744 95.2177C109.235 95.174 109.282 94.8439 110.695 94.3693L115.099 92.9686C115.004 92.4503 115.096 91.7901 115.001 91.2718L110.403 90.4573C108.918 90.2485 108.987 89.7534 110.354 89.6088L115.019 88.7497C115.088 88.2546 115.016 87.5712 115.086 87.0761L110.557 85.7664C109.095 85.3926 109.165 84.8975 110.673 84.9412L115.411 84.7655C115.48 84.2703 115.573 83.6101 115.642 83.115L111.349 81.3334C110.075 80.8178 110.144 80.3226 111.63 80.5314L116.297 80.8508C116.367 80.3556 116.625 79.7187 116.859 79.2467L112.8 76.9932C111.549 76.3125 111.596 75.9824 113.081 76.1912L117.679 77.0057C117.914 76.5337 118.172 75.8968 118.406 75.4248L114.582 72.6994C113.354 71.8536 113.566 71.5467 115.028 71.9205L119.533 73.3952C119.768 72.9233 120.167 72.4745 120.402 72.0026L116.977 68.8284C115.938 67.8408 116.149 67.5339 117.423 68.0496L121.694 69.9962C122.094 69.5474 122.328 69.0755 122.728 68.6268L119.703 65.0038C118.686 63.8512 119.063 63.5675 120.291 64.4132L124.327 66.8318C124.726 66.3831 125.103 66.0994 125.502 65.6506L122.877 61.5789C122.049 60.2844 122.402 60.1658 123.465 60.9883L127.266 63.8788C127.666 63.4301 128.207 63.1696 128.607 62.7208L126.569 58.0586C125.906 56.7873 126.283 56.5036 127.322 57.4912L130.724 60.8304C131.1 60.5467 131.642 60.2862 132.184 60.0257L130.618 55.5981C130.143 54.1849 130.497 54.0663 131.348 55.1957L134.35 58.9837C134.891 58.7232 135.433 58.4627 135.809 58.179L134.785 53.4908C134.475 52.1009 134.829 51.9822 135.68 53.1117L138.14 57.1602C138.682 56.8997 139.2 56.8042 139.718 56.7088L139.213 51.9251C139.091 50.3934 139.445 50.2747 140.084 51.711L142.003 56.02C142.522 55.9246 143.04 55.8291 143.558 55.7337L143.713 51.0428C143.756 49.5342 144.086 49.5806 144.561 50.9938L145.938 55.5633C146.457 55.4678 147.14 55.3955 147.635 55.4651L148.308 50.6788C148.517 49.1934 148.847 49.2398 149.156 50.6298L150.181 55.3179C150.676 55.3875 151.359 55.3153 151.854 55.3848L152.999 50.8332C153.373 49.371 153.703 49.4174 153.824 50.9492L154.376 55.4027ZM146.011 118.519C161.69 120.723 176.184 109.801 178.388 94.1213C180.592 78.442 169.669 63.9475 153.99 61.744C138.311 59.5404 123.674 70.2745 121.471 85.9538C119.267 101.633 130.331 116.316 146.011 118.519Z" fill="#777777"/>
<path d="M208.5 92.9999C210.667 92.6666 210.667 92.1666 208.5 91.6666L202.333 90.4999C202.333 90.3332 202.333 90.1666 202.333 89.9999C202.333 89.1666 202.333 88.3332 202.333 87.4999L208.333 85.9999C210.5 85.4999 210.333 84.8332 208.167 84.6666L202 84.1666C201.833 83.1666 201.833 82.3332 201.667 81.3332L207.5 79.1666C209.5 78.3332 209.5 77.8332 207.333 77.8332L201.167 77.9999C201 76.9999 200.667 76.1666 200.5 75.1666L206 72.3332C208 71.3332 207.667 70.8332 205.667 71.1666L199.5 72.1666C199.167 71.3332 198.833 70.3332 198.5 69.4999L203.667 65.9999C205.5 64.6666 205.167 64.1666 203.167 64.8332L197.167 66.4999C196.667 65.6666 196.333 64.8332 195.833 63.9999L200.5 59.8332C202.167 58.3332 201.833 57.8333 199.833 58.6666L194.167 60.9999C193.667 60.1666 193 59.3333 192.5 58.6666L196.667 53.9999C198.167 52.3333 197.833 51.9999 195.833 52.9999L190 55.9999C189.333 55.3333 188.833 54.4999 188.167 53.8332L191.833 48.6666C193.167 46.8333 192.667 46.4999 190.833 47.6666L185.833 51.3332C185.167 50.6666 184.5 49.9999 183.667 49.4999L186.667 43.9999C187.667 41.9999 187.167 41.6666 185.667 43.1666L181.167 47.3333C180.333 46.8333 179.667 46.1666 178.833 45.6666L181.167 39.8333C182 37.8333 181.5 37.4999 180 39.1666L176 43.8333C175.167 43.3333 174.333 42.9999 173.5 42.4999L175 36.4999C175.5 34.3333 175 34.1666 173.833 35.9999L170.5 41.1666C169.667 40.8333 168.667 40.4999 167.833 40.1666L168.667 33.9999C169 31.8333 168.5 31.6666 167.5 33.6666L164.667 39.1666C163.833 38.8333 162.833 38.6666 161.833 38.4999L162 32.3333C162 30.1666 161.5 29.9999 160.667 32.1666L158.5 37.9999C157.5 37.8332 156.667 37.6666 155.667 37.6666L154.667 31.6666C154.5 29.4999 153.833 29.4999 153.333 31.4999L151.833 37.4999C151.167 37.4999 150.5 37.4999 149.833 37.4999C149.5 37.4999 149.167 37.4999 149 37.4999L147.667 31.3333C147.167 29.1666 146.667 29.1666 146.333 31.3333L145.667 37.4999C144.667 37.4999 143.833 37.6666 142.833 37.8333L140.667 31.9999C140 29.9999 139.333 29.9999 139.333 32.1666L139.5 38.3333C138.5 38.4999 137.667 38.6666 136.667 38.9999L134 33.3333C133 31.3333 132.5 31.4999 132.667 33.6666L133.333 39.8333C132.5 40.1666 131.5 40.4999 130.667 40.8333L127.333 35.6666C126.167 33.8333 125.667 33.9999 126.167 36.1666L127.667 42.1666C126.833 42.4999 126 42.9999 125.167 43.4999L121.167 38.6666C119.833 36.9999 119.333 37.3333 120 39.3333L122.167 45.1666C121.333 45.6666 120.5 46.1666 119.833 46.6666L115.333 42.3333C113.667 40.8333 113.333 41.1666 114.333 43.1666L117.167 48.6666C116.5 49.3333 115.667 49.8332 115 50.4999L110 46.8333C108.167 45.4999 107.833 45.9999 109 47.6666L112.5 52.8333C111.833 53.4999 111.167 54.1666 110.5 54.9999L105.167 51.8333C103.333 50.6666 102.833 51.1666 104.333 52.8333L108.333 57.4999C107.833 58.1666 107.167 58.9999 106.667 59.8332L101 57.3332C99.0001 56.4999 98.6667 56.9999 100.333 58.4999L105 62.6666C104.5 63.4999 104 64.3332 103.667 65.1666L97.6667 63.4999C95.5001 62.8332 95.3334 63.4999 97.1667 64.6666L102.167 68.1666C101.833 68.9999 101.333 69.8332 101 70.8332L94.8334 69.8332C92.6667 69.4999 92.5001 69.9999 94.3334 70.9999L99.8334 73.9999C99.5001 74.8332 99.3334 75.8332 99.0001 76.6666L92.8334 76.4999C90.6667 76.4999 90.5001 76.9999 92.5001 77.8332L98.3334 79.9999C98.1667 80.9999 98.0001 81.8332 97.8334 82.8332L91.6667 83.6666C89.5001 83.8332 89.5001 84.3332 91.5001 84.9999L97.5001 86.6666C97.5001 87.6666 97.3334 88.4999 97.3334 89.4999L91.1667 90.6666C89.0001 90.9999 89.0001 91.6666 91.1667 91.9999L97.3334 92.8332C97.3334 93.8332 97.5001 94.6666 97.5001 95.6666L91.5001 97.4999C89.3334 98.1666 89.5001 98.6666 91.6667 98.8332L97.8334 98.9999C98.0001 99.9999 98.1667 100.833 98.3334 101.833L92.6667 104.5C90.6667 105.5 90.8334 106 93.0001 105.833L99.1667 105.167C99.5001 106.167 99.6667 107 100 108L94.6667 111.167C92.8334 112.333 93.0001 112.833 95.1667 112.333L101.333 111C101.667 111.833 102.167 112.667 102.5 113.667L97.6667 117.5C96.0001 118.833 96.1667 119.333 98.3334 118.667L104.167 116.667C104.667 117.5 105.167 118.333 105.667 119.167L101.667 123.167C100.167 124.667 100.5 125.167 102.333 124.167L108 121.5C108.5 122.333 109.167 123 109.833 123.667L106 128.5C104.667 130.167 105 130.667 106.833 129.5L112 126.167C112.667 126.833 113.333 127.5 114 128.167L110.833 133.5C109.667 135.333 110.167 135.667 111.833 134.333L116.667 130.333C117.333 131 118.167 131.5 119 132.167L116.333 137.833C115.333 139.833 115.833 140.167 117.333 138.5L121.667 134C122.5 134.5 123.333 135 124.167 135.5L122.167 141.333C121.5 143.333 122 143.667 123.333 142L127.167 137C128 137.333 128.833 137.833 129.833 138.167L128.667 144.333C128.167 146.5 128.833 146.667 129.833 144.833L133 139.5C133.833 139.833 134.833 140.167 135.667 140.333L135 146.667C134.833 148.833 135.333 149 136.333 147L138.833 141.333C139.833 141.5 140.667 141.667 141.667 141.833L142 148C142.167 150.167 142.667 150.167 143.333 148.167L145 142.167C146 142.333 147 142.333 147.833 142.333L148.833 148.5C149.167 150.667 149.667 150.667 150.167 148.5L151.333 142.333C152.333 142.333 153.167 142.333 154.167 142.167L155.833 148.167C156.5 150.333 157 150.167 157.167 148L157.5 141.833C158.5 141.667 159.333 141.5 160.333 141.333L162.667 147C163.5 149 164 148.833 164 146.667L163.333 140.833C164.333 140.667 165.167 140.333 166 140L169.167 145.333C170.333 147.167 170.833 147 170.333 144.833L169.167 138.667C170 138.333 171 138 171.833 137.5L175.5 142.5C176.833 144.333 177.333 144 176.667 141.833L175 136.167C175.833 135.667 176.667 135.167 177.5 134.667L181.667 139.167C183.167 140.833 183.667 140.5 182.833 138.5L180.333 132.833C181.167 132.333 181.833 131.667 182.667 131.167L187.5 135.167C189.167 136.5 189.667 136.167 188.5 134.333L185.333 129C186 128.333 186.667 127.667 187.333 127L192.5 130.333C194.333 131.5 194.667 131.167 193.333 129.333L189.5 124.5C190.167 123.833 190.667 123 191.333 122.333L197 125.167C199 126.167 199.333 125.667 197.833 124.167L193.333 119.667C193.833 118.833 194.333 118.167 194.833 117.333L200.667 119.333C202.667 120 203 119.5 201.333 118.167L196.5 114.333C197 113.5 197.333 112.667 197.833 111.667L203.833 113C206 113.5 206.167 113 204.333 111.833L199 108.5C199.333 107.667 199.667 106.667 200 105.833L206.167 106.5C208.333 106.667 208.5 106.167 206.5 105.167L200.833 102.5C201 101.5 201.333 100.667 201.5 99.6666L207.667 99.4999C209.833 99.4999 210 98.8332 207.833 98.1666L202 96.6666C202.167 95.6666 202.167 94.8332 202.333 93.8332L208.5 92.9999ZM128.167 122.333C126.5 125.333 122.167 125.667 119.5 124.167C117.667 123.167 113.333 119 109.333 112.5C105.667 105.833 103.667 98.3332 103.667 90.1666C103.667 76.4999 109.5 64.3332 119 55.8333C122 54.1666 126.167 54.4999 127.833 57.3332L144.333 85.6666C145.667 87.9999 145.667 92.4999 144.167 94.8332L128.167 122.333ZM185.667 119.333C180.333 125.667 173.5 130.667 165.5 133.5C155.167 136.5 141.667 136.667 136.5 133.833C133 132.167 131.667 128.5 133.333 125.5L149.667 97.1666C151 94.8332 154.5 92.8332 157.167 92.8332H189C192.5 92.8332 194.833 95.8332 194.833 98.8332C194.833 101.5 192.667 110.667 185.667 119.333ZM147.5 89.9999C147.5 88.6666 148.667 87.4999 150 87.4999C151.333 87.4999 152.5 88.6666 152.5 89.9999C152.5 91.3332 151.333 92.4999 150 92.4999C148.667 92.4999 147.5 91.3332 147.5 89.9999ZM189.667 86.9999H156.333C153.5 86.8332 150.167 84.4999 148.833 81.9999L133 54.4999C131.333 51.4999 133.167 48.1666 135.833 46.6666C137.667 45.6666 143.5 43.8333 151.167 43.8333C173 44.3333 191 60.1666 195.167 80.8332C195.667 84.3332 192.667 86.9999 189.667 86.9999Z" fill="url(#paint1_linear_153_274)"/>
<defs>
<linearGradient id="paint0_linear_153_274" x1="150" y1="0" x2="150" y2="180" gradientUnits="userSpaceOnUse">
<stop stop-color="#D0D4DA"/>
<stop offset="1" stop-color="#8B8F93"/>
</linearGradient>
<linearGradient id="paint1_linear_153_274" x1="149.967" y1="29.9103" x2="149.967" y2="150.256" gradientUnits="userSpaceOnUse">
<stop stop-color="#D9DADB"/>
<stop offset="1" stop-color="#7D8082"/>
</linearGradient>
</defs>
</svg>
