<svg width="300" height="180" viewBox="0 0 300 180" fill="none" xmlns="http://www.w3.org/2000/svg">
<rect width="300" height="180" fill="url(#paint0_radial_158_186)"/>
<g clip-path="url(#clip0_158_186)">
<path d="M93.17 67C88.6409 67 84.0401 69.014 78.1444 73.5431V68.151H67V111.283H78.8635V84.4689C84.0399 80.3715 86.4108 79.0765 88.353 79.0765C90.6521 79.0765 92.1629 80.5151 92.1629 84.109V111.283H104.024V84.3969C109.2 80.3714 111.502 79.0765 113.513 79.0765C115.815 79.0765 117.323 80.5151 117.323 84.109V111.283H129.184V79.9399C129.184 70.2344 123.648 67 118.327 67C113.798 67 109.197 68.8701 103.158 73.4711C101.221 68.6516 96.9797 67 93.17 67ZM153.271 67C141.482 67 131.704 77.137 131.704 89.717C131.704 102.297 141.482 112.434 153.271 112.434C159.095 112.434 164.127 110.279 168.012 105.604V111.283H179.299V68.151H168.012V73.8306C164.127 69.155 159.095 67 153.271 67ZM181.383 68.151C186.271 75.7699 191.807 82.6003 198.278 89.4307C191.807 96.5461 186.271 103.952 181.383 111.283H195.688C199.066 105.82 202.876 100.859 207.264 96.1865C211.576 100.859 215.17 105.82 218.551 111.283H233C228.04 103.736 222.648 96.5461 216.177 89.4307C222.576 82.6003 228.04 75.5568 233 68.151H218.838C215.317 73.6148 211.507 78.2153 207.264 82.7441C202.951 78.2153 199.141 73.6148 195.688 68.151H181.383ZM155.066 76.9934C162.11 76.9934 167.79 82.6731 167.79 89.717C167.79 96.761 162.11 102.441 155.066 102.441C148.022 102.441 142.342 96.7637 142.342 89.717C142.342 82.6703 148.022 76.9934 155.066 76.9934ZM155.066 79.8679C149.674 79.8679 145.289 84.2529 145.289 89.717C145.289 95.1812 149.674 99.5665 155.066 99.5665C160.458 99.5665 164.843 95.1812 164.843 89.717C164.843 84.2529 160.458 79.8679 155.066 79.8679Z" fill="white"/>
</g>
<defs>
<radialGradient id="paint0_radial_158_186" cx="0" cy="0" r="1" gradientUnits="userSpaceOnUse" gradientTransform="translate(150 64) rotate(90) scale(116 188.691)">
<stop stop-color="#0600F8"/>
<stop offset="1" stop-color="#000279"/>
</radialGradient>
<clipPath id="clip0_158_186">
<rect width="166" height="45.4344" fill="white" transform="translate(67 67)"/>
</clipPath>
</defs>
</svg>
