<svg width="300" height="180" viewBox="0 0 300 180" fill="none" xmlns="http://www.w3.org/2000/svg">
<rect width="300" height="180" fill="url(#paint0_linear_158_59)"/>
<g clip-path="url(#clip0_158_59)">
<path d="M110.945 74.2516C110.181 71.3958 107.936 69.1516 105.08 68.3872C99.9097 67.0002 79.1657 67.0002 79.1657 67.0002C79.1657 67.0002 58.422 67.0002 53.2511 68.3872C50.3953 69.1516 48.1511 71.3958 47.3867 74.2516C45.9998 79.4225 45.9998 90.2176 45.9998 90.2176C45.9998 90.2176 45.9998 101.013 47.3867 106.184C48.1511 109.039 50.3953 111.284 53.2511 112.048C58.422 113.435 79.1657 113.435 79.1657 113.435C79.1657 113.435 99.9097 113.435 105.08 112.048C107.936 111.284 110.181 109.039 110.945 106.184C112.332 101.013 112.332 90.2176 112.332 90.2176C112.332 90.2176 112.326 79.4225 110.945 74.2516Z" fill="#FF0000"/>
<path d="M72.5266 100.167L89.7595 90.2183L72.5266 80.2695V100.167Z" fill="white"/>
<path d="M126.337 97.1908L118.889 70.2932H125.387L127.997 82.4861C128.663 85.4893 129.149 88.0502 129.466 90.1688H129.657C129.876 88.6508 130.367 86.1063 131.126 82.5298L133.829 70.2932H140.327L132.786 97.1908V110.094H126.332V97.1908H126.337Z" fill="#282828"/>
<path d="M142.282 109.241C140.971 108.356 140.037 106.98 139.48 105.113C138.929 103.246 138.651 100.767 138.651 97.6651V93.4442C138.651 90.3155 138.967 87.7983 139.601 85.9036C140.234 84.0089 141.222 82.6219 142.566 81.7538C143.909 80.8856 145.672 80.4487 147.857 80.4487C150.008 80.4487 151.728 80.891 153.028 81.7756C154.322 82.6602 155.272 84.0471 155.872 85.9254C156.473 87.8093 156.773 90.3155 156.773 93.4442V97.6651C156.773 100.767 156.479 103.257 155.894 105.135C155.31 107.019 154.36 108.395 153.049 109.263C151.739 110.131 149.959 110.568 147.715 110.568C145.399 110.573 143.592 110.126 142.282 109.241ZM149.631 104.687C149.992 103.737 150.177 102.192 150.177 100.04V90.9818C150.177 88.8959 149.997 87.367 149.631 86.406C149.265 85.4395 148.627 84.959 147.709 84.959C146.825 84.959 146.197 85.4395 145.836 86.406C145.47 87.3724 145.29 88.8959 145.29 90.9818V100.04C145.29 102.192 145.465 103.743 145.815 104.687C146.164 105.637 146.792 106.112 147.709 106.112C148.627 106.112 149.265 105.637 149.631 104.687Z" fill="#282828"/>
<path d="M177.91 110.099H172.788L172.22 106.539H172.079C170.686 109.226 168.6 110.569 165.815 110.569C163.888 110.569 162.463 109.936 161.546 108.674C160.628 107.407 160.169 105.431 160.169 102.744V81.0177H166.716V102.362C166.716 103.662 166.858 104.584 167.142 105.136C167.426 105.687 167.901 105.966 168.567 105.966C169.135 105.966 169.681 105.791 170.206 105.442C170.73 105.092 171.112 104.65 171.369 104.115V81.0122H177.91V110.099Z" fill="#282828"/>
<path d="M195.695 75.5616H189.197V110.098H182.792V75.5616H176.294V70.2979H195.695V75.5616Z" fill="#282828"/>
<path d="M211.486 110.099H206.364L205.796 106.539H205.654C204.262 109.226 202.176 110.569 199.391 110.569C197.464 110.569 196.039 109.936 195.121 108.674C194.204 107.407 193.745 105.431 193.745 102.744V81.0177H200.292V102.362C200.292 103.662 200.434 104.584 200.718 105.136C201.002 105.687 201.477 105.966 202.143 105.966C202.711 105.966 203.257 105.791 203.781 105.442C204.306 105.092 204.688 104.65 204.944 104.115V81.0122H211.486V110.099Z" fill="#282828"/>
<path d="M233.152 85.6636C232.754 83.829 232.115 82.5021 231.23 81.6776C230.346 80.8531 229.128 80.4436 227.577 80.4436C226.376 80.4436 225.251 80.7821 224.208 81.4646C223.165 82.1472 222.357 83.0372 221.789 84.1457H221.74V68.824H215.434V110.093H220.839L221.505 107.341H221.647C222.155 108.324 222.914 109.094 223.924 109.667C224.935 110.235 226.059 110.519 227.293 110.519C229.505 110.519 231.138 109.498 232.18 107.461C233.223 105.419 233.747 102.236 233.747 97.9003V93.2973C233.747 90.0483 233.545 87.4983 233.152 85.6636ZM227.151 97.5289C227.151 99.6475 227.064 101.307 226.889 102.509C226.715 103.71 226.425 104.567 226.01 105.07C225.601 105.577 225.044 105.829 224.35 105.829C223.81 105.829 223.313 105.703 222.854 105.446C222.396 105.195 222.024 104.813 221.74 104.311V87.8041C221.959 87.0123 222.341 86.368 222.881 85.8602C223.417 85.3524 224.006 85.1012 224.634 85.1012C225.3 85.1012 225.814 85.3633 226.174 85.8821C226.54 86.4062 226.791 87.2799 226.933 88.5139C227.075 89.748 227.146 91.5007 227.146 93.7776V97.5289H227.151Z" fill="#282828"/>
<path d="M243.035 99.2053C243.035 101.073 243.09 102.471 243.199 103.404C243.308 104.338 243.538 105.015 243.887 105.447C244.237 105.872 244.772 106.085 245.498 106.085C246.476 106.085 247.153 105.703 247.513 104.944C247.879 104.185 248.075 102.918 248.108 101.149L253.754 101.482C253.787 101.733 253.803 102.083 253.803 102.525C253.803 105.212 253.066 107.221 251.597 108.548C250.129 109.875 248.048 110.541 245.362 110.541C242.135 110.541 239.874 109.531 238.58 107.505C237.28 105.479 236.636 102.351 236.636 98.1131V93.035C236.636 88.6723 237.308 85.4835 238.651 83.4741C239.994 81.4647 242.293 80.46 245.553 80.46C247.797 80.46 249.522 80.8695 250.724 81.694C251.925 82.5185 252.771 83.7962 253.263 85.5381C253.754 87.2799 254 89.6825 254 92.7511V97.731H243.035V99.2053ZM243.865 85.4999C243.532 85.9094 243.314 86.581 243.199 87.5147C243.09 88.4484 243.035 89.8627 243.035 91.763V93.8488H247.824V91.763C247.824 89.8954 247.759 88.4812 247.633 87.5147C247.508 86.5482 247.278 85.8712 246.945 85.4726C246.612 85.0794 246.099 84.8774 245.405 84.8774C244.706 84.8828 244.193 85.0903 243.865 85.4999Z" fill="#282828"/>
</g>
<defs>
<linearGradient id="paint0_linear_158_59" x1="150" y1="0" x2="150" y2="180" gradientUnits="userSpaceOnUse">
<stop stop-color="white"/>
<stop offset="1" stop-color="#E0E0E0"/>
</linearGradient>
<clipPath id="clip0_158_59">
<rect width="208" height="46.4348" fill="white" transform="translate(46 67)"/>
</clipPath>
</defs>
</svg>
