<svg width="668" height="668" viewBox="0 0 668 668" fill="none" xmlns="http://www.w3.org/2000/svg">
<path d="M150.672 469.828C151.415 468.344 152.899 467.602 154.384 466.859C160.321 465.375 166.259 463.891 172.197 463.891C188.526 463.891 203.37 469.828 215.246 480.219C216.73 481.704 216.73 483.931 215.988 485.415L185.557 537.371C179.619 547.762 168.486 553.699 157.352 553.699C150.672 553.699 143.992 551.473 138.055 547.019C124.695 537.371 121.726 518.073 129.89 503.971L150.672 469.828ZM546.277 390.411C563.348 390.411 578.192 403.028 579.677 419.357C581.161 438.655 566.317 454.984 547.761 454.984H508.424L537.37 504.713C545.535 518.815 542.566 538.113 529.206 547.762C523.268 552.215 516.588 554.442 509.908 554.442C498.775 554.442 487.641 548.504 481.704 538.113L411.935 417.131L357.01 322.126C356.268 321.384 356.268 320.642 356.268 319.157C356.268 315.446 355.526 311.735 355.526 308.024C355.526 282.046 361.464 256.068 373.339 235.286C374.824 233.059 378.535 233.059 380.019 235.286L470.57 389.668H546.277V390.411ZM375.566 391.895C391.895 401.544 402.286 420.099 402.286 440.882C402.286 445.335 401.544 449.046 400.801 453.499C400.801 454.242 399.317 454.984 398.575 454.984H294.664H121.726C103.17 454.984 87.5835 438.655 89.8102 419.357C91.2946 402.286 106.139 390.411 123.21 390.411H196.69L296.89 218.215L269.428 171.455C259.779 155.126 266.459 133.602 284.272 126.179C299.859 119.499 317.672 126.179 326.579 140.282L334.744 154.384L343.65 139.539C353.299 123.211 374.824 118.015 390.41 129.148C404.512 138.797 407.481 158.095 398.575 172.939L270.912 390.411H322.868H370.37C372.597 390.411 374.081 391.153 375.566 391.895Z" fill="black" fill-opacity="0.6"/>
</svg>
