<svg width="1279" height="794" viewBox="0 0 1279 794" fill="none" xmlns="http://www.w3.org/2000/svg">
<path fill-rule="evenodd" clip-rule="evenodd" d="M116.911 1.40783C89.766 3.87283 66.5011 8.05885 44.076 14.5138C30.7761 18.3418 24.7029 21.3928 21.5389 25.8378C16.2699 33.2368 16.745 22.7728 12.546 223.971C10.387 327.412 8.86496 412.68 9.16296 413.456C9.46096 414.232 9.17498 416.335 8.52698 418.129C6.44598 423.899 0.857041 635.975 0.217041 733.451L0 766.509L3.026 771.424C4.912 774.487 7.89695 777.48 10.9449 779.366C15.2399 782.022 16.8859 782.427 24.4189 782.679C29.1389 782.837 75.506 779.609 127.457 775.507L221.914 768.048L225.191 770.925C230.806 775.856 232.958 776.067 274 775.716C310.055 775.409 312.231 775.285 316.511 773.304C321.648 770.926 326.8 766.144 329.188 761.536C330.188 759.606 331.725 750.698 333.169 738.464C334.463 727.504 335.629 718.442 335.761 718.326C335.892 718.21 339.6 717.814 344 717.446L352 716.777L356.383 728.584C358.793 735.079 362.077 743.833 363.681 748.038C368.453 760.555 376.372 766.819 387.5 766.877C390.78 766.894 402.612 764.639 416.809 761.291C429.904 758.203 440.81 755.869 441.044 756.103C441.279 756.337 442.404 761.185 443.545 766.875C446.484 781.539 449.59 786.76 458 791.175C465.191 794.949 470.714 794.279 525 783.045C577.934 772.09 583.429 770.473 587.976 764.512C594.621 755.8 594.873 750.144 589.975 719.596C588.036 707.503 586.634 697.425 586.859 697.2C587.083 696.975 594.032 707.951 602.299 721.592C610.566 735.232 618.831 748.316 620.665 750.668C628.329 760.493 639.763 762.424 654.453 756.374C659.103 754.459 662.992 752.892 663.095 752.892C663.199 752.892 663.544 753.932 663.863 755.203C665.028 759.844 670.286 765.64 675.761 768.319C681.076 770.919 682.088 771.022 735.941 774.42C766.066 776.321 791.904 777.591 793.357 777.242C801.153 775.372 809.467 768.324 811.917 761.506C812.731 759.243 814.333 747.942 815.478 736.392C818.991 700.958 817.428 700.838 828.123 737.361C833.436 755.505 838.422 770.643 839.721 772.578C842.558 776.802 849.656 781.643 854.289 782.512C859.944 783.573 872.337 782.335 919.918 775.953C962.957 770.181 965.027 769.992 969.418 771.451C972.813 772.578 995.12 774.128 1055.53 777.432C1144.87 782.319 1148.88 782.45 1154.88 780.676C1163.52 778.123 1171.48 767.165 1171.51 757.776C1171.52 755.915 1162.91 722.386 1152.38 683.268L1133.23 612.144L1200.98 529.366C1238.23 483.839 1269.79 444.565 1271.11 442.092C1276.24 432.432 1272.99 418.161 1264.21 411.797C1259.03 408.042 1255.32 407.074 1236.33 404.508C1227.71 403.344 1220.38 402.112 1220.04 401.769C1219.52 401.25 1239.73 383.747 1268.25 360.022C1276.68 353.008 1278.95 348.514 1278.95 338.892C1278.95 330.552 1276.95 325.45 1271.84 320.809C1269.69 318.852 1256.43 309.336 1244.69 301.315C1244.52 301.198 1247.13 296.315 1250.5 290.464C1260.41 273.26 1265.85 259.756 1266.32 251.127C1266.67 244.795 1266.38 243.157 1264.03 238.369C1261.14 232.447 1257.33 228.974 1251 226.485C1247.36 225.054 1176.14 207.538 1170.68 206.734C1168.5 206.412 1168.69 205.99 1173.97 199.392C1182.08 189.264 1188.38 178.007 1192.38 166.482C1195.61 157.202 1195.92 155.26 1196.3 142.286C1196.82 124.668 1194.96 116.313 1187 100.392C1175.27 76.9308 1155.14 58.1048 1128.16 45.3508C1109.96 36.7438 1095.19 33.1998 1073.5 32.2338C1033.64 30.4578 995.156 42.8999 965.75 67.0709L958.5 73.0308L958.478 65.2108C958.443 52.7488 953.925 44.9668 944 40.2748L939 37.9119H870H801L796 40.2449C793.25 41.5279 789.386 44.3689 787.413 46.5579C783.588 50.8009 784.18 49.3798 757.41 118.59C749.496 139.05 742.736 155.25 742.386 154.59C742.036 153.931 735.822 134.042 728.576 110.392C712.788 58.8628 713.152 59.8698 708.693 55.2778C701.73 48.1098 698.845 47.5018 675.522 48.2938C611.71 50.4588 563.687 52.8488 560 54.0428C554.589 55.7958 546.285 64.1979 544.716 69.5079C544.047 71.7719 543.5 78.8848 543.5 85.3158V97.0079L537.25 93.3939C515.297 80.7019 489.657 72.7078 461.575 69.7988C445.725 68.1568 417.895 69.1669 405.341 71.8389C388.098 75.5109 367.738 83.4378 354.211 91.7468C350.478 94.0408 347.024 96.0238 346.537 96.1548C346.05 96.2848 343.319 92.5698 340.468 87.8978C315.68 47.2738 276.38 19.2488 226.257 6.45281C205.314 1.10681 192.576 -0.12618 159.658 0.00981958C143.896 0.0748196 124.66 0.70383 116.911 1.40783ZM121 25.4069C94.453 27.8319 67.776 32.6369 48.911 38.3909L40.5 40.9559L40.399 50.6738C40.343 56.0188 40.169 61.9668 40.011 63.8918C39.854 65.8168 39.416 84.2668 39.037 104.892C38.658 125.517 37.0941 202.017 35.5601 274.892C34.0261 347.767 32.915 407.56 33.092 407.765C35.459 410.518 118.061 410.298 137.5 407.487C202.786 398.047 252.459 376.233 288.687 341.095L294.375 335.578L291.892 330.68C281.146 309.473 274.921 284.914 273.824 259.392C272.504 228.669 279.251 198.182 293.624 169.928C301.594 154.262 310.105 141.968 321.46 129.72C325.882 124.95 329.5 120.55 329.5 119.942C329.5 119.333 328.136 116.133 326.469 112.83C310.86 81.9088 288.095 59.3048 257 43.8538C236.312 33.5738 216.874 27.8648 192.526 24.9178C181.097 23.5338 138.3 23.8269 121 25.4069ZM1051.11 56.9538C1021.83 60.3518 992.079 74.0818 973.795 92.6368C939.288 127.658 943.761 169.306 987.119 216.68L994.937 225.223L992.06 227.308C968.911 244.077 945.601 265.892 935.338 280.392C922.318 298.786 916.5 314.199 916.5 330.294C916.5 345.61 920.476 356.423 930.935 369.551C946.696 389.332 974.286 403.565 1006.38 408.473C1050.79 415.262 1099.61 402.816 1143.01 373.647C1150.58 368.557 1157.3 364.002 1157.94 363.525C1158.69 362.957 1165.11 367.054 1176.48 375.374C1186.04 382.369 1194.38 388.291 1195.01 388.535C1195.65 388.779 1208.51 378.555 1223.58 365.816C1238.66 353.077 1252.08 341.801 1253.4 340.759C1254.72 339.717 1255.62 338.712 1255.4 338.527C1255.18 338.342 1246.57 332.291 1236.26 325.081C1213.64 309.25 1211.5 307.683 1211.5 306.922C1211.5 306.596 1215.34 300.517 1220.04 293.415C1228.16 281.14 1240.67 257.439 1242.03 251.736C1242.52 249.685 1242.25 248.96 1240.83 248.552C1235.11 246.901 1167.67 230.893 1166.45 230.896C1165.65 230.898 1163.54 233.71 1161.76 237.146C1157.52 245.333 1148.79 258.892 1147.76 258.892C1147.14 258.892 1108.72 230.445 1106.95 228.67C1106.73 228.451 1112.95 223.128 1120.77 216.843C1136.75 204.005 1148.87 192.383 1155.82 183.216C1176.34 156.163 1177.9 128.574 1160.39 102.717C1138.12 69.8228 1095.17 51.8409 1051.11 56.9538ZM805.206 62.6418C804.98 63.0548 790.473 100.517 772.97 145.892C755.466 191.267 740.876 228.718 740.548 229.116C740.086 229.677 716.569 154.682 693.257 78.3099L691.217 71.6258L676.109 72.2758C646.096 73.5658 633.456 74.0788 601.247 75.3108C583.234 75.9998 568.329 76.7498 568.127 76.9778C567.924 77.2058 567.453 99.6668 567.079 126.892C566.706 154.117 565.754 219.367 564.963 271.892C564.172 324.417 563.52 370.37 563.513 374.011L563.5 380.63L582.25 381.182C602.853 381.789 614.06 383.641 630 389.072C639.037 392.151 651.589 398.029 658.665 402.496C661.485 404.276 663.879 404.892 667.98 404.892C671.016 404.892 673.579 404.78 673.675 404.642C673.771 404.504 674.109 370.028 674.425 328.028L675 251.665L693.604 317.528L712.207 383.392L733.315 383.662L754.423 383.932L778.462 311.091C791.683 271.028 802.5 237.719 802.5 237.071C802.5 236.423 802.838 235.892 803.25 235.892C803.662 235.892 803.881 270.879 803.735 313.642L803.469 391.392L821.235 391.691C857.363 392.298 878.806 395.26 901.306 402.753C907.525 404.824 912.764 406.265 912.949 405.955C913.133 405.645 913.599 398.417 913.984 389.892L914.683 374.392L910.641 367.392C895.1 340.485 897.985 307.635 918.544 277.378L921.271 273.365L927.384 174.878C930.747 120.711 933.776 73.1288 934.116 69.1418L934.735 61.8918H870.177C834.669 61.8918 805.433 62.2288 805.206 62.6418ZM420.135 93.9578C377.633 99.8428 338.866 125.507 314.844 163.66C303.162 182.214 295.272 203.063 291.484 225.392C289.56 236.733 289.345 240.817 289.802 257.392C290.23 272.926 290.782 278.307 292.827 286.892C303.199 330.418 326.795 363.497 363.117 385.43C368.621 388.754 369.386 388.944 375 388.38C382.637 387.612 388.972 390.472 391.95 396.034C393.624 399.16 394.755 399.915 399.95 401.37C412.317 404.833 420.431 405.969 437.016 406.561L454.032 407.168L469.016 402.092C477.257 399.3 490.3 395.362 498 393.342C505.7 391.322 513.35 388.982 515 388.143C521.26 384.96 535.259 374.754 541.675 368.695L548.349 362.392L549.431 274.892C550.026 226.767 550.782 175.467 551.112 160.892L551.711 134.392L544.356 128.275C524.152 111.473 500.165 100.607 472.611 95.7739C459.274 93.4349 430.98 92.4558 420.135 93.9578ZM1045.84 123.351C1036.72 128.935 1034.64 141.868 1040.23 158.098C1043 166.127 1051.88 182.912 1053.34 182.876C1054.86 182.838 1064.71 167.631 1069.08 158.59C1073.06 150.375 1073.87 147.678 1074.23 141.608C1074.58 135.49 1074.29 133.716 1072.32 129.951C1068.85 123.305 1065.73 121.484 1057.2 121.113C1050.92 120.84 1049.47 121.125 1045.84 123.351ZM169.474 138.142C169.459 138.83 167.022 176.742 164.059 222.392C161.095 268.042 158.854 305.577 159.079 305.803C159.816 306.543 170.389 303.797 176.744 301.215C210.01 287.698 232.582 251.595 232.48 212.07C232.379 172.918 213.494 144.799 183 138.396C174.307 136.571 169.509 136.481 169.474 138.142ZM191.5 170.903C191.5 171.975 190.132 193.843 188.461 219.5C186.79 245.156 185.618 266.344 185.858 266.583C186.098 266.823 188.028 264.957 190.147 262.436C199.766 250.994 205.284 238.045 207.602 221.479C209.007 211.433 207.817 198.368 204.527 187.716C201.499 177.91 191.5 165.006 191.5 170.903ZM428.392 200.28C416.313 203.773 404.917 213.192 399.619 224.061C394.64 234.278 393.168 241.791 393.775 253.892C394.945 277.207 405.261 295.246 422.148 303.508C429.41 307.061 442.412 307.926 451.055 305.431C467.718 300.622 479.445 288.196 485.119 269.34C487.514 261.379 487.508 244.779 485.107 235.972C481.022 220.987 471.491 208.475 459.766 202.702C454.085 199.906 452.255 199.525 443.19 199.253C436.777 199.061 431.292 199.441 428.392 200.28ZM949.148 215.987C948.326 223.848 948.318 229.892 949.129 229.892C949.908 229.892 957.878 222.811 958.329 221.717C958.597 221.065 956.116 217.561 950.448 210.59C950.089 210.149 949.504 212.577 949.148 215.987ZM433.96 223.956C429.096 225.371 423.005 231.291 420.556 236.984C416.173 247.171 416.889 259.062 422.583 270.682C428.045 281.83 437.247 285.443 447.831 280.598C457.209 276.304 462.874 265.603 462.792 252.335C462.665 231.828 449.945 219.308 433.96 223.956ZM1045.5 280.582C1025.13 305.913 1020.58 322.428 1030.87 333.737C1036.73 340.182 1045.68 341.049 1055.65 336.137C1062.6 332.715 1075.65 322.178 1080 316.476L1082.67 312.981L1066.83 294.003C1058.13 283.566 1050.78 275.017 1050.5 275.006C1050.22 274.995 1047.97 277.504 1045.5 280.582ZM293.5 369.447C284.843 376.937 272.215 385.811 259.141 393.591C254.113 396.583 250.9 398.802 252 398.524C253.1 398.245 269.525 395.672 288.5 392.806C307.475 389.939 323.136 387.488 323.302 387.358C323.467 387.228 320.192 383.61 316.022 379.316C311.852 375.023 306.992 369.585 305.22 367.232C303.449 364.879 301.775 362.955 301.5 362.956C301.225 362.957 297.625 365.879 293.5 369.447ZM557.742 396.963C547.612 397.942 533.053 400.772 512 405.854C476.706 414.375 446.547 426.1 419.252 441.915C413.099 445.48 411.522 446.87 411.512 448.739C411.494 452.199 416.341 480.397 427.954 544.392C433.643 575.742 445.178 639.32 453.586 685.677C466.699 757.967 469.097 769.877 470.437 769.361C471.297 769.031 493.734 764.343 520.298 758.945C546.862 753.546 568.865 748.861 569.192 748.533C569.52 748.205 566.345 726.214 562.137 699.664C557.929 673.115 554.489 651.093 554.493 650.728C554.506 649.502 581.8 643.589 583.183 644.513C583.906 644.996 596.684 665.417 611.578 689.892C626.472 714.367 638.994 734.741 639.405 735.168C639.969 735.754 670.846 723.794 672.274 722.438C672.572 722.155 680.466 628.752 680.487 625.263C680.495 624.028 677.319 619.494 672.929 614.473L665.358 605.813L670.753 599.986C673.72 596.781 677.907 592.011 680.057 589.387L683.967 584.616L686.165 559.504C687.374 545.692 689.592 518.817 691.093 499.781L693.823 465.169L689.586 457.281C666.205 413.747 616.997 391.234 557.742 396.963ZM310.621 413.928C275.762 419.367 247.009 424.049 246.726 424.332C246.089 424.97 217.674 574.251 218.094 574.757C218.26 574.958 221.232 573.538 224.698 571.602C230.768 568.211 233.859 567.418 239.747 567.741C243.39 567.941 250.213 574.192 251.372 578.392C252.316 581.81 241.451 744.998 239.967 749.693L239.24 751.993L272.788 751.693C291.239 751.527 306.559 751.167 306.832 750.892C307.104 750.617 308.728 738.268 310.439 723.45C312.15 708.632 313.652 696.411 313.775 696.293C314.26 695.828 367.544 690.604 367.908 690.985C368.121 691.209 372.618 702.832 377.902 716.813C383.186 730.795 387.673 742.398 387.873 742.598C388.208 742.933 444.609 729.933 445.309 729.36C445.593 729.128 435.773 674.386 409.53 529.892C404.086 499.917 398.5 468.192 397.118 459.392C394.769 444.439 394.09 442.116 386.748 423.892C379.664 406.307 378.652 404.375 376.446 404.216C375.101 404.119 345.479 408.489 310.621 413.928ZM781.646 407.971C762.101 409.47 738.666 413.595 720.5 418.732L714 420.571L712.297 436.481C711.361 445.232 709.028 471.517 707.114 494.892C705.2 518.267 699.718 584.319 694.933 641.675C690.148 699.03 686.513 746.238 686.855 746.58C688.026 747.751 788.718 753.492 789.103 752.41C789.441 751.462 799.5 657.004 799.5 654.782C799.5 654.116 804.524 654.008 814.25 654.464C822.363 654.845 829.117 655.251 829.259 655.367C829.402 655.482 836.291 678.7 844.569 706.961C852.847 735.222 859.813 758.538 860.049 758.774C860.534 759.26 960.558 746.167 961.19 745.536C961.413 745.312 961.84 742.038 962.139 738.26L962.681 731.392L940.518 685.547C928.329 660.333 918.501 639.606 918.678 639.488C918.855 639.369 922.15 637.423 926 635.162C941.834 625.864 955.463 613.283 964.487 599.636L970.277 590.879L968.864 586.136C968.087 583.527 956.525 546.518 943.171 503.894L918.891 426.396L908.945 422.207C888.545 413.614 869.245 409.542 841.222 407.919C821.619 406.783 796.847 406.805 781.646 407.971ZM222.668 410.956C218.278 412.906 194.161 420.696 185 423.124L180 424.449L179.719 429.421C179.564 432.155 177.001 458.917 174.022 488.892C171.044 518.867 167.912 552.392 167.061 563.392C166.21 574.392 165.269 585.933 164.969 589.038L164.424 594.684L178.962 586.677C193.297 578.782 193.5 578.622 193.5 575.24C193.5 573.354 200.05 537.316 208.055 495.156C218.49 440.198 223.26 417.142 224.909 413.697C226.173 411.054 227.161 408.924 227.104 408.963C227.047 409.001 225.051 409.899 222.668 410.956ZM951.815 416.41C941.814 416.97 933.419 417.645 933.16 417.91C932.901 418.175 945.453 459.117 961.054 508.892L989.418 599.392L983.251 673.6C979.859 714.415 977.304 748.029 977.573 748.299C978.184 748.909 1142.05 758.103 1144.99 757.691C1147.04 757.404 1146.29 754.295 1126.82 681.989L1106.52 606.586L1111.86 599.989C1114.79 596.361 1146.97 556.994 1183.38 512.507C1219.78 468.02 1249.37 431.427 1249.13 431.189C1248.57 430.629 1140.79 415.894 1137.5 415.928C1135.33 415.951 1130.7 422.326 1102 464.878C1083.85 491.785 1068.78 513.821 1068.5 513.846C1068.22 513.872 1065.61 493.763 1062.69 469.161C1059.76 444.559 1057.29 424.363 1057.19 424.28C1057.08 424.198 1053.85 424.575 1050 425.118C1040.63 426.441 1012.29 425.43 1000.5 423.352C995.275 422.432 986.275 420.264 980.5 418.535L970 415.392L951.815 416.41ZM1091.7 425.083L1082.4 428.064L1083.09 435.228C1084.29 447.709 1084.24 447.715 1093.37 434.092C1097.86 427.382 1101.42 421.939 1101.27 421.997C1101.12 422.054 1096.81 423.443 1091.7 425.083ZM31.114 432.142C30.814 435.58 30.3229 448.292 30.0229 460.392C29.7219 472.492 29.039 498.817 28.504 518.892C26.073 610.176 23.252 757.978 23.929 758.655C24.416 759.142 224.534 743.935 225.301 743.352C225.696 743.052 236.563 584.583 236.245 583.753C236.11 583.402 214.259 595.036 187.686 609.606C161.113 624.176 139.115 635.84 138.801 635.527C137.043 633.768 142.643 558.726 150.04 484.925C153.043 454.968 155.5 429.431 155.5 428.175V425.892H93.58H31.6591L31.114 432.142ZM545 482.491C536.93 484.292 528.5 487.684 528.5 489.131C528.5 490.375 541.34 571.62 541.994 574.511C542.462 576.585 542.606 576.6 548.696 575.193C564.448 571.554 580.402 562.776 587.774 553.691C594.002 546.018 596.774 539.276 597.299 530.533C597.875 520.918 596.391 513.655 591.934 504.273C583.429 486.374 565.303 477.961 545 482.491ZM818.836 490.529C817.113 490.911 816.547 491.965 816.061 495.7C815.043 503.518 807.5 576.082 807.5 578.054C807.5 579.725 808.476 579.89 818.25 579.875C831.405 579.853 840.651 577.992 850.252 573.433C859.233 569.168 867.568 561.169 871.123 553.404C875.903 542.964 876.258 528.035 872.017 515.892C868.359 505.419 859.202 496.23 848.5 492.291C844.074 490.662 823.697 489.452 818.836 490.529ZM555.836 507.228C556.116 508.418 557.561 517.141 559.046 526.611C562.02 545.577 561.823 545.296 567.875 539.244C574.395 532.725 575.102 524.96 570.079 515.047C567.23 509.425 564.422 507.115 558.936 505.877C555.571 505.119 555.361 505.21 555.836 507.228ZM838.041 519.142C837.237 525.019 834.5 550.773 834.5 552.463C834.5 555.967 846.558 548.397 848.926 543.406C851.141 538.738 850.943 528.465 848.536 523.163C846.891 519.538 841.725 514.909 839.311 514.896C838.932 514.894 838.361 516.804 838.041 519.142ZM320.591 579.95C318.2 602.51 316.447 621.173 316.696 621.422C316.945 621.67 324.765 621.072 334.074 620.093C347.559 618.674 350.977 618.015 350.886 616.852C350.722 614.748 326.427 540.534 325.617 539.661C325.244 539.259 322.982 557.389 320.591 579.95ZM958.482 642.227C957.097 643.418 954.645 645.352 953.033 646.525L950.102 648.657L954.453 658.289C956.847 663.586 958.936 667.79 959.096 667.63C959.569 667.157 961.767 640.825 961.367 640.427C961.165 640.226 959.867 641.036 958.482 642.227Z" fill="#050505"/>
<path fill-rule="evenodd" clip-rule="evenodd" d="M120.999 25.4084C94.4523 27.8334 67.7753 32.6385 48.9103 38.3925L40.4993 40.9575L40.3984 50.6754C40.3424 56.0204 40.1683 61.9684 40.0103 63.8934C39.8533 65.8184 39.4153 84.2684 39.0363 104.893C38.6573 125.518 37.0934 202.018 35.5594 274.893C34.0254 347.768 32.9144 407.561 33.0914 407.766C35.4584 410.519 118.06 410.299 137.499 407.488C202.785 398.048 252.458 376.234 288.686 341.096L294.374 335.579L291.891 330.681C281.145 309.474 274.92 284.915 273.823 259.393C272.503 228.67 279.25 198.183 293.623 169.929C301.593 154.263 310.104 141.969 321.459 129.721C325.881 124.951 329.499 120.551 329.499 119.943C329.499 119.334 328.135 116.134 326.468 112.831C310.859 81.9104 288.094 59.3064 256.999 43.8554C236.311 33.5754 216.873 27.8664 192.525 24.9194C181.096 23.5354 138.299 23.8284 120.999 25.4084ZM1051.11 56.9554C1021.83 60.3534 992.078 74.0834 973.794 92.6384C939.287 127.659 943.76 169.307 987.118 216.681L994.936 225.224L992.059 227.309C968.91 244.078 945.6 265.893 935.337 280.393C922.317 298.787 916.499 314.2 916.499 330.295C916.499 345.611 920.475 356.424 930.934 369.552C946.695 389.333 974.285 403.566 1006.38 408.474C1050.79 415.263 1099.61 402.817 1143.01 373.648C1150.58 368.558 1157.3 364.003 1157.93 363.526C1158.69 362.958 1165.1 367.055 1176.48 375.375C1186.03 382.37 1194.38 388.292 1195.01 388.536C1195.65 388.78 1208.5 378.556 1223.58 365.817C1238.66 353.078 1252.08 341.802 1253.4 340.76C1254.72 339.718 1255.62 338.713 1255.4 338.528C1255.18 338.343 1246.57 332.292 1236.26 325.082C1213.64 309.251 1211.5 307.684 1211.5 306.923C1211.5 306.597 1215.34 300.518 1220.04 293.416C1228.16 281.141 1240.67 257.44 1242.03 251.737C1242.52 249.686 1242.25 248.961 1240.83 248.553C1235.11 246.902 1167.67 230.894 1166.45 230.897C1165.65 230.899 1163.54 233.711 1161.76 237.147C1157.51 245.334 1148.79 258.893 1147.76 258.893C1147.14 258.893 1108.72 230.446 1106.94 228.671C1106.72 228.452 1112.95 223.129 1120.77 216.844C1136.75 204.006 1148.87 192.384 1155.82 183.217C1176.34 156.164 1177.9 128.575 1160.39 102.718C1138.12 69.8244 1095.17 51.8424 1051.11 56.9554ZM805.205 62.6434C804.979 63.0564 790.472 100.518 772.969 145.893C755.465 191.268 740.875 228.719 740.547 229.117C740.085 229.678 716.568 154.683 693.256 78.3115L691.216 71.6274L676.108 72.2774C646.095 73.5674 633.455 74.0804 601.246 75.3124C583.233 76.0014 568.328 76.7514 568.126 76.9794C567.923 77.2074 567.452 99.6684 567.078 126.893C566.705 154.118 565.753 219.368 564.962 271.893C564.171 324.418 563.519 370.371 563.512 374.012L563.499 380.631L582.249 381.183C602.852 381.79 614.059 383.642 629.999 389.073C639.036 392.152 651.588 398.03 658.664 402.497C661.484 404.277 663.878 404.893 667.979 404.893C671.015 404.893 673.578 404.781 673.674 404.643C673.77 404.505 674.108 370.029 674.424 328.029L674.999 251.666L693.603 317.529L712.206 383.393L733.314 383.663L754.422 383.933L778.461 311.092C791.682 271.029 802.499 237.72 802.499 237.072C802.499 236.424 802.837 235.893 803.249 235.893C803.661 235.893 803.88 270.88 803.734 313.643L803.468 391.393L821.234 391.692C857.362 392.299 878.805 395.261 901.305 402.754C907.524 404.825 912.763 406.266 912.948 405.956C913.132 405.646 913.598 398.418 913.983 389.893L914.682 374.393L910.64 367.393C895.099 340.486 897.984 307.636 918.543 277.379L921.27 273.366L927.383 174.879C930.746 120.712 933.775 73.1304 934.115 69.1434L934.734 61.8934H870.176C834.668 61.8934 805.432 62.2304 805.205 62.6434ZM420.134 93.9594C377.632 99.8444 338.865 125.508 314.843 163.661C303.161 182.215 295.271 203.064 291.483 225.393C289.559 236.734 289.344 240.818 289.801 257.393C290.229 272.927 290.781 278.308 292.826 286.893C303.198 330.419 326.794 363.498 363.116 385.431C368.62 388.755 369.385 388.945 374.999 388.381C382.636 387.613 388.971 390.473 391.949 396.035C393.623 399.161 394.754 399.916 399.949 401.371C412.316 404.834 420.43 405.97 437.015 406.562L454.031 407.169L469.015 402.093C477.256 399.301 490.299 395.363 497.999 393.343C505.699 391.323 513.349 388.983 514.999 388.144C521.259 384.961 535.258 374.755 541.674 368.696L548.348 362.393L549.43 274.893C550.025 226.768 550.781 175.468 551.111 160.893L551.71 134.393L544.355 128.276C524.151 111.474 500.164 100.608 472.61 95.7754C459.273 93.4364 430.979 92.4574 420.134 93.9594ZM1045.84 123.352C1036.72 128.936 1034.64 141.869 1040.23 158.099C1043 166.128 1051.88 182.913 1053.34 182.877C1054.86 182.839 1064.71 167.632 1069.08 158.591C1073.05 150.376 1073.87 147.679 1074.22 141.609C1074.58 135.491 1074.29 133.717 1072.32 129.952C1068.85 123.306 1065.73 121.485 1057.2 121.114C1050.92 120.841 1049.47 121.126 1045.84 123.352ZM169.473 138.143C169.458 138.831 167.021 176.743 164.058 222.393C161.094 268.043 158.853 305.578 159.078 305.804C159.815 306.544 170.388 303.798 176.743 301.216C210.009 287.699 232.581 251.596 232.479 212.071C232.378 172.919 213.493 144.8 182.999 138.397C174.306 136.572 169.508 136.482 169.473 138.143ZM428.391 200.281C416.312 203.774 404.916 213.193 399.618 224.062C394.639 234.279 393.167 241.792 393.774 253.893C394.944 277.208 405.26 295.247 422.147 303.509C429.409 307.062 442.411 307.927 451.054 305.432C467.717 300.623 479.444 288.197 485.118 269.341C487.513 261.38 487.507 244.78 485.106 235.973C481.021 220.988 471.49 208.476 459.765 202.703C454.084 199.907 452.254 199.526 443.189 199.254C436.776 199.062 431.291 199.442 428.391 200.281ZM1045.5 280.583C1025.13 305.914 1020.58 322.429 1030.87 333.738C1036.73 340.183 1045.68 341.05 1055.65 336.138C1062.6 332.716 1075.65 322.179 1080 316.477L1082.67 312.982L1066.83 294.004C1058.13 283.567 1050.77 275.018 1050.5 275.007C1050.22 274.996 1047.97 277.505 1045.5 280.583ZM557.741 396.964C547.611 397.943 533.052 400.773 511.999 405.855C476.705 414.376 446.546 426.101 419.251 441.916C413.098 445.481 411.521 446.871 411.511 448.74C411.493 452.2 416.34 480.398 427.953 544.393C433.642 575.743 445.177 639.321 453.585 685.678C466.698 757.968 469.096 769.878 470.436 769.362C471.296 769.032 493.733 764.344 520.297 758.946C546.861 753.547 568.864 748.862 569.191 748.534C569.519 748.206 566.344 726.215 562.136 699.665C557.928 673.116 554.488 651.094 554.492 650.729C554.505 649.503 581.799 643.59 583.182 644.514C583.905 644.997 596.683 665.418 611.577 689.893C626.471 714.368 638.993 734.742 639.404 735.169C639.968 735.755 670.845 723.795 672.273 722.439C672.571 722.156 680.465 628.753 680.486 625.264C680.494 624.029 677.318 619.495 672.928 614.474L665.357 605.814L670.752 599.987C673.719 596.782 677.906 592.012 680.056 589.388L683.966 584.617L686.164 559.505C687.373 545.693 689.591 518.818 691.092 499.782L693.822 465.17L689.585 457.282C666.204 413.748 616.996 391.235 557.741 396.964ZM310.62 413.929C275.761 419.368 247.008 424.05 246.725 424.333C246.088 424.971 217.673 574.252 218.093 574.758C218.259 574.959 221.231 573.539 224.697 571.603C230.767 568.212 233.858 567.419 239.746 567.742C243.389 567.942 250.212 574.193 251.371 578.393C252.315 581.811 241.45 744.999 239.966 749.694L239.239 751.994L272.787 751.694C291.238 751.528 306.558 751.168 306.831 750.893C307.103 750.618 308.727 738.269 310.438 723.451C312.149 708.633 313.651 696.412 313.774 696.294C314.259 695.829 367.543 690.605 367.907 690.986C368.12 691.21 372.617 702.833 377.901 716.814C383.185 730.796 387.672 742.399 387.872 742.599C388.207 742.935 444.608 729.934 445.308 729.361C445.592 729.129 435.772 674.387 409.529 529.893C404.085 499.918 398.499 468.193 397.117 459.393C394.768 444.44 394.089 442.117 386.747 423.893C379.663 406.308 378.651 404.376 376.445 404.217C375.1 404.12 345.478 408.49 310.62 413.929ZM781.645 407.972C762.1 409.471 738.665 413.596 720.499 418.733L713.999 420.572L712.296 436.482C711.36 445.233 709.027 471.518 707.113 494.893C705.199 518.268 699.717 584.32 694.932 641.676C690.147 699.031 686.512 746.239 686.854 746.581C688.025 747.752 788.717 753.493 789.102 752.411C789.44 751.463 799.499 657.005 799.499 654.783C799.499 654.117 804.523 654.009 814.249 654.465C822.362 654.846 829.116 655.252 829.258 655.368C829.401 655.483 836.29 678.701 844.568 706.962C852.846 735.223 859.812 758.539 860.048 758.775C860.533 759.261 960.557 746.168 961.189 745.537C961.412 745.313 961.839 742.039 962.138 738.261L962.68 731.393L940.517 685.548C928.328 660.334 918.5 639.607 918.677 639.489C918.854 639.37 922.149 637.424 925.999 635.163C941.833 625.865 955.462 613.284 964.486 599.637L970.276 590.88L968.863 586.137C968.086 583.528 956.524 546.519 943.17 503.895L918.89 426.397L908.944 422.208C888.544 413.615 869.244 409.543 841.221 407.92C821.618 406.784 796.846 406.806 781.645 407.972ZM951.814 416.411C941.813 416.971 933.418 417.646 933.159 417.911C932.9 418.176 945.452 459.118 961.053 508.893L989.417 599.393L983.25 673.601C979.858 714.416 977.303 748.03 977.572 748.3C978.183 748.91 1142.05 758.104 1144.99 757.692C1147.04 757.405 1146.29 754.297 1126.82 681.99L1106.52 606.587L1111.86 599.99C1114.79 596.362 1146.97 556.995 1183.38 512.508C1219.78 468.021 1249.37 431.428 1249.13 431.19C1248.57 430.63 1140.79 415.895 1137.5 415.929C1135.33 415.952 1130.7 422.327 1102 464.879C1083.85 491.786 1068.77 513.822 1068.5 513.847C1068.22 513.873 1065.61 493.764 1062.68 469.162C1059.76 444.56 1057.29 424.364 1057.19 424.281C1057.08 424.199 1053.85 424.576 1050 425.119C1040.63 426.442 1012.29 425.431 1000.5 423.353C995.274 422.433 986.274 420.265 980.499 418.536L969.999 415.393L951.814 416.411ZM31.1133 432.143C30.8133 435.581 30.3223 448.293 30.0223 460.393C29.7213 472.493 29.0384 498.818 28.5034 518.893C26.0724 610.177 23.2513 757.979 23.9283 758.656C24.4153 759.143 224.533 743.936 225.3 743.353C225.695 743.053 236.562 584.584 236.244 583.754C236.109 583.403 214.258 595.037 187.685 609.607C161.112 624.177 139.114 635.841 138.8 635.528C137.042 633.769 142.642 558.727 150.039 484.926C153.042 454.969 155.499 429.432 155.499 428.176V425.893H93.5793H31.6584L31.1133 432.143ZM544.999 482.492C536.929 484.293 528.499 487.685 528.499 489.132C528.499 490.376 541.339 571.621 541.993 574.512C542.461 576.586 542.605 576.601 548.695 575.194C564.447 571.555 580.401 562.777 587.773 553.692C594.001 546.019 596.773 539.277 597.298 530.534C597.874 520.919 596.39 513.656 591.933 504.274C583.428 486.375 565.302 477.962 544.999 482.492ZM818.835 490.53C817.112 490.912 816.546 491.966 816.06 495.701C815.042 503.519 807.499 576.083 807.499 578.055C807.499 579.726 808.475 579.891 818.249 579.876C831.404 579.854 840.65 577.993 850.251 573.434C859.232 569.169 867.567 561.17 871.122 553.405C875.902 542.965 876.257 528.036 872.016 515.893C868.358 505.42 859.201 496.231 848.499 492.292C844.073 490.663 823.696 489.453 818.835 490.53ZM320.59 579.951C318.199 602.511 316.446 621.174 316.695 621.423C316.944 621.671 324.764 621.073 334.073 620.094C347.558 618.675 350.976 618.016 350.885 616.853C350.721 614.749 326.426 540.535 325.616 539.662C325.243 539.26 322.981 557.39 320.59 579.951Z" fill="#FBFBFB"/>
</svg>
