<svg width="43" height="41" viewBox="0 0 43 41" fill="none" xmlns="http://www.w3.org/2000/svg">
<path d="M0 35.7V18.9C0 18.02 0 17.58 0.115337 17.1762C0.217489 16.8185 0.385272 16.4829 0.610128 16.1866C0.864004 15.852 1.216 15.588 1.92 15.06L19.052 2.21098L19.052 2.21097C20.1074 1.41945 20.6351 1.02369 21.2134 0.875619C21.7237 0.744949 22.2595 0.750968 22.7667 0.89307C23.3416 1.0541 23.8602 1.46162 24.8976 2.27666L41.1655 15.0586C41.8389 15.5877 42.1756 15.8523 42.4181 16.1825C42.6329 16.475 42.7928 16.8041 42.8902 17.1537C43 17.5484 43 17.9766 43 18.833V35.7C43 37.3802 43 38.2202 42.673 38.862C42.3854 39.4265 41.9265 39.8854 41.362 40.173C40.7202 40.5 39.8802 40.5 38.2 40.5H33.3C31.6198 40.5 30.7798 40.5 30.138 40.173C29.5735 39.8854 29.1146 39.4265 28.827 38.862C28.5 38.2202 28.5 37.3802 28.5 35.7V32.8C28.5 31.1198 28.5 30.2798 28.173 29.638C27.8854 29.0735 27.4265 28.6146 26.862 28.327C26.2202 28 25.3802 28 23.7 28H19.3C17.6198 28 16.7798 28 16.138 28.327C15.5735 28.6146 15.1146 29.0735 14.827 29.638C14.5 30.2798 14.5 31.1198 14.5 32.8V35.7C14.5 37.3802 14.5 38.2202 14.173 38.862C13.8854 39.4265 13.4265 39.8854 12.862 40.173C12.2202 40.5 11.3802 40.5 9.7 40.5H4.8C3.11984 40.5 2.27976 40.5 1.63803 40.173C1.07354 39.8854 0.614601 39.4265 0.32698 38.862C0 38.2202 0 37.3802 0 35.7Z" fill="#1E1E1E" fill-opacity="0.85"/>
</svg>
