<svg width="515" height="515" viewBox="0 0 515 515" fill="none" xmlns="http://www.w3.org/2000/svg">
<path d="M176.245 188.834C181.395 188.834 185.973 189.406 190.55 190.55C189.406 185.973 188.834 180.823 188.834 176.245V103C188.834 99.5671 189.406 96.706 189.406 93.8449C162.512 73.8171 124.173 76.106 100.139 100.139C76.106 124.173 73.8171 162.512 93.8449 189.406C96.706 188.834 100.139 188.834 103 188.834H176.245Z" fill="#FF7E7B"/>
<path d="M252.927 244.34C249.494 244.34 246.633 243.768 243.199 243.195C243.771 246.056 244.344 249.49 244.344 252.923C246.06 251.779 247.205 250.634 248.921 248.918C250.066 247.201 251.21 246.056 252.927 244.34Z" fill="#FF6F3F"/>
<path d="M248.917 151.639C252.351 155.072 255.784 159.077 258.073 163.083C260.934 159.077 263.795 155.072 267.228 151.639L318.728 100.139C321.017 97.8497 322.734 96.133 325.023 94.4163C321.59 60.6552 292.406 34.333 257.501 34.333C222.595 34.333 193.984 60.083 189.406 93.8441C192.267 95.5608 194.556 97.8497 196.845 100.139L248.917 151.639Z" fill="#FFAC00"/>
<path d="M263.222 244.338C261.505 242.049 259.216 239.761 258.072 236.899C256.355 239.188 254.639 242.049 252.922 244.338C254.639 244.338 256.355 244.338 257.5 244.338C259.216 244.911 261.505 244.338 263.222 244.338Z" fill="#FFC300"/>
<path d="M188.832 176.245C188.832 181.395 189.404 185.973 190.549 190.55C216.871 196.273 237.471 216.873 243.193 243.195C246.054 243.767 249.488 244.339 252.921 244.339C254.638 242.05 256.926 239.761 258.071 236.9C243.765 214.584 243.765 185.4 258.071 163.084C255.21 159.078 252.349 155.073 248.915 151.639L197.415 100.139C195.126 97.8503 192.265 95.5614 189.976 93.8447C189.404 96.7058 188.832 99.567 188.832 103V176.245Z" fill="#FF3400"/>
<path d="M326.166 176.244C326.166 181.394 325.594 185.972 324.449 190.55C329.027 189.406 334.177 188.833 338.755 188.833H411.999C415.433 188.833 418.866 189.406 422.299 189.978C442.327 163.083 440.61 124.744 416.005 100.139C391.399 75.5334 352.488 73.8167 325.594 94.4167C326.166 97.2778 326.166 100.139 326.166 103V176.244Z" fill="#F0EA0D"/>
<path d="M270.658 251.779C270.658 248.918 271.23 246.056 271.802 243.195C268.941 243.768 266.08 244.34 263.219 244.34C264.363 246.056 266.08 247.201 267.224 248.918C268.369 250.062 269.513 250.634 270.658 251.779Z" fill="#DAE411"/>
<path d="M267.23 151.639C263.796 155.073 260.363 159.078 258.074 163.084C272.38 185.4 272.38 214.584 258.074 236.9C259.791 239.189 261.508 242.05 263.224 244.339C266.085 244.339 268.946 243.767 271.808 243.195C277.53 216.873 298.13 196.273 324.452 190.55C325.596 185.973 326.169 180.823 326.169 176.245V103C326.169 100.139 326.169 97.2781 325.596 94.417C323.308 96.1337 321.019 97.8503 319.302 100.139L267.23 151.639Z" fill="#EAA200"/>
<path d="M258.069 163.083C243.763 185.4 243.763 214.583 258.069 236.9C272.375 214.583 272.375 185.972 258.069 163.083Z" fill="#E63300"/>
<path d="M270.086 257.5C270.086 259.788 270.086 262.077 270.658 264.366C273.519 262.077 276.38 259.788 279.241 258.072C276.38 256.355 273.519 254.066 270.658 251.777C270.658 253.494 270.086 255.783 270.086 257.5Z" fill="#83D567"/>
<path d="M480.668 257.5C480.668 223.166 455.49 194.555 422.301 189.978C420.585 192.839 418.296 195.128 416.007 197.416L364.507 248.916C361.074 252.35 357.068 255.783 353.062 258.072C357.068 260.933 361.074 263.794 364.507 267.228L416.007 318.728C418.296 321.016 420.013 322.733 421.729 325.022C454.918 320.444 480.668 292.405 480.668 257.5Z" fill="#A2DD50"/>
<path d="M338.758 188.833C333.608 188.833 329.031 189.405 324.453 190.55C318.731 216.872 298.131 237.472 271.809 243.194C271.236 246.055 270.664 248.916 270.664 251.777C273.525 254.066 276.386 256.355 279.247 258.072C301.564 243.766 330.747 243.766 353.064 258.072C357.07 255.211 361.075 252.35 364.508 248.916L416.008 197.416C418.297 195.127 420.586 192.266 422.303 189.977C418.87 189.405 415.436 188.833 412.003 188.833H338.758Z" fill="#8BC100"/>
<path d="M324.445 190.551C298.123 196.273 277.523 216.873 271.801 243.195C298.123 237.473 318.723 216.873 324.445 190.551Z" fill="#8D8800"/>
<path d="M338.755 326.166C333.605 326.166 329.027 325.594 324.449 324.449C325.594 329.027 326.166 334.177 326.166 338.755V411.999C326.166 415.433 325.594 418.294 325.594 421.727C352.488 442.899 391.399 441.183 416.577 416.005C441.183 391.399 443.471 352.488 422.299 325.021C418.294 325.594 415.433 326.166 411.999 326.166H338.755Z" fill="#44C899"/>
<path d="M264.367 270.661C266.656 270.661 269.517 271.233 271.806 271.805C271.234 269.516 270.662 266.655 270.662 264.366C269.517 265.511 268.373 266.083 267.228 267.227C266.084 268.372 265.512 269.516 264.367 270.661Z" fill="#4EBFBD"/>
<path d="M364.508 267.229C361.075 263.795 357.07 260.362 353.064 258.073C330.747 272.379 301.564 272.379 279.247 258.073C276.386 259.79 273.525 262.079 270.664 264.368C270.664 266.657 271.236 269.518 271.809 271.807C298.131 277.529 318.731 298.129 324.453 324.451C329.031 325.595 334.181 326.168 338.758 326.168H412.003C415.436 326.168 418.297 325.595 421.731 325.595C420.014 323.307 418.297 321.018 416.008 319.301L364.508 267.229Z" fill="#00A33F"/>
<path d="M279.246 258.073C301.563 272.378 330.746 272.378 353.063 258.073C330.174 243.767 301.563 243.767 279.246 258.073Z" fill="#008D08"/>
<path d="M251.781 270.66C254.07 273.521 256.359 276.382 258.076 279.243C259.792 276.382 262.081 273.521 264.37 270.66C262.081 270.66 259.792 270.088 257.503 270.088C255.787 270.088 253.498 270.66 251.781 270.66Z" fill="#859ED5"/>
<path d="M267.23 364.505C263.797 361.072 260.364 357.066 258.075 353.061C255.214 357.066 252.353 361.072 248.919 364.505L197.419 416.005C195.13 418.294 192.269 420.583 189.98 422.299C194.558 455.488 223.169 480.666 257.503 480.666C292.408 480.666 320.447 454.916 325.597 421.727C323.308 420.011 321.019 418.294 319.303 416.005L267.23 364.505Z" fill="#6EACDF"/>
<path d="M326.169 338.757C326.169 333.607 325.596 329.029 324.452 324.451C298.13 318.729 277.53 298.129 271.808 271.807C269.519 271.234 266.658 270.662 264.369 270.662C262.08 273.523 259.791 276.384 258.074 279.245C272.38 301.562 272.38 330.745 258.074 353.062C260.935 357.068 263.796 361.073 267.23 364.507L318.73 416.007C321.019 418.295 322.735 420.012 325.024 421.729C325.596 418.295 325.596 415.434 325.596 412.001V338.757H326.169Z" fill="#1D7B97"/>
<path d="M324.445 324.449C318.723 298.127 298.123 277.527 271.801 271.805C277.523 298.127 298.123 318.727 324.445 324.449Z" fill="#00683A"/>
<path d="M244.344 263.223C244.344 266.084 243.771 268.945 243.199 271.806C246.06 271.234 248.921 270.662 251.783 270.662C250.638 269.517 250.066 268.373 248.921 267.228C247.205 266.084 246.06 264.939 244.344 263.223Z" fill="#BE85C1"/>
<path d="M188.83 338.755C188.83 333.605 189.402 329.027 190.547 324.449C185.969 325.594 180.819 326.166 176.241 326.166H102.997C100.136 326.166 97.2746 326.166 94.4135 325.594C73.2412 352.488 75.5301 391.399 100.136 416.005C124.741 440.61 163.08 442.327 189.975 422.299C189.402 418.866 188.83 415.433 188.83 411.999V338.755Z" fill="#AB86C4"/>
<path d="M248.915 364.507C252.349 361.073 255.782 357.068 258.071 353.062C243.765 330.745 243.765 301.562 258.071 279.245C256.354 276.384 254.065 273.523 251.776 270.662C248.915 270.662 246.054 271.234 243.193 271.807C237.471 298.129 216.871 318.729 190.549 324.451C189.404 329.029 188.832 334.179 188.832 338.757V412.001C188.832 415.434 189.404 418.868 189.976 422.301C192.838 420.584 195.126 418.295 197.415 416.007L248.915 364.507Z" fill="#5D53A6"/>
<path d="M258.069 353.062C272.375 330.745 272.375 301.562 258.069 279.245C243.763 301.562 243.763 330.173 258.069 353.062Z" fill="#243F76"/>
<path d="M244.337 252.922C242.048 254.639 239.76 256.927 236.898 258.072C239.187 259.789 242.048 261.505 244.337 263.222C244.337 261.505 244.91 259.216 244.91 257.5C244.91 255.783 244.337 254.066 244.337 252.922Z" fill="#F1648A"/>
<path d="M151.641 267.228C155.075 263.794 159.08 260.361 163.086 258.072C159.08 255.211 155.075 252.35 151.641 248.916L100.141 197.416C97.8526 195.128 95.5637 192.266 93.847 189.978C60.0859 193.983 34.3359 222.594 34.3359 257.5C34.3359 292.405 60.6582 321.589 94.4193 325.594C96.1359 323.305 97.8526 321.016 100.141 319.3L151.641 267.228Z" fill="#E275A8"/>
<path d="M151.642 248.916C155.075 252.35 159.081 255.783 163.087 258.072C185.403 243.766 214.587 243.766 236.903 258.072C239.192 256.355 242.053 254.639 244.342 252.922C244.342 249.489 243.77 246.627 243.198 243.194C216.875 237.472 196.275 216.872 190.553 190.55C185.975 189.405 180.825 188.833 176.248 188.833H103.003C99.5699 188.833 96.7088 189.405 93.8477 189.405C95.5643 192.266 97.8532 194.555 100.142 196.844L151.642 248.916Z" fill="#E40017"/>
<path d="M190.551 190.551C196.273 216.873 216.873 237.473 243.195 243.195C237.473 216.873 216.873 196.273 190.551 190.551Z" fill="#E60000"/>
<path d="M176.242 326.168C181.392 326.168 185.97 325.595 190.547 324.451C196.27 298.129 216.87 277.529 243.192 271.807C243.764 268.945 244.336 266.084 244.336 263.223C242.047 261.507 239.759 259.218 236.897 258.073C214.581 272.379 185.397 272.379 163.081 258.073C159.075 260.934 155.07 263.795 151.636 267.229L100.136 318.729C97.8474 321.018 96.1307 322.734 94.4141 325.023C97.2752 326.168 100.136 326.168 102.997 326.168H176.242Z" fill="#9F3174"/>
<path d="M163.086 258.073C185.403 272.378 214.586 272.378 236.903 258.073C214.586 243.767 185.975 243.767 163.086 258.073Z" fill="#9F0017"/>
<path d="M190.551 324.449C216.873 318.727 237.473 298.127 243.195 271.805C216.873 277.527 196.273 298.127 190.551 324.449Z" fill="#561E5D"/>
</svg>
