<svg width="187" height="120" viewBox="0 0 187 120" fill="none" xmlns="http://www.w3.org/2000/svg">
<path d="M185.481 58.6815C186.124 58.1383 186.484 57.3278 186.454 56.4852C186.428 55.7688 186.122 55.0995 185.613 54.6097C185.508 54.4579 185.386 54.3167 185.252 54.1863C185.147 54.0345 185.025 53.8933 184.89 53.7629C184.785 53.611 184.664 53.4699 184.529 53.3394C184.424 53.1876 184.302 53.0464 184.167 52.916C184.063 52.7642 183.941 52.623 183.806 52.4926C183.701 52.3407 183.579 52.1996 183.445 52.0691C183.34 51.9173 183.218 51.7761 183.083 51.6457C182.978 51.4939 182.857 51.3527 182.722 51.2223C182.617 51.0704 182.495 50.9293 182.36 50.7988C182.256 50.647 182.134 50.5058 181.999 50.3754C181.982 50.3519 181.963 50.3305 181.945 50.307C182.108 50.0375 182.271 49.768 182.427 49.4964C183.295 47.9888 184.007 46.4576 184.546 44.9478C184.807 44.2142 184.747 43.4058 184.377 42.7215C184.238 42.4649 184.061 42.2339 183.853 42.0372C183.746 41.8832 183.626 41.7421 183.492 41.6137C183.385 41.4598 183.265 41.3186 183.13 41.1903C183.023 41.0363 182.904 40.8952 182.769 40.7669C182.662 40.6129 182.542 40.4718 182.407 40.3434C182.301 40.1895 182.181 40.0483 182.046 39.92C181.939 39.766 181.819 39.6249 181.685 39.4966C181.578 39.3426 181.458 39.2015 181.323 39.0731C181.216 38.9192 181.096 38.778 180.962 38.6497C180.855 38.4957 180.735 38.3546 180.6 38.2263C180.493 38.0723 180.374 37.9311 180.239 37.8028C180.132 37.6489 180.012 37.5077 179.878 37.3794C179.771 37.2254 179.651 37.0843 179.516 36.956C179.409 36.802 179.289 36.6608 179.155 36.5325C179.048 36.3786 178.928 36.2374 178.793 36.1091C178.686 35.9551 178.567 35.814 178.432 35.6857C178.325 35.5317 178.205 35.3905 178.07 35.2622C177.964 35.1083 177.844 34.9671 177.709 34.8388C177.602 34.6848 177.482 34.5437 177.348 34.4154C177.241 34.2614 177.121 34.1202 176.986 33.9919C176.879 33.838 176.76 33.6968 176.625 33.5685C176.244 33.021 175.673 32.6275 175.019 32.4671L174.255 32.2832C174.484 31.6032 174.653 30.9039 174.758 30.1917C175.053 28.2585 174.794 26.3081 173.99 24.392C173.385 22.9549 172.529 21.614 171.447 20.3886C171.33 20.2453 171.21 20.1063 171.086 19.9652C170.968 19.8219 170.849 19.6829 170.725 19.5417C170.607 19.3984 170.487 19.2594 170.363 19.1183C170.245 18.975 170.126 18.836 170.002 18.6949C169.884 18.5516 169.764 18.4126 169.64 18.2714C169.523 18.1281 169.403 17.9891 169.279 17.848C169.161 17.7047 169.041 17.5657 168.917 17.4246C168.8 17.2813 168.68 17.1423 168.556 17.0033C168.438 16.86 168.319 16.721 168.195 16.5798C168.077 16.4365 167.957 16.2975 167.833 16.1564C167.716 16.0131 167.596 15.8741 167.472 15.733C167.354 15.5897 167.234 15.4507 167.11 15.3117C166.993 15.1684 166.873 15.0294 166.749 14.8882C166.631 14.7449 166.512 14.6059 166.388 14.4648C166.27 14.3215 166.15 14.1825 166.026 14.0414C165.908 13.8981 165.789 13.7591 165.665 13.6179C165.547 13.4747 165.427 13.3356 165.303 13.1966C165.186 13.0534 165.064 12.9143 164.942 12.7732C164.824 12.6299 164.704 12.4909 164.58 12.3498C164.463 12.2065 164.343 12.0675 164.219 11.9263C163.858 11.4879 163.471 11.0602 163.054 10.6517C161.621 9.24886 159.886 8.06624 157.902 7.13597C155.891 6.195 153.695 5.63257 151.39 5.46363C150.789 5.41658 150.186 5.39305 149.596 5.39305C147.765 5.39305 145.96 5.62188 144.226 6.07311C141.961 6.66335 139.884 7.54016 138.052 8.67787C137.278 9.15904 136.557 9.68512 135.887 10.2518C135.836 10.1855 135.783 10.1214 135.725 10.0594C135.691 10.023 135.652 9.98881 135.616 9.95459C135.539 9.84339 135.458 9.73645 135.364 9.63808C135.329 9.60172 135.291 9.56751 135.254 9.53329C135.177 9.42208 135.096 9.31516 135.002 9.21679C134.968 9.18043 134.929 9.14622 134.893 9.112C134.816 9.0008 134.735 8.89386 134.641 8.79549C134.606 8.75913 134.568 8.72492 134.532 8.6907C134.455 8.57949 134.373 8.47257 134.279 8.3742C134.245 8.33784 134.207 8.30363 134.17 8.26941C134.093 8.15821 134.012 8.05127 133.918 7.9529C133.884 7.91654 133.845 7.88233 133.809 7.84811C133.732 7.7369 133.651 7.62998 133.556 7.53161C133.522 7.49525 133.484 7.46104 133.447 7.42682C133.37 7.31561 133.289 7.20868 133.195 7.1103C132.677 6.55856 131.953 6.24633 131.195 6.24633H113.129C111.996 6.24633 110.98 6.94136 110.571 7.99781L106.889 17.5037C106.81 17.4032 106.724 17.3091 106.632 17.2235C106.525 17.0696 106.403 16.9284 106.271 16.8001C106.164 16.6461 106.042 16.505 105.909 16.3767C105.802 16.2227 105.68 16.0815 105.548 15.9532C105.441 15.7993 105.319 15.6581 105.186 15.5298C105.079 15.3758 104.958 15.2347 104.825 15.1064C104.718 14.9524 104.596 14.8112 104.464 14.6829C104.357 14.529 104.235 14.3878 104.102 14.2595C103.995 14.1055 103.873 13.9644 103.741 13.8361C103.634 13.6821 103.512 13.5409 103.379 13.4126C103.272 13.2587 103.15 13.1175 103.018 12.9892C102.911 12.8352 102.789 12.6941 102.656 12.5658C102.55 12.4118 102.428 12.2706 102.295 12.1423C102.188 11.9884 102.066 11.8472 101.934 11.7189C101.827 11.5649 101.705 11.4238 101.572 11.2955C101.465 11.1415 101.343 11.0003 101.211 10.872C101.104 10.7181 100.982 10.5769 100.849 10.4486C100.742 10.2946 100.621 10.1535 100.488 10.0252C100.381 9.87118 100.259 9.73004 100.127 9.60173C100.02 9.44775 99.8977 9.30661 99.7651 9.1783C99.6582 9.02432 99.5363 8.88317 99.4037 8.75485C98.9012 8.02774 98.065 7.57224 97.1497 7.57224C97.1133 7.57224 97.077 7.57224 97.0427 7.57438L79.7825 8.24588C78.3261 8.30148 77.167 9.48838 77.1456 10.9469L77.0858 15.1171C75.4647 13.9366 73.6555 12.9635 71.6752 12.2172C68.7026 11.0987 65.3879 10.5299 61.8272 10.5299C59.5475 10.5299 57.3448 10.8528 55.2746 11.4922C53.2281 12.1252 51.2969 13.0213 49.539 14.1611C49.4129 14.2424 49.291 14.3258 49.1669 14.4092C49.0707 14.298 48.9766 14.1825 48.8804 14.0734C48.7606 13.9323 48.643 13.789 48.5189 13.65C48.3992 13.5089 48.2816 13.3656 48.1575 13.2287C48.0378 13.0876 47.9202 12.9443 47.7961 12.8053C47.6764 12.6641 47.5587 12.5209 47.4347 12.3818C47.3149 12.2407 47.1973 12.0974 47.0733 11.9584C46.9535 11.8173 46.8359 11.674 46.7119 11.535C46.5921 11.3938 46.4745 11.2506 46.3505 11.1137C46.2307 10.9725 46.1131 10.8293 45.989 10.6903C45.8693 10.5491 45.7517 10.4058 45.6276 10.2668C45.5079 10.1257 45.3902 9.98239 45.2662 9.84338C44.6931 9.16974 44.0879 8.52817 43.4442 7.92723C40.9613 5.61546 37.9802 3.82763 34.5799 2.60865C31.2352 1.41106 27.5376 0.803711 23.592 0.803711C20.5638 0.803711 17.4693 0.99832 14.3962 1.37898C11.2718 1.7682 8.19009 2.44184 5.23889 3.38067C4.12042 3.73567 3.35268 4.76432 3.32702 5.93838L2.25561 57.2808C2.24705 57.6679 2.3219 58.0378 2.46091 58.3757C2.20214 58.7778 2.04603 59.2525 2.02892 59.7636C1.78512 67.518 1.57555 75.3687 1.4066 83.0974C1.22055 90.8411 1.06871 98.6853 0.933979 106.468C0.921148 107.233 1.2291 107.969 1.78299 108.497C1.88777 108.649 2.00967 108.79 2.1444 108.92C2.24919 109.072 2.37109 109.213 2.50582 109.344C2.61061 109.496 2.7325 109.637 2.86723 109.767C2.97202 109.919 3.09392 110.06 3.22865 110.191C3.33344 110.343 3.45533 110.484 3.59006 110.614C3.69485 110.766 3.81675 110.907 3.95148 111.038C4.05627 111.189 4.17817 111.331 4.3129 111.461C4.41768 111.613 4.53958 111.754 4.67431 111.884C4.7791 112.036 4.901 112.177 5.03573 112.308C5.14052 112.46 5.26241 112.601 5.39714 112.731C5.50193 112.883 5.62383 113.024 5.75856 113.155C5.86335 113.307 5.98524 113.448 6.11997 113.578C6.22476 113.73 6.34666 113.871 6.48139 114.002C6.58618 114.154 6.70808 114.295 6.8428 114.425C6.94759 114.577 7.06949 114.718 7.20422 114.849C7.30901 115 7.43091 115.142 7.56564 115.272C7.67043 115.424 7.79232 115.565 7.92705 115.695C8.03184 115.847 8.15374 115.988 8.28847 116.119C8.39326 116.271 8.51515 116.412 8.64988 116.542C8.75467 116.694 8.87657 116.835 9.0113 116.966C9.12037 117.124 9.24654 117.269 9.38768 117.404C9.8988 117.885 10.5703 118.148 11.2675 118.148C11.338 118.148 11.4108 118.146 11.4813 118.14L39.1991 115.967C39.7124 116.664 40.5293 117.085 41.4061 117.085C41.4104 117.085 50.9804 117.036 50.9804 117.036C52.3684 117.03 53.5317 115.986 53.6921 114.607L54.3315 109.074L55.11 108.993C55.172 109.064 55.234 109.134 55.3024 109.198C55.4094 109.352 55.5313 109.494 55.6639 109.622C55.7708 109.776 55.8927 109.917 56.0253 110.045C56.1322 110.199 56.2541 110.34 56.3867 110.469C56.4936 110.623 56.6155 110.764 56.7481 110.892C56.855 111.046 56.9769 111.187 57.1095 111.316C57.2164 111.47 57.3383 111.611 57.4709 111.739C57.5779 111.893 57.6998 112.034 57.8324 112.162C57.9393 112.316 58.0612 112.458 58.1938 112.586C58.3007 112.74 58.4226 112.881 58.5552 113.009C58.6621 113.163 58.784 113.304 58.9166 113.433C59.0235 113.587 59.1454 113.728 59.278 113.856C59.3849 114.01 59.5068 114.151 59.6394 114.28C59.7464 114.434 59.8683 114.575 60.0009 114.703C60.512 115.441 61.3546 115.884 62.2528 115.884C62.4602 115.884 62.6719 115.86 62.8815 115.811L68.0739 114.59C68.0739 114.59 68.0782 114.592 68.0782 114.594C68.183 114.746 68.3049 114.887 68.4396 115.017C68.5444 115.169 68.6663 115.31 68.801 115.441C68.9058 115.593 69.0277 115.734 69.1624 115.864C69.2672 116.016 69.3891 116.157 69.5238 116.288C69.6286 116.44 69.7505 116.581 69.8852 116.711C69.99 116.863 70.1119 117.004 70.2467 117.135C70.3514 117.286 70.4733 117.428 70.6081 117.558C70.7129 117.71 70.8348 117.851 70.9695 117.982C71.0743 118.133 71.1962 118.274 71.3309 118.405C71.5212 118.681 71.7608 118.922 72.0452 119.115C72.5028 119.425 73.0396 119.588 73.5849 119.588C73.7667 119.588 73.9506 119.568 74.1324 119.532L88.2832 116.653C89.7225 116.36 90.6763 114.985 90.4453 113.535L89.3889 106.891C89.4231 106.927 89.4573 106.966 89.4936 107C89.6027 107.154 89.7225 107.297 89.8551 107.423C89.9641 107.577 90.0839 107.721 90.2165 107.847C90.3255 108.001 90.4453 108.144 90.5779 108.27C90.687 108.424 90.8067 108.568 90.9393 108.694C91.0484 108.848 91.1681 108.991 91.3007 109.117C91.4098 109.271 91.5296 109.414 91.6621 109.541C91.7712 109.695 91.891 109.838 92.0236 109.964C92.1326 110.118 92.2524 110.261 92.385 110.388C92.494 110.541 92.6138 110.685 92.7464 110.811C92.8555 110.965 92.9752 111.108 93.1078 111.234C93.2169 111.388 93.3366 111.532 93.4692 111.658C93.5783 111.812 93.6981 111.955 93.8306 112.081C93.9397 112.235 94.0595 112.379 94.1921 112.505C94.3011 112.659 94.4209 112.802 94.5535 112.928C94.6625 113.082 94.7823 113.225 94.9149 113.352C95.0239 113.506 95.1437 113.649 95.2763 113.775C95.8002 114.517 96.6407 114.938 97.5132 114.938C97.8661 114.938 98.2232 114.87 98.5654 114.729L100.552 113.903C100.593 113.948 100.633 113.993 100.678 114.036C100.732 114.115 100.789 114.19 100.854 114.263C100.914 114.331 100.976 114.395 101.04 114.457C101.093 114.536 101.153 114.611 101.215 114.684C101.275 114.752 101.337 114.816 101.401 114.878C101.455 114.958 101.514 115.032 101.576 115.105C101.636 115.174 101.698 115.238 101.763 115.3C101.816 115.379 101.876 115.454 101.938 115.526C102.421 116.085 103.108 116.425 103.843 116.472L118.255 117.363C118.313 117.368 118.371 117.368 118.426 117.368C119.818 117.368 121.003 116.316 121.153 114.913L121.495 111.664C121.57 111.758 121.651 111.844 121.737 111.925C121.844 112.079 121.965 112.22 122.098 112.349C122.205 112.503 122.327 112.644 122.459 112.772C122.566 112.926 122.688 113.067 122.821 113.195C122.928 113.349 123.05 113.491 123.182 113.619C123.289 113.773 123.411 113.914 123.544 114.042C123.651 114.196 123.773 114.337 123.905 114.466C124.012 114.62 124.134 114.761 124.267 114.889C124.373 115.043 124.495 115.184 124.628 115.313C124.735 115.467 124.857 115.608 124.989 115.736C125.096 115.89 125.218 116.031 125.351 116.159C125.458 116.313 125.58 116.455 125.712 116.583C125.819 116.737 125.941 116.878 126.074 117.006C126.578 117.74 127.419 118.193 128.33 118.193C128.45 118.193 128.569 118.185 128.691 118.17L142.91 116.29C143.002 116.277 143.092 116.26 143.18 116.239C143.588 116.517 144.065 116.683 144.568 116.711L168.4 118.039C168.451 118.041 168.503 118.044 168.554 118.044C169.377 118.044 170.162 117.674 170.684 117.028C171.238 116.343 171.432 115.437 171.204 114.585L165.853 94.7226L185.057 71.2691C185.686 70.5013 185.85 69.4513 185.487 68.5274C185.337 68.1489 185.108 67.8196 184.822 67.548C184.715 67.394 184.595 67.2529 184.46 67.1245C184.354 66.9706 184.234 66.8294 184.099 66.7011C183.992 66.5471 183.872 66.406 183.738 66.2777C183.631 66.1237 183.511 65.9826 183.376 65.8542C183.269 65.7003 183.15 65.5591 183.015 65.4308C182.908 65.2768 182.788 65.1357 182.653 65.0074C182.546 64.8534 182.427 64.7123 182.292 64.5839C182.185 64.43 182.065 64.2888 181.931 64.1605C181.824 64.0065 181.704 63.8654 181.569 63.7371C181.462 63.5831 181.342 63.442 181.208 63.3136C181.101 63.1597 180.981 63.0185 180.846 62.8902C180.808 62.8346 180.769 62.7833 180.727 62.7298L185.47 58.7286L185.481 58.6815Z" fill="black"/>
<path d="M21.411 57.0281C24.4584 56.5298 27.3348 55.7663 30.0379 54.7334C32.741 53.7005 35.2282 52.381 37.4972 50.7728C38.9878 49.7185 40.3415 48.5252 41.5626 47.2014C40.6922 45.5804 39.995 43.8375 39.4925 42.009C38.9386 39.9924 38.6584 37.8645 38.6584 35.6853C38.6584 33.5061 38.9172 31.4595 39.4304 29.4236C39.9415 27.3899 40.69 25.4416 41.6545 23.6367C42.619 21.8296 43.8016 20.1466 45.1682 18.6325C45.6173 18.1342 46.0899 17.6594 46.5775 17.2039C45.3521 14.3789 43.6819 11.9709 41.554 9.98845C39.3342 7.9226 36.6952 6.34221 33.635 5.24513C30.5747 4.14806 27.2193 3.60059 23.5731 3.60059C20.639 3.60059 17.6878 3.78665 14.7173 4.15448C11.7469 4.52445 8.85767 5.15532 6.05188 6.04923L4.98047 57.3916C6.17806 57.5199 7.35213 57.6162 8.50053 57.6782C8.74219 57.691 8.9924 57.6975 9.23619 57.7081H14.7922C17.0398 57.6055 19.2468 57.381 21.411 57.0281ZM24.1077 19.4409C25.6624 19.4922 27.0033 19.8172 28.1239 20.416C29.2466 21.0148 30.1705 21.8061 30.8976 22.7877C31.6247 23.7693 32.1465 24.8984 32.4673 26.173C32.7859 27.4497 32.9314 28.7756 32.9078 30.1529V30.6875C32.8565 32.1674 32.5828 33.6024 32.0845 34.9924C31.5862 36.3825 30.8848 37.6464 29.9802 38.7798C29.0756 39.9154 27.9977 40.8713 26.7467 41.6497C25.4956 42.4282 24.1077 42.9307 22.5765 43.1617L24.1077 19.4409Z" fill="white"/>
<path d="M46.7967 20.1042C45.5436 21.4921 44.4743 23.0147 43.5889 24.6721C42.7036 26.3295 42.0278 28.0917 41.5573 29.9608C41.0868 31.8299 40.8516 33.7396 40.8516 35.6857C40.8516 37.6318 41.1039 39.5928 41.6065 41.4277C42.1112 43.2647 42.8148 44.982 43.7215 46.5816C44.6282 48.1834 45.7253 49.6376 47.0127 50.9464C48.3001 52.2552 49.7373 53.3758 51.3283 54.3039C51.5871 54.4558 51.8501 54.5991 52.1153 54.7402L53.0135 54.6012C53.1269 54.5841 53.2381 54.5755 53.3493 54.5755C54.2304 54.5755 55.043 55.108 55.383 55.9464L55.4729 56.1688C55.7958 56.2757 56.1208 56.3783 56.4502 56.4703C58.2744 56.9857 60.1948 57.2423 62.2093 57.2423C62.9599 57.2423 63.6956 57.206 64.4163 57.1332C64.8611 56.96 65.3081 56.7932 65.7572 56.635C67.2691 56.1025 68.841 55.6277 70.4299 55.2192C70.9645 55.0824 71.5099 54.9498 72.0573 54.8215C72.4722 54.6012 72.8786 54.3659 73.2763 54.1179C74.6728 53.2453 75.9474 52.221 77.0979 51.0426L77.5598 19.1632C77.5598 19.1632 77.547 19.1504 77.5427 19.144C75.6501 17.2749 73.3661 15.8356 70.693 14.8284C68.0176 13.8211 65.0557 13.3164 61.8115 13.3164C59.797 13.3164 57.883 13.5966 56.0695 14.1569C54.256 14.7172 52.5708 15.4999 51.0161 16.5071C49.4592 17.5144 48.0542 18.712 46.801 20.0999L46.7967 20.1042ZM55.8984 32.5463C56.2107 31.6631 56.6662 30.8889 57.2586 30.2281C57.8509 29.5673 58.5631 29.0476 59.3907 28.667C60.2183 28.2863 61.1593 28.096 62.2114 28.096C63.2636 28.096 64.1532 28.3141 64.9488 28.7503C65.7422 29.1866 66.4094 29.7576 66.9462 30.4633C67.483 31.1691 67.8914 31.9753 68.1716 32.882C68.4517 33.7888 68.5907 34.7233 68.5907 35.6857C68.5907 36.648 68.4346 37.6232 68.1203 38.5407C67.8059 39.4581 67.3589 40.2707 66.7773 40.9743C66.1956 41.6801 65.4834 42.2403 64.6451 42.6531C63.8047 43.068 62.8594 43.2733 61.8073 43.2733C60.7551 43.2733 59.8312 43.038 59.0378 42.5676C58.2423 42.0971 57.5772 41.4812 57.0404 40.7198C56.5036 39.9585 56.0995 39.1074 55.8321 38.1685C55.5627 37.2276 55.4301 36.2888 55.4301 35.3478C55.4301 34.4068 55.5862 33.4274 55.9006 32.5442L55.8984 32.5463Z" fill="white"/>
<path d="M79.2578 53.5913C79.8267 53.5571 80.3955 53.5357 80.9601 53.5357C81.7599 53.5357 82.5683 53.5699 83.3638 53.6405C86.0991 53.8778 88.6589 54.5729 90.9728 55.702C91.7577 56.0848 92.5083 56.5275 93.2247 57.0194L94.7174 56.9745L94.7837 35.2125L100.089 53.9506H106L112.919 32.9949L112.805 55.0583C113.105 55.054 113.406 55.0498 113.706 55.0498C113.932 55.0498 114.161 55.0498 114.39 55.054C116.002 55.0733 117.671 55.1353 119.349 55.2401C122.095 55.409 124.766 55.9629 127.29 56.8804C127.587 56.9873 127.878 57.1028 128.167 57.2204L128.451 52.6974C128.043 52.1157 127.688 51.5083 127.388 50.8753C126.535 49.0789 126.244 47.1521 126.522 45.1461V45.1397V45.1333C126.753 43.5401 127.285 41.9811 128.105 40.5012C128.475 39.834 128.887 39.1753 129.336 38.5337L131.186 9.01953H113.12L103.986 32.5928L97.1361 10.3625L79.8759 11.034L79.26 53.5913H79.2578Z" fill="white"/>
<path d="M51.8842 96.8968L54.6665 104.238L62.7545 102.335C62.207 99.3155 61.6574 96.3023 61.1121 93.3254C60.2075 88.3811 59.3007 83.3298 58.4175 78.3128C57.9492 75.7829 57.483 73.2765 57.0232 70.7915C56.5613 68.2958 56.1314 65.7274 55.7465 63.1611C55.7208 62.9943 55.7229 62.8296 55.7336 62.6671L53.347 56.7754L34.8699 59.6261L30.8516 80.7978L32.4277 79.9359C32.757 79.7563 33.1184 79.6665 33.482 79.6665C33.8947 79.6665 34.3053 79.7819 34.6646 80.0129C35.3404 80.4449 35.7253 81.2105 35.6719 82.0103L35.0153 91.6274L34.1385 104.45C34.1129 104.818 33.9974 105.158 33.8135 105.453L43.3749 105.404L44.2667 97.6816L51.8821 96.8968H51.8842ZM45.8899 75.4364L49.6281 86.7985L44.6174 87.3161L45.8899 75.4364Z" fill="white"/>
<path d="M89.9339 103.271L94.519 101.366C94.8526 97.373 95.1819 93.3739 95.5048 89.4368C95.5561 88.8038 95.6096 88.1665 95.6631 87.5314L93.4818 85.0036C94.5125 84.0177 95.3915 83.0297 96.1229 82.0417C96.3431 79.4434 96.5698 76.8343 96.7987 74.2381C97.0018 71.674 97.2028 69.1334 97.4039 66.6142C97.4317 66.2613 97.4637 65.9042 97.4937 65.5492C96.9441 64.2104 96.2469 63.0129 95.3893 61.965C93.8838 60.1237 92.0896 58.6951 90.0109 57.6793C87.9301 56.6635 85.6525 56.0476 83.1761 55.8316C82.4383 55.7674 81.7005 55.7354 80.9605 55.7354C79.2155 55.7354 77.464 55.915 75.7082 56.2721C74.0851 56.6036 72.5068 56.9629 70.9756 57.3542C69.4444 57.7456 67.9496 58.199 66.4889 58.7122C65.0283 59.2276 63.5912 59.8221 62.1755 60.4979C60.7597 61.1758 59.3419 61.9543 57.9219 62.8375C58.3025 65.3867 58.7238 67.9059 59.1858 70.393C59.6456 72.8823 60.1118 75.3908 60.5801 77.9229C61.4655 82.9506 62.3658 87.9548 63.2747 92.9334C64.1857 97.9119 65.0946 102.912 66.0013 107.937L80.1521 105.057L77.958 91.2461L82.0127 90.2837L89.9339 103.271ZM77.0683 80.8035L76.2792 80.9639L74.3139 68.6159C74.686 68.4255 75.0752 68.2609 75.4815 68.1219C75.8857 67.9829 76.3092 67.8674 76.7476 67.7776C77.2843 67.6685 77.7933 67.6129 78.2745 67.6129C78.6787 67.6129 79.0636 67.6514 79.4293 67.7284C80.2291 67.8973 80.9327 68.2095 81.5401 68.6693C82.1474 69.1291 82.6543 69.7172 83.0649 70.4315C83.4733 71.1479 83.7706 71.967 83.9588 72.8887C84.1812 73.9858 84.1277 74.9802 83.7941 75.8698C83.4605 76.7595 82.9558 77.5379 82.28 78.1987C81.6042 78.8617 80.8023 79.4134 79.8763 79.854C78.9481 80.2945 78.0136 80.611 77.0705 80.8013L77.0683 80.8035Z" fill="white"/>
<path d="M112.312 91.7944L116.476 91.9163L120.755 106.514L134.975 104.634L135.139 102.673L128.92 89.7928C130.43 88.9673 131.728 88.0819 132.819 87.141C133.91 86.1978 134.814 85.1564 135.535 84.0122C135.766 83.6466 135.973 83.2616 136.17 82.8703L129.023 60.0348C128.234 59.6242 127.406 59.2606 126.536 58.9441C124.201 58.093 121.758 57.5883 119.211 57.4321C117.558 57.3295 115.941 57.2696 114.361 57.2504C114.141 57.2482 113.923 57.2461 113.705 57.2461C112.349 57.2461 111.006 57.2974 109.676 57.3979C108.131 57.5156 106.587 57.7166 105.046 58.0032C103.502 58.2897 101.93 58.6746 100.332 59.158C100.039 61.7199 99.7911 64.2606 99.5922 66.7841C99.3912 69.3075 99.1902 71.8503 98.9849 74.4187C98.5358 79.5042 98.1059 84.5704 97.6932 89.6131C97.2805 94.658 96.8613 99.7221 96.4336 104.81L110.845 105.699L112.31 91.7923L112.312 91.7944ZM122.866 75.6248C122.798 76.7433 122.485 77.6885 121.934 78.4606C121.382 79.2347 120.691 79.8528 119.868 80.319C119.042 80.7852 118.125 81.1081 117.116 81.292C116.352 81.431 115.604 81.5016 114.868 81.5016C114.631 81.5016 114.395 81.4952 114.16 81.4802L113.356 81.431L114.663 68.9953C115.071 68.9076 115.49 68.8499 115.918 68.8199C116.14 68.805 116.365 68.7964 116.592 68.7964C116.801 68.7964 117.015 68.8028 117.229 68.8157C118.234 68.8777 119.1 69.0937 119.829 69.4637C120.559 69.8336 121.155 70.3191 121.624 70.92C122.092 71.5209 122.43 72.2203 122.637 73.0179C122.845 73.8156 122.922 74.6839 122.864 75.6227L122.866 75.6248Z" fill="white"/>
<path d="M155.253 85.1438L175.349 60.5997L159.338 58.4205L149.889 72.3467L148.378 59.6544C147.233 59.8276 146.076 59.9196 144.928 59.9196C144.229 59.9196 143.517 59.8875 142.815 59.8234C140.503 59.6608 138.309 59.1925 136.288 58.4312C136.275 58.4269 136.26 58.4205 136.248 58.4141L130.914 58.7348L138.891 84.22L137.142 105.039C145.086 105.482 153.029 105.924 160.974 106.369C159.068 99.2947 157.161 92.2203 155.255 85.146L155.253 85.1438Z" fill="white"/>
<path d="M31.9539 104.3C32.465 96.8189 32.9761 89.3382 33.4872 81.8597C28.9022 84.3703 24.315 86.881 19.7299 89.3895C19.9309 84.4195 20.2667 79.488 20.7372 74.5971C21.2076 69.7063 21.6995 64.809 22.2149 59.9053H4.75147C4.50554 67.7196 4.2981 75.4868 4.12915 83.2112C3.96235 90.9357 3.81051 98.7029 3.67578 106.517L31.9517 104.302L31.9539 104.3Z" fill="white"/>
<path d="M135.005 25.8057C135.589 26.8878 136.288 27.9335 137.103 28.9429C137.917 29.9523 138.786 30.9061 139.712 31.8064C138.422 32.7068 137.158 33.6734 135.918 34.7063C134.678 35.7392 133.559 36.8278 132.563 37.9719C131.566 39.116 130.719 40.3136 130.026 41.5647C129.333 42.8179 128.888 44.1117 128.694 45.4504C128.476 47.0308 128.7 48.5278 129.37 49.9371C130.039 51.3485 131.029 52.5996 132.342 53.6945C133.655 54.7895 135.229 55.6834 137.066 56.3763C138.903 57.0692 140.879 57.4883 142.994 57.6359C143.642 57.6958 144.286 57.7257 144.932 57.7257C146.127 57.7257 147.319 57.6231 148.503 57.4178C150.327 57.1013 152.09 56.6286 153.792 55.9956C155.494 55.3626 157.094 54.6098 158.589 53.733C160.084 52.8584 161.429 51.9452 162.62 50.9978C163.471 51.6544 164.322 52.2874 165.173 52.8947C166.024 53.5021 166.876 54.1351 167.727 54.7916L176.116 47.7151C175.045 46.9367 174.001 46.1946 172.979 45.4889C171.957 44.7832 170.911 44.0433 169.842 43.2627C170.791 41.9731 171.66 40.6429 172.451 39.2679C173.24 37.8949 173.879 36.5262 174.367 35.164L163.495 32.5378C163.155 33.2671 162.776 33.9728 162.363 34.6529C161.948 35.3351 161.525 35.9916 161.087 36.6225C160.09 35.9167 159.121 35.2067 158.187 34.4882C157.25 33.7718 156.271 33.0233 155.25 32.2448C156.296 31.4172 157.336 30.5853 158.371 29.7449C159.404 28.9066 160.34 28.0297 161.179 27.1187C162.017 26.2077 162.729 25.2411 163.313 24.2188C163.897 23.1966 164.273 22.1038 164.444 20.9362C164.662 19.5012 164.468 18.0598 163.86 16.6141C163.253 15.1663 162.34 13.8469 161.125 12.6557C159.908 11.4645 158.443 10.4658 156.728 9.66384C155.013 8.86189 153.159 8.38714 151.166 8.24171C150.633 8.19894 150.107 8.17969 149.585 8.17969C147.981 8.17969 146.422 8.37644 144.908 8.77207C142.902 9.29602 141.095 10.0552 139.491 11.0518C137.888 12.0483 136.562 13.2417 135.516 14.6274C134.47 16.0132 133.826 17.4845 133.583 19.0414C133.388 20.2091 133.431 21.3575 133.711 22.4888C133.991 23.6201 134.423 24.7257 135.007 25.8078L135.005 25.8057ZM145.548 19.6958C145.621 18.8211 145.95 18.1582 146.534 17.707C146.993 17.352 147.522 17.1766 148.116 17.1766C148.277 17.1766 148.443 17.1894 148.612 17.2151C149.391 17.2878 149.968 17.5936 150.345 18.1261C150.721 18.6607 150.873 19.3536 150.8 20.2048C150.751 20.6924 150.623 21.1949 150.417 21.7189C150.21 22.2428 149.966 22.7582 149.688 23.2693C149.408 23.7804 149.104 24.2659 148.777 24.7278C148.45 25.1898 148.127 25.6025 147.81 25.9682C147.543 25.579 147.263 25.1363 146.972 24.6359C146.681 24.1376 146.418 23.6136 146.187 23.0662C145.956 22.5187 145.779 21.9605 145.659 21.3874C145.537 20.8164 145.501 20.2518 145.55 19.6915L145.548 19.6958ZM143.869 44.8666C143.918 44.332 144.074 43.7781 144.344 43.2071C144.611 42.6361 144.921 42.0758 145.274 41.5283C145.627 40.9808 145.997 40.4654 146.386 39.9779C146.775 39.4924 147.128 39.0775 147.445 38.7375C148.174 39.6122 148.929 40.5125 149.707 41.4364C150.486 42.3602 151.239 43.2605 151.97 44.1352C151.653 44.5009 151.271 44.9072 150.821 45.3563C150.37 45.8076 149.891 46.2267 149.38 46.6159C148.869 47.0052 148.341 47.3152 147.793 47.5462C147.378 47.7216 146.972 47.8092 146.579 47.8092C146.455 47.8092 146.331 47.8007 146.206 47.7836C145.501 47.7109 144.923 47.3815 144.474 46.7977C144.023 46.2139 143.824 45.5702 143.871 44.8645L143.869 44.8666Z" fill="white"/>
</svg>
