<svg width="799" height="799" viewBox="0 0 799 799" fill="none" xmlns="http://www.w3.org/2000/svg">
<path d="M343.392 660.75L323.098 480.958C320.954 461.963 329.958 443.434 346.218 433.383C378.717 412.701 420.249 412.701 452.748 433.383C469.008 443.434 478.013 461.963 475.869 480.958L455.574 660.75C453.84 676.112 443.634 689.203 429.158 694.631L421.041 697.675C407.142 702.887 391.825 702.887 377.926 697.675L369.809 694.631C355.333 689.203 345.127 676.112 343.392 660.75Z" fill="white"/>
<circle cx="399.487" cy="319.589" r="66.5811" fill="white"/>
<path fill-rule="evenodd" clip-rule="evenodd" d="M297.576 668.009C182.27 626.309 99.8672 515.863 99.8672 386.17C99.8672 220.698 234.009 86.5557 399.482 86.5557C564.955 86.5557 699.097 220.698 699.097 386.17C699.097 515.862 616.695 626.307 501.391 668.008L504.475 631C599.356 590.257 665.806 495.974 665.806 386.17C665.806 239.084 546.569 119.846 399.482 119.846C252.395 119.846 133.158 239.084 133.158 386.17C133.158 495.975 199.61 590.259 294.492 631.001L297.576 668.009ZM509.001 576.69C574.862 538.748 619.199 467.637 619.199 386.17C619.199 264.824 520.829 166.453 399.482 166.453C278.135 166.453 179.764 264.824 179.764 386.17C179.764 467.638 224.103 538.75 289.966 576.691L286.444 534.431C241.836 500.368 213.055 446.63 213.055 386.17C213.055 283.21 296.521 199.743 399.482 199.743C502.443 199.743 585.909 283.21 585.909 386.17C585.909 446.629 557.13 500.365 512.523 534.428L509.001 576.69Z" fill="white"/>
</svg>
