<svg width="30" height="34" viewBox="0 0 30 34" fill="none" xmlns="http://www.w3.org/2000/svg">
<g clip-path="url(#clip0_2128_1975)">
<path d="M28.1164 21.7501C28.8345 21.7501 29.4089 21.1757 29.4089 20.4736V12.8619C29.4089 12.1598 28.8345 11.5693 28.1164 11.5693C27.3823 11.5693 26.8398 12.1598 26.8398 12.8619V20.4736C26.8398 21.1757 27.3823 21.7501 28.1164 21.7501Z" fill="white" fill-opacity="0.8"/>
<path d="M22.7554 29.7923C23.4734 29.7923 24.0319 29.2179 24.0319 28.5157V4.81893C24.0319 4.11679 23.4734 3.52637 22.7554 3.52637C22.0054 3.52637 21.4629 4.11679 21.4629 4.81893V28.5157C21.4629 29.2179 22.0054 29.7923 22.7554 29.7923Z" fill="white" fill-opacity="0.8"/>
<path d="M17.3782 24.957C18.1122 24.957 18.6707 24.3985 18.6707 23.6805V9.65387C18.6707 8.93579 18.1122 8.36133 17.3782 8.36133C16.644 8.36133 16.1016 8.93579 16.1016 9.65387V23.6805C16.1016 24.3985 16.644 24.957 17.3782 24.957Z" fill="white" fill-opacity="0.8"/>
<path d="M12.0009 33.3351C12.7349 33.3351 13.3094 32.7605 13.3094 32.0425V1.29255C13.3094 0.574466 12.7349 0 12.0009 0C11.2828 0 10.7402 0.574466 10.7402 1.29255V32.0425C10.7402 32.7605 11.2828 33.3351 12.0009 33.3351Z" fill="white" fill-opacity="0.8"/>
<path d="M6.63792 26.9043C7.37197 26.9043 7.93048 26.3299 7.93048 25.6118V7.72355C7.93048 7.00547 7.37197 6.41504 6.63792 6.41504C5.91984 6.41504 5.36133 7.00547 5.36133 7.72355V25.6118C5.36133 26.3299 5.91984 26.9043 6.63792 26.9043Z" fill="white" fill-opacity="0.8"/>
<path d="M1.26064 20.3776C2.01064 20.3776 2.56915 19.803 2.56915 19.085V14.2499C2.56915 13.5318 2.01064 12.9414 1.26064 12.9414C0.542552 12.9414 0 13.5318 0 14.2499V19.085C0 19.803 0.542552 20.3776 1.26064 20.3776Z" fill="white" fill-opacity="0.8"/>
</g>
<defs>
<clipPath id="clip0_2128_1975">
<rect width="30" height="33.3351" fill="white"/>
</clipPath>
</defs>
</svg>
