<svg width="76" height="76" viewBox="0 0 76 76" fill="none" xmlns="http://www.w3.org/2000/svg">
<g clip-path="url(#clip0_270_238)">
<path d="M51.1164 42.7496C51.8345 42.7496 52.4089 42.1752 52.4089 41.4731V33.8614C52.4089 33.1593 51.8345 32.5688 51.1164 32.5688C50.3823 32.5688 49.8398 33.1593 49.8398 33.8614V41.4731C49.8398 42.1752 50.3823 42.7496 51.1164 42.7496Z" fill="white" fill-opacity="0.5"/>
<path d="M45.7554 50.7923C46.4734 50.7923 47.0319 50.2179 47.0319 49.5157V25.8189C47.0319 25.1168 46.4734 24.5264 45.7554 24.5264C45.0054 24.5264 44.4629 25.1168 44.4629 25.8189V49.5157C44.4629 50.2179 45.0054 50.7923 45.7554 50.7923Z" fill="white" fill-opacity="0.5"/>
<path d="M40.3782 45.9575C41.1122 45.9575 41.6707 45.399 41.6707 44.681V30.6544C41.6707 29.9363 41.1122 29.3618 40.3782 29.3618C39.644 29.3618 39.1016 29.9363 39.1016 30.6544V44.681C39.1016 45.399 39.644 45.9575 40.3782 45.9575Z" fill="white" fill-opacity="0.5"/>
<path d="M35.0009 54.3351C35.7349 54.3351 36.3094 53.7605 36.3094 53.0425V22.2926C36.3094 21.5745 35.7349 21 35.0009 21C34.2828 21 33.7402 21.5745 33.7402 22.2926V53.0425C33.7402 53.7605 34.2828 54.3351 35.0009 54.3351Z" fill="white" fill-opacity="0.5"/>
<path d="M29.6379 47.9038C30.372 47.9038 30.9305 47.3295 30.9305 46.6113V28.7231C30.9305 28.005 30.372 27.4146 29.6379 27.4146C28.9198 27.4146 28.3613 28.005 28.3613 28.7231V46.6113C28.3613 47.3295 28.9198 47.9038 29.6379 47.9038Z" fill="white" fill-opacity="0.5"/>
<path d="M24.2606 41.3776C25.0106 41.3776 25.5692 40.803 25.5692 40.085V35.2499C25.5692 34.5318 25.0106 33.9414 24.2606 33.9414C23.5426 33.9414 23 34.5318 23 35.2499V40.085C23 40.803 23.5426 41.3776 24.2606 41.3776Z" fill="white" fill-opacity="0.5"/>
</g>
<defs>
<clipPath id="clip0_270_238">
<rect width="30" height="33.3351" fill="white" transform="translate(23 21)"/>
</clipPath>
</defs>
</svg>