<svg width="51" height="50" viewBox="0 0 51 50" fill="none" xmlns="http://www.w3.org/2000/svg">
<path d="M0 24.9878C0 32.0401 2.95265 38.4089 7.66227 42.9232C7.95508 43.2161 8.29671 43.2161 8.56513 42.899L9.71204 41.6301C9.98046 41.3128 9.95607 41.0199 9.66324 40.727C5.56367 36.7495 2.97707 31.137 2.97707 24.9878C2.97707 12.9819 12.9331 3.00145 24.9878 3.00145C37.0423 3.00145 46.9985 12.9819 46.9985 24.9878C46.9985 31.137 44.3875 36.7495 40.2878 40.727C39.9951 41.0199 39.9707 41.3128 40.239 41.6543L41.386 42.9232C41.6543 43.2406 41.9717 43.2406 42.2645 42.9477C46.9985 38.4334 49.9755 32.0401 49.9755 24.9878C49.9755 11.2982 38.775 0 24.9878 0C11.2006 0 0 11.2982 0 24.9878Z" fill="white" fill-opacity="0.8"/>
<path d="M7.10156 24.9873C7.10156 29.9167 9.12692 34.3332 12.3724 37.5789C12.6652 37.896 13.0313 37.8715 13.2997 37.5789L14.4222 36.3343C14.7394 36.0172 14.6906 35.6998 14.3978 35.3827C11.738 32.7228 10.103 29.0381 10.103 24.9873C10.103 16.837 16.8136 10.102 24.9883 10.102C33.163 10.102 39.8735 16.837 39.8735 24.9873C39.8735 29.0381 38.2143 32.7473 35.5544 35.3827C35.2615 35.6998 35.2128 36.0172 35.5301 36.3343L36.6768 37.6031C36.9454 37.896 37.287 37.9205 37.5799 37.6031C40.8498 34.3577 42.875 29.9167 42.875 24.9873C42.875 15.1777 34.8467 7.10059 24.9883 7.10059C15.1299 7.10059 7.10156 15.1777 7.10156 24.9873Z" fill="white" fill-opacity="0.8"/>
<path d="M14.2012 24.9879C14.2012 27.7698 15.2993 30.3075 17.0806 32.2108C17.3491 32.5037 17.6907 32.5037 17.9835 32.1866L19.1548 30.9665C19.4476 30.6736 19.4232 30.3563 19.2036 30.0392C17.9591 28.7213 17.2027 26.9157 17.2027 24.9879C17.2027 20.7419 20.7409 17.2036 24.9869 17.2036C29.2328 17.2036 32.7711 20.7419 32.7711 24.9879C32.7711 26.9399 32.0147 28.7458 30.7458 30.0634C30.5017 30.3807 30.4775 30.6981 30.7946 30.9907L31.966 32.2108C32.2589 32.5282 32.5759 32.5282 32.8443 32.2108C34.6747 30.332 35.7726 27.794 35.7726 24.9879C35.7726 19.0826 30.9165 14.2021 24.9869 14.2021C19.0572 14.2021 14.2012 19.0826 14.2012 24.9879Z" fill="white" fill-opacity="0.8"/>
<path d="M10.0527 49.1464H39.872C41.019 49.1464 41.4582 47.9507 40.7506 47.1453L26.0118 30.4788C25.4503 29.8443 24.4744 29.8443 23.9131 30.4788L9.19865 47.1453C8.46659 47.9749 8.90582 49.1464 10.0527 49.1464Z" fill="white" fill-opacity="0.8"/>
</svg>
