<svg width="31" height="30" viewBox="0 0 31 30" fill="none" xmlns="http://www.w3.org/2000/svg">
<g clip-path="url(#clip0_2224_1676)">
<path d="M30.1922 14.8204C30.1922 22.9379 23.5913 29.5533 15.4594 29.5533C7.34188 29.5533 0.726562 22.9379 0.726562 14.8204C0.726562 6.68851 7.34188 0.0876465 15.4594 0.0876465C23.5913 0.0876465 30.1922 6.68851 30.1922 14.8204ZM19.9513 9.0862L13.7839 18.9947L10.8517 15.2104C10.4906 14.7338 10.1729 14.6038 9.75401 14.6038C9.10403 14.6038 8.5985 15.1382 8.5985 15.7881C8.5985 16.1203 8.7285 16.4382 8.94515 16.727L12.5706 21.1757C12.9461 21.6813 13.3505 21.8835 13.8416 21.8835C14.3327 21.8835 14.7516 21.6524 15.0549 21.1757L21.8435 10.4873C22.0168 10.1839 22.2047 9.85173 22.2047 9.53397C22.2047 8.8551 21.6125 8.42179 20.9769 8.42179C20.6014 8.42179 20.2259 8.65289 19.9513 9.0862Z" fill="white" fill-opacity="0.8"/>
</g>
<defs>
<clipPath id="clip0_2224_1676">
<rect width="30" height="29.48" fill="white" transform="translate(0.726562 0.0876465)"/>
</clipPath>
</defs>
</svg>
