<svg width="53" height="50" viewBox="0 0 53 50" fill="none" xmlns="http://www.w3.org/2000/svg">
<g clip-path="url(#clip0_2128_1888)">
<path d="M36.8856 15.3541V20.57C39.3321 20.9306 40.6277 22.6046 40.6277 25.5911V40.4089C40.6277 43.8069 38.9502 45.5273 35.8103 45.5273H23.3171C23.3301 45.0585 23.274 44.555 23.1432 44.0219L20.7774 34.3225C20.6699 33.785 20.6914 33.1183 20.6914 32.2579L21.5947 32.6237C24.3473 33.6775 26.9282 32.3011 27.6164 29.8923C28.2832 27.7202 27.2292 25.3546 24.799 24.3653L19.7451 22.2791C20.0173 21.7204 20.2131 21.1235 20.3114 20.4941H33.4662V14.8809C33.4662 9.46134 29.982 6.57948 25.9605 6.57948C21.9388 6.57948 18.4547 9.46134 18.4547 14.8809V14.8908C17.5843 14.0275 16.467 13.4129 15.2109 13.1607C16.0674 6.55123 20.8644 3.33203 25.9605 3.33203C31.5952 3.33203 36.8856 7.26769 36.8856 15.3541Z" fill="white" fill-opacity="0.8"/>
<path d="M13.917 23.0542C15.9171 23.0542 17.4656 21.4841 17.4656 19.5271C17.4656 17.57 15.9171 15.9785 13.917 15.9785C11.9815 15.9785 10.3685 17.57 10.3685 19.5271C10.3685 21.4841 11.9815 23.0542 13.917 23.0542ZM13.8955 35.6997C14.3687 35.6997 14.7558 35.9794 14.8848 36.517L17.315 45.8292C17.8527 47.8938 20.6915 47.1626 20.4119 45.2055C20.2614 44.4314 18.1968 36.5601 17.8957 34.7966C17.6806 33.5061 17.7882 30.2157 17.7882 28.7318C17.7882 28.3231 18.1538 28.0436 18.5839 28.2372L22.6916 29.8931C23.8099 30.3447 24.5842 29.8072 24.7992 29.0758C25.0357 28.3447 24.7133 27.4845 23.6809 27.0757L19.2721 25.2476C18.2183 24.8175 17.315 24.6026 16.2827 24.452C15.5515 24.7962 14.7558 25.0111 13.8955 25.0111C13.0353 25.0111 12.2611 24.7962 11.5298 24.452C10.4975 24.6026 9.57277 24.8175 8.54047 25.2476L4.11017 27.0757C3.09936 27.4845 2.77677 28.3447 3.01334 29.0758C3.20689 29.8072 4.00263 30.3447 5.12095 29.8931L9.22867 28.2372C9.65879 28.0436 10.0244 28.3231 10.0244 28.7318C10.0244 30.2157 10.1319 33.5061 9.91687 34.7966C9.61578 36.5601 7.55117 44.4314 7.40063 45.2055C7.09954 47.1626 9.95988 47.8938 10.4975 45.8292L12.9062 36.517C13.0568 35.9794 13.4224 35.6997 13.8955 35.6997Z" fill="white" fill-opacity="0.8"/>
</g>
<defs>
<clipPath id="clip0_2128_1888">
<rect width="52.7176" height="50" fill="white"/>
</clipPath>
</defs>
</svg>
