<svg width="82" height="50" viewBox="0 0 82 50" fill="none" xmlns="http://www.w3.org/2000/svg">
<g clip-path="url(#clip0_2225_2730)">
<path d="M17.475 19.4702C17.475 18.0361 18.3576 17.1536 19.8468 17.1536H24.9488V12.1895C24.9488 10.7278 25.7762 9.84532 27.2103 9.84532C28.6168 9.84532 29.4717 10.7278 29.4717 12.1895V17.1536H34.2429C35.8424 17.1536 36.8077 18.0361 36.8077 19.4702C36.8077 20.9595 35.8424 21.8696 34.2429 21.8696H29.4717V26.8337C29.4717 28.2953 28.6168 29.2055 27.2103 29.2055C25.7762 29.2055 24.9488 28.2953 24.9488 26.8337V21.8696H19.8468C18.3576 21.8696 17.475 20.9595 17.475 19.4702ZM58.1809 19.1945C55.9194 19.1945 54.0166 17.3467 54.0166 15.0577C54.0166 12.7411 55.9194 10.8933 58.1809 10.8933C60.4975 10.8933 62.3453 12.7411 62.3453 15.0577C62.3453 17.3467 60.4975 19.1945 58.1809 19.1945ZM49.8246 27.6059C47.5634 27.6059 45.6602 25.7581 45.6602 23.4691C45.6602 21.1801 47.5634 19.3048 49.8246 19.3048C52.1137 19.3048 53.9892 21.1801 53.9892 23.4691C53.9892 25.7581 52.1137 27.6059 49.8246 27.6059ZM11.1871 49.9998C14.9654 49.9998 17.5578 48.6208 19.8744 45.7527L24.8661 39.7129C25.5831 38.8581 26.4105 38.4443 27.2379 38.4443H53.741C54.5681 38.4443 55.3956 38.8581 56.1126 39.7129L61.1044 45.7527C63.4209 48.6208 66.0134 49.9998 69.7917 49.9998C76.1071 49.9998 80.2991 45.8078 80.2991 39.3542C80.2991 36.5966 79.6648 33.4249 78.5892 29.8674C76.9069 24.2137 73.956 16.5193 71.143 10.5623C68.7711 5.59821 67.5576 3.33677 61.711 2.013C56.5263 0.827123 49.3284 0.0273438 40.5032 0.0273438C31.6781 0.0273438 24.4524 0.827123 19.2676 2.013C13.421 3.33677 12.2075 5.59821 9.83578 10.5623C7.02275 16.5193 4.07185 24.2137 2.38956 29.8674C1.31399 33.4249 0.679688 36.5966 0.679688 39.3542C0.679688 45.8078 4.87164 49.9998 11.1871 49.9998Z" fill="#1E1E1E" fill-opacity="0.85"/>
</g>
<defs>
<clipPath id="clip0_2225_2730">
<rect width="80.6398" height="50" fill="white" transform="translate(0.679688)"/>
</clipPath>
</defs>
</svg>
