<svg width="76" height="76" viewBox="0 0 76 76" fill="none" xmlns="http://www.w3.org/2000/svg">
<g clip-path="url(#clip0_270_248)">
<path d="M25.1045 49.8362C25.1045 51.8456 26.2874 53 28.3254 53H47.7221C49.746 53 50.9288 51.8456 50.9288 49.8362V33.8883L48.9051 33.7601V49.5511C48.9051 50.4774 48.4062 50.9905 47.5084 50.9905H28.5392C27.6271 50.9905 27.1283 50.4774 27.1283 49.5511V33.7601L25.1045 33.8883V49.8362ZM21 37.0665C21 37.6223 21.4133 38.0214 22.0404 38.0214C22.2969 38.0214 22.4964 37.9216 22.6817 37.7792L37.5179 25.3373C37.8171 25.0665 38.2019 25.0522 38.5155 25.3373L53.3517 37.7792C53.5227 37.9216 53.7222 38.0214 53.9929 38.0214C54.6057 38.0214 55.019 37.6223 55.019 37.0665C55.019 36.6817 54.8766 36.4252 54.5629 36.1686L39.7268 23.6983C38.6723 22.8004 37.3753 22.8004 36.3065 23.6983L21.4561 36.1686C21.1425 36.4252 21 36.6817 21 37.0665ZM47.3515 30.6674L50.9288 33.7031V27.1045C50.9288 26.4917 50.5298 26.0926 49.9027 26.0926H48.3778C47.7648 26.0926 47.3515 26.4917 47.3515 27.1045V30.6674Z" fill="white" fill-opacity="0.5"/>
<path d="M29.793 46.5153C29.793 47.6697 30.5198 48.3396 31.774 48.3396H44.2729C45.5128 48.3396 46.2538 47.6697 46.2538 46.5153V35.3989L38.9426 29.2849C38.3726 28.8146 37.6599 28.8146 37.1042 29.2849L29.793 35.3989V46.5153ZM31.8167 45.646V36.3823L37.5603 31.5651C37.8167 31.3514 38.2158 31.3371 38.4724 31.5651L44.2301 36.3965V45.646C44.2301 46.0877 43.9878 46.33 43.5459 46.33H32.4866C32.059 46.33 31.8167 46.0877 31.8167 45.646Z" fill="white" fill-opacity="0.5"/>
<path d="M34.4688 42.3538C34.4688 43.1804 35.0103 43.6935 35.8797 43.6935H40.1552C41.0389 43.6935 41.5661 43.1804 41.5661 42.3538V37.6935L38.8298 35.3847C38.331 34.9714 37.7039 34.9714 37.2194 35.3847L34.4688 37.6935V42.3538ZM36.4497 41.4132V38.6057L37.6754 37.5795C37.8892 37.3942 38.1599 37.3942 38.3594 37.5795L39.5852 38.6057V41.4132C39.5852 41.627 39.4854 41.741 39.2574 41.741H36.7775C36.5638 41.741 36.4497 41.627 36.4497 41.4132Z" fill="white" fill-opacity="0.5"/>
</g>
<defs>
<clipPath id="clip0_270_248">
<rect width="34.5464" height="30" fill="white" transform="translate(21 23)"/>
</clipPath>
</defs>
</svg>
