<svg width="124" height="127" viewBox="0 0 124 127" fill="none" xmlns="http://www.w3.org/2000/svg">
<path d="M62.3863 126.443C96.0165 126.443 123.861 98.5389 123.861 64.969C123.861 46.4667 115.423 30.4352 103.851 19.8882C98.5474 15.0667 91.7371 22.2387 96.9805 27.241C107.226 36.5826 113.555 49.9623 113.615 64.969C113.675 93.416 90.833 116.198 62.3863 116.198C33.9394 116.198 11.2181 93.416 11.2181 64.969C11.2783 49.8418 17.6066 36.5224 27.792 27.1807C33.0956 22.1181 26.225 15.0064 20.9214 19.8279C9.28945 30.375 0.912109 46.4667 0.912109 64.969C0.912109 98.5389 28.8165 126.443 62.3863 126.443ZM62.3863 64.3666C65.2792 64.3666 67.2683 62.2572 67.2683 59.2437V5.12235C67.2683 2.04865 65.2792 -0.000488281 62.3863 -0.000488281C59.4934 -0.000488281 57.5648 2.04865 57.5648 5.12235V59.2437C57.5648 62.2572 59.4934 64.3666 62.3863 64.3666Z" fill="#1E1E1E" fill-opacity="0.85"/>
</svg>
