<svg width="127" height="130" viewBox="0 0 127 130" fill="none" xmlns="http://www.w3.org/2000/svg">
<g clip-path="url(#clip0_2128_1831)">
<path d="M62.3863 126.444C96.0165 126.444 123.861 98.5394 123.861 64.9694C123.861 46.4672 115.423 30.4357 103.851 19.8887C98.5474 15.0672 91.7371 22.2392 96.9805 27.2415C107.226 36.5831 113.555 49.9628 113.615 64.9694C113.675 93.4165 90.833 116.198 62.3863 116.198C33.9394 116.198 11.2181 93.4165 11.2181 64.9694C11.2783 49.8422 17.6066 36.5229 27.792 27.1812C33.0956 22.1186 26.225 15.0069 20.9214 19.8284C9.28945 30.3755 0.912109 46.4672 0.912109 64.9694C0.912109 98.5394 28.8165 126.444 62.3863 126.444ZM62.3863 64.3671C65.2792 64.3671 67.2683 62.2577 67.2683 59.2442V5.12284C67.2683 2.04914 65.2792 0 62.3863 0C59.4934 0 57.5648 2.04914 57.5648 5.12284V59.2442C57.5648 62.2577 59.4934 64.3671 62.3863 64.3671Z" fill="white" fill-opacity="0.8"/>
</g>
<defs>
<clipPath id="clip0_2128_1831">
<rect width="125.178" height="130" fill="white" transform="translate(0.910156)"/>
</clipPath>
</defs>
</svg>
