<svg width="50" height="50" viewBox="0 0 50 50" fill="none" xmlns="http://www.w3.org/2000/svg">
<g clip-path="url(#clip0_2225_2534)">
<path d="M-0.00195312 20.4075C-0.00195312 31.6597 9.07051 40.8149 20.221 40.8149C24.6306 40.8149 28.6599 39.383 31.9797 36.979L44.4481 49.5865C45.0309 50.175 45.7912 50.4562 46.6022 50.4562C48.3253 50.4562 49.5164 49.1518 49.5164 47.4384C49.5164 46.6201 49.2123 45.8785 48.6803 45.3416L36.288 32.7595C38.8981 29.3327 40.4439 25.0618 40.4439 20.4075C40.4439 9.15524 31.3714 0 20.221 0C9.07051 0 -0.00195312 9.15524 -0.00195312 20.4075ZM4.33154 20.4075C4.33154 11.5591 11.4527 4.37303 20.221 4.37303C28.9895 4.37303 36.1105 11.5591 36.1105 20.4075C36.1105 29.2559 28.9895 36.4419 20.221 36.4419C11.4527 36.4419 4.33154 29.2559 4.33154 20.4075Z" fill="#1E1E1E" fill-opacity="0.85"/>
</g>
<defs>
<clipPath id="clip0_2225_2534">
<rect width="50" height="50" fill="white"/>
</clipPath>
</defs>
</svg>
