<svg width="30" height="30" viewBox="0 0 30 30" fill="none" xmlns="http://www.w3.org/2000/svg">
<g clip-path="url(#clip0_2128_2099)">
<path d="M6.60493 29.1353H22.8241C26.4814 29.1353 29.4289 26.5736 29.4289 22.7927C29.4289 19.0118 26.4814 16.4502 22.8241 16.4502H6.60493C2.94752 16.4502 0 19.0118 0 22.7927C0 26.5736 2.94752 29.1353 6.60493 29.1353ZM23.2253 26.8051C20.9875 26.7896 19.2284 24.9995 19.2284 22.7773C19.2284 20.5705 21.003 18.7804 23.2253 18.7804C25.4475 18.7804 27.2531 20.555 27.2376 22.7619C27.2222 24.9995 25.4321 26.8206 23.2253 26.8051Z" fill="white" fill-opacity="0.8"/>
<path d="M7.23749 10.6945C9.27452 10.7099 10.8949 9.04326 10.9103 7.00622C10.9258 4.98462 9.27452 3.36426 7.23749 3.36426C5.20046 3.36426 3.58008 5.00005 3.58008 7.02166C3.58008 9.05869 5.20046 10.6791 7.23749 10.6945Z" fill="white" fill-opacity="0.8"/>
<path d="M7.23765 14.0741H22.1914C26.1728 14.0741 29.4289 11.2346 29.4289 7.03702C29.4289 2.83951 26.1728 0 22.1914 0H7.23765C3.25617 0 0 2.83951 0 7.03702C0 11.2346 3.25617 14.0741 7.23765 14.0741ZM7.23765 11.7438C4.64505 11.7438 2.33024 9.84567 2.33024 7.03702C2.33024 4.22839 4.64505 2.33024 7.23765 2.33024H22.1914C24.7839 2.33024 27.0987 4.22839 27.0987 7.03702C27.0987 9.84567 24.7839 11.7438 22.1914 11.7438H7.23765Z" fill="white" fill-opacity="0.8"/>
</g>
<defs>
<clipPath id="clip0_2128_2099">
<rect width="30" height="29.1821" fill="white"/>
</clipPath>
</defs>
</svg>
