<svg width="76" height="76" viewBox="0 0 76 76" fill="none" xmlns="http://www.w3.org/2000/svg">
<g clip-path="url(#clip0_270_255)">
<path d="M29.6049 52.1353H45.8241C49.4814 52.1353 52.4289 49.5736 52.4289 45.7927C52.4289 42.0118 49.4814 39.4502 45.8241 39.4502H29.6049C25.9475 39.4502 23 42.0118 23 45.7927C23 49.5736 25.9475 52.1353 29.6049 52.1353ZM46.2253 49.8051C43.9875 49.7896 42.2284 47.9995 42.2284 45.7773C42.2284 43.5705 44.003 41.7804 46.2253 41.7804C48.4475 41.7804 50.2531 43.555 50.2376 45.7619C50.2222 47.9995 48.4321 49.8206 46.2253 49.8051Z" fill="white" fill-opacity="0.5"/>
<path d="M30.2375 33.694C32.2745 33.7094 33.8949 32.0428 33.9103 30.0057C33.9258 27.9841 32.2745 26.3638 30.2375 26.3638C28.2005 26.3638 26.5801 27.9996 26.5801 30.0212C26.5801 32.0582 28.2005 33.6786 30.2375 33.694Z" fill="white" fill-opacity="0.5"/>
<path d="M30.2376 37.0741H45.1914C49.1728 37.0741 52.4289 34.2346 52.4289 30.037C52.4289 25.8395 49.1728 23 45.1914 23H30.2376C26.2562 23 23 25.8395 23 30.037C23 34.2346 26.2562 37.0741 30.2376 37.0741ZM30.2376 34.7438C27.6451 34.7438 25.3302 32.8457 25.3302 30.037C25.3302 27.2284 27.6451 25.3302 30.2376 25.3302H45.1914C47.7839 25.3302 50.0987 27.2284 50.0987 30.037C50.0987 32.8457 47.7839 34.7438 45.1914 34.7438H30.2376Z" fill="white" fill-opacity="0.5"/>
</g>
<defs>
<clipPath id="clip0_270_255">
<rect width="30" height="29.1821" fill="white" transform="translate(23 23)"/>
</clipPath>
</defs>
</svg>
