<svg width="63" height="52" viewBox="0 0 63 52" fill="none" xmlns="http://www.w3.org/2000/svg">
<g clip-path="url(#clip0_2224_1669)">
<path d="M35.2787 44.435C35.2787 45.0715 35.3317 45.6632 35.4349 46.2091H17.2523C16.355 46.2091 15.6209 45.4749 15.6209 44.5574C15.6209 43.6396 16.355 42.9057 17.2523 42.9057H35.2787V44.435ZM52.9994 10.666V17.5993H49.7162V10.7068C49.7162 9.46288 48.9618 8.70838 47.7179 8.70838H7.32143C6.05713 8.70838 5.30262 9.46288 5.30262 10.7068V34.0148C5.30262 35.2587 6.05713 36.0132 7.32143 36.0132H35.2787V39.2963H7.26025C4.01794 39.2963 2.01953 37.2978 2.01953 34.0555V10.666C2.01953 7.4237 4.01794 5.42529 7.26025 5.42529H47.7791C51.0213 5.42529 52.9994 7.4237 52.9994 10.666Z" fill="white" fill-opacity="0.8"/>
<path d="M42.3738 48.799H55.6285C58.4834 48.799 59.9515 47.3513 59.9515 44.4353V24.7571C59.9515 21.8411 58.4834 20.3728 55.6285 20.3728H42.3738C39.478 20.3728 38.0508 21.8411 38.0508 24.7571V44.4353C38.0508 47.3513 39.478 48.799 42.3738 48.799ZM49.0216 30.7726C47.0435 30.7726 45.4733 29.2026 45.4937 27.2245C45.5142 25.2668 47.0435 23.7375 49.0216 23.7375C50.9792 23.7375 52.5086 25.2668 52.5086 27.2245C52.5086 29.2026 50.9792 30.7726 49.0216 30.7726ZM49.0012 45.2713C45.5344 45.2713 42.7612 42.4776 42.7612 39.0109C42.7612 35.524 45.5344 32.7507 49.0012 32.7302C52.4474 32.71 55.2411 35.524 55.2411 39.0109C55.2411 42.4776 52.4474 45.2713 49.0012 45.2713ZM49.0012 28.9783C49.9596 28.9783 50.714 28.2034 50.714 27.2245C50.714 26.2458 49.9596 25.5116 49.0012 25.5116C48.0427 25.5116 47.2678 26.2865 47.2678 27.2245C47.2678 28.2034 48.0222 28.9783 49.0012 28.9783ZM49.0012 41.6211C50.4491 41.6211 51.6318 40.4588 51.6318 39.0109C51.6318 37.4816 50.4898 36.3396 49.0012 36.3396C47.5532 36.3396 46.3705 37.4816 46.3705 39.0109C46.3705 40.4588 47.5532 41.6211 49.0012 41.6211Z" fill="white" fill-opacity="0.8"/>
<path d="M49.0221 30.7729C47.0441 30.7729 45.4738 29.2028 45.4942 27.2248C45.5147 25.2671 47.0441 23.7378 49.0221 23.7378C50.9798 23.7378 52.5091 25.2671 52.5091 27.2248C52.5091 29.2028 50.9798 30.7729 49.0221 30.7729ZM49.0017 45.2716C45.535 45.2716 42.7617 42.4779 42.7617 39.0112C42.7617 35.5242 45.535 32.751 49.0017 32.7305C52.4479 32.7103 55.2416 35.5242 55.2416 39.0112C55.2416 42.4779 52.4479 45.2716 49.0017 45.2716ZM49.0017 28.9786C49.9601 28.9786 50.7146 28.2037 50.7146 27.2248C50.7146 26.2461 49.9601 25.5119 49.0017 25.5119C48.0432 25.5119 47.2683 26.2868 47.2683 27.2248C47.2683 28.2037 48.0228 28.9786 49.0017 28.9786ZM49.0017 41.6214C50.4496 41.6214 51.6323 40.4591 51.6323 39.0112C51.6323 37.4819 50.4903 36.3399 49.0017 36.3399C47.5538 36.3399 46.3711 37.4819 46.3711 39.0112C46.3711 40.4591 47.5538 41.6214 49.0017 41.6214Z" fill="white" fill-opacity="0.2125"/>
</g>
<defs>
<clipPath id="clip0_2224_1669">
<rect width="62.7256" height="51.5303" fill="white" transform="translate(0 0.0625)"/>
</clipPath>
</defs>
</svg>
