<svg width="542" height="515" viewBox="0 0 542 515" fill="none" xmlns="http://www.w3.org/2000/svg">
<path fill-rule="evenodd" clip-rule="evenodd" d="M239.98 285.686V165.085C221.861 167.875 204.049 173.265 187.113 181.254L14.9755 262.451C-4.66375 271.715 -4.6637 299.655 14.9756 308.919L187.113 390.116C238.723 414.461 298.469 414.675 350.253 390.701L526.733 308.997C546.594 299.802 546.594 271.569 526.733 262.373L350.253 180.669C333.212 172.78 315.309 167.51 297.117 164.857V285.686C297.117 301.463 284.327 314.254 268.549 314.254C252.771 314.254 239.98 301.463 239.98 285.686ZM104.111 308.538C126.2 308.538 144.107 298.306 144.107 285.683C144.107 273.061 126.2 262.828 104.111 262.828C82.0218 262.828 64.1151 273.061 64.1151 285.683C64.1151 298.306 82.0218 308.538 104.111 308.538Z" fill="black" fill-opacity="0.6"/>
<path d="M207.413 429.785L9.04211 341.15C4.79391 339.252 0 342.361 0 347.014V368.11C0 380.572 7.21077 391.909 18.4978 397.193L186.864 476.003C238.622 500.23 298.465 500.23 350.223 476.003L518.59 397.193C529.877 391.909 537.088 380.572 537.088 368.11V347.014C537.088 342.361 532.294 339.252 528.045 341.15L329.675 429.785C290.774 447.166 246.314 447.166 207.413 429.785Z" fill="black" fill-opacity="0.6"/>
<path d="M342.826 74.2785C342.826 115.301 309.57 148.557 268.548 148.557C227.525 148.557 194.27 115.301 194.27 74.2785C194.27 33.2556 227.525 0 268.548 0C309.57 0 342.826 33.2556 342.826 74.2785Z" fill="black" fill-opacity="0.6"/>
</svg>
