<svg width="264" height="208" viewBox="0 0 264 208" fill="none" xmlns="http://www.w3.org/2000/svg">
<path d="M133.549 142.083C123.203 142.083 118.111 137.425 118.111 126.646V92.4667H109.878V84.6667H118.111V69.4458H127.861V84.6667H138.586V92.4667H127.861V126.592C127.861 132.604 130.515 134.283 135.553 134.283C136.69 134.283 137.774 134.121 138.586 134.067V141.704C137.394 141.867 135.39 142.083 133.549 142.083ZM164.552 141L143.806 84.6667H153.718L169.264 130.979H169.481L185.081 84.6667H194.885L174.193 141H164.552ZM202.217 113.646V104.871H225.346V81.7958H234.121V104.871H257.196V113.646H234.121V136.775H225.346V113.646H202.217Z" fill="black"/>
<path d="M75.85 74.4835C73.0333 77.896 68.2667 80.4418 64.475 80.4418C64.0417 80.4418 63.6083 80.3876 63.3375 80.3335C63.2833 80.1168 63.175 79.4668 63.175 78.8168C63.175 74.4835 65.3958 70.1501 67.7792 67.4418C70.8125 63.8668 75.9042 61.2126 80.1292 61.0501C80.2375 61.5376 80.2917 62.1335 80.2917 62.7293C80.2917 67.0626 78.45 71.3418 75.85 74.4835ZM78.8292 81.3626C81.2125 81.3626 89.825 81.5793 95.4583 89.7043C94.9708 90.0835 86.4125 94.9043 86.4125 105.683C86.4125 118.142 97.3 122.583 97.625 122.692C97.5708 122.963 95.8917 128.704 91.8833 134.608C88.3083 139.754 84.5167 144.954 78.8292 144.954C73.0875 144.954 71.625 141.596 65.0708 141.596C58.625 141.596 56.35 145.063 51.15 145.063C45.8958 145.063 42.2667 140.242 38.0958 134.392C33.2208 127.458 29.3208 116.733 29.3208 106.55C29.3208 90.246 39.9375 81.5793 50.3917 81.5793C55.9167 81.5793 60.5208 85.2085 64.0417 85.2085C67.3458 85.2085 72.4917 81.3626 78.8292 81.3626Z" fill="black"/>
</svg>
