<svg width="597" height="517" viewBox="0 0 597 517" fill="none" xmlns="http://www.w3.org/2000/svg">
<path opacity="0.096" fill-rule="evenodd" clip-rule="evenodd" d="M218.819 39.6406C196.044 17.7782 168.796 5.41213 137.074 2.541C121.13 1.79272 105.2 2.00274 89.2852 3.1698C131.36 -5.04618 170.346 2.70952 206.243 26.4356C210.106 30.1468 214.089 33.7097 218.19 37.1253C218.774 37.8723 218.984 38.7112 218.819 39.6406Z" fill="#E2AC95"/>
<path opacity="0.078" fill-rule="evenodd" clip-rule="evenodd" d="M89.2862 3.16968C78.3374 5.58178 67.4377 8.72581 56.5882 12.6018C52.9965 14.1851 49.6424 16.0715 46.5273 18.261C46.5412 16.3532 47.3787 14.8856 49.0426 13.8594C61.8438 7.93477 75.2575 4.3707 89.2862 3.16968Z" fill="#E6A99A"/>
<path opacity="0.999" fill-rule="evenodd" clip-rule="evenodd" d="M238.942 78.6263C250.868 113.232 248.353 146.769 231.396 179.235C207.191 215.251 173.236 235.162 129.53 238.972C112.762 239.811 95.993 239.811 79.2253 238.972C70.7125 237.941 62.3293 236.263 54.0731 233.941C47.6089 170.629 45.5125 107.12 47.785 43.4131C47.5486 35.3795 48.1774 27.4138 49.6714 19.5185C63.9503 11.7075 79.2517 6.88704 95.5742 5.05596C130.756 0.856789 163.873 7.14485 194.926 23.9201C215.394 37.4734 230.066 55.7088 238.942 78.6263ZM143.364 102.521C144.639 103.997 146.315 104.835 148.394 105.036C149.758 107.661 151.854 109.337 154.682 110.067C161.45 120.731 163.966 132.468 162.228 145.28C161.053 146.623 160.633 148.299 160.97 150.31C158.523 152.641 156.636 155.575 155.311 159.113C148.635 165.322 140.88 167.837 132.045 166.659C130.522 153.118 129.264 139.703 128.272 126.416C128.272 119.289 128.272 112.163 128.272 105.036C128.98 102.747 130.447 101.071 132.674 100.006C136.184 101.145 139.747 101.984 143.364 102.521Z" fill="#099BD3"/>
<path opacity="0.216" fill-rule="evenodd" clip-rule="evenodd" d="M46.5255 18.2611C46.5255 21.1951 46.5255 24.1304 46.5255 27.0644C42.2773 27.7221 38.5045 29.3985 35.207 32.0948C36.5577 28.8653 39.0729 26.7689 42.7527 25.8068C44.033 23.1733 45.2906 20.6581 46.5255 18.2611Z" fill="#EBACA4"/>
<path opacity="0.31" fill-rule="evenodd" clip-rule="evenodd" d="M218.82 39.6405C222.293 41.0151 224.388 43.5303 225.108 47.1862C222.072 45.4117 219.976 42.8965 218.82 39.6405Z" fill="#E5B69D"/>
<path opacity="0.629" fill-rule="evenodd" clip-rule="evenodd" d="M416.264 68.5659C413.163 63.2751 410.647 57.6158 408.718 51.5881C391.012 48.9283 373.406 49.1383 355.898 52.2169C356.816 50.2739 358.493 49.2263 360.929 49.0729C378.124 46.1414 395.102 46.7702 411.862 50.9593C413.209 56.8801 414.675 62.7482 416.264 68.5659Z" fill="#DCAE8D"/>
<path opacity="0.212" fill-rule="evenodd" clip-rule="evenodd" d="M225.109 47.1863C229.18 49.865 231.695 53.6378 232.655 58.5048C229.208 55.3922 226.693 51.6194 225.109 47.1863Z" fill="#E2B59B"/>
<path opacity="0.198" fill-rule="evenodd" clip-rule="evenodd" d="M500.525 57.2472C483.064 53.7637 465.457 51.8772 447.705 51.588C445.531 53.8379 444.692 56.5631 445.19 59.7625C441.695 59.4845 438.341 59.9033 435.129 61.0201C437.047 59.0884 439.562 57.8308 442.675 57.2472C443.346 54.5887 444.604 52.2822 446.447 50.3304C462.136 49.2174 477.648 50.475 492.979 54.1032C495.937 54.405 498.452 55.4526 500.525 57.2472Z" fill="#E1B18B"/>
<path opacity="0.998" fill-rule="evenodd" clip-rule="evenodd" d="M491.72 213.191C480.418 213.955 469.099 214.373 457.765 214.449C457.975 198.514 457.765 182.583 457.136 166.66C456.795 162.094 454.699 160.837 450.848 162.887C445.256 175.099 438.968 186.837 431.984 198.1C424.857 186.363 417.731 174.624 410.604 162.887C409.116 161.339 407.65 161.339 406.203 162.887C404.969 179.173 404.55 195.522 404.945 211.934C388.563 212.229 372.214 211.809 355.898 210.676C356.104 204.345 355.685 198.057 354.64 191.812C354.561 189.279 355.399 187.182 357.156 185.524C370.862 165.004 375.683 142.367 371.618 117.613C368.703 104.669 363.463 92.932 355.898 82.3995C354.537 81.0237 353.7 79.3473 353.383 77.369C355.406 69.1267 357.501 60.9522 359.671 52.8456C375.673 51.6886 391.602 52.1087 407.46 54.1032C411.903 67.0076 417.563 79.3737 424.438 91.2028C429.695 96.6005 433.886 95.7629 437.014 88.6876C440.963 77.4722 444.526 66.1537 447.704 54.732C465.704 53.2481 483.31 55.3445 500.523 61.0201C502.951 65.2608 504.417 69.8724 504.925 74.8538C511.587 120.601 510.538 166.084 501.781 211.305C498.178 211.535 494.825 212.164 491.72 213.191Z" fill="#099BD2"/>
<path opacity="0.998" fill-rule="evenodd" clip-rule="evenodd" d="M355.898 84.9149C370.713 110.214 373.857 137.043 365.33 165.402C362.833 172.074 359.689 178.362 355.898 184.266C334.026 209.876 306.358 219.308 272.896 212.563C254.726 207.504 241.311 196.815 232.652 180.493C241.742 165.974 246.982 150.045 248.372 132.704C249.211 123.062 249.211 113.421 248.372 103.779C246.697 94.3621 244.392 85.1388 241.456 76.1117C274.245 49.3761 308.201 47.9085 343.322 71.71C347.806 75.9809 351.997 80.3825 355.898 84.9149ZM284.214 127.674C298.146 126.722 305.692 133.22 306.851 147.167C307.27 155.551 303.287 159.953 294.904 160.372C286.796 159.144 281.137 154.743 277.926 147.167C276.623 143.242 276.413 139.26 277.298 135.219C279.863 132.868 282.168 130.352 284.214 127.674Z" fill="#099BD3"/>
<path opacity="0.995" fill-rule="evenodd" clip-rule="evenodd" d="M218.818 39.6405C219.974 42.8965 222.07 45.4117 225.106 47.1862C226.69 51.6193 229.205 55.3921 232.652 58.5047C234.491 63.8583 237.006 68.8888 240.198 73.596C241.483 73.1496 242.322 72.3108 242.713 71.0808C250.286 66.4264 257.832 61.8147 265.35 57.2471C269.812 56.4548 274.004 55.1972 277.926 53.4742C302.447 49.3417 324.455 54.791 343.951 69.8232C343.322 62.0675 346.885 58.5047 354.64 59.1335C355.78 56.9968 356.199 54.6903 355.898 52.2166C373.405 49.138 391.012 48.928 408.718 51.5878C410.647 57.6156 413.162 63.2748 416.263 68.5656C419.129 75.9754 422.693 83.1023 426.953 89.945C428.392 86.7003 429.441 83.3463 430.097 79.8841C432.238 73.8576 433.914 67.5696 435.128 61.0199C438.339 59.9031 441.694 59.4844 445.188 59.7623C444.69 56.5629 445.529 53.8377 447.704 51.5878C465.456 51.8771 483.063 53.7635 500.523 57.2471C503.449 58.7436 504.916 61.2589 504.925 64.7927C507.779 78.7158 510.084 92.5495 511.842 106.294C511.842 107.552 511.842 108.809 511.842 110.067C512.215 134.854 511.378 159.588 509.327 184.266C507.755 193.289 506.287 202.511 504.925 211.933C502.788 213.073 500.482 213.492 498.008 213.191C495.912 213.191 493.816 213.191 491.72 213.191C494.825 212.163 498.178 211.535 501.781 211.305C510.538 166.083 511.587 120.601 504.925 74.8536C504.417 69.8722 502.951 65.2606 500.523 61.0199C483.31 55.3443 465.704 53.2479 447.704 54.7318C444.526 66.1535 440.963 77.472 437.014 88.6874C433.886 95.7627 429.695 96.6003 424.438 91.2026C417.562 79.3735 411.903 67.0074 407.46 54.103C391.602 52.1085 375.673 51.6884 359.671 52.8454C357.501 60.952 355.406 69.1265 353.383 77.3689C353.7 79.3471 354.537 81.0235 355.898 82.3993C355.898 83.2381 355.898 84.0757 355.898 84.9145C351.997 80.3821 347.805 75.9805 343.322 71.7096C308.201 47.908 274.245 49.3757 241.455 76.1113C240.616 76.9501 239.779 77.7877 238.94 78.6265C230.064 55.709 215.393 37.4736 194.924 23.9204C163.871 7.14507 130.754 0.857008 95.5723 5.05617C79.2497 6.88726 63.9484 11.7077 49.6694 19.5187C48.1754 27.414 47.5466 35.3797 47.783 43.4133C46.5443 38.2144 46.1255 32.7639 46.5254 27.0644C46.5254 24.1304 46.5254 21.1951 46.5254 18.2611C49.6405 16.0716 52.9946 14.1852 56.5863 12.6018C67.4357 8.72589 78.3354 5.58186 89.2842 3.16976C105.199 2.00269 121.129 1.79267 137.073 2.54095C168.795 5.41208 196.043 17.7782 218.818 39.6405Z" fill="#161415"/>
<path opacity="0.141" fill-rule="evenodd" clip-rule="evenodd" d="M265.352 57.2472C257.834 61.8148 250.288 66.4265 242.715 71.0809C243.383 68.4098 245.06 66.5233 247.745 65.4217C253.163 61.6639 259.032 58.9387 265.352 57.2472Z" fill="#EBBDA2"/>
<path opacity="0.396" fill-rule="evenodd" clip-rule="evenodd" d="M355.898 52.2162C356.198 54.69 355.78 56.9964 354.64 59.1331C346.884 58.5043 343.322 62.0671 343.95 69.8228C324.455 54.7906 302.447 49.3413 277.926 53.4738C299.589 47.9504 319.92 51.3045 338.92 63.5347C342.962 59.7217 347.782 58.0453 353.382 58.5043C353.259 55.9224 354.098 53.826 355.898 52.2162Z" fill="#E9BC9C"/>
<path opacity="0.137" fill-rule="evenodd" clip-rule="evenodd" d="M277.928 53.4741C274.005 55.1971 269.814 56.4547 265.352 57.247C268.975 54.5054 273.166 53.2478 277.928 53.4741Z" fill="#F3C2A5"/>
<path opacity="0.361" fill-rule="evenodd" clip-rule="evenodd" d="M232.652 58.5046C235.365 63.0232 238.718 67.2149 242.713 71.0808C242.322 72.3107 241.483 73.1495 240.198 73.596C237.006 68.8887 234.491 63.8583 232.652 58.5046Z" fill="#DFB39D"/>
<path opacity="0.082" fill-rule="evenodd" clip-rule="evenodd" d="M435.128 61.0199C433.915 67.5695 432.238 73.8576 430.098 79.8841C430.314 74.8109 430.943 69.7804 431.984 64.7927C432.281 62.7567 433.328 61.499 435.128 61.0199Z" fill="#E6B494"/>
<path opacity="0.011" fill-rule="evenodd" clip-rule="evenodd" d="M416.266 68.5659C418.643 71.1943 420.739 74.1283 422.554 77.3692C424.529 76.3518 426.626 75.9318 428.842 76.1116C428.544 77.7352 428.962 78.9928 430.099 79.8844C429.443 83.3466 428.394 86.7007 426.955 89.9453C422.696 83.1027 419.132 75.9758 416.266 68.5659Z" fill="#F0BC9D"/>
<path opacity="0.06" fill-rule="evenodd" clip-rule="evenodd" d="M35.2083 33.3525C33.5835 79.8842 33.5835 126.416 35.2083 172.947C35.2083 176.302 35.2083 179.654 35.2083 183.008C30.2847 133.119 30.2847 83.2332 35.2083 33.3525Z" fill="#DDA5A4"/>
<path opacity="0.035" fill-rule="evenodd" clip-rule="evenodd" d="M500.523 57.2472C502.2 57.2472 503.877 57.2472 505.554 57.2472C509.393 73.3585 511.49 89.7074 511.842 106.294C510.084 92.5496 507.779 78.7159 504.925 64.7929C504.916 61.259 503.449 58.7438 500.523 57.2472Z" fill="#F3BF93"/>
<path opacity="0.996" fill-rule="evenodd" clip-rule="evenodd" d="M127.013 84.9146C168.2 85.5836 183.5 105.705 172.916 145.28C163.547 163.279 148.664 172.082 128.271 171.69C125.643 142.724 125.223 113.799 127.013 84.9146ZM143.362 102.521C144.637 103.998 146.314 104.835 148.392 105.036C149.757 107.661 151.852 109.337 154.68 110.067C161.449 120.731 163.964 132.469 162.226 145.28C161.052 146.623 160.631 148.299 160.969 150.31C158.521 152.641 156.635 155.575 155.309 159.114C148.634 165.322 140.878 167.838 132.043 166.659C130.52 153.119 129.263 139.704 128.271 126.416C128.271 119.289 128.271 112.163 128.271 105.036C128.979 102.747 130.445 101.071 132.672 100.006C136.182 101.145 139.745 101.984 143.362 102.521Z" fill="#0F0E0F"/>
<path opacity="0.176" fill-rule="evenodd" clip-rule="evenodd" d="M143.365 102.521C139.748 101.984 136.185 101.145 132.675 100.006C130.448 101.071 128.981 102.748 128.273 105.036C128.273 102.94 128.273 100.845 128.273 98.7483C133.837 98.4616 138.868 99.7192 143.365 102.521Z" fill="#EBB9AB"/>
<path opacity="0.275" fill-rule="evenodd" clip-rule="evenodd" d="M143.363 102.522C145.728 102.181 147.404 103.02 148.394 105.037C146.315 104.836 144.638 103.998 143.363 102.522Z" fill="#E7B8A9"/>
<path opacity="0.996" fill-rule="evenodd" clip-rule="evenodd" d="M355.898 82.3993C363.463 92.9318 368.703 104.669 371.619 117.612C375.683 142.367 370.863 165.004 357.156 185.523C357.156 184.685 356.737 184.266 355.898 184.266C359.689 178.361 362.833 172.073 365.331 165.402C373.857 137.043 370.713 110.214 355.898 84.9145C355.898 84.0757 355.898 83.2381 355.898 82.3993Z" fill="#0F1921"/>
<path opacity="0.278" fill-rule="evenodd" clip-rule="evenodd" d="M148.395 105.036C151.223 105.766 153.318 107.442 154.683 110.067C151.854 109.337 149.759 107.661 148.395 105.036Z" fill="#EAB9AB"/>
<path opacity="0.995" fill-rule="evenodd" clip-rule="evenodd" d="M287.987 112.582C312.097 110.491 322.787 121.389 320.057 145.28C314.561 159.247 304.29 165.327 289.245 163.516C275.117 156.824 269.878 145.714 273.525 130.189C276.788 122.953 281.609 117.083 287.987 112.582ZM284.215 127.674C282.169 130.352 279.863 132.868 277.298 135.219C276.414 139.26 276.624 143.242 277.927 147.167C281.137 154.743 286.797 159.144 294.904 160.372C303.288 159.953 307.27 155.551 306.852 147.167C305.692 133.22 298.146 126.722 284.215 127.674Z" fill="#09090B"/>
<path opacity="0.141" fill-rule="evenodd" clip-rule="evenodd" d="M154.68 110.067C158.655 113.808 161.38 118.42 162.854 123.901C163.883 131.256 163.674 138.382 162.225 145.28C163.963 132.469 161.448 120.731 154.68 110.067Z" fill="#E5B8AA"/>
<path opacity="0.357" fill-rule="evenodd" clip-rule="evenodd" d="M285.475 125.158C302.565 126.528 310.319 135.75 308.741 152.826C303.646 161.635 296.309 163.942 286.733 159.743C277.058 153.794 273.495 145.201 276.043 133.961C278.234 129.879 281.378 126.945 285.475 125.158ZM284.217 127.673C282.171 130.352 279.866 132.867 277.3 135.219C276.416 139.26 276.626 143.241 277.929 147.166C281.14 154.742 286.799 159.144 294.907 160.371C303.29 159.953 307.273 155.551 306.854 147.166C305.695 133.219 298.149 126.721 284.217 127.673Z" fill="#DDB6A3"/>
<path opacity="0.996" fill-rule="evenodd" clip-rule="evenodd" d="M241.455 76.1113C244.392 85.1385 246.697 94.3618 248.372 103.779C249.211 113.421 249.211 123.062 248.372 132.704C246.981 150.045 241.742 165.974 232.652 180.493C232.652 179.654 232.233 179.236 231.395 179.236C248.351 146.769 250.866 113.232 238.94 78.6266C239.779 77.7877 240.617 76.9502 241.455 76.1113Z" fill="#0E1822"/>
<path opacity="0.061" fill-rule="evenodd" clip-rule="evenodd" d="M511.843 110.067C513.302 126.617 513.512 143.386 512.472 160.371C512.112 171.108 511.064 181.587 509.328 191.812C509.328 189.296 509.328 186.781 509.328 184.266C511.379 159.588 512.217 134.854 511.843 110.067Z" fill="#F1C097"/>
<path opacity="0.994" fill-rule="evenodd" clip-rule="evenodd" d="M46.5254 27.0645C46.1255 32.764 46.5443 38.2144 47.783 43.4134C45.5105 107.12 47.607 170.63 54.0711 233.942C62.3273 236.263 70.7106 237.941 79.2233 238.972C95.9911 239.811 112.76 239.811 129.528 238.972C173.234 235.163 207.189 215.251 231.394 179.236C232.233 179.236 232.652 179.654 232.652 180.493C241.311 196.814 254.726 207.504 272.896 212.562C306.358 219.308 334.026 209.876 355.898 184.266C356.737 184.266 357.156 184.685 357.156 185.524C355.399 187.182 354.561 189.279 354.64 191.812C355.685 198.057 356.104 204.345 355.898 210.676C372.214 211.809 388.563 212.229 404.945 211.933C404.55 195.522 404.969 179.173 406.202 162.887C407.65 161.338 409.116 161.338 410.604 162.887C417.731 174.624 424.857 186.362 431.983 198.1C438.968 186.837 445.256 175.099 450.848 162.887C454.698 160.837 456.795 162.094 457.136 166.659C457.765 182.583 457.975 198.513 457.765 214.449C469.099 214.373 480.418 213.954 491.72 213.191C493.816 213.191 495.912 213.191 498.008 213.191C495.868 216.084 495.03 219.438 495.493 223.252C492.265 223.53 489.329 224.369 486.69 225.767C472.856 225.767 459.022 225.767 445.188 225.767C445.398 211.508 445.188 197.255 444.56 183.008C443.066 184.345 442.437 186.023 442.673 188.039C440.472 189.496 439.215 191.593 438.9 194.327C439.117 195.574 438.697 196.412 437.643 196.842C435.677 198.659 434.001 200.755 432.612 203.13C432.829 204.378 432.409 205.215 431.355 205.645C429.389 207.463 427.713 209.558 426.324 211.933C424.875 213.348 423.618 213.348 422.551 211.933C422.133 210.676 421.294 209.837 420.036 209.418C419.197 209.418 418.779 208.999 418.779 208.161C415.424 202.291 412.072 196.423 408.718 190.554C408.642 189.871 408.223 189.452 407.46 189.296C406.207 197.217 405.787 205.183 406.202 213.191C403.553 214.408 400.617 214.828 397.399 214.449C397.101 216.072 397.52 217.33 398.657 218.221C398.657 218.64 398.657 219.06 398.657 219.479C398.657 220.737 398.657 221.994 398.657 223.252C390.804 224.457 382.84 224.876 374.762 224.51C367.579 224.745 360.452 224.326 353.383 223.252C350.797 222.351 348.072 221.513 345.208 220.737C344.993 213.991 344.364 207.283 343.322 200.615C337.348 206.6 331.06 212.049 324.458 216.964C308.992 224.497 292.643 227.851 275.411 227.025C274.153 227.025 272.896 227.025 271.638 227.025C266.438 224.874 260.988 223.198 255.289 221.994C253.175 220.098 250.66 218.84 247.743 218.221C246.496 218.438 245.658 218.018 245.228 216.964C244.633 215.196 243.376 214.357 241.455 214.449C240.098 211.879 238.002 210.203 235.167 209.418C233.803 206.794 231.708 205.117 228.879 204.388C228.431 202.262 227.174 201.005 225.106 200.615C224.324 199.198 223.276 197.94 221.962 196.842C217.723 200.87 213.74 205.062 210.015 209.418C208.757 209.837 207.919 210.676 207.5 211.933C206.242 212.352 205.403 213.191 204.985 214.449C202.156 215.178 200.061 216.854 198.696 219.479C195.868 220.208 193.773 221.885 192.408 224.51C192.408 225.348 191.99 225.767 191.151 225.767C186.718 227.35 182.945 229.866 179.832 233.313C174.402 235.189 169.371 237.704 164.741 240.858C138.286 249.855 111.038 253.628 82.9962 252.177C75.7171 250.53 68.1714 249.691 60.3591 249.662C55.7525 247.252 50.7221 245.995 45.2678 245.889C42.198 243.965 40.7303 241.031 40.8662 237.086C38.8879 215.523 37.0015 194.143 35.2069 172.947C33.5821 126.416 33.5821 79.8842 35.2069 33.3525C35.2069 32.9337 35.2069 32.5137 35.2069 32.0949C38.5044 29.3986 42.2772 27.7222 46.5254 27.0645Z" fill="#0B090B"/>
<path opacity="0.144" fill-rule="evenodd" clip-rule="evenodd" d="M128.271 126.416C129.263 139.703 130.521 153.118 132.044 166.659C140.879 167.837 148.634 165.322 155.31 159.113C156.635 155.575 158.522 152.641 160.969 150.31C158.167 159.73 151.879 165.809 142.105 168.546C138.264 169.578 134.491 169.369 130.786 167.917C128.695 154.191 127.856 140.357 128.271 126.416Z" fill="#DAB0A7"/>
<path opacity="0.267" fill-rule="evenodd" clip-rule="evenodd" d="M35.207 172.948C37.0016 194.143 38.8881 215.523 40.8663 237.086C40.7305 241.031 42.1981 243.965 45.2679 245.889C41.3756 245.731 39.0704 243.634 38.3511 239.601C36.9375 220.753 35.8887 201.889 35.207 183.009C35.207 179.654 35.207 176.302 35.207 172.948Z" fill="#CAA5A9"/>
<path opacity="0.043" fill-rule="evenodd" clip-rule="evenodd" d="M442.675 188.039C442.559 190.992 441.302 193.087 438.902 194.327C439.217 191.593 440.474 189.497 442.675 188.039Z" fill="#E6BFA5"/>
<path opacity="0.055" fill-rule="evenodd" clip-rule="evenodd" d="M509.328 184.266C509.328 186.781 509.328 189.296 509.328 191.811C508.692 198.989 507.644 206.115 506.184 213.191C503.9 214.233 501.595 215.282 499.267 216.335C498.79 219.26 497.532 221.565 495.495 223.252C495.032 219.437 495.869 216.083 498.01 213.191C500.484 213.491 502.79 213.073 504.927 211.933C506.289 202.511 507.756 193.289 509.328 184.266Z" fill="#C69E85"/>
<path opacity="0.467" fill-rule="evenodd" clip-rule="evenodd" d="M408.721 190.554C407.882 198.1 407.044 205.645 406.206 213.191C405.79 205.183 406.211 197.217 407.463 189.296C408.226 189.452 408.645 189.871 408.721 190.554Z" fill="#A99082"/>
<path opacity="0.012" fill-rule="evenodd" clip-rule="evenodd" d="M437.644 196.842C437.43 200.242 435.754 202.339 432.613 203.13C434.002 200.754 435.678 198.659 437.644 196.842Z" fill="#F4CDB0"/>
<path opacity="0.204" fill-rule="evenodd" clip-rule="evenodd" d="M225.107 200.615C221.271 199.889 218.756 201.357 217.561 205.016C215.166 206.803 212.65 208.271 210.016 209.418C213.741 205.062 217.724 200.87 221.963 196.842C223.277 197.94 224.325 199.197 225.107 200.615Z" fill="#F1D0C1"/>
<path opacity="0.02" fill-rule="evenodd" clip-rule="evenodd" d="M225.109 200.615C227.177 201.005 228.435 202.262 228.882 204.388C226.815 203.998 225.557 202.74 225.109 200.615Z" fill="#D5B6A9"/>
<path opacity="0.118" fill-rule="evenodd" clip-rule="evenodd" d="M408.72 190.554C412.074 196.423 415.427 202.291 418.781 208.16C417.209 208.064 416.161 207.225 415.637 205.645C414.365 206.698 412.898 207.117 411.235 206.903C411.423 202.995 410.794 199.223 409.349 195.584C408.93 201.872 408.51 208.16 408.091 214.448C404.625 215.165 401.481 216.423 398.659 218.221C397.522 217.33 397.103 216.072 397.402 214.448C400.62 214.828 403.555 214.408 406.205 213.191C407.044 205.645 407.881 198.1 408.72 190.554Z" fill="#EBC3AC"/>
<path opacity="0.675" fill-rule="evenodd" clip-rule="evenodd" d="M228.879 204.388C231.707 205.117 233.802 206.794 235.167 209.418C232.339 208.689 230.243 207.012 228.879 204.388Z" fill="#C3A79B"/>
<path opacity="0.051" fill-rule="evenodd" clip-rule="evenodd" d="M353.386 223.252C349.426 223.615 345.653 222.987 342.068 221.365C344.058 215.92 343.009 211.098 338.923 206.903C335.27 212.036 330.45 215.391 324.461 216.964C331.063 212.049 337.351 206.6 343.325 200.615C344.368 207.283 344.996 213.991 345.212 220.737C348.075 221.513 350.8 222.351 353.386 223.252Z" fill="#E4C5B3"/>
<path opacity="0.122" fill-rule="evenodd" clip-rule="evenodd" d="M445.189 225.767C444.35 213.191 443.512 200.615 442.673 188.039C442.437 186.023 443.066 184.345 444.56 183.008C445.189 197.255 445.399 211.508 445.189 225.767Z" fill="#FDD2B6"/>
<path opacity="0.055" fill-rule="evenodd" clip-rule="evenodd" d="M431.355 205.645C430.678 207.679 430.259 209.775 430.097 211.933C428.839 211.933 427.582 211.933 426.324 211.933C427.713 209.558 429.389 207.463 431.355 205.645Z" fill="#EEC7AD"/>
<path opacity="0.039" fill-rule="evenodd" clip-rule="evenodd" d="M210.015 209.418C210.015 211.095 209.176 211.934 207.5 211.934C207.919 210.676 208.758 209.837 210.015 209.418Z" fill="#F4D2C2"/>
<path opacity="0.012" fill-rule="evenodd" clip-rule="evenodd" d="M235.168 209.418C238.003 210.203 240.099 211.88 241.456 214.449C238.57 213.649 236.475 211.973 235.168 209.418Z" fill="#DEC0B2"/>
<path opacity="0.016" fill-rule="evenodd" clip-rule="evenodd" d="M420.039 209.418C421.297 209.837 422.136 210.676 422.554 211.934C420.878 211.934 420.039 211.095 420.039 209.418Z" fill="#E9C7AE"/>
<path opacity="0.02" fill-rule="evenodd" clip-rule="evenodd" d="M207.5 211.933C207.5 213.61 206.661 214.448 204.984 214.448C205.403 213.191 206.242 212.352 207.5 211.933Z" fill="#F8D8C8"/>
<path opacity="0.267" fill-rule="evenodd" clip-rule="evenodd" d="M241.457 214.449C243.377 214.357 244.635 215.196 245.23 216.964C243.309 217.056 242.052 216.217 241.457 214.449Z" fill="#D6B9AB"/>
<path opacity="0.012" fill-rule="evenodd" clip-rule="evenodd" d="M204.987 214.448C203.623 217.073 201.528 218.75 198.699 219.479C200.064 216.854 202.159 215.178 204.987 214.448Z" fill="#F1D0C2"/>
<path opacity="0.169" fill-rule="evenodd" clip-rule="evenodd" d="M247.746 218.221C250.662 218.84 253.178 220.098 255.292 221.994C252.036 222.043 249.521 220.786 247.746 218.221Z" fill="#DDC1B3"/>
<path opacity="0.01" fill-rule="evenodd" clip-rule="evenodd" d="M398.656 219.479C402.01 220.737 402.01 221.994 398.656 223.252C398.656 221.994 398.656 220.737 398.656 219.479Z" fill="#F6D0B7"/>
<path opacity="0.075" fill-rule="evenodd" clip-rule="evenodd" d="M324.461 216.964C319.79 220.976 314.341 223.701 308.112 225.138C297.146 228.183 286.246 228.812 275.414 227.025C292.646 227.851 308.995 224.497 324.461 216.964Z" fill="#EBCEBE"/>
<path opacity="0.047" fill-rule="evenodd" clip-rule="evenodd" d="M198.698 219.479C197.334 222.104 195.239 223.78 192.41 224.51C193.775 221.885 195.87 220.209 198.698 219.479Z" fill="#E3C6B9"/>
<path opacity="0.166" fill-rule="evenodd" clip-rule="evenodd" d="M398.656 223.252C395.188 224.909 391.206 225.748 386.709 225.767C382.494 225.765 378.512 225.346 374.762 224.51C382.839 224.876 390.804 224.457 398.656 223.252Z" fill="#F6D2BC"/>
<path opacity="0.016" fill-rule="evenodd" clip-rule="evenodd" d="M495.495 223.252C493.257 225.571 490.323 226.409 486.691 225.767C489.331 224.369 492.266 223.53 495.495 223.252Z" fill="#D3AC92"/>
<path opacity="0.01" fill-rule="evenodd" clip-rule="evenodd" d="M255.289 221.995C260.989 223.198 266.438 224.874 271.638 227.025C268.373 227.987 265.019 228.407 261.577 228.283C261.853 226.805 261.434 225.547 260.32 224.51C258.4 223.888 256.724 223.05 255.289 221.995Z" fill="#ECCDBF"/>
<path opacity="0.043" fill-rule="evenodd" clip-rule="evenodd" d="M445.191 225.767C459.025 225.767 472.859 225.767 486.693 225.767C477.488 227.014 468.056 227.852 458.396 228.282C453.611 228.529 449.209 227.691 445.191 225.767Z" fill="#DDB9A2"/>
<path opacity="0.251" fill-rule="evenodd" clip-rule="evenodd" d="M261.579 228.282C261.579 228.701 261.579 229.121 261.579 229.54C254.415 229.473 247.29 229.892 240.199 230.798C241.594 229.804 243.27 229.175 245.23 228.911C250.664 228.284 256.113 228.074 261.579 228.282Z" fill="#E6C7BA"/>
<path opacity="0.447" fill-rule="evenodd" clip-rule="evenodd" d="M374.763 239.601C369.757 236.474 364.306 234.377 358.414 233.313C353.291 231.485 347.842 230.646 342.065 230.798C331.689 231.37 321.208 231.37 310.625 230.798C328.604 227.103 346.63 227.732 364.702 232.684C368.797 234.088 372.15 236.393 374.763 239.601Z" fill="#D5BAAC"/>
<path opacity="0.012" fill-rule="evenodd" clip-rule="evenodd" d="M191.151 225.767C188.966 228.345 186.451 230.651 183.605 232.684C182.413 233.292 181.155 233.5 179.832 233.313C182.945 229.866 186.717 227.351 191.151 225.767Z" fill="#E6C8BE"/>
<path opacity="0.02" fill-rule="evenodd" clip-rule="evenodd" d="M309.367 232.055C308.377 234.072 306.701 234.911 304.336 234.57C304.612 236.048 304.193 237.306 303.079 238.343C301.162 235.378 298.647 233.073 295.533 231.426C288.887 230.112 282.599 230.741 276.669 233.313C276.561 232.06 276.981 231.013 277.927 230.169C287.891 228.701 297.113 229.749 305.594 233.313C306.747 232.524 308.005 232.104 309.367 232.055Z" fill="#DFC1B2"/>
<path opacity="0.161" fill-rule="evenodd" clip-rule="evenodd" d="M264.094 229.54C267.647 229.013 270.37 230.271 272.268 233.313C272.687 232.894 273.107 232.474 273.526 232.055C273.945 233.313 274.365 234.57 274.783 235.828C275.133 234.676 275.762 233.839 276.67 233.313C276.67 234.989 276.67 236.667 276.67 238.343C275.347 238.531 274.089 238.322 272.897 237.715C270.884 233.807 267.948 231.083 264.094 229.54Z" fill="#DEC3B5"/>
<path opacity="0.02" fill-rule="evenodd" clip-rule="evenodd" d="M179.834 233.313C175.54 237.136 170.51 239.651 164.742 240.859C169.373 237.704 174.403 235.189 179.834 233.313Z" fill="#E4C6BC"/>
<path fill-rule="evenodd" clip-rule="evenodd" d="M354.641 233.313C355.898 233.313 357.156 233.313 358.413 233.313C364.305 234.377 369.756 236.473 374.762 239.601C376.871 242.166 378.968 244.681 381.05 247.146C382.011 250.313 383.269 253.247 384.823 255.95C385.245 265.162 383.568 273.965 379.793 282.359C377.224 283.716 375.547 285.813 374.762 288.648C373.086 289.905 371.408 291.163 369.732 292.42C369.137 290.652 367.88 289.813 365.959 289.905C378.54 282.19 383.781 270.871 381.679 255.95C377.022 243.112 368.009 235.566 354.641 233.313Z" fill="#1D1F21"/>
<path opacity="0.173" fill-rule="evenodd" clip-rule="evenodd" d="M240.201 230.798C238.062 235.662 234.497 239.016 229.511 240.859C228.411 244.507 226.943 247.861 225.109 250.919C225.333 247.504 225.962 244.15 226.996 240.859C231.683 237.606 236.085 234.252 240.201 230.798Z" fill="#DDC2B6"/>
<path opacity="0.206" fill-rule="evenodd" clip-rule="evenodd" d="M374.762 239.601C378.613 240.567 380.708 243.082 381.05 247.147C378.967 244.682 376.871 242.166 374.762 239.601Z" fill="#EDCCBB"/>
<path opacity="0.757" fill-rule="evenodd" clip-rule="evenodd" d="M45.2695 245.889C50.7238 245.994 55.7542 247.252 60.3609 249.662C54.9531 249.386 49.9227 248.128 45.2695 245.889Z" fill="#BCA0A4"/>
<path opacity="0.325" fill-rule="evenodd" clip-rule="evenodd" d="M164.741 240.859C153.514 246.922 141.357 250.486 128.27 251.548C112.999 253.543 97.9076 253.753 82.9961 252.177C111.038 253.628 138.286 249.856 164.741 240.859Z" fill="#D5B8B5"/>
<path opacity="0.757" fill-rule="evenodd" clip-rule="evenodd" d="M60.3594 249.662C68.1717 249.691 75.7173 250.53 82.9964 252.177C75.1665 252.318 67.6208 251.48 60.3594 249.662Z" fill="#B19699"/>
<path opacity="0.169" fill-rule="evenodd" clip-rule="evenodd" d="M381.051 247.147C382.623 247.243 383.67 248.082 384.195 249.662C384.816 251.717 385.025 253.813 384.824 255.95C383.269 253.247 382.012 250.313 381.051 247.147Z" fill="#F4D3BE"/>
<path fill-rule="evenodd" clip-rule="evenodd" d="M354.641 233.313C368.01 235.567 377.023 243.112 381.68 255.95C383.781 270.872 378.541 282.19 365.96 289.906C355.64 292.149 345.16 292.987 334.519 292.421C334.408 272.701 334.197 252.998 333.891 233.313C340.726 232.081 347.643 232.081 354.641 233.313Z" fill="#0A9ED4"/>
<path opacity="0.997" fill-rule="evenodd" clip-rule="evenodd" d="M352.128 252.177C365.178 253.255 368.742 259.543 362.817 271.041C358.706 275.788 354.933 275.788 351.499 271.041C350.52 264.648 350.73 258.36 352.128 252.177Z" fill="#0D0C0F"/>
<path opacity="0.996" fill-rule="evenodd" clip-rule="evenodd" d="M353.386 264.753C355.978 266.327 356.396 268.423 354.643 271.041C353.446 269.098 353.027 267.002 353.386 264.753Z" fill="#EDD3C1"/>
<path opacity="0.996" fill-rule="evenodd" clip-rule="evenodd" d="M261.578 229.54C262.417 229.54 263.255 229.54 264.094 229.54C267.948 231.083 270.883 233.807 272.897 237.715C274.089 238.322 275.347 238.531 276.67 238.343C276.67 236.667 276.67 234.989 276.67 233.313C282.599 230.741 288.887 230.112 295.534 231.426C298.648 233.073 301.163 235.378 303.08 238.343C304.194 237.306 304.613 236.048 304.337 234.571C306.701 234.911 308.378 234.073 309.368 232.055C309.368 231.216 309.786 230.798 310.625 230.798C321.208 231.37 331.689 231.37 342.066 230.798C347.842 230.646 353.291 231.484 358.414 233.313C357.157 233.313 355.899 233.313 354.642 233.313C347.643 232.08 340.726 232.08 333.891 233.313C334.198 252.998 334.408 272.701 334.52 292.421C345.161 292.987 355.64 292.149 365.96 289.905C367.881 289.814 369.138 290.652 369.733 292.421C365.05 296.439 359.6 299.164 353.384 300.595C344.66 302.215 335.857 302.844 326.974 302.482C325.563 294.24 323.887 294.24 321.944 302.482C318.302 304.085 314.529 304.085 310.625 302.482C309.368 300.385 307.691 298.709 305.595 297.451C305.204 296.221 304.365 295.382 303.08 294.936C300.968 296.953 298.453 297.792 295.534 297.451C295.534 299.128 295.534 300.805 295.534 302.482C290.268 303.943 284.819 303.943 279.185 302.482C277.15 301.286 275.474 299.609 274.154 297.451C273.335 300.354 271.658 302.45 269.124 303.739C264.094 303.739 259.063 303.739 254.033 303.739C253.775 299.353 252.726 295.161 250.889 291.163C251.56 297.41 248.835 299.925 242.714 298.709C242.714 300.805 242.714 302.9 242.714 304.997C239.36 306.673 236.007 306.673 232.653 304.997C228.064 303.011 223.663 300.496 219.448 297.451C218.822 293.701 218.612 289.928 218.82 286.133C218.82 285.714 218.82 285.294 218.82 284.875C221.015 275.904 222.693 266.682 223.85 257.208C223.493 254.799 223.912 252.704 225.108 250.919C226.941 247.861 228.409 244.507 229.509 240.859C234.496 239.016 238.06 235.662 240.199 230.798C247.289 229.892 254.415 229.473 261.578 229.54Z" fill="#131113"/>
<path fill-rule="evenodd" clip-rule="evenodd" d="M242.713 232.055C250.689 231.847 258.653 232.055 266.608 232.684C277.222 250.754 281.833 270.247 280.441 291.163C274.991 294.015 269.123 295.273 262.835 294.936C262.266 290.69 261.429 286.499 260.319 282.36C256.708 280.746 253.145 280.746 249.63 282.36C249.369 286.873 248.741 291.275 247.743 295.565C241.058 296.692 234.979 295.224 229.508 291.163C228.758 273.94 231.274 257.171 237.054 240.859C238.326 237.461 240.213 234.527 242.713 232.055Z" fill="#0B9BD1"/>
<path opacity="0.997" fill-rule="evenodd" clip-rule="evenodd" d="M251.515 250.919C255.068 250.392 257.792 251.65 259.69 254.692C260.529 258.884 260.529 263.077 259.69 267.268C249.045 272.574 244.853 269.221 247.114 257.207C247.99 254.587 249.458 252.49 251.515 250.919Z" fill="#0B0D10"/>
<path opacity="0.996" fill-rule="evenodd" clip-rule="evenodd" d="M249.001 260.98C251.121 261.84 252.378 263.517 252.774 266.011C251.801 267.534 250.753 267.534 249.63 266.011C249.014 264.384 248.804 262.707 249.001 260.98Z" fill="#BAC3C3"/>
<path fill-rule="evenodd" clip-rule="evenodd" d="M311.882 232.055C316.93 231.847 321.961 232.057 326.973 232.684C327.602 233.313 328.231 233.942 328.86 234.571C331.159 252.96 331.998 271.404 331.375 289.906C327.059 293.027 322.237 294.075 316.912 293.05C311.195 286.916 305.955 280.418 301.192 273.557C300.565 280.251 300.355 286.958 300.564 293.678C295.197 294.052 289.957 293.633 284.843 292.421C281.252 272.875 279.784 253.173 280.442 233.313C285.49 233.104 290.52 233.314 295.533 233.942C300.774 240.02 306.013 246.099 311.253 252.177C311.881 245.483 312.091 238.776 311.882 232.055Z" fill="#0B9BD1"/>
<path opacity="0.18" fill-rule="evenodd" clip-rule="evenodd" d="M223.851 257.207C222.694 266.682 221.016 275.904 218.82 284.875C219.219 276.004 220.267 267.2 221.964 258.465C222.446 257.766 223.075 257.347 223.851 257.207Z" fill="#E6CAC1"/>
<path opacity="0.525" fill-rule="evenodd" clip-rule="evenodd" d="M56.5885 268.526C42.17 271.22 27.9175 274.993 13.8297 279.845C13.792 278.591 14.4208 277.752 15.7161 277.329C28.9311 272.506 42.5548 269.571 56.5885 268.526Z" fill="#D5B8C1"/>
<path opacity="0.063" fill-rule="evenodd" clip-rule="evenodd" d="M384.823 255.95C386.28 262.913 386.071 270.04 384.195 277.329C383.671 279.907 382.204 281.585 379.793 282.36C383.568 273.965 385.245 265.162 384.823 255.95Z" fill="#F0D1C0"/>
<path opacity="0.02" fill-rule="evenodd" clip-rule="evenodd" d="M379.792 282.36C379.578 285.76 377.902 287.857 374.762 288.648C375.546 285.813 377.223 283.717 379.792 282.36Z" fill="#F1D3C3"/>
<path opacity="0.471" fill-rule="evenodd" clip-rule="evenodd" d="M13.8269 279.845C13.8269 283.618 13.8269 287.39 13.8269 291.163C3.76344 291.393 -0.428177 296.424 1.25074 306.255C1.04323 302.042 1.25325 297.85 1.87954 293.678C5.07765 291.66 8.43044 289.984 11.9404 288.648C12.1744 285.459 12.8032 282.525 13.8269 279.845Z" fill="#D4B8C8"/>
<path opacity="0.2" fill-rule="evenodd" clip-rule="evenodd" d="M476.629 297.451C476.097 293.996 474 292.32 470.341 292.42C463.945 294.273 457.656 296.369 451.477 298.708C458.568 293.48 466.534 291.175 475.371 291.791C476.478 293.497 476.898 295.383 476.629 297.451Z" fill="#EAC2B0"/>
<path opacity="0.984" fill-rule="evenodd" clip-rule="evenodd" d="M326.976 302.482C325.299 302.482 323.622 302.482 321.945 302.482C323.888 294.241 325.565 294.241 326.976 302.482Z" fill="#DDBEB2"/>
<path opacity="0.302" fill-rule="evenodd" clip-rule="evenodd" d="M218.821 286.133C218.613 289.928 218.823 293.701 219.449 297.451C223.664 300.496 228.065 303.011 232.654 304.997C226.537 304.349 221.297 301.834 216.934 297.451C216.532 293.402 217.161 289.629 218.821 286.133Z" fill="#DDC4BE"/>
<path opacity="0.012" fill-rule="evenodd" clip-rule="evenodd" d="M269.125 303.739C264.38 305.573 259.349 306.201 254.033 305.625C250.486 298.348 246.713 298.138 242.715 304.997C242.715 302.9 242.715 300.805 242.715 298.709C248.836 299.925 251.561 297.409 250.889 291.163C252.727 295.161 253.776 299.352 254.033 303.739C259.064 303.739 264.094 303.739 269.125 303.739Z" fill="#D3BBB5"/>
<path opacity="0.012" fill-rule="evenodd" clip-rule="evenodd" d="M305.596 297.451C304.688 297.976 304.059 298.814 303.71 299.966C302.004 298.859 300.118 298.439 298.05 298.708C298.321 300.82 297.482 302.078 295.535 302.481C295.535 300.805 295.535 299.127 295.535 297.451C298.454 297.792 300.969 296.953 303.081 294.936C304.366 295.382 305.205 296.221 305.596 297.451Z" fill="#E4C4BD"/>
<path opacity="0.01" fill-rule="evenodd" clip-rule="evenodd" d="M305.594 297.451C307.69 298.709 309.367 300.385 310.624 302.481C307.302 302.496 305.625 300.82 305.594 297.451Z" fill="#D9B8B0"/>
<path opacity="0.842" fill-rule="evenodd" clip-rule="evenodd" d="M378.537 301.224C383.405 300.828 388.017 301.247 392.371 302.482C383.105 302.251 373.882 302.67 364.703 303.739C364.703 303.32 364.703 302.9 364.703 302.482C369.254 301.546 373.865 301.127 378.537 301.224Z" fill="#7E6C65"/>
<path opacity="0.161" fill-rule="evenodd" clip-rule="evenodd" d="M378.535 301.224C396.036 299.033 412.805 301.967 428.84 310.027C431.135 308.579 433.65 307.741 436.385 307.512C434.478 309.629 432.172 311.306 429.468 312.542C417.774 306.737 405.408 303.383 392.369 302.481C388.015 301.246 383.403 300.827 378.535 301.224Z" fill="#DFC0B3"/>
<path opacity="0.318" fill-rule="evenodd" clip-rule="evenodd" d="M448.963 299.966C446.654 302.592 443.72 304.268 440.16 304.997C442.469 302.371 445.403 300.694 448.963 299.966Z" fill="#DBB4A6"/>
<path opacity="0.231" fill-rule="evenodd" clip-rule="evenodd" d="M554.602 301.224C556.966 300.883 558.642 301.722 559.632 303.739C557.553 303.538 555.877 302.7 554.602 301.224Z" fill="#F1BDA7"/>
<path opacity="0.012" fill-rule="evenodd" clip-rule="evenodd" d="M279.186 302.481C275.921 303.443 272.567 303.863 269.125 303.739C271.659 302.45 273.335 300.353 274.155 297.451C275.475 299.609 277.151 301.285 279.186 302.481Z" fill="#E9CABF"/>
<path opacity="0.027" fill-rule="evenodd" clip-rule="evenodd" d="M374.762 288.647C374.31 291 373.053 292.887 370.989 294.307C366.517 297.94 361.487 300.455 355.898 301.852C358.803 302.477 361.737 302.686 364.701 302.481C364.701 302.9 364.701 303.32 364.701 303.739C360.421 304.18 356.228 305.019 352.125 306.254C351.706 306.254 351.286 306.254 350.867 306.254C343.195 304.18 335.229 302.923 326.973 302.481C335.855 302.843 344.658 302.215 353.383 300.595C359.599 299.164 365.048 296.438 369.731 292.42C371.408 291.163 373.086 289.905 374.762 288.647Z" fill="#EED0C5"/>
<path fill-rule="evenodd" clip-rule="evenodd" d="M531.965 403.09C532.121 428.68 531.492 454.252 530.078 479.805C529.449 480.433 528.821 481.062 528.192 481.691C509.709 484.261 491.265 484.051 472.857 481.062C473.111 455.012 474.369 429.021 476.63 403.09C467.889 396.869 459.506 390.162 451.477 382.968C460.834 355.822 454.546 333.185 432.613 315.057C443.406 305.288 455.982 298.581 470.342 294.936C471.784 295.335 472.833 296.173 473.486 297.451C477.411 315.158 485.585 330.459 498.009 343.354C508.555 346.173 517.149 343.029 523.79 333.922C530.588 323.814 535.828 312.916 539.51 301.224C540.349 300.805 541.187 300.385 542.026 299.966C560.196 306.737 576.544 316.379 591.072 328.891C579.399 360.297 559.696 385.031 531.965 403.09Z" fill="#099CD2"/>
<path opacity="0.01" fill-rule="evenodd" clip-rule="evenodd" d="M280.442 307.512C273.502 308.92 266.376 310.178 259.062 311.285C263.142 310.34 266.076 308.664 267.866 306.254C271.995 307.294 276.186 307.713 280.442 307.512Z" fill="#D2B7AE"/>
<path opacity="0.063" fill-rule="evenodd" clip-rule="evenodd" d="M554.6 301.224C549.351 298.982 543.902 297.933 538.252 298.08C537.296 299.892 536.458 301.779 535.736 303.739C532.802 304.578 529.867 305.416 526.933 306.254C526.133 309.122 524.876 311.637 523.16 313.8C523.585 310.84 524.214 307.906 525.047 304.997C527.649 304.036 530.374 303.407 533.221 303.11C534.897 300.595 536.575 298.08 538.252 295.565C542.586 295.323 546.778 296.162 550.828 298.08C552.641 298.554 553.899 299.602 554.6 301.224Z" fill="#EBB6A0"/>
<path opacity="0.999" fill-rule="evenodd" clip-rule="evenodd" d="M448.962 381.711C442.078 394.892 432.437 405.792 420.037 414.409C432.004 427.002 442.274 440.835 450.848 455.91C451.687 457.168 451.687 458.426 450.848 459.683C442.664 468.5 433.232 475.627 422.552 481.063C413.755 469.532 405.162 457.793 396.771 445.849C394.653 443.522 392.348 441.425 389.854 439.561C388.74 440.599 388.321 441.857 388.597 443.334C388.807 455.082 389.225 466.819 389.854 478.547C374.632 480.871 359.541 479.614 344.58 474.775C350.084 470.629 355.323 466.018 360.3 460.941C361.139 458.426 361.139 455.91 360.3 453.395C353.013 438.78 343.999 425.365 333.262 413.152C350.305 400.865 358.689 384.096 358.414 362.847C358.795 343.91 351.459 328.819 336.406 317.573C335.768 315.692 336.397 314.224 338.292 313.171C368.311 300.213 398.075 300.632 427.583 314.429C451.436 331.289 458.561 353.716 448.962 381.711Z" fill="#099BD2"/>
<path fill-rule="evenodd" clip-rule="evenodd" d="M476.63 297.451C476.63 297.87 476.63 298.29 476.63 298.708C477.932 305.984 480.448 312.69 484.175 318.83C485.32 323.222 487.415 326.995 490.463 330.149C491.193 332.977 492.869 335.072 495.494 336.437C498.287 341.395 502.479 343.282 508.07 342.096C510.134 340.676 511.391 338.79 511.843 336.437C514.044 334.979 515.301 332.883 515.616 330.149C517.238 329.447 518.285 328.189 518.76 326.376C520.604 322.279 522.071 318.086 523.161 313.8C524.877 311.637 526.134 309.121 526.934 306.254C529.868 305.415 532.803 304.578 535.737 303.739C536.459 301.778 537.297 299.892 538.253 298.08C543.903 297.932 549.352 298.981 554.602 301.224C555.877 302.7 557.553 303.538 559.632 303.739C568.214 309.5 577.017 314.949 586.042 320.088C587.406 322.712 589.501 324.389 592.33 325.118C593.509 327.955 593.509 330.891 592.33 333.921C588.679 340.809 585.325 347.935 582.269 355.301C579.547 358.221 577.451 361.575 575.981 365.362C568.937 374.088 561.391 382.473 553.344 390.514C549.657 392.149 546.721 394.664 544.541 398.06C543.547 399.193 542.289 400.032 540.768 400.575C538.274 401.796 535.759 403.054 533.222 404.348C533.222 403.509 532.803 403.09 531.964 403.09C559.696 385.031 579.399 360.297 591.072 328.891C576.544 316.379 560.195 306.737 542.025 299.966C541.187 300.385 540.349 300.805 539.51 301.224C535.828 312.916 530.587 323.814 523.79 333.921C517.149 343.029 508.555 346.173 498.009 343.354C485.585 330.459 477.411 315.158 473.486 297.451C472.833 296.173 471.784 295.335 470.341 294.936C455.982 298.581 443.406 305.288 432.613 315.057C454.546 333.185 460.834 355.822 451.477 382.968C450.638 382.55 449.801 382.13 448.962 381.711C458.561 353.715 451.436 331.288 427.583 314.428C398.075 300.631 368.311 300.212 338.292 313.171C336.397 314.224 335.768 315.691 336.406 317.573C351.459 328.818 358.795 343.909 358.414 362.847C358.689 384.095 350.305 400.864 333.262 413.151C343.999 425.365 353.013 438.78 360.3 453.395C361.139 455.91 361.139 458.425 360.3 460.94C355.323 466.017 350.084 470.629 344.58 474.774C343.46 474.007 342.202 473.588 340.807 473.516C343.86 470.928 347.212 468.623 350.868 466.6C354.142 463.966 356.657 460.822 358.414 457.167C351.453 440.514 341.811 425.632 329.489 412.522C350.594 397.743 359.187 377.411 355.27 351.528C350.349 329.42 336.725 316.216 314.398 311.913C295.369 308.945 276.505 309.784 257.805 314.428C253.786 314.927 250.222 316.393 247.115 318.83C246.277 327.633 246.277 336.437 247.115 345.24C255.734 371.798 260.554 399.047 261.578 426.985C260.441 427.876 260.022 429.134 260.32 430.758C258.39 399.092 252.311 368.071 242.085 337.694C239.074 330.417 235.721 323.29 232.024 316.315C210.799 312.665 189.629 313.294 168.515 318.201C166.551 321.701 164.875 325.265 163.484 328.891C163.484 328.052 163.065 327.633 162.227 327.633C162.766 322.934 164.442 318.742 167.257 315.057C189.417 310.716 211.636 310.297 233.91 313.8C234.784 318.094 236.881 321.448 240.199 323.861C242.291 322.038 243.34 319.523 243.343 316.315C245.335 314.603 247.641 313.764 250.259 313.8C253.595 313.913 256.529 313.075 259.063 311.284C266.376 310.178 273.503 308.92 280.442 307.512C292.817 305.976 304.973 306.395 316.913 308.769C321.796 310.851 326.827 312.946 332.004 315.057C332.768 314.901 333.186 314.483 333.262 313.8C339.41 310.775 345.698 308.26 352.126 306.254C356.23 305.019 360.422 304.18 364.702 303.739C373.881 302.67 383.103 302.251 392.37 302.481C405.408 303.383 417.775 306.737 429.469 312.542C432.173 311.306 434.478 309.629 436.386 307.512C438.306 307.603 439.564 306.765 440.159 304.996C443.719 304.268 446.653 302.592 448.962 299.966C449.392 298.912 450.23 298.492 451.477 298.708C457.657 296.369 463.945 294.273 470.341 292.42C474.001 292.32 476.098 293.996 476.63 297.451Z" fill="#16171A"/>
<path opacity="0.643" fill-rule="evenodd" clip-rule="evenodd" d="M440.16 304.997C439.565 306.765 438.307 307.604 436.387 307.512C436.982 305.744 438.239 304.905 440.16 304.997Z" fill="#BE9D92"/>
<path opacity="0.09" fill-rule="evenodd" clip-rule="evenodd" d="M476.629 298.709C480.656 304.686 483.171 311.393 484.175 318.831C480.447 312.691 477.932 305.984 476.629 298.709Z" fill="#ECBFAD"/>
<path opacity="0.222" fill-rule="evenodd" clip-rule="evenodd" d="M233.911 313.8C211.636 310.298 189.418 310.716 167.258 315.058C169.851 313.453 172.786 312.404 176.061 311.914C191.947 310.042 207.877 309.624 223.85 310.656C227.651 310.779 231.005 311.828 233.911 313.8Z" fill="#E4CCC9"/>
<path opacity="0.012" fill-rule="evenodd" clip-rule="evenodd" d="M316.914 308.77C322.44 309.837 327.891 311.095 333.263 312.542C333.263 312.961 333.263 313.381 333.263 313.8C333.188 314.483 332.769 314.902 332.005 315.058C326.828 312.946 321.797 310.851 316.914 308.77Z" fill="#D6BEB5"/>
<path opacity="0.51" fill-rule="evenodd" clip-rule="evenodd" d="M350.868 306.254C351.287 306.254 351.707 306.254 352.126 306.254C345.698 308.26 339.41 310.775 333.262 313.8C333.262 313.381 333.262 312.961 333.262 312.542C338.295 308.544 344.164 306.449 350.868 306.254Z" fill="#8D7C75"/>
<path opacity="0.682" fill-rule="evenodd" clip-rule="evenodd" d="M259.065 311.285C256.531 313.076 253.597 313.913 250.262 313.8C252.796 312.009 255.73 311.172 259.065 311.285Z" fill="#94817A"/>
<path opacity="0.998" fill-rule="evenodd" clip-rule="evenodd" d="M340.809 473.517C335.846 475.998 330.815 478.513 325.718 481.063C320.226 472.001 314.987 462.779 309.998 453.395C306.274 447.369 301.873 441.919 296.793 437.046C295.732 450.862 295.732 464.696 296.793 478.547C284.209 478.756 271.633 478.547 259.065 477.919C255.354 477.798 251.999 476.75 249.004 474.775C252.764 473.101 256.537 471.424 260.322 469.744C261.579 455.515 261.997 441.263 261.58 426.985C260.556 399.047 255.736 371.799 247.117 345.24C246.279 336.437 246.279 327.634 247.117 318.831C250.224 316.393 253.788 314.927 257.807 314.429C276.507 309.785 295.371 308.946 314.4 311.914C336.727 316.216 350.351 329.421 355.272 351.529C359.189 377.411 350.596 397.743 329.491 412.523C341.813 425.632 351.455 440.515 358.416 457.168C356.659 460.823 354.144 463.967 350.87 466.6C347.215 468.624 343.862 470.929 340.809 473.517Z" fill="#099BD2"/>
<path opacity="0.031" fill-rule="evenodd" clip-rule="evenodd" d="M559.633 303.739C566.191 306.18 572.479 309.324 578.497 313.171C581.436 315.226 583.951 317.531 586.043 320.088C577.018 314.949 568.215 309.5 559.633 303.739Z" fill="#E4B099"/>
<path opacity="0.015" fill-rule="evenodd" clip-rule="evenodd" d="M233.91 313.8C235.944 314.477 238.04 314.896 240.198 315.058C241.514 318.053 241.514 320.987 240.198 323.861C236.881 321.449 234.784 318.095 233.91 313.8Z" fill="#E6CCC9"/>
<path opacity="0.998" fill-rule="evenodd" clip-rule="evenodd" d="M260.321 430.758C260.53 442.084 260.321 453.403 259.692 464.714C259.379 466.127 258.75 467.385 257.806 468.487C245.244 473.263 232.249 475.778 218.82 476.032C218.581 467.023 217.113 458.219 214.418 449.622C211.868 445.052 207.886 442.957 202.471 443.334C196.806 442.916 193.241 445.431 191.781 450.88C191.248 458.445 190.619 465.99 189.895 473.517C184.026 473.517 178.158 473.517 172.288 473.517C172.047 459.202 170.998 444.948 169.144 430.758C160.627 429.4 152.032 429.4 143.363 430.758C146.844 396.166 153.551 362.211 163.485 328.892C164.876 325.266 166.552 321.702 168.516 318.202C189.63 313.295 210.8 312.666 232.025 316.315C235.722 323.29 239.075 330.417 242.086 337.695C252.311 368.071 258.391 399.093 260.321 430.758Z" fill="#099BD2"/>
<path opacity="0.01" fill-rule="evenodd" clip-rule="evenodd" d="M484.176 318.83C487.183 321.893 489.279 325.666 490.464 330.149C487.415 326.995 485.32 323.222 484.176 318.83Z" fill="#EABBAB"/>
<path opacity="0.165" fill-rule="evenodd" clip-rule="evenodd" d="M167.256 315.058C164.441 318.742 162.765 322.934 162.225 327.634C159.71 327.634 157.195 327.634 154.68 327.634C156.932 326.513 159.237 325.256 161.597 323.861C162.429 320.952 163.058 318.018 163.483 315.058C164.741 315.058 165.998 315.058 167.256 315.058Z" fill="#D6C2C4"/>
<path opacity="0.01" fill-rule="evenodd" clip-rule="evenodd" d="M586.043 320.088C589.444 320.302 591.54 321.978 592.331 325.119C589.503 324.389 587.407 322.713 586.043 320.088Z" fill="#E5AC96"/>
<path opacity="0.063" fill-rule="evenodd" clip-rule="evenodd" d="M523.163 313.8C522.073 318.086 520.606 322.279 518.761 326.376C518.287 328.19 517.24 329.447 515.617 330.149C516.826 323.979 519.341 318.529 523.163 313.8Z" fill="#EAB4A4"/>
<path opacity="0.012" fill-rule="evenodd" clip-rule="evenodd" d="M592.332 325.119C594.535 325.016 595.793 326.063 596.105 328.263C595.038 330.358 593.781 332.244 592.332 333.922C593.512 330.891 593.512 327.956 592.332 325.119Z" fill="#EAAD95"/>
<path opacity="0.133" fill-rule="evenodd" clip-rule="evenodd" d="M515.618 330.149C515.303 332.883 514.046 334.979 511.845 336.437C511.542 333.25 512.799 331.155 515.618 330.149Z" fill="#EBB3A4"/>
<path opacity="0.224" fill-rule="evenodd" clip-rule="evenodd" d="M490.465 330.149C493.019 331.456 494.695 333.551 495.495 336.437C492.871 335.072 491.194 332.977 490.465 330.149Z" fill="#EDBBAB"/>
<path opacity="0.329" fill-rule="evenodd" clip-rule="evenodd" d="M495.496 336.437C498.077 337.959 500.801 339.216 503.671 340.21C506.828 339.782 509.554 338.525 511.845 336.437C511.394 338.79 510.136 340.676 508.072 342.096C502.481 343.282 498.289 341.396 495.496 336.437Z" fill="#E3AEA0"/>
<path opacity="0.094" fill-rule="evenodd" clip-rule="evenodd" d="M592.33 333.922C591.08 342.223 587.726 349.349 582.27 355.301C585.326 347.935 588.68 340.81 592.33 333.922Z" fill="#E8A894"/>
<path opacity="0.996" fill-rule="evenodd" clip-rule="evenodd" d="M386.081 349.013C391.66 348.648 397.11 349.277 402.43 350.899C412.437 359.487 412.437 368.291 402.43 377.309C396.386 381.462 390.727 381.252 385.452 376.68C384.732 370.611 384.103 364.533 383.566 358.445C383.318 354.893 384.156 351.749 386.081 349.013Z" fill="#0A090C"/>
<path opacity="0.996" fill-rule="evenodd" clip-rule="evenodd" d="M290.505 350.271C295.553 350.062 300.584 350.272 305.597 350.9C313.932 354.855 316.657 361.353 313.771 370.393C308.85 380.552 301.305 383.486 291.134 379.196C287.521 369.452 287.312 359.811 290.505 350.271Z" fill="#09070A"/>
<path opacity="0.01" fill-rule="evenodd" clip-rule="evenodd" d="M582.269 355.301C581.394 359.596 579.298 362.95 575.98 365.362C577.451 361.575 579.547 358.221 582.269 355.301Z" fill="#EEAD9B"/>
<path opacity="0.996" fill-rule="evenodd" clip-rule="evenodd" d="M389.856 361.59C387.648 362.913 386.809 365.009 387.341 367.878C386.133 365.658 385.713 363.143 386.084 360.332C387.707 360.034 388.965 360.453 389.856 361.59Z" fill="#FEE301"/>
<path opacity="0.996" fill-rule="evenodd" clip-rule="evenodd" d="M389.854 361.589C397.554 363.219 400.28 367.831 398.029 375.423C389.867 379.872 386.304 377.357 387.339 367.877C386.807 365.009 387.646 362.912 389.854 361.589Z" fill="#FFE401"/>
<path opacity="0.996" fill-rule="evenodd" clip-rule="evenodd" d="M290.503 364.104C302.205 363.414 305.559 368.235 300.564 378.567C297.389 379.693 294.663 379.065 292.39 376.68C291.078 372.584 290.449 368.393 290.503 364.104Z" fill="#FFE401"/>
<path opacity="0.996" fill-rule="evenodd" clip-rule="evenodd" d="M198.697 371.65C207.234 370.745 212.473 374.518 214.417 382.969C215.33 388.929 214.912 394.797 213.16 400.575C209.489 407.524 203.829 409.829 196.182 407.492C193.457 406.445 191.57 404.558 190.523 401.833C188.79 392.523 190.047 383.72 194.296 375.423C195.736 373.995 197.203 372.737 198.697 371.65Z" fill="#08070A"/>
<path opacity="0.047" fill-rule="evenodd" clip-rule="evenodd" d="M575.981 365.362C570.655 375.72 563.109 384.103 553.344 390.514C561.391 382.473 568.937 374.088 575.981 365.362Z" fill="#EDAA9F"/>
<path opacity="0.012" fill-rule="evenodd" clip-rule="evenodd" d="M553.346 390.514C553.454 391.767 553.034 392.814 552.089 393.658C549.693 395.445 547.178 396.913 544.543 398.06C546.724 394.664 549.659 392.149 553.346 390.514Z" fill="#EEA9A1"/>
<path opacity="0.506" fill-rule="evenodd" clip-rule="evenodd" d="M1.25164 308.77C1.0718 338.964 1.49184 369.146 2.50925 399.318C2.09047 399.318 1.67042 399.318 1.25164 399.318C-0.417213 369.012 -0.417213 338.829 1.25164 308.77Z" fill="#998D9C"/>
<path opacity="0.385" fill-rule="evenodd" clip-rule="evenodd" d="M540.768 400.575C539.05 402.802 537.164 404.899 535.109 406.863C535.308 432.885 534.259 458.457 531.965 483.578C533.133 457.193 533.553 430.783 533.222 404.348C535.759 403.054 538.274 401.796 540.768 400.575Z" fill="#C48A8B"/>
<path opacity="0.14" fill-rule="evenodd" clip-rule="evenodd" d="M99.3477 268.526C104.51 268.191 109.541 268.82 114.439 270.412C115.19 271.748 115.609 273.214 115.697 274.814C110.235 326.083 108.138 377.645 109.409 429.5C116.115 429.5 122.823 429.5 129.53 429.5C132.483 406.735 136.466 384.098 141.478 361.589C143.634 353.354 146.36 345.388 149.652 337.694C141.753 368.385 135.465 399.407 130.788 430.758C122.918 431.147 115.163 430.727 107.522 429.5C106.395 376.573 108.282 323.754 113.181 271.041C108.245 271.129 103.635 270.29 99.3477 268.526Z" fill="#CEBBC7"/>
<path opacity="0.996" fill-rule="evenodd" clip-rule="evenodd" d="M99.4538 267.205C103.741 268.97 108.351 269.809 113.288 269.721C108.388 322.433 106.502 375.253 107.628 428.18C115.27 429.407 123.024 429.827 130.894 429.437C135.571 398.086 141.859 367.065 149.758 336.374C151.184 332.958 152.861 329.606 154.789 326.313C157.304 326.313 159.819 326.313 162.334 326.313C163.173 326.313 163.592 326.732 163.592 327.571C153.658 360.89 146.951 394.845 143.47 429.437C152.139 428.079 160.734 428.079 169.251 429.437C171.105 443.627 172.154 457.881 172.395 472.196C178.265 472.196 184.133 472.196 190.002 472.196C190.726 464.669 191.355 457.124 191.888 449.559C193.348 444.11 196.912 441.595 202.578 442.013C207.993 441.636 211.975 443.731 214.525 448.302C217.22 456.899 218.688 465.702 218.927 474.711C232.356 474.457 245.351 471.942 257.913 467.166C258.857 466.064 259.486 464.806 259.799 463.393C260.428 452.082 260.637 440.763 260.428 429.437C260.13 427.814 260.549 426.556 261.686 425.665C262.103 439.942 261.685 454.195 260.428 468.423C256.643 470.104 252.87 471.78 249.11 473.454C252.105 475.429 255.459 476.477 259.171 476.598C271.739 477.227 284.315 477.435 296.899 477.227C295.837 463.375 295.837 449.542 296.899 435.725C301.978 440.599 306.38 446.048 310.104 452.074C315.093 461.459 320.332 470.681 325.824 479.742C330.921 477.193 335.952 474.677 340.915 472.196C342.31 472.268 343.568 472.687 344.688 473.454C359.649 478.293 374.74 479.551 389.962 477.227C391.219 465.459 390.8 453.722 388.705 442.013C388.429 440.536 388.848 439.278 389.962 438.241C392.456 440.104 394.761 442.201 396.879 444.529C405.27 456.472 413.863 468.211 422.66 479.742C433.34 474.306 442.772 467.18 450.956 458.362C451.795 457.105 451.795 455.847 450.956 454.59C442.382 439.515 432.112 425.681 420.145 413.088C432.545 404.471 442.186 393.572 449.07 380.391C449.909 380.809 450.746 381.229 451.585 381.648C459.614 388.842 467.997 395.549 476.737 401.77C474.476 427.701 473.219 453.692 472.965 479.742C491.372 482.731 509.816 482.941 528.3 480.371C528.928 479.742 529.557 479.113 530.186 478.484C531.6 452.932 532.228 427.36 532.072 401.77C532.911 401.77 533.33 402.189 533.33 403.028C533.661 429.463 533.241 455.872 532.072 482.257C528.669 482.351 525.315 482.77 522.011 483.515C522.011 486.449 522.011 489.384 522.011 492.318C507.792 493.43 493.539 493.848 479.253 493.576C473.634 492.728 467.974 491.47 462.275 489.803C461.055 464.803 461.684 439.86 464.161 414.975C463.951 413.088 463.743 411.202 463.533 409.316C460.21 406.715 457.905 403.361 454.1 401.77C451.959 398.384 447.767 397.127 444.04 395.482C437.52 401.793 430.813 407.871 423.918 413.717C428.36 419.2 432.971 424.441 437.751 429.437C438.59 429.437 439.009 429.856 439.009 430.695C439.794 433.53 441.47 435.626 444.04 436.983C445.096 439.942 446.774 442.457 449.07 444.529C450.124 444.959 450.544 445.796 450.328 447.044C452.315 451.017 453.572 455.21 454.1 459.62C450.746 462.135 447.812 465.069 445.297 468.423C440.175 469.79 438.08 473.144 439.009 478.484C436.615 478.784 434.937 480.041 433.979 482.257C427.167 486.537 420.041 490.31 412.599 493.576C408.811 488.497 405.038 483.467 401.281 478.484C400.619 476.309 399.362 474.631 397.508 473.454C397.275 471.321 396.226 469.644 394.364 468.423C393.738 472.174 393.528 475.946 393.735 479.742C392.896 479.742 392.477 480.161 392.477 480.999C389.543 480.999 386.608 480.999 383.674 480.999C383.674 483.933 383.674 486.869 383.674 489.803C373.791 491.377 363.73 491.377 353.491 489.803C346.93 488.126 340.224 486.45 333.37 484.772C327.646 488.911 321.358 490.798 314.505 490.432C309.844 482.154 305.022 473.979 300.043 465.908C299.624 470.1 299.204 474.293 298.785 478.484C295.791 479.66 292.647 480.079 289.353 479.742C289.353 482.676 289.353 485.611 289.353 488.545C286.838 488.545 284.323 488.545 281.808 488.545C265.281 489.327 248.932 488.07 232.761 484.772C223.966 487.22 215.163 487.64 206.351 486.03C207.222 475.916 205.546 466.274 201.32 457.105C198.56 455.509 195.836 455.509 193.146 457.105C192.865 463.078 192.237 468.947 191.26 474.711C188.744 474.711 186.229 474.711 183.714 474.711C184.051 478.005 183.632 481.149 182.456 484.143C179.129 484.769 175.775 484.979 172.395 484.772C172.603 488.985 172.393 493.177 171.767 497.348C168.387 498.874 164.825 499.713 161.077 499.864C161.414 503.157 160.995 506.301 159.819 509.296C141.622 511.263 123.596 513.149 105.742 514.955C90.2607 516.55 74.7506 516.55 59.2103 514.955C46.4178 513.042 33.3613 510.956 20.1626 509.515C17 509.5 14.5 508.5 12.617 507C7.15263 470.786 3.86024 434.724 2.61772 397.997C1.60031 367.826 1.18027 337.643 1.36011 307.449C1.36011 306.61 1.36011 305.773 1.36011 304.934C-0.318802 295.103 3.87282 290.073 13.9362 289.842C13.9362 286.07 13.9362 282.297 13.9362 278.524C28.024 273.672 42.2765 269.899 56.695 267.205C71.1249 265.598 85.3774 265.598 99.4538 267.205Z" fill="#0D0B0E"/>
<path opacity="0.278" fill-rule="evenodd" clip-rule="evenodd" d="M443.934 438.303C447.133 439.823 448.811 442.338 448.964 445.849C446.668 443.778 444.99 441.263 443.934 438.303Z" fill="#DDA5AA"/>
<path opacity="0.012" fill-rule="evenodd" clip-rule="evenodd" d="M438.902 432.015C441.457 433.322 443.133 435.417 443.933 438.303C441.363 436.946 439.687 434.85 438.902 432.015Z" fill="#DEA7AC"/>
<path opacity="0.01" fill-rule="evenodd" clip-rule="evenodd" d="M452.734 404.348C449.456 402.973 446.104 401.716 442.673 400.575C438.451 405.841 433.421 410.242 427.581 413.78C429.258 415.038 429.258 416.295 427.581 417.553C432.163 421.078 435.517 425.48 437.642 430.758C432.862 425.761 428.25 420.521 423.809 415.038C430.704 409.191 437.411 403.113 443.93 396.802C447.658 398.447 450.592 400.963 452.734 404.348Z" fill="#DDA9AA"/>
<path opacity="0.996" fill-rule="evenodd" clip-rule="evenodd" d="M192.412 385.484C197.537 385.357 200.681 387.873 201.845 393.03C202.471 397.201 202.681 401.393 202.473 405.606C194.418 405.508 190.645 401.316 191.155 393.03C191.371 390.454 191.79 387.939 192.412 385.484Z" fill="#FFE401"/>
<path opacity="0.176" fill-rule="evenodd" clip-rule="evenodd" d="M154.683 327.634C152.755 330.926 151.078 334.279 149.652 337.695C149.681 334.642 150.31 331.708 151.539 328.891C152.383 327.946 153.43 327.526 154.683 327.634Z" fill="#DEC7CA"/>
<path opacity="0.999" fill-rule="evenodd" clip-rule="evenodd" d="M56.5874 271.041C74.7246 270.397 92.75 271.235 110.665 273.556C106.115 325.855 104.228 378.256 105.005 430.758C105.634 431.387 106.263 432.016 106.892 432.644C127.318 432.749 147.65 432.959 167.886 433.273C169.562 454.631 169.981 476.011 169.144 497.411C132.663 502.02 95.9821 503.487 59.1026 501.813C47.3414 501.001 35.8141 499.114 24.5183 496.154C15.7464 433.145 12.3924 369.845 14.4574 306.254C14.8145 297.774 15.8621 289.39 17.6014 281.102C30.5938 277.088 43.5887 273.734 56.5874 271.041Z" fill="#099CD3"/>
<path opacity="0.036" fill-rule="evenodd" clip-rule="evenodd" d="M452.734 404.348C456.538 405.939 460.101 408.035 463.424 410.636C463.634 412.522 463.842 414.409 464.052 416.295C461.575 441.181 460.946 466.123 462.166 491.123C467.866 492.791 473.525 494.048 479.144 494.896C472.822 494.892 466.534 494.473 460.28 493.638C459.38 484.948 459.38 476.355 460.28 467.857C457.647 464.359 456.18 460.376 455.878 455.91C455.614 457.869 454.985 459.546 453.992 460.94C453.463 456.53 452.206 452.337 450.219 448.364C452.526 449.147 453.994 450.824 454.62 453.395C456.273 452.372 457.741 451.115 459.022 449.622C461.264 436.665 461.683 423.67 460.28 410.636C457.21 409.116 454.695 407.019 452.734 404.348Z" fill="#D59CA4"/>
<path opacity="0.012" fill-rule="evenodd" clip-rule="evenodd" d="M1.25403 399.318C1.67281 399.318 2.09286 399.318 2.51164 399.318C3.75416 436.045 7.10821 472.516 12.5725 508.73C11.3149 508.73 10.0573 508.73 8.7997 508.73C7.25284 482.196 4.94638 455.786 1.88283 429.501C1.25403 419.448 1.04526 409.388 1.25403 399.318Z" fill="#ADABC0"/>
<path opacity="0.027" fill-rule="evenodd" clip-rule="evenodd" d="M206.244 487.351C205.336 486.825 204.707 485.987 204.357 484.835C203.971 478.067 203.132 471.36 201.842 464.714C201.02 466.218 200.391 466.218 199.956 464.714C200.374 463.875 200.794 463.037 201.213 462.198C199.629 461.089 198.162 459.831 196.812 458.425C195.216 463.643 194.378 469.093 194.296 474.774C193.453 475.72 192.405 476.14 191.152 476.032C192.13 470.267 192.758 464.399 193.039 458.425C195.729 456.83 198.453 456.83 201.213 458.425C205.439 467.595 207.115 477.237 206.244 487.351Z" fill="#BCADC3"/>
<path opacity="0.996" fill-rule="evenodd" clip-rule="evenodd" d="M388.598 443.334C390.693 455.042 391.112 466.78 389.855 478.547C389.226 466.819 388.808 455.081 388.598 443.334Z" fill="#106F92"/>
<path opacity="0.063" fill-rule="evenodd" clip-rule="evenodd" d="M453.995 460.941C452.318 465.132 449.383 468.068 445.191 469.744C447.707 466.39 450.641 463.456 453.995 460.941Z" fill="#E9ACB6"/>
<path opacity="0.094" fill-rule="evenodd" clip-rule="evenodd" d="M397.401 474.774C395.479 476.412 394.222 478.508 393.628 481.062C393.421 477.267 393.631 473.494 394.257 469.744C396.119 470.965 397.168 472.641 397.401 474.774Z" fill="#E2B0BD"/>
<path opacity="0.102" fill-rule="evenodd" clip-rule="evenodd" d="M445.19 469.744C443.083 473.196 440.987 476.55 438.902 479.805C437.972 474.465 440.067 471.111 445.19 469.744Z" fill="#D9A2B0"/>
<path opacity="0.089" fill-rule="evenodd" clip-rule="evenodd" d="M353.383 491.123C346.802 490.932 340.304 490.093 333.89 488.608C329.561 490.668 325.16 492.555 320.685 494.267C318.144 494.443 315.837 494.654 313.768 494.896C311.591 490.124 309.076 485.512 306.223 481.062C301.669 481.384 296.847 481.804 291.76 482.32C291.76 485.254 291.76 488.189 291.76 491.123C288.406 491.123 285.053 491.123 281.699 491.123C281.699 490.705 281.699 490.285 281.699 489.866C284.214 489.866 286.73 489.866 289.245 489.866C289.245 486.932 289.245 483.997 289.245 481.062C292.539 481.4 295.683 480.981 298.677 479.805C299.096 475.613 299.516 471.42 299.935 467.229C304.913 475.3 309.735 483.475 314.397 491.752C321.25 492.118 327.538 490.232 333.261 486.093C340.115 487.771 346.822 489.447 353.383 491.123Z" fill="#C9AEC1"/>
<path opacity="0.01" fill-rule="evenodd" clip-rule="evenodd" d="M397.402 474.774C399.256 475.951 400.514 477.629 401.175 479.805C398.728 479.132 397.47 477.456 397.402 474.774Z" fill="#DBACBA"/>
<path opacity="0.094" fill-rule="evenodd" clip-rule="evenodd" d="M438.902 479.805C437.943 482.021 436.266 483.278 433.871 483.578C434.829 481.362 436.507 480.104 438.902 479.805Z" fill="#D6A6B0"/>
<path opacity="0.303" fill-rule="evenodd" clip-rule="evenodd" d="M392.37 482.32C390.43 483.154 388.334 483.993 386.082 484.835C385.418 487.144 384.58 489.241 383.566 491.123C383.566 488.189 383.566 485.254 383.566 482.32C386.5 482.32 389.436 482.32 392.37 482.32Z" fill="#DDB0C1"/>
<path opacity="0.102" fill-rule="evenodd" clip-rule="evenodd" d="M433.872 483.578C428.571 489.486 422.073 493.678 414.379 496.154C413.417 496.066 412.788 495.647 412.492 494.896C419.933 491.63 427.06 487.857 433.872 483.578Z" fill="#D7A3B1"/>
<path opacity="0.169" fill-rule="evenodd" clip-rule="evenodd" d="M281.7 489.866C281.7 490.285 281.7 490.705 281.7 491.123C265.488 492.025 249.139 491.187 232.653 488.608C224.28 489.866 215.895 490.495 207.501 490.495C206.555 489.651 206.135 488.603 206.243 487.351C215.055 488.96 223.859 488.54 232.653 486.093C248.825 489.39 265.174 490.648 281.7 489.866Z" fill="#B09FB0"/>
<path opacity="0.205" fill-rule="evenodd" clip-rule="evenodd" d="M531.964 483.578C529.43 485.368 526.496 486.206 523.161 486.093C523.161 489.027 523.161 491.962 523.161 494.896C508.304 496.477 493.631 496.477 479.145 494.896C493.431 495.169 507.684 494.75 521.903 493.639C521.903 490.705 521.903 487.769 521.903 484.835C525.207 484.091 528.561 483.672 531.964 483.578Z" fill="#DB9AA5"/>
<path opacity="0.012" fill-rule="evenodd" clip-rule="evenodd" d="M401.172 479.805C404.93 484.788 408.702 489.818 412.49 494.896C406.967 491.432 403.194 486.401 401.172 479.805Z" fill="#CC9EAC"/>
<path opacity="0.01" fill-rule="evenodd" clip-rule="evenodd" d="M191.15 476.032C185.592 477.633 183.495 481.406 184.862 487.351C181.408 486.957 178.054 487.376 174.801 488.608C175.347 492.35 174.718 496.123 172.915 499.927C169.536 501.452 165.973 502.291 162.225 502.442C164.079 505.997 163.659 509.141 160.968 511.874C142.642 514.783 124.198 516.251 105.633 516.276C123.487 514.47 141.512 512.583 159.71 510.617C160.886 507.622 161.305 504.478 160.968 501.184C164.715 501.034 168.278 500.195 171.657 498.669C172.284 494.498 172.494 490.306 172.286 486.093C175.665 486.299 179.02 486.089 182.347 485.464C183.523 482.47 183.942 479.326 183.605 476.032C186.12 476.032 188.635 476.032 191.15 476.032Z" fill="#BCB0C5"/>
<path opacity="0.114" fill-rule="evenodd" clip-rule="evenodd" d="M12.5703 508.73C15.4452 508.849 17.9604 509.688 20.116 511.245C17.1002 511.548 14.585 510.709 12.5703 508.73Z" fill="#C1C6DD"/>
<path opacity="0.09" fill-rule="evenodd" clip-rule="evenodd" d="M20.1172 511.245C33.3158 512.686 46.3107 514.363 59.1032 516.276C45.7259 516.237 32.7298 514.559 20.1172 511.245Z" fill="#B3B3C7"/>
</svg>
