<svg width="245" height="65" viewBox="0 0 245 65" fill="none" xmlns="http://www.w3.org/2000/svg">
<path d="M30.9827 17.8916C29.6182 19.5447 27.3091 20.778 25.4723 20.778C25.2624 20.778 25.0525 20.7518 24.9213 20.7255C24.895 20.6206 24.8426 20.3057 24.8426 19.9908C24.8426 17.8916 25.9184 15.7924 27.073 14.4804C28.5424 12.7486 31.0089 11.4628 33.0557 11.3841C33.1081 11.6203 33.1344 11.9089 33.1344 12.1976C33.1344 14.2968 32.2422 16.3697 30.9827 17.8916ZM32.4259 21.2241C33.5804 21.2241 37.7526 21.329 40.4815 25.265C40.2454 25.4487 36.0995 27.7841 36.0995 33.0058C36.0995 39.041 41.3737 41.1927 41.5311 41.2451C41.5049 41.3763 40.6915 44.1578 38.7497 47.0179C37.0179 49.5107 35.1811 52.0297 32.4259 52.0297C29.6445 52.0297 28.936 50.4029 25.761 50.4029C22.6384 50.4029 21.5363 52.0822 19.0173 52.0822C16.472 52.0822 14.714 49.7469 12.6935 46.913C10.3319 43.5542 8.44262 38.3587 8.44262 33.4256C8.44262 25.5274 13.5856 21.329 18.6499 21.329C21.3264 21.329 23.5568 23.0871 25.2624 23.0871C26.863 23.0871 29.3558 21.2241 32.4259 21.2241Z" fill="white"/>
<path d="M53.6708 51.7936V13.9294H76.657V18.1803H58.394V31.1953H75.1613V35.3936H58.394V51.7936H53.6708ZM83.9087 19.8859C82.3343 19.8859 81.0485 18.6001 81.0485 17.0257C81.0485 15.4251 82.3343 14.1656 83.9087 14.1656C85.5093 14.1656 86.7688 15.4251 86.7688 17.0257C86.7688 18.6001 85.5093 19.8859 83.9087 19.8859ZM81.6258 51.7936V24.5041H86.1916V51.7936H81.6258ZM101.263 52.3184C96.2509 52.3184 93.7844 50.0617 93.7844 44.84V28.2826H89.7959V24.5041H93.7844V17.1307H98.5076V24.5041H103.703V28.2826H98.5076V44.8138C98.5076 47.7264 99.7933 48.5398 102.234 48.5398C102.785 48.5398 103.309 48.4611 103.703 48.4349V52.1347C103.126 52.2134 102.155 52.3184 101.263 52.3184ZM108.593 51.7936V24.5041H113.159V28.3876H113.264C114.733 25.8423 117.515 23.9793 121.661 23.9793C127.643 23.9793 131.107 27.8628 131.107 34.0816V51.7936H126.541V34.8951C126.541 30.4605 124.468 28.0202 120.27 28.0202C115.967 28.0202 113.159 31.0903 113.159 35.7348V51.7936H108.593ZM148.146 52.3184C140.3 52.3184 135.577 46.8342 135.577 38.2538V38.2275C135.577 29.7783 140.405 23.9793 147.858 23.9793C155.31 23.9793 159.849 29.5159 159.849 37.7027V39.3821H140.195C140.3 44.9974 143.397 48.2774 148.251 48.2774C151.715 48.2774 154.155 46.5456 154.942 44.2102L155.021 43.9741H159.508L159.456 44.2365C158.563 48.7498 154.103 52.3184 148.146 52.3184ZM147.831 28.0202C143.869 28.0202 140.773 30.7229 140.274 35.8135H155.205C154.759 30.513 151.82 28.0202 147.831 28.0202ZM174.133 52.3184C167.704 52.3184 163.821 49.0384 163.27 44.1578L163.244 43.9216H167.809L167.862 44.184C168.413 46.913 170.433 48.5136 174.159 48.5136C177.859 48.5136 180.063 46.9654 180.063 44.4989V44.4726C180.063 42.5047 179.04 41.4026 175.944 40.6416L171.614 39.592C166.471 38.3587 163.978 35.9709 163.978 32.0349V32.0087C163.978 27.3117 168.098 23.9793 174.002 23.9793C179.985 23.9793 183.789 27.4692 184.131 32.0349L184.157 32.376H179.801L179.775 32.1924C179.407 29.5421 177.387 27.7841 174.002 27.7841C170.696 27.7841 168.649 29.3847 168.649 31.7988V31.825C168.649 33.688 169.882 34.9738 172.9 35.7085L177.229 36.7581C182.74 38.0963 184.734 40.2743 184.734 44.1578V44.184C184.734 48.9597 180.221 52.3184 174.133 52.3184ZM199.149 52.3184C192.721 52.3184 188.837 49.0384 188.286 44.1578L188.26 43.9216H192.825L192.878 44.184C193.429 46.913 195.449 48.5136 199.176 48.5136C202.875 48.5136 205.08 46.9654 205.08 44.4989V44.4726C205.08 42.5047 204.056 41.4026 200.96 40.6416L196.63 39.592C191.487 38.3587 188.994 35.9709 188.994 32.0349V32.0087C188.994 27.3117 193.114 23.9793 199.018 23.9793C205.001 23.9793 208.806 27.4692 209.147 32.0349L209.173 32.376H204.817L204.791 32.1924C204.424 29.5421 202.403 27.7841 199.018 27.7841C195.712 27.7841 193.665 29.3847 193.665 31.7988V31.825C193.665 33.688 194.898 34.9738 197.916 35.7085L202.246 36.7581C207.756 38.0963 209.75 40.2743 209.75 44.1578V44.184C209.75 48.9597 205.237 52.3184 199.149 52.3184ZM214.457 38.5424V34.2916H225.661V23.1134H229.912V34.2916H241.09V38.5424H229.912V49.7469H225.661V38.5424H214.457Z" fill="white"/>
</svg>
