<svg width="369" height="61" viewBox="0 0 369 61" fill="none" xmlns="http://www.w3.org/2000/svg">
<g clip-path="url(#clip0_256_337)">
<path d="M24.9288 0.0888444C22.7003 -0.0599151 19.7165 0.193897 16.9413 0.768333C9.86728 2.23291 4.46073 6.13605 2.38183 11.2793C1.66969 13.0431 1.27707 15.7061 1.4136 17.8512C1.77802 23.5815 4.30679 27.3292 9.81261 30.2987C12.6986 31.8553 14.0222 32.261 22.9391 34.3183C31.0303 36.1857 33.289 37.1022 35.4053 39.3796C36.7297 40.8048 37.0972 41.9477 36.9835 44.2956C36.7955 48.2289 34.2615 50.8186 29.2391 52.2112C27.9298 52.5742 27.2149 52.635 24.1663 52.6437C21.0127 52.6525 20.4473 52.6045 19.0835 52.2109C14.3272 50.8384 11.4139 47.8316 10.3277 43.1731L9.92195 41.4338H4.95707H-0.0078125L0.105153 42.2489C0.613294 45.9132 1.2561 48.1101 2.48761 50.3947C5.716 56.3796 11.5383 59.7807 20.4279 60.8726C21.8968 61.0532 25.8345 60.9742 27.8515 60.724C37.8331 59.4859 44.31 54.8614 46.468 47.4464C46.8484 46.1338 46.9032 45.5157 46.8993 42.5851C46.8952 39.4172 46.8654 39.1438 46.3643 37.7152C45.6477 35.6723 45.0393 34.6882 43.4711 33.0366C41.8454 31.3246 40.8211 30.5606 38.84 29.5809C36.8259 28.5851 36.1482 28.3777 27.145 26.0087C16.9304 23.3212 15.1968 22.6997 13.338 21.0639C11.2461 19.2224 10.7656 15.853 12.1918 13.0289C13.2659 10.9025 15.9482 9.21784 19.3521 8.52871C21.6209 8.06977 26.3455 8.21868 28.3913 8.81357C31.0557 9.58801 33.0382 10.9989 34.451 13.1267C35.153 14.184 36.0537 16.4717 36.0609 17.2155L36.0648 17.6471H40.9808H45.8968L45.7656 16.64C45.1781 12.1326 42.8134 7.60652 39.7476 5.1248C35.9739 2.06904 31.419 0.521024 24.9292 0.0879812L24.9288 0.0888444ZM303.889 14.7778C298.85 14.7778 294.527 16.1248 290.975 18.8017C286.803 21.9453 284.351 26.1764 283.142 32.3282C282.667 34.7423 282.669 40.9761 283.146 43.5499C284.157 49.0039 286.836 53.8019 290.406 56.5498C293.385 58.8431 296.517 60.1551 300.531 60.7939V60.7942C303.521 61.2694 308.376 60.822 311.369 59.7956C316.231 58.1282 319.855 54.9228 321.849 50.5262C322.401 49.3087 323.197 46.7511 323.438 45.4218L323.568 44.7024H318.958H314.349L314.232 45.2299C313.946 46.5245 313.325 48.1691 312.83 48.9431C310.845 52.0478 306.699 53.7296 302.375 53.1857C298.39 52.6838 295.183 50.0465 293.523 45.9075C292.822 44.1595 292.446 41.9569 292.337 38.9486C292.176 34.5477 292.686 31.4588 294.046 28.6088C295.42 25.7271 298.109 23.5245 301.105 22.8239C302.441 22.5118 305.266 22.512 306.764 22.8241C310.405 23.5833 312.986 26.1547 313.828 29.8622L314.083 30.9866L318.72 31.0378C324.107 31.0975 323.618 31.3983 322.879 28.4827C320.718 19.9614 313.535 14.7793 303.888 14.7793L303.889 14.7778ZM217.827 14.8064C214.256 14.8828 210.75 15.5096 208.195 16.6681C203.316 18.8793 200.14 23.3191 199.564 28.7314L199.478 29.5468H204.044H208.61L208.931 28.1053C209.311 26.3961 210.413 24.615 211.683 23.654C212.139 23.3096 213.131 22.833 213.889 22.5947C215.088 22.2176 215.666 22.163 218.336 22.1723C221.002 22.1818 221.564 22.2391 222.619 22.6107C225.954 23.7858 227.267 25.842 227.572 30.3623C227.669 31.7987 227.642 32.2326 227.458 32.2326C227.326 32.2326 225.478 32.4466 223.353 32.7083C218.308 33.3296 211.901 34.4132 209.609 35.0347C201.079 37.3438 197.202 42.0367 197.926 49.174C198.231 52.1837 199.46 54.7043 201.579 56.6638C204.033 58.934 206.922 60.2447 210.681 60.7942C212.29 61.0287 215.432 61.0377 216.899 60.8117C221.549 60.0955 224.645 58.6522 227.127 56.0424C227.741 55.3968 228.28 54.8685 228.326 54.8685C228.371 54.8685 228.408 55.2294 228.408 55.6707C228.408 56.1119 228.506 57.2345 228.625 58.1639L228.842 59.8558H233.229C235.641 59.8558 237.612 59.7911 237.609 59.7119C237.606 59.6328 237.466 58.7047 237.297 57.6503C237.049 56.0951 236.964 53.1213 236.85 41.9255C236.7 27.1935 236.699 27.1935 235.693 24.2729C234.426 20.5885 231.521 17.6219 227.851 16.2609C225.036 15.2175 221.4 14.7431 217.828 14.8194L217.827 14.8064ZM264.08 14.8896C261.259 14.8981 260.478 14.966 259.189 15.3153C255.966 16.1881 253.072 18.0286 251.203 20.3938L250.462 21.3319V18.4372V15.5426H245.858H241.254V37.6983V59.8539H245.849H250.444L250.511 46.0901C250.586 30.6531 250.533 31.2717 252.03 28.2361C253.988 24.2696 257.694 22.1922 262.252 22.5058C266.1 22.7702 268.297 24.4149 269.432 27.8793C270.168 30.1236 270.215 31.1983 270.216 45.7045L270.218 59.8511H274.83H279.441L279.38 43.4069C279.32 27.0492 279.317 26.9485 278.89 25.4235C277.394 20.0802 274.079 16.6806 269.034 15.3139C267.651 14.9392 266.983 14.8823 264.079 14.891L264.08 14.8896ZM150.324 15.002C148.632 14.9355 146.92 15.0131 145.515 15.2481C136.9 16.6883 130.524 22.9134 128.61 31.7498C128.364 32.8858 128.2 34.5912 128.13 36.7377C127.962 41.9198 128.669 45.6604 130.575 49.6585C131.773 52.1733 132.818 53.6364 134.681 55.406C137.787 58.3567 141.197 59.9839 145.816 60.7205C150.282 61.4326 156.398 60.6566 159.819 58.9437C162.752 57.4748 165.651 54.5457 167.463 51.2194C168.151 49.9557 169.416 46.4632 169.248 46.2934C169.197 46.2428 167.175 46.1522 164.755 46.092L160.354 45.9824L159.648 47.4513C158.765 49.287 157.081 51.13 155.536 51.9529C153.768 52.8953 152.29 53.2075 149.557 53.2159C146.973 53.224 145.76 52.9718 143.906 52.042C140.493 50.3299 138.082 46.316 137.562 41.4835L137.434 40.2845H153.662H169.89V39.2571C169.89 37.3178 169.49 33.2809 169.124 31.5214C167.375 23.1166 162.42 17.5331 155.011 15.624C153.686 15.2817 152.015 15.0708 150.323 15.0043L150.324 15.002ZM71.8585 15.0216C65.291 14.7689 60.1031 16.7164 55.8029 21.0454C51.7141 25.1629 49.6266 30.8155 49.6223 37.7629C49.6166 50.7268 56.6402 59.4006 68.3251 60.868C69.6074 61.0287 73.0325 60.9837 74.6553 60.7849C77.7542 60.4051 80.3885 59.5718 82.5623 58.2844C84.7894 56.9646 87.4855 54.0087 89.0119 51.2148C89.7007 49.9536 90.9685 46.4585 90.7988 46.2887C90.7481 46.2381 88.7256 46.1475 86.3057 46.0873L81.9034 45.9777L81.197 47.4466C79.9 50.1427 77.5701 52.1281 74.8769 52.8287C72.2815 53.5048 68.8632 53.3871 66.6102 52.5446C62.5201 51.0138 59.7204 46.8704 59.1334 41.4783L59.0028 40.2793H75.2454H91.4881L91.3555 37.4724C91.123 32.5521 90.2425 28.6749 88.6292 25.4681C85.2828 18.8185 79.6576 15.3139 71.8542 15.0132L71.8585 15.0216ZM347.653 15.0891C344.201 15.0852 343.766 15.1242 341.995 15.5968C336.161 17.1535 331.488 20.9861 328.844 26.3811C326.939 30.2685 326.213 34.0939 326.426 39.1379C326.922 50.9466 333.166 58.7183 343.719 60.6462C347.199 61.2836 352.552 60.9253 355.904 59.8302C360.14 58.4463 363.741 55.2134 365.981 50.7809C366.806 49.148 367.736 46.485 367.546 46.2951C367.495 46.2441 365.476 46.1531 363.059 46.0931L358.665 45.9838L357.962 47.4642C355.887 51.8334 351.318 53.9483 345.71 53.1369C340.306 52.3552 336.457 47.7476 335.894 41.3886L335.797 40.2857H351.996H368.196V38.5521C368.196 30.7933 365.783 24.1725 361.45 20.0363C359.21 17.8984 356.62 16.4842 353.33 15.6052C351.566 15.1336 351.111 15.092 347.671 15.0881L347.653 15.0891ZM172.71 15.3509V25.1109V34.8695L177.17 38.2374C179.623 40.089 181.683 41.6111 181.749 41.6183C181.815 41.6257 181.915 39.7107 181.973 37.3642C182.09 32.6453 182.311 31.2498 183.253 29.2759C183.918 27.8824 185.232 26.5741 186.626 25.918C188.524 25.0261 189.663 24.8478 193.476 24.8472L197.073 24.8467L197.072 20.2069V15.5672L196.18 15.4334C194.608 15.1976 191.541 15.466 189.942 15.9794C186.915 16.9514 184.304 18.9071 182.658 21.4363L181.822 22.7205L181.77 19.036L181.718 15.3516H177.215H172.712L172.71 15.3509ZM130.542 15.5361L125.687 15.5875L120.831 15.6387L115.361 32.4568L109.891 49.275L109.766 49.1432L109.64 49.0111L104.264 32.3512L98.8876 15.6913L98.7277 15.5315L88.7332 15.6337L104.242 59.3696L104.329 59.6096L104.415 59.8493L114.881 59.8464L130.419 16.0818L130.482 15.8098L130.544 15.5374L130.542 15.5361ZM70.6932 22.4489C74.0482 22.4489 76.5256 23.3579 78.5369 25.3263C80.2604 27.0124 81.5768 30.1775 81.5883 32.6636L81.5917 33.3829H70.3628H59.1353L59.2629 32.3758C59.7521 28.5101 61.8295 25.4227 65.091 23.7135C66.8606 22.7857 68.3511 22.4497 70.6932 22.4497L70.6932 22.4489ZM149.13 22.4546C150.328 22.4521 151.525 22.5469 152.284 22.74C155.206 23.4841 157.548 25.3282 158.771 27.8473C159.432 29.2099 160.045 31.5922 160.045 32.7992V33.3829H148.824C138.841 33.3829 137.602 33.3502 137.602 33.087C137.602 32.1704 138.298 29.6413 138.892 28.3954C140.149 25.7627 142.945 23.5341 145.974 22.7529C146.734 22.5567 147.933 22.457 149.13 22.4546ZM347.524 22.461C348.697 22.4605 349.853 22.5537 350.587 22.7409C353.409 23.4615 355.962 25.4096 357.064 27.6856C357.719 29.039 358.349 31.4233 358.349 32.5498V33.3823H347.124H335.9L336.018 32.5672C336.245 30.999 336.706 29.4395 337.309 28.2037C338.522 25.7133 341.479 23.4244 344.364 22.7439C345.161 22.556 346.351 22.4615 347.523 22.4609L347.524 22.461ZM175.314 38.9195V49.3902V59.8609H179.918H184.521L184.514 52.8114L184.506 45.7619L180.646 42.8845C178.523 41.302 176.455 39.7626 176.05 39.4633L175.314 38.9191L175.314 38.9195ZM227.495 39.0184V41.7361C227.495 46.1514 226.75 48.3224 224.429 50.6703C223.041 52.0743 221.462 52.9448 219.422 53.4297C217.863 53.8004 214.693 53.9475 213.232 53.7168C210.871 53.3445 208.886 51.9444 207.936 49.982C207.255 48.574 207.27 46.3364 207.969 44.9869C208.938 43.1195 211.189 41.5701 213.623 41.0939C214.237 40.974 216.896 40.5721 219.535 40.2006C222.172 39.8291 225.042 39.411 225.913 39.2716L227.495 39.0179L227.495 39.0184Z" fill="white"/>
</g>
<defs>
<clipPath id="clip0_256_337">
<rect width="368.302" height="61" fill="white"/>
</clipPath>
</defs>
</svg>
