<svg width="103" height="112" viewBox="0 0 103 112" fill="none" xmlns="http://www.w3.org/2000/svg">
<path d="M78.2285 94.7773L42.791 94.7363C40.9043 94.7363 39.1953 94.5449 37.6641 94.1621C36.1328 93.8066 34.6973 93.2188 33.3574 92.3984C32.0176 91.5781 30.7188 90.4844 29.4609 89.1172L6.36914 64.6309C5.35742 63.5371 4.53711 62.5391 3.9082 61.6367C3.30664 60.707 2.86914 59.8184 2.5957 58.9707C2.32227 58.123 2.18555 57.2617 2.18555 56.3867C2.18555 55.5117 2.32227 54.6641 2.5957 53.8438C2.86914 52.9961 3.30664 52.1074 3.9082 51.1777C4.50977 50.248 5.33008 49.2363 6.36914 48.1426L29.4609 23.5332C30.6914 22.1934 31.9766 21.127 33.3164 20.334C34.6562 19.5137 36.0918 18.9395 37.623 18.6113C39.1816 18.2832 40.8906 18.1191 42.75 18.1191H78.2285C82.6582 18.1191 86.0078 19.2539 88.2773 21.5234C90.5742 23.7656 91.7227 27.0879 91.7227 31.4902V81.7754C91.7227 86.1777 90.5742 89.4453 88.2773 91.5781C86.0078 93.7109 82.6582 94.7773 78.2285 94.7773ZM40.6172 74.3516C41.7656 74.3516 42.7363 73.9551 43.5293 73.1621L54.5625 62.0469L65.6777 73.1621C66.498 73.9551 67.4551 74.3516 68.5488 74.3516C69.6426 74.3516 70.5586 73.9688 71.2969 73.2031C72.0625 72.4102 72.4453 71.4668 72.4453 70.373C72.4453 69.334 72.0625 68.4043 71.2969 67.584L60.1816 56.4688L71.3379 45.2715C72.1035 44.4785 72.4863 43.5625 72.4863 42.5234C72.4863 41.4297 72.1035 40.5137 71.3379 39.7754C70.5996 39.0098 69.6836 38.627 68.5898 38.627C67.5234 38.627 66.6074 39.0234 65.8418 39.8164L54.5625 50.9727L43.4062 39.8164C42.6953 39.0781 41.7656 38.709 40.6172 38.709C39.5234 38.709 38.5938 39.0781 37.8281 39.8164C37.0898 40.5547 36.7207 41.4844 36.7207 42.6055C36.7207 43.6445 37.1035 44.5469 37.8691 45.3125L49.0254 56.4688L37.8691 67.625C37.1035 68.3906 36.7207 69.3066 36.7207 70.373C36.7207 71.4668 37.0898 72.4102 37.8281 73.2031C38.5938 73.9688 39.5234 74.3516 40.6172 74.3516Z" fill="white" fill-opacity="0.501961"/>
</svg>
