<svg width="58" height="56" viewBox="0 0 58 56" fill="none" xmlns="http://www.w3.org/2000/svg">
<rect x="0.933594" y="0.709961" width="56.5386" height="54.5803" rx="27.2901" fill="white" fill-opacity="0.8"/>
<g clip-path="url(#clip0_2829_171)">
<path d="M9.46484 19.6487C9.46484 18.392 10.1869 17.7902 11.056 17.7902C11.4303 17.7902 11.8315 17.9106 12.2192 18.1246L26.2584 26.3074C27.2746 26.8957 27.6624 27.3369 27.6624 28.0055C27.6624 28.674 27.2746 29.1152 26.2584 29.7036L12.2192 37.8864C11.8315 38.1137 11.4303 38.2207 11.056 38.2207C10.1869 38.2207 9.46484 37.6324 9.46484 36.3755V19.6487ZM33.9066 17.8704H36.9417C38.1182 17.8704 38.72 18.4855 38.72 19.6621V36.3622C38.72 37.5923 38.1182 38.1538 36.9417 38.1538H33.9066C32.7299 38.1538 32.1149 37.5388 32.1149 36.3622V19.6621C32.1149 18.4855 32.7299 17.8704 33.9066 17.8704ZM43.6137 17.8704H46.6488C47.8255 17.8704 48.4405 18.4855 48.4405 19.6621V36.3622C48.4405 37.5923 47.8255 38.1538 46.6488 38.1538H43.6137C42.437 38.1538 41.8354 37.5388 41.8354 36.3622V19.6621C41.8354 18.4855 42.437 17.8704 43.6137 17.8704Z" fill="#1E1E1E" fill-opacity="0.85"/>
</g>
<defs>
<clipPath id="clip0_2829_171">
<rect width="39.4703" height="20.4438" fill="white" transform="matrix(1 0 0 -1 9.46875 38.2217)"/>
</clipPath>
</defs>
</svg>
