<svg width="1203" height="229" viewBox="0 0 1203 229" fill="none" xmlns="http://www.w3.org/2000/svg">
<g clip-path="url(#clip0_3420_4528)">
<path d="M60.5481 13.8242H0V224.846H60.5481V13.8242Z" fill="#F5F6FF"/>
<path d="M198.964 72.719V164.234H170.159V194.324H140.057V224.846H60.5469V194.324L144.343 119.341L60.5469 44.3462V13.8242H138.34V42.6294H168.862V72.719H198.964Z" fill="url(#paint0_linear_3420_4528)"/>
<path d="M325.493 77.1596C324.806 69.5926 321.767 63.7044 316.362 59.4695C310.97 55.2473 303.276 53.1235 293.305 53.1235C283.335 53.1235 275.984 54.9929 271.024 58.7446C266.077 62.4963 263.559 67.2526 263.495 73.0264C263.292 79.2834 266.001 84.1796 271.647 87.7278C277.281 91.276 284.886 94.0738 294.437 96.1341L312.585 100.255C333.416 104.858 349.389 112.387 360.492 122.841C371.594 133.295 377.19 146.941 377.253 163.791C377.19 183.872 369.763 199.553 354.972 210.821C340.182 222.101 319.63 227.735 293.292 227.735C266.954 227.735 245.525 221.732 229.603 209.74C213.681 197.734 205.554 179.396 205.211 154.711H254.097C254.644 164.885 258.396 172.579 265.339 177.768C272.283 182.957 281.389 185.551 292.669 185.551C302.92 185.551 310.932 183.529 316.705 179.459C322.479 175.402 325.404 170.137 325.468 163.677C325.404 157.763 322.644 153.032 317.214 149.497C311.784 145.961 303.25 142.845 291.639 140.162L269.562 134.999C251.337 130.802 236.954 124.011 226.398 114.625C215.843 105.24 210.603 92.535 210.667 76.511C210.603 63.3738 214.1 51.8899 221.184 42.0592C228.268 32.2286 238.048 24.5727 250.523 19.1169C262.999 13.6483 277.294 10.9141 293.381 10.9141C309.469 10.9141 323.967 13.6865 336.036 19.2186C348.105 24.7507 357.478 32.4957 364.142 42.428C370.806 52.3604 374.214 63.9334 374.354 77.1341H325.468L325.493 77.1596Z" fill="#F5F6FF"/>
<path d="M458.465 186.392C457.359 186.659 455.718 186.965 453.582 187.372C451.407 187.728 449.359 187.944 447.414 187.944C443.369 187.944 440.228 186.965 438.003 185.108C435.739 183.2 434.632 179.919 434.632 175.252V103.754H463.221V66.6444H434.632V28.6953H384.208V180.797C384.08 196.821 388.913 208.801 398.807 216.698C408.663 224.596 422.513 228.144 440.304 227.305C446.434 226.999 451.661 226.287 455.972 225.308C460.322 224.291 463.692 223.489 466.096 222.777L458.465 186.38V186.392Z" fill="#F5F6FF"/>
<path d="M573.776 156.678V66.625H624.112V225.047H576.052V195.555H574.399C570.889 205.246 564.925 212.94 556.506 218.612C548.087 224.284 537.925 227.12 526.022 227.12C515.161 227.12 505.648 224.64 497.509 219.693C489.357 214.746 483.011 207.802 478.484 198.862C473.944 189.921 471.642 179.506 471.578 167.602V66.625H522.016V157.695C522.079 166.292 524.356 173.071 528.82 178.018C533.283 182.965 539.375 185.445 547.082 185.445C554.789 185.445 560.906 182.952 566.057 177.967C571.22 172.982 573.789 165.885 573.789 156.665L573.776 156.678Z" fill="#F5F6FF"/>
<path d="M696.613 227.326C684.99 227.326 674.383 224.286 664.794 218.195C655.205 212.103 647.549 203.048 641.852 191.017C636.142 178.986 633.293 163.954 633.293 145.946C633.293 127.938 636.243 111.991 642.157 99.998C648.071 88.0054 655.841 79.0905 665.468 73.2786C675.095 67.4667 685.409 64.5671 696.41 64.5671C708.924 64.5671 718.78 67.6066 725.965 73.6982C733.138 79.7899 738.212 86.4666 741.176 93.7665H742.206V13.8242H792.643V225.062H742.727V199.385H741.188C738.022 206.673 732.795 213.158 725.508 218.83C718.22 224.502 708.593 227.338 696.626 227.338L696.613 227.326ZM714.151 188.029C723.371 188.029 730.531 184.213 735.656 176.583C740.781 168.952 743.338 158.702 743.338 145.845C743.338 132.987 740.781 122.712 735.656 115.208C730.531 107.718 723.358 103.966 714.151 103.966C704.943 103.966 697.618 107.768 692.595 115.361C687.571 122.953 685.066 133.114 685.066 145.845C685.066 158.575 687.571 168.863 692.595 176.532C697.618 184.201 704.803 188.029 714.151 188.029Z" fill="#F5F6FF"/>
<path d="M828.022 48.1739C820.938 48.1739 814.859 45.8212 809.759 41.103C804.672 36.3975 802.129 30.7001 802.129 24.0361C802.129 17.3721 804.672 11.7001 809.759 7.02006C814.846 2.34002 820.938 0 828.022 0C835.105 0 841.273 2.34002 846.335 7.02006C851.384 11.7001 853.915 17.3721 853.915 24.0361C853.915 30.7001 851.384 36.3975 846.335 41.103C841.286 45.8085 835.182 48.1739 828.022 48.1739ZM802.752 225.062V66.627H853.19V225.049H802.752V225.062Z" fill="#F5F6FF"/>
<path d="M941.681 228.055C925.11 228.055 910.841 224.634 898.874 217.792C886.906 210.95 877.712 201.386 871.277 189.114C864.854 176.841 861.637 162.585 861.637 146.358C861.637 130.13 864.854 115.772 871.277 103.5C877.699 91.2272 886.906 81.6636 898.874 74.8216C910.841 67.9796 925.11 64.5586 941.681 64.5586C958.252 64.5586 972.61 67.9796 984.539 74.8216C996.468 81.6636 1005.65 91.2272 1012.08 103.5C1018.51 115.772 1021.72 130.054 1021.72 146.358C1021.72 162.661 1018.51 176.841 1012.08 189.114C1005.65 201.386 996.468 210.95 984.539 217.792C972.61 224.634 958.328 228.055 941.681 228.055ZM941.986 189.991C951.003 189.991 957.972 185.935 962.932 177.821C967.879 169.707 970.359 159.113 970.359 146.052C970.359 132.992 967.879 122.283 962.932 114.131C957.985 105.98 951.003 101.91 941.986 101.91C932.969 101.91 925.466 105.98 920.481 114.131C915.495 122.283 913.003 132.915 913.003 146.052C913.003 159.19 915.495 169.707 920.481 177.821C925.466 185.935 932.639 189.991 941.986 189.991Z" fill="#F5F6FF"/>
<path d="M1168.5 115.009L1122.18 116.243C1121.49 111.219 1118.99 107.111 1114.65 103.919C1110.33 100.727 1104.82 99.1248 1098.14 99.1248C1092.29 99.1248 1087.33 100.282 1083.24 102.584C1079.14 104.886 1077.14 108.065 1077.21 112.122C1077.15 115.149 1078.39 117.82 1080.98 120.109C1083.56 122.411 1088.17 124.255 1094.85 125.628L1125.39 131.402C1156.53 137.379 1172.21 151.686 1172.41 174.311C1172.35 185.171 1169.13 194.633 1162.77 202.671C1156.42 210.721 1147.73 216.953 1136.73 221.391C1125.73 225.829 1113.14 228.042 1098.97 228.042C1076.35 228.042 1058.5 223.388 1045.44 214.066C1032.38 204.756 1024.96 192.255 1023.16 176.574L1072.98 175.341C1074.07 181.115 1076.93 185.515 1081.54 188.542C1086.14 191.568 1092.01 193.082 1099.17 193.082C1105.64 193.082 1110.9 191.874 1114.96 189.47C1119.01 187.066 1121.07 183.862 1121.14 179.881C1120.93 173.217 1114.5 168.639 1101.86 166.159L1074.21 160.894C1042.65 155.044 1026.98 139.745 1027.18 114.996C1027.12 99.1121 1033.4 86.7379 1046.05 77.8611C1058.71 68.997 1075.76 64.5586 1097.22 64.5586C1118.67 64.5586 1135.58 69.0479 1147.96 78.0137C1160.33 86.9923 1167.18 99.3156 1168.49 114.984L1168.5 115.009Z" fill="#F5F6FF"/>
<path d="M1141.83 20.3899V14.6289H1166.66V20.3899H1157.75V44.0064H1150.75V20.3899H1141.82H1141.83Z" fill="#F5F6FF"/>
<path d="M1170.14 14.6289H1178.93L1186.39 32.8149H1186.74L1194.2 14.6289H1202.99V44.0064H1196.07V25.9602H1195.83L1188.77 43.8156H1184.36L1177.3 25.8585H1177.06V44.0064H1170.14V14.6289Z" fill="#F5F6FF"/>
</g>
<defs>
<linearGradient id="paint0_linear_3420_4528" x1="58.9445" y1="119.341" x2="199.422" y2="119.341" gradientUnits="userSpaceOnUse">
<stop stop-color="#F5F6FF" stop-opacity="0"/>
<stop offset="1" stop-color="#F5F6FF"/>
</linearGradient>
<clipPath id="clip0_3420_4528">
<rect width="1203" height="228.05" fill="white"/>
</clipPath>
</defs>
</svg>
