<svg width="621" height="621" viewBox="0 0 621 621" fill="none" xmlns="http://www.w3.org/2000/svg">
<path d="M494.473 47.353C505.07 45.1716 515 53.2661 515 64.0854L515 166.979C515 166.98 515 166.98 514.999 166.98V166.98C514.998 166.98 514.998 166.98 514.998 166.981L514.998 431.769C514.998 483.515 490.809 504.299 465.878 512.358C456.326 516.8 445.426 519.319 433.854 519.319C396.115 519.319 365.521 492.549 365.521 459.528C365.521 458.133 365.576 456.748 365.683 455.377C365.687 455.326 365.652 455.281 365.602 455.272V455.272C365.555 455.264 365.52 455.223 365.521 455.175C365.587 421.047 406.127 393.331 446.666 391.197C487.238 389.061 485.103 365.572 485.103 352.759L485.103 188.854C485.103 180.739 477.655 174.669 469.707 176.305L264.706 218.511C258.751 219.737 254.478 224.98 254.478 231.06L254.478 485.162C254.477 536.931 230.266 557.71 205.323 565.761C195.779 570.194 184.891 572.706 173.333 572.707C135.594 572.707 105 545.937 105 512.916C105 511.522 105.056 510.139 105.163 508.77C105.167 508.719 105.132 508.674 105.082 508.665V508.665C105.035 508.657 105 508.615 105 508.568C105.066 474.44 145.605 446.723 186.145 444.589C226.717 442.454 224.582 418.964 224.582 406.152L224.582 211.834C224.582 211.833 224.583 211.832 224.584 211.832V211.832C224.586 211.832 224.587 211.83 224.587 211.829L224.587 123.805C224.587 111.645 233.133 101.159 245.044 98.7065L494.473 47.353Z" fill="black" fill-opacity="0.6"/>
</svg>
