<svg width="51" height="50" viewBox="0 0 51 50" fill="none" xmlns="http://www.w3.org/2000/svg">
<path d="M24.9878 49.9757C38.6577 49.9757 49.9757 38.6331 49.9757 24.9878C49.9757 11.318 38.6331 0 24.9633 0C11.318 0 0 11.318 0 24.9878C0 38.6331 11.3425 49.9757 24.9878 49.9757ZM24.9878 45.8109C13.4248 45.8109 4.18913 36.5508 4.18913 24.9878C4.18913 13.4248 13.4003 4.16464 24.9633 4.16464C36.5262 4.16464 45.8109 13.4248 45.8109 24.9878C45.8109 36.5508 36.5508 45.8109 24.9878 45.8109Z" fill="#1E1E1E" fill-opacity="0.85"/>
<path d="M24.9644 16.708C21.4857 16.708 16.5371 16.12 14.1608 15.7526C13.9404 15.7281 13.7444 15.6546 13.4994 15.6546C12.887 15.6546 12.25 16.169 12.25 17.051C12.25 17.7124 12.6665 18.2759 13.2789 18.4473C14.0873 18.6923 19.6484 19.3293 20.3588 19.4518C21.0447 19.5987 21.4612 20.1867 21.4857 21.0196C21.5102 22.2935 21.4857 26.3601 21.1672 28.222C20.8732 30.0593 18.7419 38.903 18.6439 39.2951C18.3745 40.2504 18.9624 41.0835 19.9178 41.0835C20.6038 41.0835 21.0692 40.716 21.3387 39.785C21.7552 37.9967 23.2985 31.8722 23.7885 30.4022C24.0825 29.3245 24.3519 28.957 24.9644 28.957C25.5522 28.957 25.8219 29.3245 26.1648 30.4022C26.5812 31.8722 28.1737 37.9967 28.5901 39.785C28.8349 40.716 29.3251 41.0835 30.011 41.0835C30.9665 41.0835 31.5299 40.2504 31.2602 39.2951C31.1867 38.903 29.0311 30.0593 28.7371 28.222C28.4677 26.3601 28.4677 22.2935 28.4677 21.0196C28.4677 20.1867 28.8595 19.5987 29.57 19.4518C30.2558 19.3293 35.8414 18.6923 36.6253 18.4473C37.2623 18.2759 37.6787 17.7124 37.6787 17.051C37.6787 16.169 37.0174 15.6546 36.4048 15.6546C36.1843 15.6546 35.9638 15.7281 35.7433 15.7526C33.3915 16.12 28.4677 16.708 24.9644 16.708ZM24.9644 15.0911C26.7282 15.0911 28.1491 13.6457 28.1491 11.9064C28.1491 10.1426 26.7282 8.72168 24.9644 8.72168C23.2006 8.72168 21.7797 10.1426 21.7797 11.9064C21.7797 13.6457 23.2006 15.0911 24.9644 15.0911Z" fill="#1E1E1E" fill-opacity="0.85"/>
</svg>
