<svg width="30" height="34" viewBox="0 0 30 34" fill="none" xmlns="http://www.w3.org/2000/svg">
<path d="M28.1164 21.7501C28.8345 21.7501 29.4089 21.1757 29.4089 20.4736V12.8619C29.4089 12.1598 28.8345 11.5693 28.1164 11.5693C27.3823 11.5693 26.8398 12.1598 26.8398 12.8619V20.4736C26.8398 21.1757 27.3823 21.7501 28.1164 21.7501Z" fill="#1E1E1E" fill-opacity="0.85"/>
<path d="M22.7535 29.7923C23.4715 29.7923 24.03 29.2179 24.03 28.5157V4.81893C24.03 4.11679 23.4715 3.52637 22.7535 3.52637C22.0034 3.52637 21.4609 4.11679 21.4609 4.81893V28.5157C21.4609 29.2179 22.0034 29.7923 22.7535 29.7923Z" fill="#1E1E1E" fill-opacity="0.85"/>
<path d="M17.3782 24.957C18.1122 24.957 18.6707 24.3985 18.6707 23.6805V9.65387C18.6707 8.93579 18.1122 8.36133 17.3782 8.36133C16.644 8.36133 16.1016 8.93579 16.1016 9.65387V23.6805C16.1016 24.3985 16.644 24.957 17.3782 24.957Z" fill="#1E1E1E" fill-opacity="0.85"/>
<path d="M11.9989 33.3351C12.733 33.3351 13.3074 32.7605 13.3074 32.0425V1.29255C13.3074 0.574466 12.733 0 11.9989 0C11.2808 0 10.7383 0.574466 10.7383 1.29255V32.0425C10.7383 32.7605 11.2808 33.3351 11.9989 33.3351Z" fill="#1E1E1E" fill-opacity="0.85"/>
<path d="M6.63988 26.9043C7.37392 26.9043 7.93243 26.3299 7.93243 25.6118V7.72355C7.93243 7.00547 7.37392 6.41504 6.63988 6.41504C5.9218 6.41504 5.36328 7.00547 5.36328 7.72355V25.6118C5.36328 26.3299 5.9218 26.9043 6.63988 26.9043Z" fill="#1E1E1E" fill-opacity="0.85"/>
<path d="M1.26064 20.3776C2.01064 20.3776 2.56915 19.803 2.56915 19.085V14.2499C2.56915 13.5318 2.01064 12.9414 1.26064 12.9414C0.542552 12.9414 0 13.5318 0 14.2499V19.085C0 19.803 0.542552 20.3776 1.26064 20.3776Z" fill="#1E1E1E" fill-opacity="0.85"/>
</svg>
