<svg width="53" height="50" viewBox="0 0 53 50" fill="none" xmlns="http://www.w3.org/2000/svg">
<path d="M36.8856 15.3541V20.57C39.3321 20.9306 40.6277 22.6046 40.6277 25.5911V40.4089C40.6277 43.8069 38.9502 45.5273 35.8103 45.5273H23.3171C23.3301 45.0585 23.274 44.555 23.1432 44.0219L20.7774 34.3225C20.6699 33.785 20.6914 33.1183 20.6914 32.2579L21.5947 32.6237C24.3473 33.6775 26.9282 32.3011 27.6164 29.8923C28.2832 27.7202 27.2292 25.3546 24.799 24.3653L19.7451 22.2791C20.0173 21.7204 20.2131 21.1235 20.3114 20.4941H33.4662V14.8809C33.4662 9.46134 29.982 6.57948 25.9605 6.57948C21.9388 6.57948 18.4547 9.46134 18.4547 14.8809V14.8908C17.5843 14.0275 16.467 13.4129 15.2109 13.1607C16.0674 6.55123 20.8644 3.33203 25.9605 3.33203C31.5952 3.33203 36.8856 7.26769 36.8856 15.3541Z" fill="#1E1E1E" fill-opacity="0.85"/>
<path d="M13.919 23.0542C15.9191 23.0542 17.4675 21.4841 17.4675 19.5271C17.4675 17.57 15.9191 15.9785 13.919 15.9785C11.9834 15.9785 10.3704 17.57 10.3704 19.5271C10.3704 21.4841 11.9834 23.0542 13.919 23.0542ZM13.8975 35.6997C14.3706 35.6997 14.7577 35.9794 14.8868 36.517L17.317 45.8292C17.8546 47.8938 20.6935 47.1626 20.4139 45.2055C20.2633 44.4314 18.1987 36.5601 17.8976 34.7966C17.6826 33.5061 17.7901 30.2157 17.7901 28.7318C17.7901 28.3231 18.1557 28.0436 18.5858 28.2372L22.6936 29.8931C23.8119 30.3447 24.5862 29.8072 24.8011 29.0758C25.0376 28.3447 24.7152 27.4845 23.6828 27.0757L19.274 25.2476C18.2203 24.8175 17.317 24.6026 16.2847 24.452C15.5535 24.7962 14.7577 25.0111 13.8975 25.0111C13.0372 25.0111 12.263 24.7962 11.5318 24.452C10.4995 24.6026 9.57472 24.8175 8.54242 25.2476L4.11212 27.0757C3.10131 27.4845 2.77873 28.3447 3.01529 29.0758C3.20885 29.8072 4.00458 30.3447 5.12291 29.8931L9.23062 28.2372C9.66074 28.0436 10.0263 28.3231 10.0263 28.7318C10.0263 30.2157 10.1339 33.5061 9.91882 34.7966C9.61773 36.5601 7.55313 44.4314 7.40258 45.2055C7.10149 47.1626 9.96183 47.8938 10.4995 45.8292L12.9082 36.517C13.0587 35.9794 13.4243 35.6997 13.8975 35.6997Z" fill="#1E1E1E" fill-opacity="0.85"/>
</svg>
