<svg width="50" height="50" viewBox="0 0 50 50" fill="none" xmlns="http://www.w3.org/2000/svg">
<rect width="50" height="50" rx="25" fill="#7B7B7B" fill-opacity="0.2"/>
<path d="M25.2407 39.2704C31.1583 39.2704 35.8972 35.5958 37.837 31.2106C37.96 30.8922 37.9844 30.5982 37.9844 30.4756C37.9844 29.9613 37.567 29.6181 37.1742 29.6181C36.9776 29.6181 36.7566 29.6916 36.4129 29.7897C35.3325 30.0837 33.8102 30.4266 32.1895 30.4266C24.995 30.4266 20.4279 25.919 20.4279 18.9617C20.4279 17.2468 20.8207 15.483 21.4592 13.8416C21.5574 13.6456 21.6065 13.4497 21.6065 13.2782C21.6065 12.7882 21.2382 12.4697 20.7471 12.4697C20.5015 12.4697 20.2314 12.5187 20.035 12.6167C14.9276 14.7235 11.3672 19.6966 11.3672 25.4536C11.3672 33.0724 17.5795 39.2704 25.2407 39.2704Z" fill="#1E1E1E" fill-opacity="0.85"/>
</svg>
