<svg width="51" height="50" viewBox="0 0 51 50" fill="none" xmlns="http://www.w3.org/2000/svg">
<g clip-path="url(#clip0_2315_2615)">
<path d="M25.0457 49.9757C38.8701 49.9757 50.0915 38.7801 50.0915 24.9878C50.0915 11.1955 38.8701 0 25.0457 0C11.2215 0 0 11.1955 0 24.9878C0 38.7801 11.2215 49.9757 25.0457 49.9757ZM25.0457 45.8109C13.505 45.8109 4.1743 36.5018 4.1743 24.9878C4.1743 13.4738 13.505 4.16464 25.0457 4.16464C36.5865 4.16464 45.9171 13.4738 45.9171 24.9878C45.9171 36.5018 36.5865 45.8109 25.0457 45.8109Z" fill="#1E1E1E" fill-opacity="0.85"/>
<path d="M25.2407 39.2704C31.1583 39.2704 35.8972 35.5958 37.837 31.2106C37.96 30.8922 37.9844 30.5982 37.9844 30.4756C37.9844 29.9613 37.567 29.6181 37.1742 29.6181C36.9776 29.6181 36.7566 29.6916 36.4129 29.7897C35.3325 30.0837 33.8102 30.4266 32.1895 30.4266C24.995 30.4266 20.4279 25.919 20.4279 18.9617C20.4279 17.2468 20.8207 15.483 21.4592 13.8416C21.5574 13.6456 21.6065 13.4497 21.6065 13.2782C21.6065 12.7882 21.2382 12.4697 20.7471 12.4697C20.5015 12.4697 20.2314 12.5187 20.035 12.6167C14.9276 14.7235 11.3672 19.6966 11.3672 25.4536C11.3672 33.0724 17.5795 39.2704 25.2407 39.2704Z" fill="#1E1E1E" fill-opacity="0.85"/>
</g>
<defs>
<clipPath id="clip0_2315_2615">
<rect width="51" height="50" fill="white"/>
</clipPath>
</defs>
</svg>
