<svg width="45" height="24" viewBox="0 0 45 24" fill="none" xmlns="http://www.w3.org/2000/svg">
<path d="M5.14416 24.0093C5.77022 24.0093 6.28939 23.8108 6.90017 23.4443L22.46 14.2825C23.5442 13.6411 24.0175 12.8929 24.0175 12.0073C24.0175 11.1369 23.5442 10.3887 22.46 9.74734L6.90017 0.585489C6.27411 0.219014 5.77022 0.0205078 5.14416 0.0205078C3.95311 0.0205078 2.94531 0.936694 2.94531 2.63163V21.3982C2.94531 23.0931 3.95311 24.0093 5.14416 24.0093ZM26.1248 24.0093C26.7509 24.0093 27.27 23.8108 27.8808 23.4443L43.456 14.2825C44.5249 13.6411 44.9982 12.8929 44.9982 12.0073C44.9982 11.1369 44.5249 10.3887 43.456 9.74734L27.8808 0.585489C27.27 0.219014 26.7509 0.0205078 26.1248 0.0205078C24.9338 0.0205078 23.9259 0.936694 23.9259 2.63163V21.3982C23.9259 23.0931 24.9338 24.0093 26.1248 24.0093Z" fill="#1E1E1E" fill-opacity="0.85"/>
</svg>
