<svg width="50" height="50" viewBox="0 0 50 50" fill="none" xmlns="http://www.w3.org/2000/svg">
<g clip-path="url(#clip0_2315_2398)">
<path d="M5.29038 49.5791H14.3596C17.8202 49.5791 19.65 48.1894 19.65 45.531V3.62751C19.65 0.848048 17.8202 -0.390625 14.3596 -0.390625H5.29038C1.82975 -0.390625 0 0.968892 0 3.62751V45.531C0 48.1894 1.82975 49.5791 5.29038 49.5791ZM34.2084 49.5791H43.2377C46.7382 49.5791 48.5284 48.1894 48.5284 45.531V3.62751C48.5284 0.848048 46.7382 -0.390625 43.2377 -0.390625H34.2084C30.708 -0.390625 28.8782 0.968892 28.8782 3.62751V45.531C28.8782 48.1894 30.708 49.5791 34.2084 49.5791Z" fill="#1E1E1E" fill-opacity="0.85"/>
</g>
<defs>
<clipPath id="clip0_2315_2398">
<rect width="50" height="50" fill="white"/>
</clipPath>
</defs>
</svg>
