<svg width="127" height="130" viewBox="0 0 127 130" fill="none" xmlns="http://www.w3.org/2000/svg">
<path d="M62.3882 126.444C96.0184 126.444 123.862 98.5394 123.862 64.9694C123.862 46.4672 115.425 30.4357 103.853 19.8887C98.5494 15.0672 91.7391 22.2392 96.9824 27.2415C107.228 36.5831 113.557 49.9628 113.617 64.9694C113.677 93.4165 90.835 116.198 62.3882 116.198C33.9413 116.198 11.22 93.4165 11.22 64.9694C11.2803 49.8422 17.6085 36.5229 27.7939 27.1812C33.0976 22.1186 26.2269 15.0069 20.9233 19.8284C9.29141 30.3755 0.914062 46.4672 0.914062 64.9694C0.914062 98.5394 28.8185 126.444 62.3882 126.444ZM62.3882 64.3671C65.2812 64.3671 67.2702 62.2577 67.2702 59.2442V5.12284C67.2702 2.04914 65.2812 0 62.3882 0C59.4953 0 57.5667 2.04914 57.5667 5.12284V59.2442C57.5667 62.2577 59.4953 64.3671 62.3882 64.3671Z" fill="#1E1E1E" fill-opacity="0.85"/>
</svg>
