<svg width="214" height="204" viewBox="0 0 214 204" fill="none" xmlns="http://www.w3.org/2000/svg">
<g clip-path="url(#clip0_2315_2528)">
<path d="M149.736 62.3927V83.5662C159.667 85.03 164.926 91.8254 164.926 103.949V164.1C164.926 177.894 158.117 184.877 145.37 184.877H94.6561C94.7088 182.974 94.4809 180.93 93.9498 178.766L84.3464 139.393C83.9099 137.211 83.9971 134.505 83.9971 131.012L87.6639 132.497C98.8381 136.774 109.315 131.187 112.108 121.409C114.815 112.591 110.537 102.988 100.672 98.9727L80.1559 90.5041C81.2608 88.236 82.0558 85.813 82.4545 83.2579H135.855V60.472C135.855 38.472 121.711 26.7734 105.386 26.7734C89.0607 26.7734 74.9178 38.472 74.9178 60.472V60.5121C71.3845 57.0079 66.8487 54.5127 61.75 53.4892C65.2268 26.6587 84.6995 13.5908 105.386 13.5908C128.26 13.5908 149.736 29.5671 149.736 62.3927Z" fill="#1E1E1E" fill-opacity="0.85"/>
<path d="M56.4957 93.6469C64.6147 93.6469 70.9005 87.2734 70.9005 79.3289C70.9005 71.3845 64.6147 64.9241 56.4957 64.9241C48.6385 64.9241 42.0908 71.3845 42.0908 79.3289C42.0908 87.2734 48.6385 93.6469 56.4957 93.6469ZM56.4084 144.98C58.329 144.98 59.9004 146.115 60.4242 148.297L70.2894 186.099C72.4719 194.48 83.9958 191.512 82.8609 183.567C82.2498 180.425 73.8688 148.472 72.6465 141.314C71.7736 136.075 72.21 122.718 72.21 116.694C72.21 115.035 73.6942 113.901 75.4402 114.687L92.1149 121.408C96.6545 123.242 99.7977 121.06 100.67 118.091C101.63 115.123 100.322 111.631 96.1307 109.972L78.2339 102.551C73.9561 100.805 70.2894 99.9324 66.0989 99.3209C63.1306 100.718 59.9004 101.591 56.4084 101.591C52.9163 101.591 49.7734 100.718 46.8052 99.3209C42.6147 99.9324 38.8607 100.805 34.6702 102.551L16.686 109.972C12.5827 111.631 11.2732 115.123 12.2335 118.091C13.0192 121.06 16.2494 123.242 20.7891 121.408L37.4639 114.687C39.2099 113.901 40.694 115.035 40.694 116.694C40.694 122.718 41.1305 136.075 40.2575 141.314C39.0353 148.472 30.6543 180.425 30.0432 183.567C28.8209 191.512 40.4321 194.48 42.6147 186.099L52.3925 148.297C53.0036 146.115 54.4877 144.98 56.4084 144.98Z" fill="#1E1E1E" fill-opacity="0.85"/>
</g>
<defs>
<clipPath id="clip0_2315_2528">
<rect width="214" height="202.969" fill="white" transform="translate(0 0.0625)"/>
</clipPath>
</defs>
</svg>
