<svg width="50" height="50" viewBox="0 0 50 50" fill="none" xmlns="http://www.w3.org/2000/svg">
<path d="M0 20.4075C0 31.6597 9.07246 40.8149 20.223 40.8149C24.6325 40.8149 28.6618 39.383 31.9817 36.979L44.45 49.5865C45.0329 50.175 45.7932 50.4562 46.6041 50.4562C48.3272 50.4562 49.5184 49.1518 49.5184 47.4384C49.5184 46.6201 49.2142 45.8785 48.6822 45.3416L36.2899 32.7595C38.9 29.3327 40.4459 25.0618 40.4459 20.4075C40.4459 9.15524 31.3734 0 20.223 0C9.07246 0 0 9.15524 0 20.4075ZM4.33349 20.4075C4.33349 11.5591 11.4546 4.37303 20.223 4.37303C28.9914 4.37303 36.1124 11.5591 36.1124 20.4075C36.1124 29.2559 28.9914 36.4419 20.223 36.4419C11.4546 36.4419 4.33349 29.2559 4.33349 20.4075Z" fill="#1E1E1E" fill-opacity="0.85"/>
</svg>
